<svg width="15" height="15" viewBox="0 0 15 15" fill="none" xmlns="http://www.w3.org/2000/svg">
<circle cx="7.5" cy="7.5" r="7.5" fill="#AC5344"/>
<path d="M12.001 5.15423C11.9788 4.86552 11.7789 4.69525 11.4902 4.68785C11.3792 4.68785 11.2681 4.68785 11.1349 4.68785C11.1349 4.3029 11.1349 3.94016 11.1349 3.58482C11.1349 3.17027 10.972 3 10.5649 3C8.5291 3 6.49332 3 4.45754 3C4.05778 3 3.88752 3.17027 3.88752 3.57002C3.88752 3.94016 3.88752 4.3029 3.88752 4.69525C3.77648 4.69525 3.68764 4.69525 3.5914 4.69525C3.21386 4.69525 3.02139 4.88772 3.00658 5.27267C3.00658 5.46515 2.99177 5.65762 3.00658 5.84269C3.01398 5.92412 3.09541 5.99075 3.13983 6.06477C3.18425 5.99075 3.27308 5.92412 3.28049 5.85009C3.30269 5.64281 3.28789 5.44294 3.28049 5.23566C3.28049 5.06539 3.36192 4.98396 3.51738 4.96916C3.62842 4.96175 3.73946 4.96916 3.87271 4.96916V5.30969C3.87271 7.01974 3.87271 8.7298 3.87271 10.4324C3.87271 10.7878 4.00596 10.9358 4.3539 10.9803C4.39091 10.9803 4.42052 10.9951 4.45013 10.9951C4.45754 11.0173 4.46494 11.0321 4.46494 11.0469C4.46494 11.2394 4.46494 11.4318 4.46494 11.6243C4.46494 11.876 4.57598 11.987 4.82768 11.9944C5.08678 11.9944 5.35328 12.0019 5.61238 11.9944C5.84927 11.987 5.96031 11.8686 5.96031 11.6317C5.96031 11.4244 5.96031 11.2097 5.96031 10.9951H9.01768C9.01768 11.2172 9.01768 11.4318 9.01768 11.6391C9.01768 11.8612 9.12873 11.987 9.35081 11.9944C9.62472 12.0019 9.90602 12.0019 10.1799 11.9944C10.402 11.987 10.5131 11.8686 10.5131 11.6391C10.5131 11.4244 10.5131 11.2172 10.5131 11.0099C11.0535 10.8914 11.1053 10.8174 11.1053 10.277C11.1053 8.91487 11.1053 7.55275 11.1053 6.19062V4.96916C11.2015 4.96916 11.2681 4.95435 11.3348 4.95435C11.6309 4.95435 11.6975 5.01357 11.6975 5.30969C11.6975 5.50216 11.6901 5.69463 11.7049 5.8797C11.7049 5.93893 11.7937 5.99075 11.8456 6.04997C11.89 5.99815 11.9714 5.94633 11.9714 5.88711C11.9862 5.64281 11.9862 5.39112 11.9714 5.14682L12.001 5.15423ZM5.70121 11.7131C5.4125 11.7131 5.13119 11.7131 4.84989 11.7131C4.81287 11.7131 4.75365 11.6391 4.75365 11.5947C4.74625 11.4022 4.75365 11.2172 4.75365 11.0099H5.70862V11.7205L5.70121 11.7131ZM10.254 11.7131C9.96525 11.7131 9.67654 11.7131 9.38783 11.7131C9.35822 11.7131 9.3064 11.6243 9.3064 11.5799C9.29899 11.3948 9.3064 11.2097 9.3064 11.0099C9.36562 11.0099 9.40263 10.9951 9.43224 10.9951C9.69875 10.9951 9.97265 10.9951 10.254 10.9951V11.7205V11.7131ZM10.8684 9.81801C10.8684 10.0031 10.8684 10.1882 10.8684 10.3732C10.8684 10.6545 10.824 10.699 10.5501 10.699C8.64754 10.699 6.75242 10.699 4.84989 10.699C4.69443 10.699 4.53897 10.699 4.38351 10.699C4.23545 10.699 4.15402 10.6249 4.15402 10.4843C4.15402 9.98088 4.15402 9.47748 4.15402 8.95188H10.8684V9.81801ZM4.16142 8.64096V4.53979H10.861V8.63356H4.16142V8.64096ZM10.8684 4.24368H4.15402C4.15402 3.97717 4.13921 3.72548 4.16142 3.47378C4.16142 3.40716 4.28727 3.34053 4.3687 3.28131C4.39831 3.2591 4.45013 3.28131 4.49455 3.28131C6.50812 3.28131 8.52169 3.28131 10.5279 3.28131C10.8314 3.28131 10.8684 3.31832 10.8684 3.62924C10.8684 3.82912 10.8684 4.02159 10.8684 4.24368Z" fill="white"/>
<path d="M5.58278 10.4324C5.9159 10.4324 6.18981 10.1585 6.18981 9.82535C6.18981 9.47742 5.9159 9.19611 5.57537 9.20351C5.24965 9.20351 4.96834 9.48482 4.96094 9.81054C4.96094 10.1437 5.24225 10.4324 5.58278 10.4324ZM5.59018 9.48482C5.77525 9.48482 5.93071 9.64028 5.92331 9.82535C5.92331 10.0104 5.76044 10.1585 5.57537 10.1585C5.3829 10.1585 5.24225 10.0104 5.24965 9.81795C5.24965 9.62547 5.3977 9.48482 5.59018 9.48482Z" fill="white"/>
<path d="M9.42487 10.4326C9.7654 10.4326 10.0541 10.1513 10.0467 9.81072C10.0467 9.485 9.7654 9.20369 9.43228 9.19629C9.09175 9.19629 8.81784 9.47019 8.81784 9.81813C8.81784 10.1513 9.08434 10.4252 9.41747 10.4252L9.42487 10.4326ZM9.43968 9.485C9.63215 9.485 9.77281 9.63306 9.77281 9.82553C9.77281 10.018 9.62475 10.1587 9.43228 10.1587C9.24721 10.1587 9.09175 9.9958 9.09175 9.81813C9.09175 9.64046 9.25461 9.485 9.43968 9.485Z" fill="white"/>
</svg>
