<svg width="15" height="15" viewBox="0 0 15 15" fill="none" xmlns="http://www.w3.org/2000/svg">
<circle cx="7.5" cy="7.5" r="7.5" fill="#AC5344"/>
<path d="M12 7.17478C12 6.76991 11.8075 6.53761 11.4226 6.45133C11.3031 6.42478 11.2699 6.37168 11.25 6.25885C11.0442 5.25 10.8252 4.24779 10.6195 3.24558C10.5796 3.07965 10.5199 3 10.3407 3C8.44912 3 6.56416 3 4.67257 3C4.49336 3 4.42699 3.07301 4.39381 3.2323C4.18805 4.22788 3.96903 5.23009 3.76991 6.22566C3.74336 6.36504 3.69027 6.42478 3.55088 6.45133C3.24558 6.51106 3.0531 6.73009 3.01991 7.0354C3 7.20133 3.00664 7.37389 3.00664 7.54646C3 8.21018 3 8.86062 3 9.5177C3 9.67035 3.03319 9.76991 3.21239 9.75664C3.3385 9.75 3.4646 9.75664 3.63053 9.75664C3.63053 10.0752 3.63053 10.3606 3.63053 10.6527C3.63053 10.9911 3.76327 11.1173 4.09513 11.1173C4.49336 11.1173 4.89159 11.1173 5.28982 11.1173C5.62832 11.1173 5.75442 10.9911 5.75442 10.6527C5.75442 10.3606 5.75442 10.0619 5.75442 9.76327H9.24557C9.24557 10.0885 9.24557 10.4004 9.24557 10.7124C9.24557 10.9712 9.38496 11.1106 9.63717 11.1106C10.0752 11.1106 10.5199 11.1106 10.958 11.1106C11.2035 11.1106 11.3429 10.9779 11.3562 10.7323C11.3695 10.5863 11.3562 10.4336 11.3562 10.2876C11.3562 10.115 11.3562 9.94248 11.3562 9.75C11.5155 9.75 11.635 9.74336 11.7544 9.75C11.9336 9.76327 11.9934 9.69027 11.9934 9.5177C11.9934 8.73451 11.9934 7.95796 11.9934 7.17478H12ZM4.5 4.07522C4.54646 3.86947 4.59956 3.66372 4.62611 3.45133C4.64602 3.29867 4.71239 3.25885 4.86504 3.26549C5.78761 3.26549 6.71018 3.26549 7.63274 3.26549C8.46903 3.26549 9.30531 3.26549 10.1482 3.26549C10.3009 3.26549 10.354 3.30531 10.3805 3.45796C10.5796 4.43363 10.792 5.40929 11.0044 6.41814H4.00885C4.17478 5.62832 4.34071 4.85841 4.5 4.08186V4.07522ZM5.48894 10.6726C5.48894 10.7987 5.42257 10.8451 5.3031 10.8451C4.89823 10.8451 4.49336 10.8451 4.0885 10.8451C3.97566 10.8451 3.91593 10.8053 3.91593 10.6858C3.91593 10.3872 3.91593 10.0885 3.91593 9.75664C4.41372 9.75664 4.89159 9.75664 5.36283 9.75664C5.40265 9.75664 5.47566 9.83628 5.4823 9.88274C5.49558 10.1482 5.4823 10.4071 5.4823 10.6726H5.48894ZM11.0774 10.7389C11.0774 10.7788 10.9779 10.8385 10.9248 10.8385C10.5133 10.8451 10.1018 10.8518 9.69027 10.8385C9.63053 10.8385 9.52434 10.7389 9.52434 10.6858C9.50442 10.3872 9.5177 10.0885 9.5177 9.76991H11.0841C11.0841 10.0951 11.0841 10.4204 11.0774 10.7456V10.7389ZM11.7212 9.47124H3.27876C3.27876 8.66814 3.27876 7.87832 3.27876 7.0885C3.27876 6.87611 3.45133 6.72345 3.66372 6.71018C3.77655 6.71018 3.88938 6.71018 4.00221 6.71018C6.41814 6.71018 8.82743 6.71018 11.2434 6.71018C11.5088 6.71018 11.708 6.84292 11.708 7.07522C11.7212 7.87168 11.708 8.6615 11.708 9.47124H11.7212Z" fill="white"/>
<path d="M4.55973 7.23438C4.08186 7.23438 3.6969 7.61933 3.6969 8.10384C3.6969 8.58172 4.06858 8.9534 4.54646 8.9534C5.03097 8.9534 5.40929 8.57508 5.40929 8.09057C5.40929 7.62597 5.02433 7.23438 4.55973 7.23438ZM4.55309 8.68128C4.23451 8.68128 3.96902 8.42243 3.96239 8.10384C3.96239 7.77862 4.22787 7.51314 4.55973 7.51977C4.87832 7.51977 5.1438 7.7919 5.13716 8.10384C5.13716 8.41579 4.86504 8.68128 4.54646 8.68128H4.55309Z" fill="white"/>
<path d="M10.4469 7.23438C9.98229 7.23438 9.59734 7.62597 9.5907 8.09057C9.5907 8.56845 9.95574 8.94676 10.427 8.9534C10.9115 8.96004 11.2965 8.58836 11.2965 8.10384C11.2965 7.61933 10.9181 7.23438 10.4403 7.23438H10.4469ZM10.4469 8.68128C10.1283 8.68128 9.86282 8.42243 9.85618 8.10384C9.85618 7.78526 10.1283 7.51314 10.4535 7.51314C10.7721 7.51314 11.031 7.77862 11.031 8.09721C11.031 8.40915 10.7588 8.67464 10.4403 8.67464L10.4469 8.68128Z" fill="white"/>
<path d="M9.01329 8.38922C8.01108 8.38922 7.0155 8.38922 6.01329 8.38922C5.98674 8.38922 5.95355 8.37595 5.927 8.38922C5.854 8.42904 5.78762 8.48214 5.72125 8.52196C5.78762 8.56842 5.84736 8.62816 5.92037 8.66798C5.95355 8.68789 6.00665 8.66798 6.04647 8.66798C6.53762 8.66798 7.02214 8.66798 7.51329 8.66798C8.00444 8.66798 8.48895 8.66798 8.9801 8.66798C9.02656 8.66798 9.0863 8.68126 9.12612 8.66798C9.19249 8.6348 9.23895 8.57506 9.29869 8.52196C9.24559 8.4755 9.19913 8.42241 9.13939 8.38922C9.10621 8.36931 9.05311 8.38922 9.01329 8.38922Z" fill="white"/>
<path d="M7.50001 7.79203C8.03099 7.79203 8.5686 7.79203 9.09957 7.79203C9.16594 7.79203 9.23231 7.71238 9.29869 7.66592C9.23231 7.61946 9.16594 7.53982 9.09957 7.53982C8.04426 7.53318 6.98231 7.53982 5.927 7.53982C5.92037 7.53982 5.91373 7.53982 5.90709 7.53982C5.84736 7.58628 5.78099 7.6261 5.72125 7.67256C5.78099 7.71902 5.84072 7.79866 5.90046 7.79866C6.43143 7.81194 6.9624 7.79866 7.50001 7.79866V7.79203Z" fill="white"/>
<path d="M9.69026 4.03525C9.65043 3.88923 9.58406 3.84277 9.43804 3.84277C8.1438 3.84277 6.85619 3.84277 5.56194 3.84277C5.41592 3.84277 5.34955 3.88923 5.30973 4.03525C5.17035 4.54631 5.01769 5.05738 4.87167 5.56844C4.8053 5.80738 4.84512 5.86711 5.0907 5.86711C5.8938 5.86711 6.69689 5.86711 7.49999 5.86711C8.30309 5.86711 9.10619 5.86711 9.90928 5.86711C10.1549 5.86711 10.1947 5.81401 10.1283 5.56844C9.98229 5.05738 9.82964 4.55295 9.69026 4.03525ZM5.16371 5.58171C5.29645 5.11711 5.41592 4.66578 5.5553 4.22109C5.56858 4.17463 5.65486 4.12153 5.70796 4.12153C6.90928 4.12153 8.10397 4.12153 9.3053 4.12153C9.3584 4.12153 9.44468 4.17463 9.45796 4.22109C9.5907 4.66578 9.71681 5.11711 9.84955 5.58171H5.16371Z" fill="white"/>
</svg>
