<svg width="8" height="8" viewBox="0 0 8 8" fill="none" xmlns="http://www.w3.org/2000/svg">
<g clip-path="url(#clip0_14_145)">
<path d="M1.89655 6.11397V6.36267C1.89655 7.1226 2.51034 7.74436 3.27586 7.74436H6.36551C7.12413 7.74436 7.74482 7.12951 7.74482 6.36267V3.26768C7.74482 2.50775 7.13103 1.88599 6.36551 1.88599H6.10344" stroke="#ADA9A9" stroke-width="0.75" stroke-miterlimit="10"/>
<path d="M3.27585 1.88601H6.10343V1.63731C6.10343 0.877377 5.48964 0.255615 4.72412 0.255615H1.63447C0.875847 0.262524 0.262054 0.877377 0.262054 1.63731V4.7323C0.262054 5.49223 0.875847 6.11399 1.64136 6.11399H1.90343V3.26771C1.90343 2.50777 2.51723 1.88601 3.28274 1.88601H3.27585Z" stroke="#ADA9A9" stroke-width="0.75" stroke-miterlimit="10"/>
</g>
<defs>
<clipPath id="clip0_14_145">
<rect width="8" height="8" fill="white"/>
</clipPath>
</defs>
</svg>
