<svg width="112" height="37" viewBox="0 0 112 37" fill="none" xmlns="http://www.w3.org/2000/svg">
<path d="M44.832 17.424C44.224 17.52 43.632 17.616 43.056 17.712C42.48 17.808 41.904 17.904 41.328 18C40.944 18.064 40.688 18.256 40.56 18.576C40.24 19.152 39.856 19.664 39.408 20.112C38.256 21.36 37.184 22.688 36.192 24.096C35.232 25.504 34.256 26.912 33.264 28.32C32.656 29.184 32.048 30.16 31.44 31.248C30.832 32.336 30.272 33.264 29.76 34.032C29.472 34.448 29.2 34.784 28.944 35.04C28.72 35.296 28.512 35.424 28.32 35.424C27.968 35.424 27.744 35.328 27.648 35.136C27.584 34.944 27.584 34.736 27.648 34.512C27.744 34.256 27.856 34 27.984 33.744C28.144 33.488 28.272 33.28 28.368 33.12C29.104 31.744 29.936 30.432 30.864 29.184C31.792 27.936 32.624 26.624 33.36 25.248C32.816 25.6 32.256 25.936 31.68 26.256C31.104 26.544 30.544 26.864 30 27.216C27.824 28.432 25.648 29.52 23.472 30.48C21.328 31.408 19.104 32.144 16.8 32.688C16 32.88 15.2 33.024 14.4 33.12C13.6 33.216 12.816 33.2 12.048 33.072C11.056 32.88 10.368 32.4 9.984 31.632C9.632 30.864 9.68 29.888 10.128 28.704C10.416 28.032 10.72 27.424 11.04 26.88C11.392 26.304 11.792 25.712 12.24 25.104C13.04 24.08 13.872 23.12 14.736 22.224C15.632 21.328 16.576 20.432 17.568 19.536C18.496 18.768 19.424 17.984 20.352 17.184C21.312 16.384 22.256 15.616 23.184 14.88C23.312 14.72 23.44 14.592 23.568 14.496C23.696 14.368 23.824 14.24 23.952 14.112L23.856 13.92C23.472 14.08 23.104 14.224 22.752 14.352C22.4 14.48 22.032 14.592 21.648 14.688C19.376 15.424 17.12 16.144 14.88 16.848C12.672 17.52 10.448 18.096 8.208 18.576C7.12 18.8 6.048 18.976 4.992 19.104C3.936 19.2 2.88 19.328 1.824 19.488C1.472 19.552 1.104 19.552 0.719999 19.488C0.559999 19.456 0.399999 19.392 0.239999 19.296C0.0799985 19.168 -1.47521e-06 18.928 -1.47521e-06 18.576C0.159999 18.544 0.287999 18.512 0.383999 18.48C0.511999 18.416 0.655999 18.384 0.815999 18.384C3.088 18.224 5.344 17.888 7.584 17.376C9.824 16.864 12.08 16.24 14.352 15.504C16.336 14.896 18.32 14.256 20.304 13.584C22.288 12.912 24.256 12.256 26.208 11.616C26.944 11.36 27.664 11.056 28.368 10.704C29.072 10.352 29.792 9.95205 30.528 9.50405C32.416 8.25604 34.304 7.04004 36.192 5.85604C38.08 4.67204 40.032 3.58404 42.048 2.59204C42.944 2.14404 43.84 1.74404 44.736 1.39204C45.664 1.00804 46.592 0.640043 47.52 0.288044C47.936 0.0960445 48.4 0.0320444 48.912 0.0960436C49.36 0.128043 49.648 0.352043 49.776 0.768044C49.904 1.15204 49.808 1.56804 49.488 2.01604C49.232 2.33604 48.944 2.62404 48.624 2.88004C48.304 3.13605 47.984 3.39205 47.664 3.64804C46.576 4.48004 45.472 5.20004 44.352 5.80804C43.264 6.38404 42.144 6.91204 40.992 7.39204C39.392 8.09604 37.808 8.75204 36.24 9.36004C34.704 9.96804 33.136 10.576 31.536 11.184C30.896 11.44 30.24 11.728 29.568 12.048C28.928 12.368 28.32 12.752 27.744 13.2C25.504 14.8 23.328 16.48 21.216 18.24C19.104 19.968 17.072 21.84 15.12 23.856C14.672 24.4 14.224 24.944 13.776 25.488C13.36 26.032 12.944 26.576 12.528 27.12C12.272 27.44 12.064 27.792 11.904 28.176C11.776 28.528 11.632 28.912 11.472 29.328C11.248 29.872 11.2 30.32 11.328 30.672C11.488 31.024 11.792 31.248 12.24 31.344C13.232 31.568 14.192 31.584 15.12 31.392C16.752 31.136 18.368 30.736 19.968 30.192C21.6 29.616 23.216 28.944 24.816 28.176C26.448 27.408 28.032 26.592 29.568 25.728C31.136 24.864 32.688 23.904 34.224 22.848C34.832 22.4 35.44 21.92 36.048 21.408C36.656 20.864 37.184 20.272 37.632 19.632C37.76 19.472 37.888 19.312 38.016 19.152C38.144 18.96 38.288 18.736 38.448 18.48C37.68 18.608 36.944 18.736 36.24 18.864C35.536 18.992 34.832 19.104 34.128 19.2C33.296 19.392 32.464 19.6 31.632 19.824C30.832 20.016 30.016 20.208 29.184 20.4C29.024 20.432 28.88 20.448 28.752 20.448C28.624 20.448 28.496 20.448 28.368 20.448C28.272 20.416 28.192 20.368 28.128 20.304C28.064 20.208 28.032 20.128 28.032 20.064C28.032 20 28.048 19.904 28.08 19.776C28.144 19.616 28.208 19.52 28.272 19.488C28.464 19.328 28.656 19.216 28.848 19.152C29.04 19.088 29.232 19.024 29.424 18.96C32.08 18.416 34.672 17.92 37.2 17.472C39.76 17.024 42.304 16.48 44.832 15.84C45.888 15.584 46.64 15.504 47.088 15.6C47.536 15.664 47.728 15.808 47.664 16.032C47.632 16.256 47.36 16.512 46.848 16.8C46.368 17.088 45.696 17.296 44.832 17.424ZM47.376 1.96805C46.896 2.03204 46.096 2.30404 44.976 2.78404C43.856 3.26404 42.688 3.82405 41.472 4.46404C40.288 5.10404 39.168 5.74404 38.112 6.38405C37.088 6.99205 36.432 7.47204 36.144 7.82404C36.784 7.69604 37.68 7.39204 38.832 6.91204C39.984 6.43204 41.136 5.88805 42.288 5.28005C43.472 4.67205 44.544 4.06404 45.504 3.45604C46.464 2.84804 47.088 2.35204 47.376 1.96805ZM63.1275 18.48C62.7755 18.832 62.2315 19.2 61.4955 19.584C60.7915 19.968 60.0715 20.24 59.3355 20.4C58.6315 20.56 58.0075 20.544 57.4635 20.352C56.9195 20.16 56.6475 19.648 56.6475 18.816C56.6475 18.56 56.6635 18.304 56.6955 18.048C56.7275 17.76 56.7755 17.456 56.8395 17.136C56.0075 17.648 55.1915 18.16 54.3915 18.672C53.6235 19.152 52.8235 19.616 51.9915 20.064C51.7995 20.224 51.5755 20.32 51.3195 20.352C51.0955 20.384 50.8715 20.416 50.6475 20.448C49.9435 20.544 49.4475 20.336 49.1595 19.824C48.8715 19.312 48.9195 18.784 49.3035 18.24C49.4635 18.048 49.6075 17.872 49.7355 17.712C49.8635 17.552 50.0235 17.392 50.2155 17.232C51.0475 16.496 51.9595 15.952 52.9515 15.6C53.9435 15.248 55.0155 15.12 56.1675 15.216C56.5835 15.28 56.9195 15.152 57.1755 14.832C57.3995 14.608 57.6075 14.384 57.7995 14.16C58.0235 13.936 58.2475 13.712 58.4715 13.488C58.5355 13.392 58.6155 13.296 58.7115 13.2C58.8075 13.104 58.9035 13.04 58.9995 13.008C59.0955 12.976 59.2075 12.96 59.3355 12.96C59.4955 12.96 59.6235 12.992 59.7195 13.056C59.8795 13.28 59.9435 13.52 59.9115 13.776C59.8795 14.032 59.7515 14.352 59.5275 14.736C59.4315 14.928 59.2395 15.328 58.9515 15.936C58.6635 16.512 58.4395 17.088 58.2795 17.664C58.1515 18.24 58.1515 18.72 58.2795 19.104C58.4075 19.456 58.8395 19.52 59.5755 19.296C59.9595 19.2 60.3755 19.04 60.8235 18.816C61.2715 18.56 61.7195 18.32 62.1675 18.096C62.2955 18.032 62.4235 17.968 62.5515 17.904C62.6795 17.808 62.8235 17.776 62.9835 17.808C63.1435 17.872 63.2555 17.984 63.3195 18.144C63.4155 18.272 63.3515 18.384 63.1275 18.48ZM50.5035 19.056C51.4315 18.896 52.4075 18.544 53.4315 18C54.4555 17.424 55.2875 16.816 55.9275 16.176C54.9675 16.24 53.9595 16.528 52.9035 17.04C51.8475 17.552 51.0475 18.224 50.5035 19.056ZM63.4477 24.96C64.4717 23.904 65.4957 22.784 66.5197 21.6C67.5757 20.416 68.5197 19.408 69.3517 18.576C70.1837 17.712 70.7277 17.376 70.9837 17.568C71.2397 17.76 70.9517 18.4 70.1197 19.488C69.3197 20.544 68.4397 21.52 67.4797 22.416C66.5517 23.28 65.6237 24.16 64.6957 25.056C64.4397 25.312 64.1677 25.536 63.8797 25.728C63.5917 25.92 63.3197 26.112 63.0637 26.304C62.9357 26.368 62.7917 26.448 62.6317 26.544C62.4717 26.608 62.3117 26.672 62.1517 26.736C61.5437 26.896 61.0637 26.832 60.7117 26.544C60.3597 26.256 60.1517 25.808 60.0877 25.2C60.0237 24.688 60.0717 24.192 60.2317 23.712C60.4877 22.464 60.8717 21.28 61.3837 20.16C61.8637 19.04 62.3917 17.92 62.9677 16.8C63.1597 16.352 63.3837 15.952 63.6397 15.6C63.7997 15.312 63.9277 15.04 64.0237 14.784C64.1197 14.496 64.0397 14.224 63.7837 13.968C63.8797 13.776 63.9597 13.648 64.0237 13.584C64.6317 13.328 65.0957 12.944 65.4157 12.432C65.7677 11.92 66.1197 11.424 66.4717 10.944C67.3997 9.63204 68.3277 8.33604 69.2557 7.05605C70.1837 5.74405 71.2077 4.52804 72.3277 3.40804C72.7117 3.02404 73.1277 2.65604 73.5757 2.30404C73.7357 2.08004 74.0237 1.88805 74.4397 1.72805C74.6637 1.63204 74.8877 1.56804 75.1117 1.53605C75.3357 1.50405 75.5597 1.56805 75.7837 1.72805C76.0077 1.92004 76.1197 2.14404 76.1197 2.40005C76.1517 2.62404 76.1037 2.84804 75.9757 3.07205C75.8157 3.42404 75.6397 3.77604 75.4477 4.12804C75.2877 4.44804 75.0957 4.76805 74.8717 5.08805C73.8477 6.43204 72.7437 7.69604 71.5597 8.88004C70.3757 10.032 69.1437 11.168 67.8637 12.288C67.4797 12.64 67.1117 13.008 66.7597 13.392C66.4077 13.776 66.0717 14.192 65.7517 14.64C65.1117 15.792 64.4877 16.944 63.8797 18.096C63.2717 19.216 62.7277 20.384 62.2477 21.6C62.1197 22.016 62.0077 22.432 61.9117 22.848C61.7837 23.264 61.6717 23.68 61.5757 24.096C61.4157 24.64 61.3997 25.024 61.5277 25.248C61.6237 25.472 61.7837 25.584 62.0077 25.584C62.2317 25.584 62.4717 25.52 62.7277 25.392C63.0157 25.264 63.2557 25.12 63.4477 24.96ZM73.6237 4.17605C73.3357 4.46405 72.8717 4.94405 72.2317 5.61604C71.6237 6.25604 70.9997 6.96004 70.3597 7.72805C69.7197 8.49605 69.1437 9.23205 68.6317 9.93605C68.1197 10.64 67.8317 11.168 67.7677 11.52C68.0237 11.264 68.4237 10.848 68.9677 10.272C69.5437 9.69604 70.1357 9.07204 70.7437 8.40005C71.3837 7.72804 71.9917 7.05604 72.5677 6.38405C73.1757 5.71204 73.6557 5.15204 74.0077 4.70404C74.3597 4.22404 74.5197 3.92004 74.4877 3.79204C74.4877 3.63204 74.1997 3.76005 73.6237 4.17605ZM71.1821 24.96C72.2061 23.904 73.2301 22.784 74.2541 21.6C75.3101 20.416 76.2541 19.408 77.0861 18.576C77.9181 17.712 78.4621 17.376 78.7181 17.568C78.9741 17.76 78.6861 18.4 77.8541 19.488C77.0541 20.544 76.1741 21.52 75.2141 22.416C74.2861 23.28 73.3581 24.16 72.4301 25.056C72.1741 25.312 71.9021 25.536 71.6141 25.728C71.3261 25.92 71.0541 26.112 70.7981 26.304C70.6701 26.368 70.5261 26.448 70.3661 26.544C70.2061 26.608 70.0461 26.672 69.8861 26.736C69.2781 26.896 68.7981 26.832 68.4461 26.544C68.0941 26.256 67.8861 25.808 67.8221 25.2C67.7581 24.688 67.8061 24.192 67.9661 23.712C68.2221 22.464 68.6061 21.28 69.1181 20.16C69.5981 19.04 70.1261 17.92 70.7021 16.8C70.8941 16.352 71.1181 15.952 71.3741 15.6C71.5341 15.312 71.6621 15.04 71.7581 14.784C71.8541 14.496 71.7741 14.224 71.5181 13.968C71.6141 13.776 71.6941 13.648 71.7581 13.584C72.3661 13.328 72.8301 12.944 73.1501 12.432C73.5021 11.92 73.8541 11.424 74.2061 10.944C75.1341 9.63204 76.0621 8.33604 76.9901 7.05605C77.9181 5.74405 78.9421 4.52804 80.0621 3.40804C80.4461 3.02404 80.8621 2.65604 81.3101 2.30404C81.4701 2.08004 81.7581 1.88805 82.1741 1.72805C82.3981 1.63204 82.6221 1.56804 82.8461 1.53605C83.0701 1.50405 83.2941 1.56805 83.5181 1.72805C83.7421 1.92004 83.8541 2.14404 83.8541 2.40005C83.8861 2.62404 83.8381 2.84804 83.7101 3.07205C83.5501 3.42404 83.3741 3.77604 83.1821 4.12804C83.0221 4.44804 82.8301 4.76805 82.6061 5.08805C81.5821 6.43204 80.4781 7.69604 79.2941 8.88004C78.1101 10.032 76.8781 11.168 75.5981 12.288C75.2141 12.64 74.8461 13.008 74.4941 13.392C74.1421 13.776 73.8061 14.192 73.4861 14.64C72.8461 15.792 72.2221 16.944 71.6141 18.096C71.0061 19.216 70.4621 20.384 69.9821 21.6C69.8541 22.016 69.7421 22.432 69.6461 22.848C69.5181 23.264 69.4061 23.68 69.3101 24.096C69.1501 24.64 69.1341 25.024 69.2621 25.248C69.3581 25.472 69.5181 25.584 69.7421 25.584C69.9661 25.584 70.2061 25.52 70.4621 25.392C70.7501 25.264 70.9901 25.12 71.1821 24.96ZM81.3581 4.17605C81.0701 4.46405 80.6061 4.94405 79.9661 5.61604C79.3581 6.25604 78.7341 6.96004 78.0941 7.72805C77.4541 8.49605 76.8781 9.23205 76.3661 9.93605C75.8541 10.64 75.5661 11.168 75.5021 11.52C75.7581 11.264 76.1581 10.848 76.7021 10.272C77.2781 9.69604 77.8701 9.07204 78.4781 8.40005C79.1181 7.72804 79.7261 7.05604 80.3021 6.38405C80.9101 5.71204 81.3901 5.15204 81.7421 4.70404C82.0941 4.22404 82.2541 3.92004 82.2221 3.79204C82.2221 3.63204 81.9341 3.76005 81.3581 4.17605ZM87.7005 17.856C87.8605 17.792 88.0045 17.744 88.1325 17.712C88.2605 17.648 88.4045 17.584 88.5645 17.52C88.9485 17.456 89.2205 17.568 89.3805 17.856C89.5405 18.24 89.4445 18.512 89.0925 18.672C87.9085 19.28 86.6765 19.744 85.3965 20.064C84.1165 20.384 82.8365 20.576 81.5565 20.64C81.1085 20.672 80.6285 20.672 80.1165 20.64C79.6365 20.608 79.1885 20.496 78.7725 20.304C78.3885 20.112 78.1005 19.84 77.9085 19.488C77.7165 19.104 77.7005 18.592 77.8605 17.952C78.0845 17.312 78.2925 16.864 78.4845 16.608C78.6765 16.352 79.0445 16.08 79.5885 15.792C80.1645 15.536 80.7565 15.36 81.3645 15.264C82.0045 15.136 82.6125 15.072 83.1885 15.072C83.7325 15.136 84.0525 15.408 84.1485 15.888C84.2445 16.4 84.0685 16.784 83.6205 17.04C83.3005 17.232 82.9645 17.408 82.6125 17.568C82.2605 17.696 81.8925 17.824 81.5085 17.952C81.2205 18.016 80.9165 18.064 80.5965 18.096C80.2765 18.128 79.9565 18.144 79.6365 18.144C79.1565 18.144 78.8845 18.256 78.8205 18.48C78.7885 18.672 78.8845 18.88 79.1085 19.104C79.4285 19.424 79.9885 19.6 80.7885 19.632C81.5885 19.632 82.4365 19.568 83.3325 19.44C84.2605 19.28 85.1245 19.056 85.9245 18.768C86.7565 18.48 87.3485 18.176 87.7005 17.856ZM82.8525 16.464C83.0765 16.176 83.0765 16.032 82.8525 16.032C82.6605 16 82.3565 16.048 81.9405 16.176C81.5565 16.304 81.1085 16.496 80.5965 16.752C80.0845 17.008 79.6365 17.264 79.2525 17.52C79.7325 17.584 80.3565 17.52 81.1245 17.328C81.8925 17.104 82.4685 16.816 82.8525 16.464ZM96.5741 19.392C96.1901 19.36 95.8861 19.264 95.6621 19.104C95.4381 18.944 95.2461 18.736 95.0861 18.48C94.9581 18.224 94.8461 17.952 94.7501 17.664C94.6861 17.376 94.6221 17.088 94.5581 16.8C94.3661 16.352 94.0941 16.128 93.7421 16.128C93.3901 16.128 93.0221 16.24 92.6381 16.464C92.2861 16.656 91.9501 16.912 91.6301 17.232C91.3101 17.552 91.0541 17.792 90.8621 17.952C89.7421 18.88 88.8781 19.92 88.2701 21.072C88.1741 21.328 88.0301 21.536 87.8381 21.696C87.6141 21.856 87.4061 21.968 87.2141 22.032C87.0221 22.064 86.8621 22.032 86.7341 21.936C86.5741 21.84 86.4941 21.648 86.4941 21.36C86.4941 21.2 86.5261 21.072 86.5901 20.976C86.6541 20.88 86.7181 20.768 86.7821 20.64C87.3901 19.552 87.9821 18.464 88.5581 17.376C89.1341 16.288 89.7261 15.2 90.3341 14.112C90.4941 13.792 90.7021 13.504 90.9581 13.248C91.0221 13.184 91.1021 13.136 91.1981 13.104C91.3261 13.072 91.4221 13.088 91.4861 13.152C91.7101 13.28 91.7901 13.456 91.7261 13.68C91.7261 13.904 91.6621 14.176 91.5341 14.496C91.3101 14.912 91.1021 15.328 90.9101 15.744C90.7181 16.16 90.5421 16.592 90.3821 17.04C90.6381 16.848 90.7981 16.72 90.8621 16.656C91.1821 16.4 91.4701 16.16 91.7261 15.936C92.0141 15.68 92.3021 15.456 92.5901 15.264C92.9741 14.944 93.4061 14.752 93.8861 14.688C94.8461 14.464 95.4701 14.816 95.7581 15.744C95.8221 16 95.8701 16.24 95.9021 16.464C95.9341 16.688 95.9821 16.912 96.0461 17.136C96.1101 17.488 96.2221 17.728 96.3821 17.856C96.5421 17.952 96.8141 17.984 97.1981 17.952C97.3581 17.952 97.5181 17.952 97.6781 17.952C97.8701 17.92 98.0461 17.904 98.2061 17.904C98.6541 17.872 98.9581 17.936 99.1181 18.096C99.2781 18.256 99.2941 18.448 99.1661 18.672C99.0381 18.864 98.7501 19.04 98.3021 19.2C97.8861 19.36 97.3101 19.424 96.5741 19.392ZM105.063 20.4C105.287 20.304 105.463 20.224 105.591 20.16C105.719 20.096 105.847 20.016 105.975 19.92C106.583 19.6 107.175 19.28 107.751 18.96C108.327 18.64 108.919 18.32 109.527 18C109.847 17.808 110.183 17.712 110.535 17.712C110.663 17.712 110.791 17.76 110.919 17.856C111.047 17.952 111.143 18.032 111.207 18.096C111.367 18.384 111.239 18.656 110.823 18.912C110.503 19.104 110.167 19.28 109.815 19.44C109.463 19.6 109.111 19.792 108.759 20.016C107.927 20.56 107.095 21.104 106.263 21.648C105.431 22.16 104.599 22.688 103.767 23.232C103.255 23.584 102.839 24 102.519 24.48C102.199 24.96 101.863 25.44 101.511 25.92C100.519 27.456 99.4946 28.928 98.4386 30.336C97.3506 31.744 96.1666 33.104 94.8866 34.416C94.3426 34.928 93.7826 35.376 93.2066 35.76C93.0146 35.92 92.8226 36.048 92.6306 36.144C92.4066 36.272 92.1666 36.368 91.9106 36.432C91.5586 36.496 91.2546 36.432 90.9986 36.24C90.7426 36.048 90.6466 35.744 90.7106 35.328C90.7106 34.944 90.8226 34.56 91.0466 34.176C91.4946 33.248 92.0386 32.4 92.6786 31.632C93.2866 30.864 93.9586 30.128 94.6946 29.424C95.7826 28.4 96.8706 27.392 97.9586 26.4C99.0466 25.376 100.151 24.352 101.271 23.328C101.431 23.136 101.591 22.944 101.751 22.752C101.943 22.528 102.119 22.304 102.279 22.08C102.823 21.248 103.351 20.4 103.863 19.536C104.375 18.64 104.903 17.744 105.447 16.848C105.191 16.848 104.983 16.912 104.823 17.04C104.695 17.136 104.567 17.232 104.439 17.328C103.863 17.744 103.271 18.16 102.663 18.576C102.087 18.96 101.447 19.28 100.743 19.536C100.519 19.696 100.311 19.776 100.119 19.776C99.4786 19.872 98.9826 19.76 98.6306 19.44C98.2786 19.088 98.1826 18.592 98.3426 17.952C98.4386 17.632 98.5506 17.328 98.6786 17.04C98.8066 16.752 98.9506 16.464 99.1106 16.176C99.3666 15.728 99.6226 15.296 99.8786 14.88C100.167 14.464 100.455 14.048 100.743 13.632C100.903 13.44 101.079 13.312 101.271 13.248C101.463 13.152 101.687 13.232 101.943 13.488C101.879 13.616 101.815 13.76 101.751 13.92C101.719 14.048 101.639 14.176 101.511 14.304C101.255 14.848 100.983 15.36 100.695 15.84C100.407 16.32 100.119 16.816 99.8306 17.328C99.7666 17.488 99.7026 17.664 99.6386 17.856C99.6066 18.048 99.5266 18.272 99.3986 18.528C99.6546 18.464 99.8626 18.432 100.023 18.432C100.215 18.432 100.391 18.4 100.551 18.336C100.999 18.08 101.431 17.824 101.847 17.568C102.263 17.312 102.679 17.04 103.095 16.752C103.639 16.336 104.151 15.92 104.631 15.504C105.111 15.088 105.623 14.656 106.167 14.208C106.359 14.016 106.567 13.872 106.791 13.776C107.015 13.648 107.287 13.664 107.607 13.824C108.055 14.08 108.071 14.608 107.655 15.408C107.303 16.112 106.935 16.816 106.551 17.52C106.167 18.224 105.799 18.944 105.447 19.68C105.383 19.744 105.319 19.824 105.255 19.92C105.223 20.016 105.159 20.176 105.063 20.4ZM98.1986 28.08C97.6546 28.528 97.0946 29.04 96.5186 29.616C95.9106 30.192 95.3506 30.768 94.8386 31.344C94.3266 31.92 93.8786 32.464 93.4946 32.976C93.1106 33.488 92.8546 33.904 92.7266 34.224C93.0466 34.032 93.4786 33.696 94.0226 33.216C94.5346 32.736 95.0626 32.192 95.6066 31.584C96.1186 30.976 96.6146 30.368 97.0946 29.76C97.5746 29.12 97.9426 28.56 98.1986 28.08Z" fill="#C21F2D"/>
</svg>
