<svg width="222" height="37" viewBox="0 0 222 37" fill="none" xmlns="http://www.w3.org/2000/svg">
<path d="M211.841 20.978C211.905 20.818 211.969 20.578 212.033 20.258C212.385 18.978 212.849 17.762 213.425 16.61C214.001 15.426 214.577 14.242 215.153 13.058C215.793 11.746 216.401 10.45 216.977 9.16998C217.553 7.88998 218.161 6.59398 218.801 5.28198C218.833 5.21798 218.865 5.15398 218.897 5.08998C218.961 4.99398 219.009 4.91398 219.041 4.84998C219.297 4.30597 219.633 4.11397 220.049 4.27397C220.401 4.43398 220.497 4.78598 220.337 5.32998C220.273 5.48997 220.209 5.64997 220.145 5.80997C220.113 5.96998 220.065 6.11398 220.001 6.24197C219.745 6.78598 219.505 7.32998 219.281 7.87398C219.057 8.41798 218.817 8.96198 218.561 9.50598C217.825 10.882 217.121 12.258 216.449 13.634C215.777 15.01 215.073 16.37 214.337 17.714C214.017 18.354 213.649 18.93 213.233 19.442C212.849 19.954 212.465 20.498 212.081 21.074C212.017 21.042 211.969 21.026 211.937 21.026C211.937 21.026 211.905 21.01 211.841 20.978ZM211.217 26.306C211.153 26.53 211.073 26.754 210.977 26.978C210.881 27.202 210.769 27.394 210.641 27.554C210.289 27.842 209.937 27.874 209.585 27.65C209.329 27.298 209.313 26.93 209.537 26.546C209.697 26.29 209.937 26.05 210.257 25.826C210.417 25.666 210.609 25.618 210.833 25.682C210.929 25.778 211.057 25.986 211.217 26.306Z" stroke="#C21F2D" stroke-width="1.3"/>
<path d="M198.872 26.882C199.192 26.722 199.448 26.61 199.64 26.546C199.864 26.482 200.04 26.37 200.168 26.21C200.808 25.73 201.448 25.234 202.088 24.722C202.728 24.21 203.352 23.682 203.96 23.138C204.664 22.498 205.416 21.842 206.216 21.17C207.016 20.466 207.752 19.778 208.424 19.106C208.776 18.786 209.08 18.578 209.336 18.482C209.624 18.354 209.816 18.338 209.912 18.434C210.04 18.53 210.04 18.706 209.912 18.962C209.816 19.218 209.576 19.538 209.192 19.922C207.88 21.266 206.552 22.578 205.208 23.858C203.896 25.106 202.472 26.258 200.936 27.314C200.712 27.474 200.472 27.618 200.216 27.746C199.992 27.874 199.752 27.97 199.496 28.034C198.952 28.226 198.472 28.178 198.056 27.89C197.672 27.602 197.528 27.17 197.624 26.594C197.688 26.21 197.768 25.842 197.864 25.49C197.96 25.106 198.088 24.738 198.248 24.386C198.696 23.426 199.16 22.45 199.64 21.458C200.12 20.466 200.6 19.49 201.08 18.53C201.144 18.402 201.192 18.29 201.224 18.194C201.256 18.098 201.272 17.97 201.272 17.81C201.112 17.938 200.968 18.05 200.84 18.146C200.744 18.242 200.632 18.338 200.504 18.434C199.448 19.298 198.408 20.098 197.384 20.834C197.224 20.898 197.048 20.978 196.856 21.074C196.664 21.138 196.472 21.186 196.28 21.218C195.864 21.282 195.528 21.202 195.272 20.978C195.016 20.754 194.904 20.45 194.936 20.066C194.968 19.842 195.032 19.618 195.128 19.394C195.224 19.17 195.32 18.946 195.416 18.722C195.864 18.146 196.376 17.666 196.952 17.282C197.56 16.866 198.216 16.53 198.92 16.274C199.432 16.05 199.912 15.938 200.36 15.938C200.744 15.874 201.08 15.762 201.368 15.602C201.688 15.41 201.976 15.186 202.232 14.93C203.224 13.81 204.12 12.658 204.92 11.474C205.752 10.258 206.584 9.02598 207.416 7.77798C207.48 7.68198 207.544 7.56998 207.608 7.44198C207.672 7.31398 207.752 7.20198 207.848 7.10598C208.328 6.49798 208.744 6.28998 209.096 6.48198C209.512 6.70598 209.512 7.20198 209.096 7.96998C208.872 8.25798 208.648 8.56198 208.424 8.88198C208.232 9.20198 208.056 9.50598 207.896 9.79398C206.456 12.002 205.08 14.21 203.768 16.418C202.488 18.594 201.288 20.834 200.168 23.138C199.88 23.682 199.624 24.242 199.4 24.818C199.176 25.394 199 26.082 198.872 26.882ZM196.52 19.682C197.8 19.17 198.68 18.498 199.16 17.666C198.616 17.826 198.104 18.082 197.624 18.434C197.144 18.754 196.776 19.17 196.52 19.682Z" stroke="#C21F2D" stroke-width="1.3"/>
<path d="M195.038 18.434C195.198 18.37 195.342 18.322 195.47 18.29C195.598 18.226 195.742 18.162 195.902 18.098C196.286 18.034 196.558 18.146 196.718 18.434C196.878 18.818 196.782 19.09 196.43 19.25C195.246 19.858 194.014 20.322 192.734 20.642C191.454 20.962 190.174 21.154 188.894 21.218C188.446 21.25 187.966 21.25 187.454 21.218C186.974 21.186 186.526 21.074 186.11 20.882C185.726 20.69 185.438 20.418 185.246 20.066C185.054 19.682 185.038 19.17 185.198 18.53C185.422 17.89 185.63 17.442 185.822 17.186C186.014 16.93 186.382 16.658 186.926 16.37C187.502 16.114 188.094 15.938 188.702 15.842C189.342 15.714 189.95 15.65 190.526 15.65C191.07 15.714 191.39 15.986 191.486 16.466C191.582 16.978 191.406 17.362 190.958 17.618C190.638 17.81 190.302 17.986 189.95 18.146C189.598 18.274 189.23 18.402 188.846 18.53C188.558 18.594 188.254 18.642 187.934 18.674C187.614 18.706 187.294 18.722 186.974 18.722C186.494 18.722 186.222 18.834 186.158 19.058C186.126 19.25 186.222 19.458 186.446 19.682C186.766 20.002 187.326 20.178 188.126 20.21C188.926 20.21 189.774 20.146 190.67 20.018C191.598 19.858 192.462 19.634 193.262 19.346C194.094 19.058 194.686 18.754 195.038 18.434ZM190.19 17.042C190.414 16.754 190.414 16.61 190.19 16.61C189.998 16.578 189.694 16.626 189.278 16.754C188.894 16.882 188.446 17.074 187.934 17.33C187.422 17.586 186.974 17.842 186.59 18.098C187.07 18.162 187.694 18.098 188.462 17.906C189.23 17.682 189.806 17.394 190.19 17.042Z" stroke="#C21F2D" stroke-width="1.3"/>
<path d="M185.736 19.586C185.032 19.97 184.312 20.338 183.576 20.69C182.872 21.042 182.12 21.314 181.32 21.506C181.064 21.538 180.808 21.57 180.552 21.602C180.296 21.602 180.04 21.57 179.784 21.506C179.336 21.442 179.016 21.234 178.824 20.882C178.6 20.53 178.52 20.146 178.584 19.73C178.584 19.474 178.616 19.202 178.68 18.914C178.712 18.626 178.808 18.37 178.968 18.146C179.32 17.57 179.64 16.93 179.928 16.226C180.248 15.522 180.616 14.898 181.032 14.354C181.192 14.162 181.384 14.066 181.608 14.066C181.832 14.034 182.024 14.098 182.184 14.258C182.376 14.386 182.488 14.594 182.52 14.882C182.552 15.138 182.44 15.426 182.184 15.746C181.864 16.258 181.544 16.754 181.224 17.234C180.904 17.714 180.584 18.226 180.264 18.77C179.944 19.442 179.8 19.938 179.832 20.258C179.896 20.546 180.056 20.722 180.312 20.786C180.6 20.85 180.952 20.818 181.368 20.69C181.784 20.562 182.2 20.386 182.616 20.162C183.064 19.938 183.48 19.714 183.864 19.49C184.248 19.234 184.52 19.01 184.68 18.818C185 18.466 185.288 18.29 185.544 18.29C185.8 18.258 185.976 18.322 186.072 18.482C186.2 18.61 186.248 18.802 186.216 19.058C186.184 19.282 186.024 19.458 185.736 19.586ZM184.584 10.514C184.84 10.514 185.032 10.594 185.16 10.754C185.32 10.914 185.368 11.106 185.304 11.33C185.24 11.586 185.064 11.858 184.776 12.146C184.488 12.434 184.184 12.674 183.864 12.866C183.416 13.122 183.096 13.218 182.904 13.154C182.744 13.09 182.728 12.754 182.856 12.146C182.92 11.762 183.08 11.394 183.336 11.042C183.624 10.69 184.04 10.514 184.584 10.514Z" stroke="#C21F2D" stroke-width="1.3"/>
<path d="M176.912 19.97C176.528 19.938 176.224 19.842 176 19.682C175.776 19.522 175.584 19.314 175.424 19.058C175.296 18.802 175.184 18.53 175.088 18.242C175.024 17.954 174.96 17.666 174.896 17.378C174.704 16.93 174.432 16.706 174.08 16.706C173.728 16.706 173.36 16.818 172.976 17.042C172.624 17.234 172.288 17.49 171.968 17.81C171.648 18.13 171.392 18.37 171.2 18.53C170.08 19.458 169.216 20.498 168.608 21.65C168.512 21.906 168.368 22.114 168.176 22.274C167.952 22.434 167.744 22.546 167.552 22.61C167.36 22.642 167.2 22.61 167.072 22.514C166.912 22.418 166.832 22.226 166.832 21.938C166.832 21.778 166.864 21.65 166.928 21.554C166.992 21.458 167.056 21.346 167.12 21.218C167.728 20.13 168.32 19.042 168.896 17.954C169.472 16.866 170.064 15.778 170.672 14.69C170.832 14.37 171.04 14.082 171.296 13.826C171.36 13.762 171.44 13.714 171.536 13.682C171.664 13.65 171.76 13.666 171.824 13.73C172.048 13.858 172.128 14.034 172.064 14.258C172.064 14.482 172 14.754 171.872 15.074C171.648 15.49 171.44 15.906 171.248 16.322C171.056 16.738 170.88 17.17 170.72 17.618C170.976 17.426 171.136 17.298 171.2 17.234C171.52 16.978 171.808 16.738 172.064 16.514C172.352 16.258 172.64 16.034 172.928 15.842C173.312 15.522 173.744 15.33 174.224 15.266C175.184 15.042 175.808 15.394 176.096 16.322C176.16 16.578 176.208 16.818 176.24 17.042C176.272 17.266 176.32 17.49 176.384 17.714C176.448 18.066 176.56 18.306 176.72 18.434C176.88 18.53 177.152 18.562 177.536 18.53C177.696 18.53 177.856 18.53 178.016 18.53C178.208 18.498 178.384 18.482 178.544 18.482C178.992 18.45 179.296 18.514 179.456 18.674C179.616 18.834 179.632 19.026 179.504 19.25C179.376 19.442 179.088 19.618 178.64 19.778C178.224 19.938 177.648 20.002 176.912 19.97Z" stroke="#C21F2D" stroke-width="1.3"/>
<path d="M166.599 19.97C166.215 19.938 165.911 19.842 165.687 19.682C165.463 19.522 165.271 19.314 165.111 19.058C164.983 18.802 164.871 18.53 164.775 18.242C164.711 17.954 164.647 17.666 164.583 17.378C164.391 16.93 164.119 16.706 163.767 16.706C163.415 16.706 163.047 16.818 162.663 17.042C162.311 17.234 161.975 17.49 161.655 17.81C161.335 18.13 161.079 18.37 160.887 18.53C159.767 19.458 158.903 20.498 158.295 21.65C158.199 21.906 158.055 22.114 157.863 22.274C157.639 22.434 157.431 22.546 157.239 22.61C157.047 22.642 156.887 22.61 156.759 22.514C156.599 22.418 156.519 22.226 156.519 21.938C156.519 21.778 156.551 21.65 156.615 21.554C156.679 21.458 156.743 21.346 156.807 21.218C157.415 20.13 158.007 19.042 158.583 17.954C159.159 16.866 159.751 15.778 160.359 14.69C160.519 14.37 160.727 14.082 160.983 13.826C161.047 13.762 161.127 13.714 161.223 13.682C161.351 13.65 161.447 13.666 161.511 13.73C161.735 13.858 161.815 14.034 161.751 14.258C161.751 14.482 161.687 14.754 161.559 15.074C161.335 15.49 161.127 15.906 160.935 16.322C160.743 16.738 160.567 17.17 160.407 17.618C160.663 17.426 160.823 17.298 160.887 17.234C161.207 16.978 161.495 16.738 161.751 16.514C162.039 16.258 162.327 16.034 162.615 15.842C162.999 15.522 163.431 15.33 163.911 15.266C164.871 15.042 165.495 15.394 165.783 16.322C165.847 16.578 165.895 16.818 165.927 17.042C165.959 17.266 166.007 17.49 166.071 17.714C166.135 18.066 166.247 18.306 166.407 18.434C166.567 18.53 166.839 18.562 167.223 18.53C167.383 18.53 167.543 18.53 167.703 18.53C167.895 18.498 168.071 18.482 168.231 18.482C168.679 18.45 168.983 18.514 169.143 18.674C169.303 18.834 169.319 19.026 169.191 19.25C169.063 19.442 168.775 19.618 168.327 19.778C167.911 19.938 167.335 20.002 166.599 19.97Z" stroke="#C21F2D" stroke-width="1.3"/>
<path d="M158.887 19.058C158.535 19.41 157.991 19.778 157.255 20.162C156.551 20.546 155.831 20.818 155.095 20.978C154.391 21.138 153.767 21.122 153.223 20.93C152.679 20.738 152.407 20.226 152.407 19.394C152.407 19.138 152.423 18.882 152.455 18.626C152.487 18.338 152.535 18.034 152.599 17.714C151.767 18.226 150.951 18.738 150.151 19.25C149.383 19.73 148.583 20.194 147.751 20.642C147.559 20.802 147.335 20.898 147.079 20.93C146.855 20.962 146.631 20.994 146.407 21.026C145.703 21.122 145.207 20.914 144.919 20.402C144.631 19.89 144.679 19.362 145.063 18.818C145.223 18.626 145.367 18.45 145.495 18.29C145.623 18.13 145.783 17.97 145.975 17.81C146.807 17.074 147.719 16.53 148.711 16.178C149.703 15.826 150.775 15.698 151.927 15.794C152.343 15.858 152.679 15.73 152.935 15.41C153.159 15.186 153.367 14.962 153.559 14.738C153.783 14.514 154.007 14.29 154.231 14.066C154.295 13.97 154.375 13.874 154.471 13.778C154.567 13.682 154.663 13.618 154.759 13.586C154.855 13.554 154.967 13.538 155.095 13.538C155.255 13.538 155.383 13.57 155.479 13.634C155.639 13.858 155.703 14.098 155.671 14.354C155.639 14.61 155.511 14.93 155.287 15.314C155.191 15.506 154.999 15.906 154.711 16.514C154.423 17.09 154.199 17.666 154.039 18.242C153.911 18.818 153.911 19.298 154.039 19.682C154.167 20.034 154.599 20.098 155.335 19.874C155.719 19.778 156.135 19.618 156.583 19.394C157.031 19.138 157.479 18.898 157.927 18.674C158.055 18.61 158.183 18.546 158.311 18.482C158.439 18.386 158.583 18.354 158.743 18.386C158.903 18.45 159.015 18.562 159.079 18.722C159.175 18.85 159.111 18.962 158.887 19.058ZM146.263 19.634C147.191 19.474 148.167 19.122 149.191 18.578C150.215 18.002 151.047 17.394 151.687 16.754C150.727 16.818 149.719 17.106 148.663 17.618C147.607 18.13 146.807 18.802 146.263 19.634Z" stroke="#C21F2D" stroke-width="1.3"/>
<path d="M131.877 18.05C132.133 18.178 132.357 18.21 132.549 18.146C132.741 18.05 132.933 17.954 133.125 17.858C133.797 17.474 134.453 17.106 135.093 16.754C135.733 16.37 136.389 16.002 137.061 15.65C137.317 15.49 137.589 15.362 137.877 15.266C138.197 15.138 138.501 15.042 138.789 14.978C139.781 14.754 140.357 15.138 140.517 16.13C140.645 16.706 140.661 17.314 140.565 17.954C140.501 18.69 140.613 19.154 140.901 19.346C141.221 19.538 141.701 19.538 142.341 19.346C142.789 19.25 143.269 19.09 143.781 18.866C144.293 18.642 144.757 18.45 145.173 18.29C145.557 18.162 145.829 18.114 145.989 18.146C146.181 18.146 146.309 18.21 146.373 18.338C146.469 18.498 146.469 18.69 146.373 18.914C146.309 19.106 146.085 19.282 145.701 19.442C145.093 19.794 144.469 20.098 143.829 20.354C143.221 20.61 142.565 20.77 141.861 20.834C140.165 21.026 139.285 20.258 139.221 18.53C139.221 18.338 139.221 18.162 139.221 18.002C139.253 17.842 139.269 17.666 139.269 17.474C139.269 16.802 139.237 16.322 139.173 16.034C139.141 15.746 138.805 15.826 138.165 16.274C137.525 16.626 136.821 17.058 136.053 17.57C135.317 18.082 134.629 18.514 133.989 18.866C133.573 19.154 133.093 19.346 132.549 19.442C131.589 19.73 130.933 19.362 130.581 18.338C130.485 18.082 130.405 17.858 130.341 17.666C130.309 17.474 130.261 17.33 130.197 17.234C130.165 17.138 130.085 17.122 129.957 17.186C129.829 17.218 129.621 17.33 129.333 17.522C128.693 18.002 128.053 18.594 127.413 19.298C126.773 20.002 126.133 20.61 125.493 21.122C125.333 21.25 125.189 21.378 125.061 21.506C124.933 21.602 124.789 21.698 124.629 21.794C124.341 21.89 124.101 21.874 123.909 21.746C123.717 21.586 123.653 21.346 123.717 21.026C123.749 20.802 123.861 20.546 124.053 20.258C124.405 19.522 124.773 18.802 125.157 18.098C125.509 17.394 125.893 16.674 126.309 15.938C126.341 15.842 126.373 15.746 126.405 15.65C126.469 15.522 126.533 15.426 126.597 15.362C126.693 15.298 126.805 15.234 126.933 15.17C127.061 15.106 127.173 15.106 127.269 15.17C127.493 15.234 127.605 15.426 127.605 15.746C127.541 15.906 127.477 16.066 127.413 16.226C127.381 16.354 127.333 16.498 127.269 16.658C127.205 16.786 127.109 16.962 126.981 17.186C126.885 17.41 126.773 17.65 126.645 17.906C126.517 18.13 126.405 18.37 126.309 18.626C126.213 18.85 126.165 19.026 126.165 19.154C126.293 19.058 126.453 18.914 126.645 18.722C126.837 18.53 127.029 18.338 127.221 18.146C127.445 17.922 127.653 17.714 127.845 17.522C128.037 17.298 128.213 17.138 128.373 17.042C128.565 16.882 128.757 16.754 128.949 16.658C129.141 16.562 129.333 16.466 129.525 16.37C130.613 15.922 131.349 16.274 131.733 17.426C131.765 17.522 131.781 17.634 131.781 17.762C131.813 17.858 131.845 17.954 131.877 18.05Z" stroke="#C21F2D" stroke-width="1.3"/>
<path d="M105.905 20.882C106.897 20.53 107.633 20.274 108.113 20.114C108.625 19.954 109.073 19.81 109.457 19.682C109.873 19.554 110.321 19.41 110.801 19.25C111.313 19.058 112.065 18.786 113.057 18.434C113.377 18.306 113.601 18.258 113.729 18.29C113.857 18.322 114.001 18.37 114.161 18.434C114.321 18.466 114.449 18.546 114.545 18.674C114.673 18.834 114.689 18.994 114.593 19.154C114.529 19.314 114.433 19.426 114.305 19.49C114.145 19.586 113.969 19.682 113.777 19.778C113.585 19.874 113.409 19.938 113.249 19.97C112.513 20.226 112.017 20.386 111.761 20.45C111.505 20.482 111.297 20.498 111.137 20.498C111.009 20.498 110.817 20.53 110.561 20.594C110.337 20.626 109.857 20.77 109.121 21.026C108.385 21.282 107.633 21.554 106.865 21.842C106.129 22.098 105.361 22.354 104.561 22.61C104.305 22.738 104.049 22.962 103.793 23.282C103.569 23.57 103.377 23.858 103.217 24.146C102.257 25.714 101.185 27.186 100.001 28.562C98.8166 29.906 97.4406 31.074 95.8726 32.066C94.8486 32.706 93.8246 33.25 92.8006 33.698C91.7446 34.146 90.6086 34.418 89.3926 34.514C88.7526 34.578 88.1766 34.53 87.6646 34.37C87.0566 34.242 86.6406 33.954 86.4166 33.506C86.1926 33.058 86.2406 32.562 86.5606 32.018C86.9126 31.346 87.3766 30.738 87.9526 30.194C88.4966 29.746 89.0566 29.33 89.6326 28.946C90.1766 28.53 90.7206 28.114 91.2646 27.698C92.8006 26.674 94.4006 25.794 96.0646 25.058C97.6966 24.322 99.3286 23.602 100.961 22.898C101.601 22.706 102.177 22.402 102.689 21.986C103.233 21.57 103.649 21.074 103.937 20.498C104.481 19.698 104.817 18.978 104.945 18.338C105.073 17.698 105.169 17.378 105.233 17.378C104.817 17.57 104.305 17.89 103.697 18.338C103.089 18.786 102.593 19.106 102.209 19.298C101.857 19.49 101.521 19.65 101.201 19.778C100.881 19.874 100.545 19.97 100.193 20.066C99.9366 20.194 99.6966 20.226 99.4726 20.162C99.2486 20.066 99.0406 19.922 98.8486 19.73C98.5926 19.282 98.6246 18.834 98.9446 18.386C99.1046 18.13 99.2966 17.874 99.5206 17.618C99.7446 17.362 99.9846 17.138 100.241 16.946C100.817 16.402 101.425 15.97 102.065 15.65C102.705 15.33 103.393 15.074 104.129 14.882C104.321 14.818 104.513 14.786 104.705 14.786C104.929 14.786 105.137 14.786 105.329 14.786C105.489 14.754 105.617 14.738 105.713 14.738C105.841 14.738 105.985 14.706 106.145 14.642C106.337 14.578 106.513 14.546 106.673 14.546C106.865 14.514 107.009 14.578 107.105 14.738C107.393 14.994 107.425 15.362 107.201 15.842C106.785 16.77 106.369 17.698 105.953 18.626C105.569 19.554 105.153 20.434 104.705 21.266L105.905 20.882ZM90.3046 33.41C91.4566 33.09 92.6246 32.594 93.8086 31.922C94.9606 31.218 96.0646 30.418 97.1206 29.522C98.1766 28.626 99.1366 27.666 100.001 26.642C100.865 25.618 101.569 24.594 102.113 23.57C101.249 23.826 100.241 24.226 99.0886 24.77C97.9366 25.282 96.7846 25.874 95.6326 26.546C94.4806 27.218 93.3926 27.906 92.3686 28.61C91.3126 29.314 90.4486 29.954 89.7766 30.53C89.2006 30.946 88.7366 31.378 88.3846 31.826C88.0006 32.242 87.8086 32.61 87.8086 32.93C87.7766 33.25 87.9526 33.474 88.3366 33.602C88.7206 33.698 89.3766 33.634 90.3046 33.41ZM100.865 18.242C100.641 18.658 100.657 18.866 100.913 18.866C101.201 18.834 101.585 18.69 102.065 18.434C102.545 18.178 103.073 17.842 103.649 17.426C104.257 16.978 104.785 16.53 105.233 16.082C104.913 16.082 104.545 16.146 104.129 16.274C103.713 16.37 103.297 16.514 102.881 16.706C102.497 16.898 102.113 17.138 101.729 17.426C101.377 17.682 101.089 17.954 100.865 18.242Z" stroke="#C21F2D" stroke-width="1.3"/>
<path d="M92.684 21.698C93.516 21.378 94.476 20.946 95.564 20.402C96.652 19.826 97.612 19.314 98.444 18.866C98.956 18.642 99.356 18.546 99.644 18.578C99.964 18.578 100.156 18.658 100.22 18.818C100.284 18.946 100.22 19.138 100.028 19.394C99.868 19.618 99.548 19.842 99.068 20.066C98.076 20.514 97.068 20.962 96.044 21.41C95.052 21.826 94.044 22.242 93.02 22.658C92.316 22.946 91.66 22.978 91.052 22.754C90.476 22.466 90.252 21.922 90.38 21.122C90.444 20.802 90.54 20.53 90.668 20.306C90.796 20.05 90.892 19.778 90.956 19.49C91.084 19.138 91.196 18.818 91.292 18.53C91.42 18.242 91.468 18.018 91.436 17.858C91.436 17.666 91.324 17.554 91.1 17.522C90.908 17.49 90.556 17.554 90.044 17.714C89.5 18.002 88.956 18.306 88.412 18.626C87.9 18.914 87.388 19.218 86.876 19.538C86.396 19.89 85.916 20.242 85.436 20.594C84.988 20.946 84.508 21.298 83.996 21.65C83.932 21.714 83.868 21.794 83.804 21.89C83.708 21.954 83.596 22.018 83.468 22.082C83.308 22.146 83.148 22.21 82.988 22.274C82.796 22.338 82.604 22.274 82.412 22.082C82.252 21.922 82.188 21.762 82.22 21.602C82.22 21.41 82.284 21.234 82.412 21.074C82.668 20.69 82.924 20.306 83.18 19.922C83.404 19.538 83.644 19.154 83.9 18.77C84.22 18.354 84.524 17.938 84.812 17.522C85.1 17.106 85.388 16.674 85.676 16.226C85.836 16.034 85.948 15.842 86.012 15.65C86.556 14.978 86.956 14.77 87.212 15.026C87.5 15.218 87.404 15.682 86.924 16.418C86.7 16.77 86.492 17.122 86.3 17.474C86.108 17.794 85.884 18.114 85.628 18.434C85.532 18.562 85.356 18.77 85.1 19.058C84.844 19.346 84.62 19.618 84.428 19.874C84.236 20.098 84.14 20.242 84.14 20.306C84.108 20.37 84.284 20.226 84.668 19.874C85.372 19.298 86.108 18.754 86.876 18.242C87.676 17.698 88.476 17.234 89.276 16.85C89.596 16.69 89.948 16.546 90.332 16.418C90.748 16.258 91.116 16.194 91.436 16.226C91.788 16.226 92.076 16.338 92.3 16.562C92.556 16.786 92.716 17.154 92.78 17.666C92.844 18.178 92.748 18.658 92.492 19.106C92.236 19.522 91.996 19.97 91.772 20.45C91.548 21.058 91.484 21.49 91.58 21.746C91.676 21.97 92.044 21.954 92.684 21.698Z" stroke="#C21F2D" stroke-width="1.3"/>
<path d="M84.4861 19.586C83.7821 19.97 83.0621 20.338 82.3261 20.69C81.6221 21.042 80.8701 21.314 80.0701 21.506C79.8141 21.538 79.5581 21.57 79.3021 21.602C79.0461 21.602 78.7901 21.57 78.5341 21.506C78.0861 21.442 77.7661 21.234 77.5741 20.882C77.3501 20.53 77.2701 20.146 77.3341 19.73C77.3341 19.474 77.3661 19.202 77.4301 18.914C77.4621 18.626 77.5581 18.37 77.7181 18.146C78.0701 17.57 78.3901 16.93 78.6781 16.226C78.9981 15.522 79.3661 14.898 79.7821 14.354C79.9421 14.162 80.1341 14.066 80.3581 14.066C80.5821 14.034 80.7741 14.098 80.9341 14.258C81.1261 14.386 81.2381 14.594 81.2701 14.882C81.3021 15.138 81.1901 15.426 80.9341 15.746C80.6141 16.258 80.2941 16.754 79.9741 17.234C79.6541 17.714 79.3341 18.226 79.0141 18.77C78.6941 19.442 78.5501 19.938 78.5821 20.258C78.6461 20.546 78.8061 20.722 79.0621 20.786C79.3501 20.85 79.7021 20.818 80.1181 20.69C80.5341 20.562 80.9501 20.386 81.3661 20.162C81.8141 19.938 82.2301 19.714 82.6141 19.49C82.9981 19.234 83.2701 19.01 83.4301 18.818C83.7501 18.466 84.0381 18.29 84.2941 18.29C84.5501 18.258 84.7261 18.322 84.8221 18.482C84.9501 18.61 84.9981 18.802 84.9661 19.058C84.9341 19.282 84.7741 19.458 84.4861 19.586ZM83.3341 10.514C83.5901 10.514 83.7821 10.594 83.9101 10.754C84.0701 10.914 84.1181 11.106 84.0541 11.33C83.9901 11.586 83.8141 11.858 83.5261 12.146C83.2381 12.434 82.9341 12.674 82.6141 12.866C82.1661 13.122 81.8461 13.218 81.6541 13.154C81.4941 13.09 81.4781 12.754 81.6061 12.146C81.6701 11.762 81.8301 11.394 82.0861 11.042C82.3741 10.69 82.7901 10.514 83.3341 10.514Z" stroke="#C21F2D" stroke-width="1.3"/>
<path d="M69.3286 7.96997C68.5926 8.06598 68.1446 8.00198 67.9846 7.77797C67.7926 7.55398 67.7286 7.39398 67.7926 7.29797C67.8886 7.13797 68.0646 6.99397 68.3206 6.86597C68.5446 6.70597 68.9926 6.65798 69.6646 6.72198C70.7206 6.81798 71.8086 6.86597 72.9286 6.86597C74.0806 6.86597 75.2166 6.78597 76.3366 6.62597C76.4326 6.56198 76.5126 6.48198 76.5766 6.38597C77.0246 5.77798 77.3606 5.29798 77.5846 4.94598C77.8086 4.59398 78.0166 4.27397 78.2086 3.98597C78.4006 3.69797 78.6086 3.39397 78.8326 3.07397C79.0886 2.72198 79.4406 2.24198 79.8886 1.63398C79.9846 1.44197 80.1286 1.28197 80.3206 1.15397C80.5446 0.993974 80.7526 0.993974 80.9446 1.15397C81.0086 1.21797 81.0566 1.32998 81.0886 1.48997C81.1206 1.64997 81.1366 1.79397 81.1366 1.92198C81.1046 2.04998 81.0406 2.17798 80.9446 2.30598C80.8486 2.43397 80.7686 2.54597 80.7046 2.64197C80.3526 3.12197 80.0966 3.47397 79.9366 3.69798C79.8086 3.92197 79.6806 4.14597 79.5526 4.36998C79.4246 4.59397 79.2646 4.86597 79.0726 5.18598C78.8806 5.50598 78.5446 6.00198 78.0646 6.67397C78.7366 6.80197 79.6006 6.89797 80.6566 6.96198C81.7446 6.99398 82.9126 7.00998 84.1606 7.00998C85.4086 6.97798 86.6886 6.92998 88.0006 6.86597C89.3446 6.76998 90.6246 6.65798 91.8406 6.52998C92.6086 6.46597 93.3286 6.40197 94.0006 6.33798C94.6726 6.27397 95.2326 6.25797 95.6806 6.28998C96.4806 6.35398 96.8486 6.51398 96.7846 6.76998C96.7206 7.02597 96.3526 7.23397 95.6806 7.39398C95.1046 7.48997 94.3046 7.56997 93.2806 7.63398C92.2886 7.69798 91.2006 7.76198 90.0166 7.82598C88.8326 7.85798 87.5846 7.88998 86.2726 7.92198C84.9926 7.92198 83.7606 7.92198 82.5766 7.92198C81.4246 7.88998 80.3686 7.87398 79.4086 7.87398C78.4806 7.87398 77.7606 7.85798 77.2486 7.82598C76.7046 8.52997 76.1286 9.29797 75.5206 10.13C74.9446 10.962 74.3686 11.81 73.7926 12.674C73.2486 13.538 72.7366 14.386 72.2566 15.218C71.7766 16.018 71.3606 16.754 71.0086 17.426C70.7206 18.002 70.4326 18.642 70.1446 19.346C69.8566 20.018 69.6646 20.626 69.5686 21.17C69.5046 21.682 69.6006 22.066 69.8566 22.322C70.1126 22.546 70.6246 22.498 71.3926 22.178C71.7446 22.05 72.1446 21.858 72.5926 21.602C73.0406 21.346 73.5046 21.074 73.9846 20.786C74.4646 20.466 74.9286 20.146 75.3766 19.826C75.8246 19.474 76.2406 19.138 76.6246 18.818C76.7846 18.722 76.9126 18.626 77.0086 18.53C77.1046 18.402 77.2326 18.306 77.3926 18.242C77.5846 18.114 77.7446 18.034 77.8726 18.002C78.0326 17.938 78.1926 18.002 78.3526 18.194C78.4806 18.386 78.4966 18.578 78.4006 18.77C78.3366 18.93 78.2246 19.09 78.0646 19.25C77.8726 19.442 77.5366 19.714 77.0566 20.066C76.5766 20.418 76.0166 20.786 75.3766 21.17C74.7686 21.554 74.1126 21.938 73.4086 22.322C72.7366 22.674 72.0966 22.962 71.4886 23.186C70.4006 23.57 69.6486 23.618 69.2326 23.33C68.7846 23.01 68.5446 22.546 68.5126 21.938C68.4486 21.33 68.5286 20.658 68.7526 19.922C68.9766 19.186 69.2006 18.546 69.4246 18.002C69.8086 17.106 70.2566 16.21 70.7686 15.314C71.2806 14.418 71.8086 13.538 72.3526 12.674C72.9286 11.81 73.4886 10.978 74.0326 10.178C74.6086 9.34598 75.1206 8.57798 75.5686 7.87398C74.5126 7.90598 73.4246 7.93797 72.3046 7.96997C71.2166 7.96997 70.2246 7.96997 69.3286 7.96997Z" stroke="#C21F2D" stroke-width="1.3"/>
<path d="M60.8911 7.96997C60.1551 8.06598 59.7071 8.00198 59.5471 7.77797C59.3551 7.55398 59.2911 7.39398 59.3551 7.29797C59.4511 7.13797 59.6271 6.99397 59.8831 6.86597C60.1071 6.70597 60.5551 6.65798 61.2271 6.72198C62.2831 6.81798 63.3711 6.86597 64.4911 6.86597C65.6431 6.86597 66.7791 6.78597 67.8991 6.62597C67.9951 6.56198 68.0751 6.48198 68.1391 6.38597C68.5871 5.77798 68.9231 5.29798 69.1471 4.94598C69.3711 4.59398 69.5791 4.27397 69.7711 3.98597C69.9631 3.69797 70.1711 3.39397 70.3951 3.07397C70.6511 2.72198 71.0031 2.24198 71.4511 1.63398C71.5471 1.44197 71.6911 1.28197 71.8831 1.15397C72.1071 0.993974 72.3151 0.993974 72.5071 1.15397C72.5711 1.21797 72.6191 1.32998 72.6511 1.48997C72.6831 1.64997 72.6991 1.79397 72.6991 1.92198C72.6671 2.04998 72.6031 2.17798 72.5071 2.30598C72.4111 2.43397 72.3311 2.54597 72.2671 2.64197C71.9151 3.12197 71.6591 3.47397 71.4991 3.69798C71.3711 3.92197 71.2431 4.14597 71.1151 4.36998C70.9871 4.59397 70.8271 4.86597 70.6351 5.18598C70.4431 5.50598 70.1071 6.00198 69.6271 6.67397C70.2991 6.80197 71.1631 6.89797 72.2191 6.96198C73.3071 6.99398 74.4751 7.00998 75.7231 7.00998C76.9711 6.97798 78.2511 6.92998 79.5631 6.86597C80.9071 6.76998 82.1871 6.65798 83.4031 6.52998C84.1711 6.46597 84.8911 6.40197 85.5631 6.33798C86.2351 6.27397 86.7951 6.25797 87.2431 6.28998C88.0431 6.35398 88.4111 6.51398 88.3471 6.76998C88.2831 7.02597 87.9151 7.23397 87.2431 7.39398C86.6671 7.48997 85.8671 7.56997 84.8431 7.63398C83.8511 7.69798 82.7631 7.76198 81.5791 7.82598C80.3951 7.85798 79.1471 7.88998 77.8351 7.92198C76.5551 7.92198 75.3231 7.92198 74.1391 7.92198C72.9871 7.88998 71.9311 7.87398 70.9711 7.87398C70.0431 7.87398 69.3231 7.85798 68.8111 7.82598C68.2671 8.52997 67.6911 9.29797 67.0831 10.13C66.5071 10.962 65.9311 11.81 65.3551 12.674C64.8111 13.538 64.2991 14.386 63.8191 15.218C63.3391 16.018 62.9231 16.754 62.5711 17.426C62.2831 18.002 61.9951 18.642 61.7071 19.346C61.4191 20.018 61.2271 20.626 61.1311 21.17C61.0671 21.682 61.1631 22.066 61.4191 22.322C61.6751 22.546 62.1871 22.498 62.9551 22.178C63.3071 22.05 63.7071 21.858 64.1551 21.602C64.6031 21.346 65.0671 21.074 65.5471 20.786C66.0271 20.466 66.4911 20.146 66.9391 19.826C67.3871 19.474 67.8031 19.138 68.1871 18.818C68.3471 18.722 68.4751 18.626 68.5711 18.53C68.6671 18.402 68.7951 18.306 68.9551 18.242C69.1471 18.114 69.3071 18.034 69.4351 18.002C69.5951 17.938 69.7551 18.002 69.9151 18.194C70.0431 18.386 70.0591 18.578 69.9631 18.77C69.8991 18.93 69.7871 19.09 69.6271 19.25C69.4351 19.442 69.0991 19.714 68.6191 20.066C68.1391 20.418 67.5791 20.786 66.9391 21.17C66.3311 21.554 65.6751 21.938 64.9711 22.322C64.2991 22.674 63.6591 22.962 63.0511 23.186C61.9631 23.57 61.2111 23.618 60.7951 23.33C60.3471 23.01 60.1071 22.546 60.0751 21.938C60.0111 21.33 60.0911 20.658 60.3151 19.922C60.5391 19.186 60.7631 18.546 60.9871 18.002C61.3711 17.106 61.8191 16.21 62.3311 15.314C62.8431 14.418 63.3711 13.538 63.9151 12.674C64.4911 11.81 65.0511 10.978 65.5951 10.178C66.1711 9.34598 66.6831 8.57798 67.1311 7.87398C66.0751 7.90598 64.9871 7.93797 63.8671 7.96997C62.7791 7.96997 61.7871 7.96997 60.8911 7.96997Z" stroke="#C21F2D" stroke-width="1.3"/>
<path d="M60.2255 18.434C60.3855 18.37 60.5295 18.322 60.6575 18.29C60.7855 18.226 60.9295 18.162 61.0895 18.098C61.4735 18.034 61.7455 18.146 61.9055 18.434C62.0655 18.818 61.9695 19.09 61.6175 19.25C60.4335 19.858 59.2015 20.322 57.9215 20.642C56.6415 20.962 55.3615 21.154 54.0815 21.218C53.6335 21.25 53.1535 21.25 52.6415 21.218C52.1615 21.186 51.7135 21.074 51.2975 20.882C50.9135 20.69 50.6255 20.418 50.4335 20.066C50.2415 19.682 50.2255 19.17 50.3855 18.53C50.6095 17.89 50.8175 17.442 51.0095 17.186C51.2015 16.93 51.5695 16.658 52.1135 16.37C52.6895 16.114 53.2815 15.938 53.8895 15.842C54.5295 15.714 55.1375 15.65 55.7135 15.65C56.2575 15.714 56.5775 15.986 56.6735 16.466C56.7695 16.978 56.5935 17.362 56.1455 17.618C55.8255 17.81 55.4895 17.986 55.1375 18.146C54.7855 18.274 54.4175 18.402 54.0335 18.53C53.7455 18.594 53.4415 18.642 53.1215 18.674C52.8015 18.706 52.4815 18.722 52.1615 18.722C51.6815 18.722 51.4095 18.834 51.3455 19.058C51.3135 19.25 51.4095 19.458 51.6335 19.682C51.9535 20.002 52.5135 20.178 53.3135 20.21C54.1135 20.21 54.9615 20.146 55.8575 20.018C56.7855 19.858 57.6495 19.634 58.4495 19.346C59.2815 19.058 59.8735 18.754 60.2255 18.434ZM55.3775 17.042C55.6015 16.754 55.6015 16.61 55.3775 16.61C55.1855 16.578 54.8815 16.626 54.4655 16.754C54.0815 16.882 53.6335 17.074 53.1215 17.33C52.6095 17.586 52.1615 17.842 51.7775 18.098C52.2575 18.162 52.8815 18.098 53.6495 17.906C54.4175 17.682 54.9935 17.394 55.3775 17.042Z" stroke="#C21F2D" stroke-width="1.3"/>
<path d="M45.482 18.002C44.874 18.098 44.282 18.194 43.706 18.29C43.13 18.386 42.554 18.482 41.978 18.578C41.594 18.642 41.338 18.834 41.21 19.154C40.89 19.73 40.506 20.242 40.058 20.69C38.906 21.938 37.834 23.266 36.842 24.674C35.882 26.082 34.906 27.49 33.914 28.898C33.306 29.762 32.698 30.738 32.09 31.826C31.482 32.914 30.922 33.842 30.41 34.61C30.122 35.026 29.85 35.362 29.594 35.618C29.37 35.874 29.162 36.002 28.97 36.002C28.618 36.002 28.394 35.906 28.298 35.714C28.234 35.522 28.234 35.314 28.298 35.09C28.394 34.834 28.506 34.578 28.634 34.322C28.794 34.066 28.922 33.858 29.018 33.698C29.754 32.322 30.586 31.01 31.514 29.762C32.442 28.514 33.274 27.202 34.01 25.826C33.466 26.178 32.906 26.514 32.33 26.834C31.754 27.122 31.194 27.442 30.65 27.794C28.474 29.01 26.298 30.098 24.122 31.058C21.978 31.986 19.754 32.722 17.45 33.266C16.65 33.458 15.85 33.602 15.05 33.698C14.25 33.794 13.466 33.778 12.698 33.65C11.706 33.458 11.018 32.978 10.634 32.21C10.282 31.442 10.33 30.466 10.778 29.282C11.066 28.61 11.37 28.002 11.69 27.458C12.042 26.882 12.442 26.29 12.89 25.682C13.69 24.658 14.522 23.698 15.386 22.802C16.282 21.906 17.226 21.01 18.218 20.114C19.146 19.346 20.074 18.562 21.002 17.762C21.962 16.962 22.906 16.194 23.834 15.458C23.962 15.298 24.09 15.17 24.218 15.074C24.346 14.946 24.474 14.818 24.602 14.69L24.506 14.498C24.122 14.658 23.754 14.802 23.402 14.93C23.05 15.058 22.682 15.17 22.298 15.266C20.026 16.002 17.77 16.722 15.53 17.426C13.322 18.098 11.098 18.674 8.858 19.154C7.77 19.378 6.698 19.554 5.642 19.682C4.586 19.778 3.53 19.906 2.474 20.066C2.122 20.13 1.754 20.13 1.37 20.066C1.21 20.034 1.05 19.97 0.889999 19.874C0.729999 19.746 0.65 19.506 0.65 19.154C0.81 19.122 0.938 19.09 1.034 19.058C1.162 18.994 1.306 18.962 1.466 18.962C3.738 18.802 5.994 18.466 8.234 17.954C10.474 17.442 12.73 16.818 15.002 16.082C16.986 15.474 18.97 14.834 20.954 14.162C22.938 13.49 24.906 12.834 26.858 12.194C27.594 11.938 28.314 11.634 29.018 11.282C29.722 10.93 30.442 10.53 31.178 10.082C33.066 8.83398 34.954 7.61798 36.842 6.43398C38.73 5.24998 40.682 4.16198 42.698 3.16998C43.594 2.72198 44.49 2.32198 45.386 1.96998C46.314 1.58598 47.242 1.21798 48.17 0.865979C48.586 0.673979 49.05 0.609979 49.562 0.673978C50.01 0.705978 50.298 0.929978 50.426 1.34598C50.554 1.72998 50.458 2.14598 50.138 2.59398C49.882 2.91398 49.594 3.20198 49.274 3.45798C48.954 3.71398 48.634 3.96998 48.314 4.22598C47.226 5.05798 46.122 5.77798 45.002 6.38598C43.914 6.96198 42.794 7.48998 41.642 7.96998C40.042 8.67398 38.458 9.32998 36.89 9.93798C35.354 10.546 33.786 11.154 32.186 11.762C31.546 12.018 30.89 12.306 30.218 12.626C29.578 12.946 28.97 13.33 28.394 13.778C26.154 15.378 23.978 17.058 21.866 18.818C19.754 20.546 17.722 22.418 15.77 24.434C15.322 24.978 14.874 25.522 14.426 26.066C14.01 26.61 13.594 27.154 13.178 27.698C12.922 28.018 12.714 28.37 12.554 28.754C12.426 29.106 12.282 29.49 12.122 29.906C11.898 30.45 11.85 30.898 11.978 31.25C12.138 31.602 12.442 31.826 12.89 31.922C13.882 32.146 14.842 32.162 15.77 31.97C17.402 31.714 19.018 31.314 20.618 30.77C22.25 30.194 23.866 29.522 25.466 28.754C27.098 27.986 28.682 27.17 30.218 26.306C31.786 25.442 33.338 24.482 34.874 23.426C35.482 22.978 36.09 22.498 36.698 21.986C37.306 21.442 37.834 20.85 38.282 20.21C38.41 20.05 38.538 19.89 38.666 19.73C38.794 19.538 38.938 19.314 39.098 19.058C38.33 19.186 37.594 19.314 36.89 19.442C36.186 19.57 35.482 19.682 34.778 19.778C33.946 19.97 33.114 20.178 32.282 20.402C31.482 20.594 30.666 20.786 29.834 20.978C29.674 21.01 29.53 21.026 29.402 21.026C29.274 21.026 29.146 21.026 29.018 21.026C28.922 20.994 28.842 20.946 28.778 20.882C28.714 20.786 28.682 20.706 28.682 20.642C28.682 20.578 28.698 20.482 28.73 20.354C28.794 20.194 28.858 20.098 28.922 20.066C29.114 19.906 29.306 19.794 29.498 19.73C29.69 19.666 29.882 19.602 30.074 19.538C32.73 18.994 35.322 18.498 37.85 18.05C40.41 17.602 42.954 17.058 45.482 16.418C46.538 16.162 47.29 16.082 47.738 16.178C48.186 16.242 48.378 16.386 48.314 16.61C48.282 16.834 48.01 17.09 47.498 17.378C47.018 17.666 46.346 17.874 45.482 18.002ZM48.026 2.54598C47.546 2.60998 46.746 2.88198 45.626 3.36198C44.506 3.84198 43.338 4.40198 42.122 5.04198C40.938 5.68198 39.818 6.32198 38.762 6.96198C37.738 7.56998 37.082 8.04998 36.794 8.40198C37.434 8.27398 38.33 7.96998 39.482 7.48998C40.634 7.00998 41.786 6.46598 42.938 5.85798C44.122 5.24998 45.194 4.64198 46.154 4.03398C47.114 3.42598 47.738 2.92998 48.026 2.54598Z" stroke="#C21F2D" stroke-width="1.3"/>
</svg>
