<svg width="115" height="43" viewBox="0 0 115 43" fill="none" xmlns="http://www.w3.org/2000/svg">
<path d="M24.78 24.96C26.02 24.52 26.94 24.2 27.54 24C28.18 23.8 28.74 23.62 29.22 23.46C29.74 23.3 30.3 23.12 30.9 22.92C31.54 22.68 32.48 22.34 33.72 21.9C34.12 21.74 34.4 21.68 34.56 21.72C34.72 21.76 34.9 21.82 35.1 21.9C35.3 21.94 35.46 22.04 35.58 22.2C35.74 22.4 35.76 22.6 35.64 22.8C35.56 23 35.44 23.14 35.28 23.22C35.08 23.34 34.86 23.46 34.62 23.58C34.38 23.7 34.16 23.78 33.96 23.82C33.04 24.14 32.42 24.34 32.1 24.42C31.78 24.46 31.52 24.48 31.32 24.48C31.16 24.48 30.92 24.52 30.6 24.6C30.32 24.64 29.72 24.82 28.8 25.14C27.88 25.46 26.94 25.8 25.98 26.16C25.06 26.48 24.1 26.8 23.1 27.12C22.78 27.28 22.46 27.56 22.14 27.96C21.86 28.32 21.62 28.68 21.42 29.04C20.22 31 18.88 32.84 17.4 34.56C15.92 36.24 14.2 37.7 12.24 38.94C10.96 39.74 9.67999 40.42 8.39999 40.98C7.07999 41.54 5.65999 41.88 4.13999 42C3.33999 42.08 2.61999 42.02 1.97999 41.82C1.21999 41.66 0.699994 41.3 0.419994 40.74C0.139995 40.18 0.199994 39.56 0.599994 38.88C1.03999 38.04 1.61999 37.28 2.33999 36.6C3.01999 36.04 3.71999 35.52 4.43999 35.04C5.11999 34.52 5.79999 34 6.47999 33.48C8.39999 32.2 10.4 31.1 12.48 30.18C14.52 29.26 16.56 28.36 18.6 27.48C19.4 27.24 20.12 26.86 20.76 26.34C21.44 25.82 21.96 25.2 22.32 24.48C23 23.48 23.42 22.58 23.58 21.78C23.74 20.98 23.86 20.58 23.94 20.58C23.42 20.82 22.78 21.22 22.02 21.78C21.26 22.34 20.64 22.74 20.16 22.98C19.72 23.22 19.3 23.42 18.9 23.58C18.5 23.7 18.08 23.82 17.64 23.94C17.32 24.1 17.02 24.14 16.74 24.06C16.46 23.94 16.2 23.76 15.96 23.52C15.64 22.96 15.68 22.4 16.08 21.84C16.28 21.52 16.52 21.2 16.8 20.88C17.08 20.56 17.38 20.28 17.7 20.04C18.42 19.36 19.18 18.82 19.98 18.42C20.78 18.02 21.64 17.7 22.56 17.46C22.8 17.38 23.04 17.34 23.28 17.34C23.56 17.34 23.82 17.34 24.06 17.34C24.26 17.3 24.42 17.28 24.54 17.28C24.7 17.28 24.88 17.24 25.08 17.16C25.32 17.08 25.54 17.04 25.74 17.04C25.98 17 26.16 17.08 26.28 17.28C26.64 17.6 26.68 18.06 26.4 18.66C25.88 19.82 25.36 20.98 24.84 22.14C24.36 23.3 23.84 24.4 23.28 25.44L24.78 24.96ZM5.27999 40.62C6.71999 40.22 8.17999 39.6 9.65999 38.76C11.1 37.88 12.48 36.88 13.8 35.76C15.12 34.64 16.32 33.44 17.4 32.16C18.48 30.88 19.36 29.6 20.04 28.32C18.96 28.64 17.7 29.14 16.26 29.82C14.82 30.46 13.38 31.2 11.94 32.04C10.5 32.88 9.13999 33.74 7.85999 34.62C6.53999 35.5 5.45999 36.3 4.61999 37.02C3.89999 37.54 3.31999 38.08 2.87999 38.64C2.39999 39.16 2.15999 39.62 2.15999 40.02C2.11999 40.42 2.33999 40.7 2.81999 40.86C3.29999 40.98 4.11999 40.9 5.27999 40.62ZM18.48 21.66C18.2 22.18 18.22 22.44 18.54 22.44C18.9 22.4 19.38 22.22 19.98 21.9C20.58 21.58 21.24 21.16 21.96 20.64C22.72 20.08 23.38 19.52 23.94 18.96C23.54 18.96 23.08 19.04 22.56 19.2C22.04 19.32 21.52 19.5 21 19.74C20.52 19.98 20.04 20.28 19.56 20.64C19.12 20.96 18.76 21.3 18.48 21.66ZM46.4311 21.9C46.6311 21.82 46.8111 21.76 46.9711 21.72C47.1311 21.64 47.3111 21.56 47.5111 21.48C47.9911 21.4 48.3311 21.54 48.5311 21.9C48.7311 22.38 48.6111 22.72 48.1711 22.92C46.6911 23.68 45.1511 24.26 43.5511 24.66C41.9511 25.06 40.3511 25.3 38.7511 25.38C38.1911 25.42 37.5911 25.42 36.9511 25.38C36.3511 25.34 35.7911 25.2 35.2711 24.96C34.7911 24.72 34.4311 24.38 34.1911 23.94C33.9511 23.46 33.9311 22.82 34.1311 22.02C34.4111 21.22 34.6711 20.66 34.9111 20.34C35.1511 20.02 35.6111 19.68 36.2911 19.32C37.0111 19 37.7511 18.78 38.5111 18.66C39.3111 18.5 40.0711 18.42 40.7911 18.42C41.4711 18.5 41.8711 18.84 41.9911 19.44C42.1111 20.08 41.8911 20.56 41.3311 20.88C40.9311 21.12 40.5111 21.34 40.0711 21.54C39.6311 21.7 39.1711 21.86 38.6911 22.02C38.3311 22.1 37.9511 22.16 37.5511 22.2C37.1511 22.24 36.7511 22.26 36.3511 22.26C35.7511 22.26 35.4111 22.4 35.3311 22.68C35.2911 22.92 35.4111 23.18 35.6911 23.46C36.0911 23.86 36.7911 24.08 37.7911 24.12C38.7911 24.12 39.8511 24.04 40.9711 23.88C42.1311 23.68 43.2111 23.4 44.2111 23.04C45.2511 22.68 45.9911 22.3 46.4311 21.9ZM40.3711 20.16C40.6511 19.8 40.6511 19.62 40.3711 19.62C40.1311 19.58 39.7511 19.64 39.2311 19.8C38.7511 19.96 38.1911 20.2 37.5511 20.52C36.9111 20.84 36.3511 21.16 35.8711 21.48C36.4711 21.56 37.2511 21.48 38.2111 21.24C39.1711 20.96 39.8911 20.6 40.3711 20.16ZM47.2631 8.82001C46.3431 8.94001 45.7831 8.86001 45.5831 8.58001C45.3431 8.30001 45.2631 8.10001 45.3431 7.98001C45.4631 7.78001 45.6831 7.60001 46.0031 7.44001C46.2831 7.24001 46.8431 7.18001 47.6831 7.26001C49.0031 7.38001 50.3631 7.44001 51.7631 7.44001C53.2031 7.44001 54.6231 7.34001 56.0231 7.14001C56.1431 7.06001 56.2431 6.96001 56.3231 6.84001C56.8831 6.08001 57.3031 5.48001 57.5831 5.04001C57.8631 4.60001 58.1231 4.20001 58.3631 3.84001C58.6031 3.48001 58.8631 3.10001 59.1431 2.70001C59.4631 2.26001 59.9031 1.66001 60.4631 0.900013C60.5831 0.660011 60.7631 0.46001 61.0031 0.30001C61.2831 0.10001 61.5431 0.10001 61.7831 0.30001C61.8631 0.380011 61.9231 0.520012 61.9631 0.720012C62.0031 0.920012 62.0231 1.10001 62.0231 1.26001C61.9831 1.42001 61.9031 1.58001 61.7831 1.74001C61.6631 1.90001 61.5631 2.04001 61.4831 2.16001C61.0431 2.76001 60.7231 3.20001 60.5231 3.48001C60.3631 3.76001 60.2031 4.04001 60.0431 4.32001C59.8831 4.60001 59.6831 4.94001 59.4431 5.34001C59.2031 5.74001 58.7831 6.36001 58.1831 7.20001C59.0231 7.36001 60.1031 7.48001 61.4231 7.56001C62.7831 7.60001 64.2431 7.62001 65.8031 7.62001C67.3631 7.58001 68.9631 7.52001 70.6031 7.44001C72.2831 7.32001 73.8831 7.18001 75.4031 7.02001C76.3631 6.94001 77.2631 6.86001 78.1031 6.78001C78.9431 6.70001 79.6431 6.68001 80.2031 6.72001C81.2031 6.80001 81.6631 7.00001 81.5831 7.32001C81.5031 7.64001 81.0431 7.90001 80.2031 8.10001C79.4831 8.22001 78.4831 8.32001 77.2031 8.40001C75.9631 8.48001 74.6031 8.56001 73.1231 8.64001C71.6431 8.68001 70.0831 8.72001 68.4431 8.76001C66.8431 8.76001 65.3031 8.76001 63.8231 8.76001C62.3831 8.72001 61.0631 8.70001 59.8631 8.70001C58.7031 8.70001 57.8031 8.68001 57.1631 8.64001C56.4831 9.52001 55.7631 10.48 55.0031 11.52C54.2831 12.56 53.5631 13.62 52.8431 14.7C52.1631 15.78 51.5231 16.84 50.9231 17.88C50.3231 18.88 49.8031 19.8 49.3631 20.64C49.0031 21.36 48.6431 22.16 48.2831 23.04C47.9231 23.88 47.6831 24.64 47.5631 25.32C47.4831 25.96 47.6031 26.44 47.9231 26.76C48.2431 27.04 48.8831 26.98 49.8431 26.58C50.2831 26.42 50.7831 26.18 51.3431 25.86C51.9031 25.54 52.4831 25.2 53.0831 24.84C53.6831 24.44 54.2631 24.04 54.8231 23.64C55.3831 23.2 55.9031 22.78 56.3831 22.38C56.5831 22.26 56.7431 22.14 56.8631 22.02C56.9831 21.86 57.1431 21.74 57.3431 21.66C57.5831 21.5 57.7831 21.4 57.9431 21.36C58.1431 21.28 58.3431 21.36 58.5431 21.6C58.7031 21.84 58.7231 22.08 58.6031 22.32C58.5231 22.52 58.3831 22.72 58.1831 22.92C57.9431 23.16 57.5231 23.5 56.9231 23.94C56.3231 24.38 55.6231 24.84 54.8231 25.32C54.0631 25.8 53.2431 26.28 52.3631 26.76C51.5231 27.2 50.7231 27.56 49.9631 27.84C48.6031 28.32 47.6631 28.38 47.1431 28.02C46.5831 27.62 46.2831 27.04 46.2431 26.28C46.1631 25.52 46.2631 24.68 46.5431 23.76C46.8231 22.84 47.1031 22.04 47.3831 21.36C47.8631 20.24 48.4231 19.12 49.0631 18C49.7031 16.88 50.3631 15.78 51.0431 14.7C51.7631 13.62 52.4631 12.58 53.1431 11.58C53.8631 10.54 54.5031 9.58001 55.0631 8.70001C53.7431 8.74001 52.3831 8.78001 50.9831 8.82001C49.6231 8.82001 48.3831 8.82001 47.2631 8.82001ZM57.81 8.82001C56.89 8.94001 56.33 8.86001 56.13 8.58001C55.89 8.30001 55.81 8.10001 55.89 7.98001C56.01 7.78001 56.23 7.60001 56.55 7.44001C56.83 7.24001 57.39 7.18001 58.23 7.26001C59.55 7.38001 60.91 7.44001 62.31 7.44001C63.75 7.44001 65.17 7.34001 66.57 7.14001C66.69 7.06001 66.79 6.96001 66.87 6.84001C67.43 6.08001 67.85 5.48001 68.13 5.04001C68.41 4.60001 68.67 4.20001 68.91 3.84001C69.15 3.48001 69.41 3.10001 69.69 2.70001C70.01 2.26001 70.45 1.66001 71.01 0.900013C71.13 0.660011 71.31 0.46001 71.55 0.30001C71.83 0.10001 72.09 0.10001 72.33 0.30001C72.41 0.380011 72.47 0.520012 72.51 0.720012C72.55 0.920012 72.57 1.10001 72.57 1.26001C72.53 1.42001 72.45 1.58001 72.33 1.74001C72.21 1.90001 72.11 2.04001 72.03 2.16001C71.59 2.76001 71.27 3.20001 71.07 3.48001C70.91 3.76001 70.75 4.04001 70.59 4.32001C70.43 4.60001 70.23 4.94001 69.99 5.34001C69.75 5.74001 69.33 6.36001 68.73 7.20001C69.57 7.36001 70.65 7.48001 71.97 7.56001C73.33 7.60001 74.79 7.62001 76.35 7.62001C77.91 7.58001 79.51 7.52001 81.15 7.44001C82.83 7.32001 84.43 7.18001 85.95 7.02001C86.91 6.94001 87.81 6.86001 88.65 6.78001C89.49 6.70001 90.19 6.68001 90.75 6.72001C91.75 6.80001 92.21 7.00001 92.13 7.32001C92.05 7.64001 91.59 7.90001 90.75 8.10001C90.03 8.22001 89.03 8.32001 87.75 8.40001C86.51 8.48001 85.15 8.56001 83.67 8.64001C82.19 8.68001 80.63 8.72001 78.99 8.76001C77.39 8.76001 75.85 8.76001 74.37 8.76001C72.93 8.72001 71.61 8.70001 70.41 8.70001C69.25 8.70001 68.35 8.68001 67.71 8.64001C67.03 9.52001 66.31 10.48 65.55 11.52C64.83 12.56 64.11 13.62 63.39 14.7C62.71 15.78 62.07 16.84 61.47 17.88C60.87 18.88 60.35 19.8 59.91 20.64C59.55 21.36 59.19 22.16 58.83 23.04C58.47 23.88 58.23 24.64 58.11 25.32C58.03 25.96 58.15 26.44 58.47 26.76C58.79 27.04 59.43 26.98 60.39 26.58C60.83 26.42 61.33 26.18 61.89 25.86C62.45 25.54 63.03 25.2 63.63 24.84C64.23 24.44 64.81 24.04 65.37 23.64C65.93 23.2 66.45 22.78 66.93 22.38C67.13 22.26 67.29 22.14 67.41 22.02C67.53 21.86 67.69 21.74 67.89 21.66C68.13 21.5 68.33 21.4 68.49 21.36C68.69 21.28 68.89 21.36 69.09 21.6C69.25 21.84 69.27 22.08 69.15 22.32C69.07 22.52 68.93 22.72 68.73 22.92C68.49 23.16 68.07 23.5 67.47 23.94C66.87 24.38 66.17 24.84 65.37 25.32C64.61 25.8 63.79 26.28 62.91 26.76C62.07 27.2 61.27 27.56 60.51 27.84C59.15 28.32 58.21 28.38 57.69 28.02C57.13 27.62 56.83 27.04 56.79 26.28C56.71 25.52 56.81 24.68 57.09 23.76C57.37 22.84 57.65 22.04 57.93 21.36C58.41 20.24 58.97 19.12 59.61 18C60.25 16.88 60.91 15.78 61.59 14.7C62.31 13.62 63.01 12.58 63.69 11.58C64.41 10.54 65.05 9.58001 65.61 8.70001C64.29 8.74001 62.93 8.78001 61.53 8.82001C60.17 8.82001 58.93 8.82001 57.81 8.82001ZM76.7569 23.34C75.8769 23.82 74.9769 24.28 74.0569 24.72C73.1769 25.16 72.2369 25.5 71.2369 25.74C70.9169 25.78 70.5969 25.82 70.2769 25.86C69.9569 25.86 69.6369 25.82 69.3169 25.74C68.7569 25.66 68.3569 25.4 68.1169 24.96C67.8369 24.52 67.7369 24.04 67.8169 23.52C67.8169 23.2 67.8569 22.86 67.9369 22.5C67.9769 22.14 68.0969 21.82 68.2969 21.54C68.7369 20.82 69.1369 20.02 69.4969 19.14C69.8969 18.26 70.3569 17.48 70.8769 16.8C71.0769 16.56 71.3169 16.44 71.5969 16.44C71.8769 16.4 72.1169 16.48 72.3169 16.68C72.5569 16.84 72.6969 17.1 72.7369 17.46C72.7769 17.78 72.6369 18.14 72.3169 18.54C71.9169 19.18 71.5169 19.8 71.1169 20.4C70.7169 21 70.3169 21.64 69.9169 22.32C69.5169 23.16 69.3369 23.78 69.3769 24.18C69.4569 24.54 69.6569 24.76 69.9769 24.84C70.3369 24.92 70.7769 24.88 71.2969 24.72C71.8169 24.56 72.3369 24.34 72.8569 24.06C73.4169 23.78 73.9369 23.5 74.4169 23.22C74.8969 22.9 75.2369 22.62 75.4369 22.38C75.8369 21.94 76.1969 21.72 76.5169 21.72C76.8369 21.68 77.0569 21.76 77.1769 21.96C77.3369 22.12 77.3969 22.36 77.3569 22.68C77.3169 22.96 77.1169 23.18 76.7569 23.34ZM75.3169 12C75.6369 12 75.8769 12.1 76.0369 12.3C76.2369 12.5 76.2969 12.74 76.2169 13.02C76.1369 13.34 75.9169 13.68 75.5569 14.04C75.1969 14.4 74.8169 14.7 74.4169 14.94C73.8569 15.26 73.4569 15.38 73.2169 15.3C73.0169 15.22 72.9969 14.8 73.1569 14.04C73.2369 13.56 73.4369 13.1 73.7569 12.66C74.1169 12.22 74.6369 12 75.3169 12ZM87.0042 25.98C88.0442 25.58 89.2442 25.04 90.6042 24.36C91.9642 23.64 93.1642 23 94.2042 22.44C94.8442 22.16 95.3442 22.04 95.7042 22.08C96.1042 22.08 96.3442 22.18 96.4242 22.38C96.5042 22.54 96.4242 22.78 96.1842 23.1C95.9842 23.38 95.5842 23.66 94.9842 23.94C93.7442 24.5 92.4842 25.06 91.2042 25.62C89.9642 26.14 88.7042 26.66 87.4242 27.18C86.5442 27.54 85.7242 27.58 84.9642 27.3C84.2442 26.94 83.9642 26.26 84.1242 25.26C84.2042 24.86 84.3242 24.52 84.4842 24.24C84.6442 23.92 84.7642 23.58 84.8442 23.22C85.0042 22.78 85.1442 22.38 85.2642 22.02C85.4242 21.66 85.4842 21.38 85.4442 21.18C85.4442 20.94 85.3042 20.8 85.0242 20.76C84.7842 20.72 84.3442 20.8 83.7042 21C83.0242 21.36 82.3442 21.74 81.6642 22.14C81.0242 22.5 80.3842 22.88 79.7442 23.28C79.1442 23.72 78.5442 24.16 77.9442 24.6C77.3842 25.04 76.7842 25.48 76.1442 25.92C76.0642 26 75.9842 26.1 75.9042 26.22C75.7842 26.3 75.6442 26.38 75.4842 26.46C75.2842 26.54 75.0842 26.62 74.8842 26.7C74.6442 26.78 74.4042 26.7 74.1642 26.46C73.9642 26.26 73.8842 26.06 73.9242 25.86C73.9242 25.62 74.0042 25.4 74.1642 25.2C74.4842 24.72 74.8042 24.24 75.1242 23.76C75.4042 23.28 75.7042 22.8 76.0242 22.32C76.4242 21.8 76.8042 21.28 77.1642 20.76C77.5242 20.24 77.8842 19.7 78.2442 19.14C78.4442 18.9 78.5842 18.66 78.6642 18.42C79.3442 17.58 79.8442 17.32 80.1642 17.64C80.5242 17.88 80.4042 18.46 79.8042 19.38C79.5242 19.82 79.2642 20.26 79.0242 20.7C78.7842 21.1 78.5042 21.5 78.1842 21.9C78.0642 22.06 77.8442 22.32 77.5242 22.68C77.2042 23.04 76.9242 23.38 76.6842 23.7C76.4442 23.98 76.3242 24.16 76.3242 24.24C76.2842 24.32 76.5042 24.14 76.9842 23.7C77.8642 22.98 78.7842 22.3 79.7442 21.66C80.7442 20.98 81.7442 20.4 82.7442 19.92C83.1442 19.72 83.5842 19.54 84.0642 19.38C84.5842 19.18 85.0442 19.1 85.4442 19.14C85.8842 19.14 86.2442 19.28 86.5242 19.56C86.8442 19.84 87.0442 20.3 87.1242 20.94C87.2042 21.58 87.0842 22.18 86.7642 22.74C86.4442 23.26 86.1442 23.82 85.8642 24.42C85.5842 25.18 85.5042 25.72 85.6242 26.04C85.7442 26.32 86.2042 26.3 87.0042 25.98ZM103.53 24.96C104.77 24.52 105.69 24.2 106.29 24C106.93 23.8 107.49 23.62 107.97 23.46C108.49 23.3 109.05 23.12 109.65 22.92C110.29 22.68 111.23 22.34 112.47 21.9C112.87 21.74 113.15 21.68 113.31 21.72C113.47 21.76 113.65 21.82 113.85 21.9C114.05 21.94 114.21 22.04 114.33 22.2C114.49 22.4 114.51 22.6 114.39 22.8C114.31 23 114.19 23.14 114.03 23.22C113.83 23.34 113.61 23.46 113.37 23.58C113.13 23.7 112.91 23.78 112.71 23.82C111.79 24.14 111.17 24.34 110.85 24.42C110.53 24.46 110.27 24.48 110.07 24.48C109.91 24.48 109.67 24.52 109.35 24.6C109.07 24.64 108.47 24.82 107.55 25.14C106.63 25.46 105.69 25.8 104.73 26.16C103.81 26.48 102.85 26.8 101.85 27.12C101.53 27.28 101.21 27.56 100.89 27.96C100.61 28.32 100.37 28.68 100.17 29.04C98.97 31 97.63 32.84 96.15 34.56C94.67 36.24 92.95 37.7 90.99 38.94C89.71 39.74 88.43 40.42 87.15 40.98C85.83 41.54 84.41 41.88 82.89 42C82.09 42.08 81.37 42.02 80.73 41.82C79.97 41.66 79.45 41.3 79.17 40.74C78.89 40.18 78.95 39.56 79.35 38.88C79.79 38.04 80.37 37.28 81.09 36.6C81.77 36.04 82.47 35.52 83.19 35.04C83.87 34.52 84.55 34 85.23 33.48C87.15 32.2 89.15 31.1 91.23 30.18C93.27 29.26 95.31 28.36 97.35 27.48C98.15 27.24 98.87 26.86 99.51 26.34C100.19 25.82 100.71 25.2 101.07 24.48C101.75 23.48 102.17 22.58 102.33 21.78C102.49 20.98 102.61 20.58 102.69 20.58C102.17 20.82 101.53 21.22 100.77 21.78C100.01 22.34 99.39 22.74 98.91 22.98C98.47 23.22 98.05 23.42 97.65 23.58C97.25 23.7 96.83 23.82 96.39 23.94C96.07 24.1 95.77 24.14 95.49 24.06C95.21 23.94 94.95 23.76 94.71 23.52C94.39 22.96 94.43 22.4 94.83 21.84C95.03 21.52 95.27 21.2 95.55 20.88C95.83 20.56 96.13 20.28 96.45 20.04C97.17 19.36 97.93 18.82 98.73 18.42C99.53 18.02 100.39 17.7 101.31 17.46C101.55 17.38 101.79 17.34 102.03 17.34C102.31 17.34 102.57 17.34 102.81 17.34C103.01 17.3 103.17 17.28 103.29 17.28C103.45 17.28 103.63 17.24 103.83 17.16C104.07 17.08 104.29 17.04 104.49 17.04C104.73 17 104.91 17.08 105.03 17.28C105.39 17.6 105.43 18.06 105.15 18.66C104.63 19.82 104.11 20.98 103.59 22.14C103.11 23.3 102.59 24.4 102.03 25.44L103.53 24.96ZM84.03 40.62C85.47 40.22 86.93 39.6 88.41 38.76C89.85 37.88 91.23 36.88 92.55 35.76C93.87 34.64 95.07 33.44 96.15 32.16C97.23 30.88 98.11 29.6 98.79 28.32C97.71 28.64 96.45 29.14 95.01 29.82C93.57 30.46 92.13 31.2 90.69 32.04C89.25 32.88 87.89 33.74 86.61 34.62C85.29 35.5 84.21 36.3 83.37 37.02C82.65 37.54 82.07 38.08 81.63 38.64C81.15 39.16 80.91 39.62 80.91 40.02C80.87 40.42 81.09 40.7 81.57 40.86C82.05 40.98 82.87 40.9 84.03 40.62ZM97.23 21.66C96.95 22.18 96.97 22.44 97.29 22.44C97.65 22.4 98.13 22.22 98.73 21.9C99.33 21.58 99.99 21.16 100.71 20.64C101.47 20.08 102.13 19.52 102.69 18.96C102.29 18.96 101.83 19.04 101.31 19.2C100.79 19.32 100.27 19.5 99.75 19.74C99.27 19.98 98.79 20.28 98.31 20.64C97.87 20.96 97.51 21.3 97.23 21.66Z" fill="#C21F2D"/>
</svg>
