<svg width="10" height="8" viewBox="0 0 10 8" fill="none" xmlns="http://www.w3.org/2000/svg">
<path d="M6.10625 2.2616C6.25625 1.45006 5.75625 0.761797 5.01625 0.515254C4.27625 0.26871 3.48625 0.65907 3.09625 1.33706C2.11625 3.03205 3.53625 4.72704 4.71625 5.79539C5.49625 6.5042 6.35625 7.12056 7.27625 7.62392C7.84625 7.9321 8.34625 7.04865 7.77625 6.74047C7.00625 6.3193 6.28625 5.82621 5.61625 5.25094C4.99625 4.71676 4.33625 4.11068 3.96625 3.3505C3.70625 2.81633 3.65625 2.00479 4.16625 1.59388C4.33625 1.45006 4.55625 1.42952 4.75625 1.5117C4.92625 1.58361 5.16625 1.76852 5.12625 1.99451C5.07625 2.27188 5.19625 2.54924 5.47625 2.63142C5.71625 2.70333 6.04625 2.54924 6.09625 2.27188L6.10625 2.2616Z" fill="white"/>
<path d="M6.15626 2.39493C6.52626 1.94293 6.91626 1.43957 7.45626 1.18276C7.87626 0.977304 8.53626 0.946486 8.78626 1.43957C9.31626 2.49766 7.78626 3.6071 7.11626 4.12073C5.18626 5.63081 2.87626 6.61699 0.476257 6.94571C-0.153743 7.02789 -0.163743 8.05515 0.476257 7.97297C2.88626 7.64425 5.20626 6.77107 7.20626 5.32263C8.12626 4.65491 9.23626 3.85364 9.68626 2.75447C10.1063 1.72721 9.75626 0.473945 8.66626 0.10413C7.33626 -0.337594 6.24626 0.710216 5.45626 1.66557C5.04626 2.16893 5.74626 2.89829 6.16626 2.39493H6.15626Z" fill="white"/>
</svg>
