<svg width="158" height="36" viewBox="0 0 158 36" fill="none" xmlns="http://www.w3.org/2000/svg">
<path d="M33.12 1.77609C31.04 1.84009 29.04 1.96809 27.12 2.16009C25.2 2.32009 23.248 2.52809 21.264 2.78409C20.336 2.9121 19.408 3.04009 18.48 3.16809C17.552 3.29609 16.624 3.42409 15.696 3.55209C15.376 3.58409 15.04 3.61609 14.688 3.6481C14.368 3.68009 14.08 3.55209 13.824 3.26409C13.888 2.97609 14 2.80009 14.16 2.7361C14.352 2.64009 14.56 2.56009 14.784 2.49609C15.616 2.33609 16.448 2.19209 17.28 2.0641C18.144 1.9361 19.008 1.80809 19.872 1.68009C22.624 1.26409 25.36 0.944094 28.08 0.720093C30.8 0.464094 33.52 0.288095 36.24 0.192094C36.944 0.160094 37.632 0.144094 38.304 0.144094C39.008 0.112095 39.696 0.0800943 40.368 0.0480928C41.424 0.0160933 42.256 0.0480938 42.864 0.144094C43.472 0.208094 43.808 0.320093 43.872 0.480093C43.968 0.608093 43.744 0.752093 43.2 0.912093C42.688 1.07209 41.824 1.20009 40.608 1.29609C39.776 1.39209 38.928 1.45609 38.064 1.48809C37.232 1.52009 36.4 1.56809 35.568 1.6321C35.024 1.6321 34.608 1.82409 34.32 2.20809C32.784 4.19209 31.312 6.3041 29.904 8.5441C28.528 10.7521 27.168 12.9121 25.824 15.0241C24.224 17.4561 22.624 19.8721 21.024 22.2721C19.456 24.6721 17.856 27.0881 16.224 29.5201C16.064 29.7441 15.888 30.0481 15.696 30.4321C15.504 30.7841 15.28 31.1521 15.024 31.5361C14.8 31.9201 14.56 32.2881 14.304 32.6401C14.08 32.9921 13.872 33.2641 13.68 33.4561C13.584 33.5201 13.472 33.6001 13.344 33.6961C13.248 33.7921 13.12 33.9041 12.96 34.0321C13.536 34.0321 14.08 34.0321 14.592 34.0321C15.104 34.0321 15.6 34.0161 16.08 33.9841C18.288 33.9841 20.464 33.9681 22.608 33.9361C24.752 33.8721 26.896 33.8561 29.04 33.8881C31.312 33.9521 32.416 34.0961 32.352 34.3201C32.288 34.5441 31.168 34.7841 28.992 35.0401C28.064 35.1041 27.12 35.1681 26.16 35.2321C25.2 35.2641 24.256 35.2801 23.328 35.2801C21.792 35.2801 20.272 35.2961 18.768 35.3281C17.296 35.3601 15.792 35.4081 14.256 35.4721C12.816 35.5041 11.408 35.5361 10.032 35.5681C8.656 35.5681 7.248 35.5681 5.808 35.5681C5.104 35.6001 4.4 35.6161 3.696 35.6161C2.992 35.6161 2.304 35.6481 1.632 35.7121C1.184 35.7441 0.864001 35.7281 0.672001 35.6641C0.480001 35.6001 0.256001 35.4401 5.36442e-07 35.1841C0.0640005 34.8321 0.224001 34.6241 0.480001 34.5601C0.704001 34.4641 0.944001 34.4161 1.2 34.4161C1.84 34.3521 2.464 34.3201 3.072 34.3201C3.712 34.2881 4.336 34.2561 4.944 34.2241C6 34.1921 7.04 34.1761 8.064 34.1761C9.12 34.1761 10.16 34.1601 11.184 34.1281C11.344 34.1281 11.488 34.1281 11.616 34.1281C11.744 34.0961 11.84 34.0801 11.904 34.0801C12.704 33.1201 13.472 32.0641 14.208 30.9121C14.944 29.7601 15.664 28.5921 16.368 27.4081C17.072 26.1921 17.76 24.9921 18.432 23.8081C19.104 22.6241 19.776 21.5201 20.448 20.4961C22.368 17.5521 24.304 14.5281 26.256 11.4241C28.24 8.2881 30.336 5.31209 32.544 2.49609C32.608 2.43209 32.672 2.33609 32.736 2.20809C32.832 2.08009 32.96 1.93609 33.12 1.77609ZM42.4988 21.6961C43.3308 21.3761 44.2908 20.9441 45.3788 20.4001C46.4668 19.8241 47.4268 19.3121 48.2588 18.8641C48.7708 18.6401 49.1708 18.5441 49.4588 18.5761C49.7788 18.5761 49.9708 18.6561 50.0348 18.8161C50.0988 18.9441 50.0348 19.1361 49.8428 19.3921C49.6828 19.6161 49.3628 19.8401 48.8828 20.0641C47.8908 20.5121 46.8828 20.9601 45.8588 21.4081C44.8668 21.8241 43.8588 22.2401 42.8348 22.6561C42.1308 22.9441 41.4748 22.9761 40.8668 22.7521C40.2908 22.4641 40.0668 21.9201 40.1948 21.1201C40.2588 20.8001 40.3548 20.5281 40.4828 20.3041C40.6108 20.0481 40.7068 19.7761 40.7708 19.4881C40.8988 19.1361 41.0108 18.8161 41.1068 18.5281C41.2348 18.2401 41.2828 18.0161 41.2508 17.8561C41.2508 17.6641 41.1388 17.5521 40.9148 17.5201C40.7228 17.4881 40.3708 17.5521 39.8588 17.7121C39.3148 18.0001 38.7708 18.3041 38.2268 18.6241C37.7148 18.9121 37.2028 19.2161 36.6908 19.5361C36.2108 19.8881 35.7308 20.2401 35.2508 20.5921C34.8028 20.9441 34.3228 21.2961 33.8108 21.6481C33.7468 21.7121 33.6828 21.7921 33.6188 21.8881C33.5228 21.9521 33.4108 22.0161 33.2828 22.0801C33.1228 22.1441 32.9628 22.2081 32.8028 22.2721C32.6108 22.3361 32.4188 22.2721 32.2268 22.0801C32.0668 21.9201 32.0028 21.7601 32.0348 21.6001C32.0348 21.4081 32.0988 21.2321 32.2268 21.0721C32.4828 20.6881 32.7388 20.3041 32.9948 19.9201C33.2188 19.5361 33.4588 19.1521 33.7148 18.7681C34.0348 18.3521 34.3388 17.9361 34.6268 17.5201C34.9148 17.1041 35.2028 16.6721 35.4908 16.2241C35.6508 16.0321 35.7628 15.8401 35.8268 15.6481C36.3708 14.9761 36.7708 14.7681 37.0268 15.0241C37.3148 15.2161 37.2188 15.6801 36.7388 16.4161C36.5148 16.7681 36.3068 17.1201 36.1148 17.4721C35.9228 17.7921 35.6988 18.1121 35.4428 18.4321C35.3468 18.5601 35.1708 18.7681 34.9148 19.0561C34.6588 19.3441 34.4348 19.6161 34.2428 19.8721C34.0508 20.0961 33.9548 20.2401 33.9548 20.3041C33.9228 20.3681 34.0988 20.2241 34.4828 19.8721C35.1868 19.2961 35.9228 18.7521 36.6908 18.2401C37.4908 17.6961 38.2908 17.2321 39.0908 16.8481C39.4108 16.6881 39.7628 16.5441 40.1468 16.4161C40.5628 16.2561 40.9308 16.1921 41.2508 16.2241C41.6028 16.2241 41.8908 16.3361 42.1148 16.5601C42.3708 16.7841 42.5308 17.1521 42.5948 17.6641C42.6588 18.1761 42.5628 18.6561 42.3068 19.1041C42.0508 19.5201 41.8108 19.9681 41.5868 20.4481C41.3628 21.0561 41.2988 21.4881 41.3948 21.7441C41.4908 21.9681 41.8588 21.9521 42.4988 21.6961ZM53.7994 16.8961C54.8234 15.9361 55.8154 14.9281 56.7754 13.8721C57.7354 12.7841 58.5674 11.5201 59.2714 10.0801C58.9514 10.2081 58.4714 10.5761 57.8314 11.1841C57.2234 11.7921 56.5834 12.5121 55.9114 13.3441C55.2394 14.1441 54.5834 14.9761 53.9434 15.8401C53.3354 16.7041 52.8874 17.4241 52.5994 18.0001C53.3674 18.1281 54.1994 18.2081 55.0954 18.2401C56.0234 18.2721 56.9354 18.2721 57.8314 18.2401C58.7274 18.2081 59.5914 18.1441 60.4234 18.0481C61.2554 17.9521 62.0074 17.8561 62.6794 17.7601C62.8714 17.7281 63.0314 17.7601 63.1594 17.8561C63.3194 17.9521 63.4154 18.1921 63.4474 18.5761C63.4794 18.8001 63.4154 18.9441 63.2554 19.0081C63.0954 19.0721 62.9354 19.1041 62.7754 19.1041C61.7514 19.0401 60.7914 19.0241 59.8954 19.0561C58.9994 19.0881 58.1354 19.2001 57.3034 19.3921C57.3994 20.4161 57.2714 21.3601 56.9194 22.2241C56.5674 23.0881 56.1674 23.8401 55.7194 24.4801C54.6954 25.9521 53.5594 27.2961 52.3114 28.5121C51.0954 29.6961 49.7674 30.7361 48.3274 31.6321C48.0714 31.7601 47.8154 31.8721 47.5594 31.9681C47.2714 32.0641 46.9674 32.1601 46.6474 32.2561C46.0714 32.3521 45.6074 32.1921 45.2554 31.7761C44.9034 31.3281 44.7754 30.7521 44.8714 30.0481C44.9354 29.7921 45.0154 29.5361 45.1114 29.2801C45.1754 29.0241 45.2714 28.7681 45.3994 28.5121C46.1354 26.9761 46.8874 25.4401 47.6554 23.9041C48.3914 22.3361 49.0474 20.9441 49.6234 19.7281C49.3354 19.7281 49.0954 19.6321 48.9034 19.4401C48.7114 19.2481 48.5994 19.0401 48.5674 18.8161C48.5354 18.5601 48.6154 18.3361 48.8074 18.1441C48.9674 17.9521 49.2394 17.8401 49.6234 17.8081C49.9114 17.7761 50.1354 17.7761 50.2954 17.8081C50.4554 17.8081 50.5994 17.8081 50.7274 17.8081C50.8554 17.7761 50.9674 17.7121 51.0634 17.6161C51.1594 17.5201 51.2874 17.3441 51.4474 17.0881C52.3754 15.5521 53.3354 14.1761 54.3274 12.9601C55.3514 11.7441 56.4714 10.5281 57.6874 9.31209C57.8474 9.15209 58.0074 8.99209 58.1674 8.83209C58.3594 8.67209 58.5514 8.52809 58.7434 8.40009C58.8714 8.30409 58.9834 8.22409 59.0794 8.16009C59.1754 8.0961 59.2874 8.03209 59.4154 7.96809C59.7994 7.84009 60.1354 7.93609 60.4234 8.25609C60.7434 8.54409 60.8714 8.94409 60.8074 9.45609C60.7434 9.77609 60.6794 10.0801 60.6154 10.3681C60.5514 10.6561 60.4394 10.9281 60.2794 11.1841C59.5754 12.3681 58.8074 13.4721 57.9754 14.4961C57.1754 15.4881 56.2634 16.3521 55.2394 17.0881C55.0474 17.2481 54.8394 17.3601 54.6154 17.4241C54.3914 17.4561 54.1194 17.2801 53.7994 16.8961ZM56.0554 19.4401C55.6394 19.5361 55.1754 19.5841 54.6634 19.5841C54.1514 19.5521 53.6554 19.5361 53.1754 19.5361C52.6954 19.5041 52.2634 19.5201 51.8794 19.5841C51.4954 19.6161 51.2234 19.7441 51.0634 19.9681C50.9354 20.1281 50.7754 20.3841 50.5834 20.7361C50.3914 21.0881 50.1994 21.4721 50.0074 21.8881C49.8154 22.2721 49.6394 22.6401 49.4794 22.9921C49.3194 23.3441 49.1914 23.6161 49.0954 23.8081C48.6474 24.8001 48.1994 25.7921 47.7514 26.7841C47.3034 27.7761 46.8394 28.7681 46.3594 29.7601C46.2954 29.8561 46.2634 29.9841 46.2634 30.1441C46.2634 30.2721 46.2474 30.3841 46.2154 30.4801C46.2154 30.5441 46.2634 30.6241 46.3594 30.7201C46.5834 30.6241 46.8234 30.5441 47.0794 30.4801C47.3034 30.4161 47.5274 30.3361 47.7514 30.2401C49.2874 29.2801 50.6794 28.1281 51.9274 26.7841C53.2074 25.4401 54.3754 23.9361 55.4314 22.2721C55.5594 22.0161 55.6874 21.6001 55.8154 21.0241C55.9754 20.4481 56.0554 19.9201 56.0554 19.4401ZM68.5898 18.4321C68.9738 18.3681 69.3418 18.3201 69.6938 18.2881C70.0458 18.2241 70.3978 18.1601 70.7498 18.0961C71.0058 18.0321 71.3258 17.9841 71.7098 17.9521C72.0938 17.9201 72.4298 17.8721 72.7178 17.8081C72.8778 17.8081 72.9898 17.8081 73.0538 17.8081C73.1498 17.8081 73.2778 17.8401 73.4378 17.9041C73.5338 17.9681 73.6138 18.0641 73.6778 18.1921C73.7738 18.2881 73.8058 18.4001 73.7738 18.5281C73.7738 18.5921 73.7098 18.6721 73.5818 18.7681C73.4538 18.8641 73.3578 18.9121 73.2938 18.9121C72.9738 18.9761 72.6698 19.0401 72.3818 19.1041C72.1258 19.1361 71.8378 19.1681 71.5178 19.2001C70.9098 19.3281 70.3018 19.4401 69.6938 19.5361C69.1178 19.6001 68.5418 19.6961 67.9658 19.8241C67.6138 19.8881 67.3258 20.0481 67.1018 20.3041C66.4298 20.9441 65.8698 21.4721 65.4218 21.8881C65.0058 22.3041 64.4938 22.6081 63.8858 22.8001C63.4378 22.9281 63.0218 22.9601 62.6378 22.8961C62.2538 22.8001 61.9658 22.5761 61.7738 22.2241C61.5818 21.8721 61.5498 21.3921 61.6778 20.7841C61.8058 20.1441 62.1578 19.3601 62.7338 18.4321C63.1498 17.7921 63.6298 17.2161 64.1738 16.7041C64.7498 16.1601 65.3578 15.6321 65.9978 15.1201C66.2538 14.9281 66.5258 14.7681 66.8138 14.6401C67.1018 14.4801 67.4378 14.3841 67.8218 14.3521C68.3658 14.2881 68.7818 14.3841 69.0698 14.6401C69.3578 14.8641 69.4858 15.2481 69.4538 15.7921C69.4538 16.0481 69.4058 16.3201 69.3098 16.6081C69.2138 16.8641 69.1338 17.1361 69.0698 17.4241C69.0058 17.5841 68.9258 17.7441 68.8298 17.9041C68.7658 18.0321 68.6858 18.2081 68.5898 18.4321ZM63.9818 18.6721C63.4378 19.3441 63.1658 19.9201 63.1658 20.4001C63.1658 20.8481 63.3098 21.1521 63.5978 21.3121C63.9178 21.4401 64.2858 21.4081 64.7018 21.2161C65.1498 20.9921 65.5338 20.5441 65.8538 19.8721C65.3418 19.8721 64.9258 19.7921 64.6058 19.6321C64.2858 19.4401 64.0778 19.1201 63.9818 18.6721ZM68.0618 15.5041C66.9418 15.8561 66.1098 16.5121 65.5658 17.4721C65.5018 17.6001 65.4698 17.7281 65.4698 17.8561C65.4698 17.9841 65.5498 18.1121 65.7098 18.2401C65.9018 18.4321 66.1578 18.5121 66.4778 18.4801C66.8298 18.4481 67.0698 18.3041 67.1978 18.0481C67.3898 17.7921 67.5498 17.5041 67.6778 17.1841C67.8378 16.8641 67.9658 16.5601 68.0618 16.2721C68.1258 16.2081 68.1418 16.1121 68.1098 15.9841C68.0778 15.8561 68.0618 15.6961 68.0618 15.5041ZM81.0701 19.9681C80.6861 19.9361 80.3821 19.8401 80.1581 19.6801C79.9341 19.5201 79.7421 19.3121 79.5821 19.0561C79.4541 18.8001 79.3421 18.5281 79.2461 18.2401C79.1821 17.9521 79.1181 17.6641 79.0541 17.3761C78.8621 16.9281 78.5901 16.7041 78.2381 16.7041C77.8861 16.7041 77.5181 16.8161 77.1341 17.0401C76.7821 17.2321 76.4461 17.4881 76.1261 17.8081C75.8061 18.1281 75.5501 18.3681 75.3581 18.5281C74.2381 19.4561 73.3741 20.4961 72.7661 21.6481C72.6701 21.9041 72.5261 22.1121 72.3341 22.2721C72.1101 22.4321 71.9021 22.5441 71.7101 22.6081C71.5181 22.6401 71.3581 22.6081 71.2301 22.5121C71.0701 22.4161 70.9901 22.2241 70.9901 21.9361C70.9901 21.7761 71.0221 21.6481 71.0861 21.5521C71.1501 21.4561 71.2141 21.3441 71.2781 21.2161C71.8861 20.1281 72.4781 19.0401 73.0541 17.9521C73.6301 16.8641 74.2221 15.7761 74.8301 14.6881C74.9901 14.3681 75.1981 14.0801 75.4541 13.8241C75.5181 13.7601 75.5981 13.7121 75.6941 13.6801C75.8221 13.6481 75.9181 13.6641 75.9821 13.7281C76.2061 13.8561 76.2861 14.0321 76.2221 14.2561C76.2221 14.4801 76.1581 14.7521 76.0301 15.0721C75.8061 15.4881 75.5981 15.9041 75.4061 16.3201C75.2141 16.7361 75.0381 17.1681 74.8781 17.6161C75.1341 17.4241 75.2941 17.2961 75.3581 17.2321C75.6781 16.9761 75.9661 16.7361 76.2221 16.5121C76.5101 16.2561 76.7981 16.0321 77.0861 15.8401C77.4701 15.5201 77.9021 15.3281 78.3821 15.2641C79.3421 15.0401 79.9661 15.3921 80.2541 16.3201C80.3181 16.5761 80.3661 16.8161 80.3981 17.0401C80.4301 17.2641 80.4781 17.4881 80.5421 17.7121C80.6061 18.0641 80.7181 18.3041 80.8781 18.4321C81.0381 18.5281 81.3101 18.5601 81.6941 18.5281C81.8541 18.5281 82.0141 18.5281 82.1741 18.5281C82.3661 18.4961 82.5421 18.4801 82.7021 18.4801C83.1501 18.4481 83.4541 18.5121 83.6141 18.6721C83.7741 18.8321 83.7901 19.0241 83.6621 19.2481C83.5341 19.4401 83.2461 19.6161 82.7981 19.7761C82.3821 19.9361 81.8061 20.0001 81.0701 19.9681ZM89.8946 18.0481C90.1506 18.1761 90.3746 18.2081 90.5666 18.1441C90.7586 18.0481 90.9506 17.9521 91.1426 17.8561C91.8146 17.4721 92.4706 17.1041 93.1106 16.7521C93.7506 16.3681 94.4066 16.0001 95.0786 15.6481C95.3346 15.4881 95.6066 15.3601 95.8946 15.2641C96.2146 15.1361 96.5186 15.0401 96.8066 14.9761C97.7986 14.7521 98.3746 15.1361 98.5346 16.1281C98.6626 16.7041 98.6786 17.3121 98.5826 17.9521C98.5186 18.6881 98.6306 19.1521 98.9186 19.3441C99.2386 19.5361 99.7186 19.5361 100.359 19.3441C100.807 19.2481 101.287 19.0881 101.799 18.8641C102.311 18.6401 102.775 18.4481 103.191 18.2881C103.575 18.1601 103.847 18.1121 104.007 18.1441C104.199 18.1441 104.327 18.2081 104.391 18.3361C104.487 18.4961 104.487 18.6881 104.391 18.9121C104.327 19.1041 104.103 19.2801 103.719 19.4401C103.111 19.7921 102.487 20.0961 101.847 20.3521C101.239 20.6081 100.583 20.7681 99.8786 20.8321C98.1826 21.0241 97.3026 20.2561 97.2386 18.5281C97.2386 18.3361 97.2386 18.1601 97.2386 18.0001C97.2706 17.8401 97.2866 17.6641 97.2866 17.4721C97.2866 16.8001 97.2546 16.3201 97.1906 16.0321C97.1586 15.7441 96.8226 15.8241 96.1826 16.2721C95.5426 16.6241 94.8386 17.0561 94.0706 17.5681C93.3346 18.0801 92.6466 18.5121 92.0066 18.8641C91.5906 19.1521 91.1106 19.3441 90.5666 19.4401C89.6066 19.7281 88.9506 19.3601 88.5986 18.3361C88.5026 18.0801 88.4226 17.8561 88.3586 17.6641C88.3266 17.4721 88.2786 17.3281 88.2146 17.2321C88.1826 17.1361 88.1026 17.1201 87.9746 17.1841C87.8466 17.2161 87.6386 17.3281 87.3506 17.5201C86.7106 18.0001 86.0706 18.5921 85.4306 19.2961C84.7906 20.0001 84.1506 20.6081 83.5106 21.1201C83.3506 21.2481 83.2066 21.3761 83.0786 21.5041C82.9506 21.6001 82.8066 21.6961 82.6466 21.7921C82.3586 21.8881 82.1186 21.8721 81.9266 21.7441C81.7346 21.5841 81.6706 21.3441 81.7346 21.0241C81.7666 20.8001 81.8786 20.5441 82.0706 20.2561C82.4226 19.5201 82.7906 18.8001 83.1746 18.0961C83.5266 17.3921 83.9106 16.6721 84.3266 15.9361C84.3586 15.8401 84.3906 15.7441 84.4226 15.6481C84.4866 15.5201 84.5506 15.4241 84.6146 15.3601C84.7106 15.2961 84.8226 15.2321 84.9506 15.1681C85.0786 15.1041 85.1906 15.1041 85.2866 15.1681C85.5106 15.2321 85.6226 15.4241 85.6226 15.7441C85.5586 15.9041 85.4946 16.0641 85.4306 16.2241C85.3986 16.3521 85.3506 16.4961 85.2866 16.6561C85.2226 16.7841 85.1266 16.9601 84.9986 17.1841C84.9026 17.4081 84.7906 17.6481 84.6626 17.9041C84.5346 18.1281 84.4226 18.3681 84.3266 18.6241C84.2306 18.8481 84.1826 19.0241 84.1826 19.1521C84.3106 19.0561 84.4706 18.9121 84.6626 18.7201C84.8546 18.5281 85.0466 18.3361 85.2386 18.1441C85.4626 17.9201 85.6706 17.7121 85.8626 17.5201C86.0546 17.2961 86.2306 17.1361 86.3906 17.0401C86.5826 16.8801 86.7746 16.7521 86.9666 16.6561C87.1586 16.5601 87.3506 16.4641 87.5426 16.3681C88.6306 15.9201 89.3666 16.2721 89.7506 17.4241C89.7826 17.5201 89.7986 17.6321 89.7986 17.7601C89.8306 17.8561 89.8626 17.9521 89.8946 18.0481ZM116.905 19.0561C116.553 19.4081 116.009 19.7761 115.273 20.1601C114.569 20.5441 113.849 20.8161 113.113 20.9761C112.409 21.1361 111.785 21.1201 111.241 20.9281C110.697 20.7361 110.425 20.2241 110.425 19.3921C110.425 19.1361 110.441 18.8801 110.473 18.6241C110.505 18.3361 110.553 18.0321 110.617 17.7121C109.785 18.2241 108.969 18.7361 108.169 19.2481C107.401 19.7281 106.601 20.1921 105.769 20.6401C105.577 20.8001 105.353 20.8961 105.097 20.9281C104.873 20.9601 104.649 20.9921 104.425 21.0241C103.721 21.1201 103.225 20.9121 102.937 20.4001C102.649 19.8881 102.697 19.3601 103.081 18.8161C103.241 18.6241 103.385 18.4481 103.513 18.2881C103.641 18.1281 103.801 17.9681 103.993 17.8081C104.825 17.0721 105.737 16.5281 106.729 16.1761C107.721 15.8241 108.793 15.6961 109.945 15.7921C110.361 15.8561 110.697 15.7281 110.953 15.4081C111.177 15.1841 111.385 14.9601 111.577 14.7361C111.801 14.5121 112.025 14.2881 112.249 14.0641C112.313 13.9681 112.393 13.8721 112.489 13.7761C112.585 13.6801 112.681 13.6161 112.777 13.5841C112.873 13.5521 112.985 13.5361 113.113 13.5361C113.273 13.5361 113.401 13.5681 113.497 13.6321C113.657 13.8561 113.721 14.0961 113.689 14.3521C113.657 14.6081 113.529 14.9281 113.305 15.3121C113.209 15.5041 113.017 15.9041 112.729 16.5121C112.441 17.0881 112.217 17.6641 112.057 18.2401C111.929 18.8161 111.929 19.2961 112.057 19.6801C112.185 20.0321 112.617 20.0961 113.353 19.8721C113.737 19.7761 114.153 19.6161 114.601 19.3921C115.049 19.1361 115.497 18.8961 115.945 18.6721C116.073 18.6081 116.201 18.5441 116.329 18.4801C116.457 18.3841 116.601 18.3521 116.761 18.3841C116.921 18.4481 117.033 18.5601 117.097 18.7201C117.193 18.8481 117.129 18.9601 116.905 19.0561ZM104.281 19.6321C105.209 19.4721 106.185 19.1201 107.209 18.5761C108.233 18.0001 109.065 17.3921 109.705 16.7521C108.745 16.8161 107.737 17.1041 106.681 17.6161C105.625 18.1281 104.825 18.8001 104.281 19.6321ZM116.409 7.96809C115.673 8.06409 115.225 8.00009 115.065 7.77609C114.873 7.55209 114.809 7.39209 114.873 7.29609C114.969 7.13609 115.145 6.99209 115.401 6.86409C115.625 6.70409 116.073 6.65609 116.745 6.7201C117.801 6.81609 118.889 6.86409 120.009 6.86409C121.161 6.86409 122.297 6.78409 123.417 6.62409C123.513 6.56009 123.593 6.48009 123.657 6.38409C124.105 5.77609 124.441 5.29609 124.665 4.9441C124.889 4.59209 125.097 4.27209 125.289 3.98409C125.481 3.69609 125.689 3.39209 125.913 3.07209C126.169 2.72009 126.521 2.2401 126.969 1.6321C127.065 1.44009 127.209 1.28009 127.401 1.15209C127.625 0.992093 127.833 0.992093 128.025 1.15209C128.089 1.21609 128.137 1.32809 128.169 1.48809C128.201 1.64809 128.217 1.79209 128.217 1.92009C128.185 2.04809 128.121 2.1761 128.025 2.3041C127.929 2.43209 127.849 2.54409 127.785 2.64009C127.433 3.12009 127.177 3.47209 127.017 3.69609C126.889 3.92009 126.761 4.14409 126.633 4.36809C126.505 4.59209 126.345 4.86409 126.153 5.1841C125.961 5.5041 125.625 6.00009 125.145 6.67209C125.817 6.80009 126.681 6.89609 127.737 6.9601C128.825 6.99209 129.993 7.00809 131.241 7.00809C132.489 6.9761 133.769 6.92809 135.081 6.86409C136.425 6.7681 137.705 6.6561 138.921 6.5281C139.689 6.46409 140.409 6.40009 141.081 6.33609C141.753 6.27209 142.313 6.25609 142.761 6.2881C143.561 6.35209 143.929 6.51209 143.865 6.7681C143.801 7.02409 143.433 7.23209 142.761 7.3921C142.185 7.48809 141.385 7.56809 140.361 7.6321C139.369 7.69609 138.281 7.76009 137.097 7.8241C135.913 7.8561 134.665 7.88809 133.353 7.92009C132.073 7.92009 130.841 7.92009 129.657 7.92009C128.505 7.88809 127.449 7.8721 126.489 7.8721C125.561 7.8721 124.841 7.8561 124.329 7.8241C123.785 8.52809 123.209 9.29609 122.601 10.1281C122.025 10.9601 121.449 11.8081 120.873 12.6721C120.329 13.5361 119.817 14.3841 119.337 15.2161C118.857 16.0161 118.441 16.7521 118.089 17.4241C117.801 18.0001 117.513 18.6401 117.225 19.3441C116.937 20.0161 116.745 20.6241 116.649 21.1681C116.585 21.6801 116.681 22.0641 116.937 22.3201C117.193 22.5441 117.705 22.4961 118.473 22.1761C118.825 22.0481 119.225 21.8561 119.673 21.6001C120.121 21.3441 120.585 21.0721 121.065 20.7841C121.545 20.4641 122.009 20.1441 122.457 19.8241C122.905 19.4721 123.321 19.1361 123.705 18.8161C123.865 18.7201 123.993 18.6241 124.089 18.5281C124.185 18.4001 124.313 18.3041 124.473 18.2401C124.665 18.1121 124.825 18.0321 124.953 18.0001C125.113 17.9361 125.273 18.0001 125.433 18.1921C125.561 18.3841 125.577 18.5761 125.481 18.7681C125.417 18.9281 125.305 19.0881 125.145 19.2481C124.953 19.4401 124.617 19.7121 124.137 20.0641C123.657 20.4161 123.097 20.7841 122.457 21.1681C121.849 21.5521 121.193 21.9361 120.489 22.3201C119.817 22.6721 119.177 22.9601 118.569 23.1841C117.481 23.5681 116.729 23.6161 116.313 23.3281C115.865 23.0081 115.625 22.5441 115.593 21.9361C115.529 21.3281 115.609 20.6561 115.833 19.9201C116.057 19.1841 116.281 18.5441 116.505 18.0001C116.889 17.1041 117.337 16.2081 117.849 15.3121C118.361 14.4161 118.889 13.5361 119.433 12.6721C120.009 11.8081 120.569 10.9761 121.113 10.1761C121.689 9.3441 122.201 8.5761 122.649 7.8721C121.593 7.90409 120.505 7.93609 119.385 7.96809C118.297 7.96809 117.305 7.96809 116.409 7.96809ZM131.567 19.5841C130.863 19.9681 130.143 20.3361 129.407 20.6881C128.703 21.0401 127.951 21.3121 127.151 21.5041C126.895 21.5361 126.639 21.5681 126.383 21.6001C126.127 21.6001 125.871 21.5681 125.615 21.5041C125.167 21.4401 124.847 21.2321 124.655 20.8801C124.431 20.5281 124.351 20.1441 124.415 19.7281C124.415 19.4721 124.447 19.2001 124.511 18.9121C124.543 18.6241 124.639 18.3681 124.799 18.1441C125.151 17.5681 125.471 16.9281 125.759 16.2241C126.079 15.5201 126.447 14.8961 126.863 14.3521C127.023 14.1601 127.215 14.0641 127.439 14.0641C127.663 14.0321 127.855 14.0961 128.015 14.2561C128.207 14.3841 128.319 14.5921 128.351 14.8801C128.383 15.1361 128.271 15.4241 128.015 15.7441C127.695 16.2561 127.375 16.7521 127.055 17.2321C126.735 17.7121 126.415 18.2241 126.095 18.7681C125.775 19.4401 125.631 19.9361 125.663 20.2561C125.727 20.5441 125.887 20.7201 126.143 20.7841C126.431 20.8481 126.783 20.8161 127.199 20.6881C127.615 20.5601 128.031 20.3841 128.447 20.1601C128.895 19.9361 129.311 19.7121 129.695 19.4881C130.079 19.2321 130.351 19.0081 130.511 18.8161C130.831 18.4641 131.119 18.2881 131.375 18.2881C131.631 18.2561 131.807 18.3201 131.903 18.4801C132.031 18.6081 132.079 18.8001 132.047 19.0561C132.015 19.2801 131.855 19.4561 131.567 19.5841ZM130.415 10.5121C130.671 10.5121 130.863 10.5921 130.991 10.7521C131.151 10.9121 131.199 11.1041 131.135 11.3281C131.071 11.5841 130.895 11.8561 130.607 12.1441C130.319 12.4321 130.015 12.6721 129.695 12.8641C129.247 13.1201 128.927 13.2161 128.735 13.1521C128.575 13.0881 128.559 12.7521 128.687 12.1441C128.751 11.7601 128.911 11.3921 129.167 11.0401C129.455 10.6881 129.871 10.5121 130.415 10.5121ZM136.98 18.4321C137.364 18.3681 137.732 18.3201 138.084 18.2881C138.436 18.2241 138.788 18.1601 139.14 18.0961C139.396 18.0321 139.716 17.9841 140.1 17.9521C140.484 17.9201 140.82 17.8721 141.108 17.8081C141.268 17.8081 141.38 17.8081 141.444 17.8081C141.54 17.8081 141.668 17.8401 141.828 17.9041C141.924 17.9681 142.004 18.0641 142.068 18.1921C142.164 18.2881 142.196 18.4001 142.164 18.5281C142.164 18.5921 142.1 18.6721 141.972 18.7681C141.844 18.8641 141.748 18.9121 141.684 18.9121C141.364 18.9761 141.06 19.0401 140.772 19.1041C140.516 19.1361 140.228 19.1681 139.908 19.2001C139.3 19.3281 138.692 19.4401 138.084 19.5361C137.508 19.6001 136.932 19.6961 136.356 19.8241C136.004 19.8881 135.716 20.0481 135.492 20.3041C134.82 20.9441 134.26 21.4721 133.812 21.8881C133.396 22.3041 132.884 22.6081 132.276 22.8001C131.828 22.9281 131.412 22.9601 131.028 22.8961C130.644 22.8001 130.356 22.5761 130.164 22.2241C129.972 21.8721 129.94 21.3921 130.068 20.7841C130.196 20.1441 130.548 19.3601 131.124 18.4321C131.54 17.7921 132.02 17.2161 132.564 16.7041C133.14 16.1601 133.748 15.6321 134.388 15.1201C134.644 14.9281 134.916 14.7681 135.204 14.6401C135.492 14.4801 135.828 14.3841 136.212 14.3521C136.756 14.2881 137.172 14.3841 137.46 14.6401C137.748 14.8641 137.876 15.2481 137.844 15.7921C137.844 16.0481 137.796 16.3201 137.7 16.6081C137.604 16.8641 137.524 17.1361 137.46 17.4241C137.396 17.5841 137.316 17.7441 137.22 17.9041C137.156 18.0321 137.076 18.2081 136.98 18.4321ZM132.372 18.6721C131.828 19.3441 131.556 19.9201 131.556 20.4001C131.556 20.8481 131.7 21.1521 131.988 21.3121C132.308 21.4401 132.676 21.4081 133.092 21.2161C133.54 20.9921 133.924 20.5441 134.244 19.8721C133.732 19.8721 133.316 19.7921 132.996 19.6321C132.676 19.4401 132.468 19.1201 132.372 18.6721ZM136.452 15.5041C135.332 15.8561 134.5 16.5121 133.956 17.4721C133.892 17.6001 133.86 17.7281 133.86 17.8561C133.86 17.9841 133.94 18.1121 134.1 18.2401C134.292 18.4321 134.548 18.5121 134.868 18.4801C135.22 18.4481 135.46 18.3041 135.588 18.0481C135.78 17.7921 135.94 17.5041 136.068 17.1841C136.228 16.8641 136.356 16.5601 136.452 16.2721C136.516 16.2081 136.532 16.1121 136.5 15.9841C136.468 15.8561 136.452 15.6961 136.452 15.5041ZM149.749 21.6961C150.581 21.3761 151.541 20.9441 152.629 20.4001C153.717 19.8241 154.677 19.3121 155.509 18.8641C156.021 18.6401 156.421 18.5441 156.709 18.5761C157.029 18.5761 157.221 18.6561 157.285 18.8161C157.349 18.9441 157.285 19.1361 157.093 19.3921C156.933 19.6161 156.613 19.8401 156.133 20.0641C155.141 20.5121 154.133 20.9601 153.109 21.4081C152.117 21.8241 151.109 22.2401 150.085 22.6561C149.381 22.9441 148.725 22.9761 148.117 22.7521C147.541 22.4641 147.317 21.9201 147.445 21.1201C147.509 20.8001 147.605 20.5281 147.733 20.3041C147.861 20.0481 147.957 19.7761 148.021 19.4881C148.149 19.1361 148.261 18.8161 148.357 18.5281C148.485 18.2401 148.533 18.0161 148.501 17.8561C148.501 17.6641 148.389 17.5521 148.165 17.5201C147.973 17.4881 147.621 17.5521 147.109 17.7121C146.565 18.0001 146.021 18.3041 145.477 18.6241C144.965 18.9121 144.453 19.2161 143.941 19.5361C143.461 19.8881 142.981 20.2401 142.501 20.5921C142.053 20.9441 141.573 21.2961 141.061 21.6481C140.997 21.7121 140.933 21.7921 140.869 21.8881C140.773 21.9521 140.661 22.0161 140.533 22.0801C140.373 22.1441 140.213 22.2081 140.053 22.2721C139.861 22.3361 139.669 22.2721 139.477 22.0801C139.317 21.9201 139.253 21.7601 139.285 21.6001C139.285 21.4081 139.349 21.2321 139.477 21.0721C139.733 20.6881 139.989 20.3041 140.245 19.9201C140.469 19.5361 140.709 19.1521 140.965 18.7681C141.285 18.3521 141.589 17.9361 141.877 17.5201C142.165 17.1041 142.453 16.6721 142.741 16.2241C142.901 16.0321 143.013 15.8401 143.077 15.6481C143.621 14.9761 144.021 14.7681 144.277 15.0241C144.565 15.2161 144.469 15.6801 143.989 16.4161C143.765 16.7681 143.557 17.1201 143.365 17.4721C143.173 17.7921 142.949 18.1121 142.693 18.4321C142.597 18.5601 142.421 18.7681 142.165 19.0561C141.909 19.3441 141.685 19.6161 141.493 19.8721C141.301 20.0961 141.205 20.2401 141.205 20.3041C141.173 20.3681 141.349 20.2241 141.733 19.8721C142.437 19.2961 143.173 18.7521 143.941 18.2401C144.741 17.6961 145.541 17.2321 146.341 16.8481C146.661 16.6881 147.013 16.5441 147.397 16.4161C147.813 16.2561 148.181 16.1921 148.501 16.2241C148.853 16.2241 149.141 16.3361 149.365 16.5601C149.621 16.7841 149.781 17.1521 149.845 17.6641C149.909 18.1761 149.813 18.6561 149.557 19.1041C149.301 19.5201 149.061 19.9681 148.837 20.4481C148.613 21.0561 148.549 21.4881 148.645 21.7441C148.741 21.9681 149.109 21.9521 149.749 21.6961Z" fill="#C21F2D"/>
</svg>
