<svg width="115" height="38" viewBox="0 0 115 38" fill="none" xmlns="http://www.w3.org/2000/svg">
<path d="M41.568 33.36C40.448 33.488 39.312 33.6 38.16 33.696C37.04 33.76 35.904 33.856 34.752 33.984C33.728 34.048 32.688 34.144 31.632 34.272C30.576 34.4 29.536 34.528 28.512 34.656C26.944 34.88 25.392 35.12 23.856 35.376C22.32 35.632 20.784 35.888 19.248 36.144C17.712 36.4 16.176 36.64 14.64 36.864C13.136 37.056 11.584 37.232 9.98399 37.392C9.24799 37.488 8.47999 37.536 7.67999 37.536C6.91199 37.536 6.15999 37.536 5.42399 37.536H5.13599C4.14399 37.408 3.43999 37.056 3.02399 36.48C2.60799 35.872 2.52799 35.104 2.78399 34.176C3.16799 32.992 3.66399 31.856 4.27199 30.768C5.29599 28.88 6.39999 27.072 7.58399 25.344C8.79999 23.584 10.048 21.84 11.328 20.112C11.872 19.376 12.416 18.688 12.96 18.048C13.504 17.376 14.016 16.672 14.496 15.936C14.688 15.776 14.816 15.52 14.88 15.168C14.592 15.36 14.288 15.552 13.968 15.744C13.648 15.936 13.328 16.128 13.008 16.32C11.568 17.216 10.144 18.096 8.73599 18.96C7.32799 19.824 5.88799 20.704 4.41599 21.6C3.90399 21.888 3.35999 22.144 2.78399 22.368C2.23999 22.592 1.67999 22.832 1.10399 23.088C0.943986 23.152 0.767986 23.2 0.575986 23.232C0.415986 23.232 0.223986 23.136 -1.39251e-05 22.944C0.0959861 22.88 0.175986 22.816 0.239986 22.752C0.335986 22.656 0.431986 22.576 0.527986 22.512C3.02399 21.296 5.42399 19.936 7.72799 18.432C10.064 16.928 12.416 15.44 14.784 13.968C16.128 13.168 17.344 12.272 18.432 11.28C19.552 10.256 20.656 9.18397 21.744 8.06397C22.896 6.84797 24.08 5.67997 25.296 4.55997C26.544 3.43997 27.872 2.39997 29.28 1.43997C29.536 1.24797 29.808 1.07197 30.096 0.911965C30.384 0.751966 30.672 0.591966 30.96 0.431966C31.088 0.367967 31.2 0.335967 31.296 0.335967C31.424 0.303966 31.52 0.271965 31.584 0.239965C32.032 0.0799656 32.384 0.127966 32.64 0.383966C32.928 0.671967 32.928 1.00797 32.64 1.39196C32.32 1.77597 32.016 2.15997 31.728 2.54397C31.44 2.89597 31.12 3.24797 30.768 3.59997C29.424 4.87997 28.016 6.07997 26.544 7.19997C25.104 8.28797 23.616 9.32797 22.08 10.32C21.12 10.96 20.24 11.664 19.44 12.432C18.64 13.2 17.872 14.032 17.136 14.928C15.376 16.976 13.696 19.088 12.096 21.264C10.496 23.44 8.94399 25.664 7.43999 27.936C6.89599 28.8 6.38399 29.696 5.90399 30.624C5.42399 31.52 4.94399 32.416 4.46399 33.312C4.36799 33.536 4.27199 33.776 4.17599 34.032C4.11199 34.288 4.03199 34.56 3.93599 34.848C3.87199 35.52 4.15999 35.936 4.79999 36.096C5.08799 36.16 5.35999 36.224 5.61599 36.288C5.87199 36.32 6.12799 36.32 6.38399 36.288C7.53599 36.224 8.68799 36.16 9.83999 36.096C10.992 36 12.144 35.872 13.296 35.712C15.856 35.36 18.384 34.976 20.88 34.56C23.408 34.112 25.952 33.696 28.512 33.312C30.24 33.024 31.968 32.816 33.696 32.688C35.456 32.528 37.216 32.384 38.976 32.256C39.712 32.256 40.4 32.32 41.04 32.448C41.232 32.48 41.376 32.56 41.472 32.688C41.6 32.784 41.632 33.008 41.568 33.36ZM24.576 7.10397C25.056 6.84797 25.584 6.51197 26.16 6.09597C26.768 5.64797 27.344 5.18397 27.888 4.70397C28.464 4.22397 28.96 3.77597 29.376 3.35997C29.792 2.91197 30.064 2.55997 30.192 2.30397C28.08 3.77597 26.208 5.37597 24.576 7.10397ZM45.981 19.776C46.365 19.712 46.733 19.664 47.085 19.632C47.437 19.568 47.789 19.504 48.141 19.44C48.397 19.376 48.717 19.328 49.101 19.296C49.485 19.264 49.821 19.216 50.109 19.152C50.269 19.152 50.381 19.152 50.445 19.152C50.541 19.152 50.669 19.184 50.829 19.248C50.925 19.312 51.005 19.408 51.069 19.536C51.165 19.632 51.197 19.744 51.165 19.872C51.165 19.936 51.101 20.016 50.973 20.112C50.845 20.208 50.749 20.256 50.685 20.256C50.365 20.32 50.061 20.384 49.773 20.448C49.517 20.48 49.229 20.512 48.909 20.544C48.301 20.672 47.693 20.784 47.085 20.88C46.509 20.944 45.933 21.04 45.357 21.168C45.005 21.232 44.717 21.392 44.493 21.648C43.821 22.288 43.261 22.816 42.813 23.232C42.397 23.648 41.885 23.952 41.277 24.144C40.829 24.272 40.413 24.304 40.029 24.24C39.645 24.144 39.357 23.92 39.165 23.568C38.973 23.216 38.941 22.736 39.069 22.128C39.197 21.488 39.549 20.704 40.125 19.776C40.541 19.136 41.021 18.56 41.565 18.048C42.141 17.504 42.749 16.976 43.389 16.464C43.645 16.272 43.917 16.112 44.205 15.984C44.493 15.824 44.829 15.728 45.213 15.696C45.757 15.632 46.173 15.728 46.461 15.984C46.749 16.208 46.877 16.592 46.845 17.136C46.845 17.392 46.797 17.664 46.701 17.952C46.605 18.208 46.525 18.48 46.461 18.768C46.397 18.928 46.317 19.088 46.221 19.248C46.157 19.376 46.077 19.552 45.981 19.776ZM41.373 20.016C40.829 20.688 40.557 21.264 40.557 21.744C40.557 22.192 40.701 22.496 40.989 22.656C41.309 22.784 41.677 22.752 42.093 22.56C42.541 22.336 42.925 21.888 43.245 21.216C42.733 21.216 42.317 21.136 41.997 20.976C41.677 20.784 41.469 20.464 41.373 20.016ZM45.453 16.848C44.333 17.2 43.501 17.856 42.957 18.816C42.893 18.944 42.861 19.072 42.861 19.2C42.861 19.328 42.941 19.456 43.101 19.584C43.293 19.776 43.549 19.856 43.869 19.824C44.221 19.792 44.461 19.648 44.589 19.392C44.781 19.136 44.941 18.848 45.069 18.528C45.229 18.208 45.357 17.904 45.453 17.616C45.517 17.552 45.533 17.456 45.501 17.328C45.469 17.2 45.453 17.04 45.453 16.848ZM60.5734 20.832C60.4454 20.928 60.2214 21.04 59.9014 21.168C58.8454 21.616 57.7734 22.016 56.6854 22.368C55.6294 22.72 54.5254 22.928 53.3734 22.992C53.1174 23.056 52.8294 23.088 52.5094 23.088C52.2214 23.056 51.9334 23.008 51.6454 22.944C50.9094 22.752 50.3974 22.384 50.1094 21.84C49.7894 21.264 49.8054 20.592 50.1574 19.824C50.2214 19.728 50.2694 19.632 50.3014 19.536C50.3334 19.408 50.3814 19.296 50.4454 19.2C51.0534 18.4 51.7254 17.744 52.4614 17.232C53.1974 16.688 54.0614 16.304 55.0534 16.08C55.3414 15.984 55.6454 15.952 55.9654 15.984C56.2854 15.984 56.5894 16.032 56.8774 16.128C57.3574 16.288 57.6614 16.624 57.7894 17.136C57.9494 17.616 57.8534 18.048 57.5014 18.432C57.4374 18.496 57.3574 18.56 57.2614 18.624C57.1654 18.656 57.0534 18.672 56.9254 18.672C56.8614 18.672 56.8134 18.624 56.7814 18.528C56.7494 18.4 56.7014 18.304 56.6374 18.24C56.5734 17.728 56.4614 17.408 56.3014 17.28C56.1414 17.152 55.8214 17.152 55.3414 17.28C54.5734 17.504 53.8854 17.84 53.2774 18.288C52.6694 18.736 52.1414 19.248 51.6934 19.824C51.5654 19.984 51.4534 20.192 51.3574 20.448C51.1654 21.088 51.3734 21.472 51.9814 21.6C52.4294 21.728 52.9254 21.744 53.4694 21.648C54.3334 21.584 55.1654 21.44 55.9654 21.216C56.7654 20.992 57.5334 20.704 58.2694 20.352C58.5894 20.224 58.8934 20.096 59.1814 19.968C59.4694 19.84 59.7734 19.744 60.0934 19.68C60.8934 19.488 61.3414 19.536 61.4374 19.824C61.5334 20.08 61.2454 20.416 60.5734 20.832ZM74.1397 20.4C73.7877 20.752 73.2437 21.12 72.5077 21.504C71.8037 21.888 71.0837 22.16 70.3477 22.32C69.6437 22.48 69.0197 22.464 68.4757 22.272C67.9317 22.08 67.6597 21.568 67.6597 20.736C67.6597 20.48 67.6757 20.224 67.7077 19.968C67.7397 19.68 67.7877 19.376 67.8517 19.056C67.0197 19.568 66.2037 20.08 65.4037 20.592C64.6357 21.072 63.8357 21.536 63.0037 21.984C62.8117 22.144 62.5877 22.24 62.3317 22.272C62.1077 22.304 61.8837 22.336 61.6597 22.368C60.9557 22.464 60.4597 22.256 60.1717 21.744C59.8837 21.232 59.9317 20.704 60.3157 20.16C60.4757 19.968 60.6197 19.792 60.7477 19.632C60.8757 19.472 61.0357 19.312 61.2277 19.152C62.0597 18.416 62.9717 17.872 63.9637 17.52C64.9557 17.168 66.0277 17.04 67.1797 17.136C67.5957 17.2 67.9317 17.072 68.1877 16.752C68.4117 16.528 68.6197 16.304 68.8117 16.08C69.0357 15.856 69.2597 15.632 69.4837 15.408C69.5477 15.312 69.6277 15.216 69.7237 15.12C69.8197 15.024 69.9157 14.96 70.0117 14.928C70.1077 14.896 70.2197 14.88 70.3477 14.88C70.5077 14.88 70.6357 14.912 70.7317 14.976C70.8917 15.2 70.9557 15.44 70.9237 15.696C70.8917 15.952 70.7637 16.272 70.5397 16.656C70.4437 16.848 70.2517 17.248 69.9637 17.856C69.6757 18.432 69.4517 19.008 69.2917 19.584C69.1637 20.16 69.1637 20.64 69.2917 21.024C69.4197 21.376 69.8517 21.44 70.5877 21.216C70.9717 21.12 71.3877 20.96 71.8357 20.736C72.2837 20.48 72.7317 20.24 73.1797 20.016C73.3077 19.952 73.4357 19.888 73.5637 19.824C73.6917 19.728 73.8357 19.696 73.9957 19.728C74.1557 19.792 74.2677 19.904 74.3317 20.064C74.4277 20.192 74.3637 20.304 74.1397 20.4ZM61.5157 20.976C62.4437 20.816 63.4197 20.464 64.4437 19.92C65.4677 19.344 66.2997 18.736 66.9397 18.096C65.9797 18.16 64.9717 18.448 63.9157 18.96C62.8597 19.472 62.0597 20.144 61.5157 20.976ZM73.644 9.31197C72.908 9.40797 72.46 9.34397 72.3 9.11997C72.108 8.89597 72.044 8.73597 72.108 8.63997C72.204 8.47997 72.38 8.33597 72.636 8.20797C72.86 8.04797 73.308 7.99997 73.98 8.06397C75.036 8.15997 76.124 8.20797 77.244 8.20797C78.396 8.20797 79.532 8.12797 80.652 7.96797C80.748 7.90397 80.828 7.82397 80.892 7.72797C81.34 7.11997 81.676 6.63997 81.9 6.28797C82.124 5.93597 82.332 5.61597 82.524 5.32797C82.716 5.03997 82.924 4.73597 83.148 4.41597C83.404 4.06397 83.756 3.58397 84.204 2.97597C84.3 2.78397 84.444 2.62397 84.636 2.49597C84.86 2.33597 85.068 2.33597 85.26 2.49597C85.324 2.55997 85.372 2.67197 85.404 2.83197C85.436 2.99197 85.452 3.13597 85.452 3.26397C85.42 3.39197 85.356 3.51997 85.26 3.64797C85.164 3.77597 85.084 3.88797 85.02 3.98397C84.668 4.46397 84.412 4.81597 84.252 5.03997C84.124 5.26397 83.996 5.48797 83.868 5.71197C83.74 5.93597 83.58 6.20797 83.388 6.52797C83.196 6.84797 82.86 7.34397 82.38 8.01597C83.052 8.14397 83.916 8.23997 84.972 8.30397C86.06 8.33597 87.228 8.35197 88.476 8.35197C89.724 8.31997 91.004 8.27197 92.316 8.20797C93.66 8.11197 94.94 7.99997 96.156 7.87197C96.924 7.80797 97.644 7.74397 98.316 7.67997C98.988 7.61597 99.548 7.59997 99.996 7.63197C100.796 7.69597 101.164 7.85597 101.1 8.11197C101.036 8.36797 100.668 8.57597 99.996 8.73597C99.42 8.83197 98.62 8.91197 97.596 8.97597C96.604 9.03997 95.516 9.10397 94.332 9.16797C93.148 9.19997 91.9 9.23197 90.588 9.26397C89.308 9.26397 88.076 9.26397 86.892 9.26397C85.74 9.23197 84.684 9.21597 83.724 9.21597C82.796 9.21597 82.076 9.19997 81.564 9.16797C81.02 9.87197 80.444 10.64 79.836 11.472C79.26 12.304 78.684 13.152 78.108 14.016C77.564 14.88 77.052 15.728 76.572 16.56C76.092 17.36 75.676 18.096 75.324 18.768C75.036 19.344 74.748 19.984 74.46 20.688C74.172 21.36 73.98 21.968 73.884 22.512C73.82 23.024 73.916 23.408 74.172 23.664C74.428 23.888 74.94 23.84 75.708 23.52C76.06 23.392 76.46 23.2 76.908 22.944C77.356 22.688 77.82 22.416 78.3 22.128C78.78 21.808 79.244 21.488 79.692 21.168C80.14 20.816 80.556 20.48 80.94 20.16C81.1 20.064 81.228 19.968 81.324 19.872C81.42 19.744 81.548 19.648 81.708 19.584C81.9 19.456 82.06 19.376 82.188 19.344C82.348 19.28 82.508 19.344 82.668 19.536C82.796 19.728 82.812 19.92 82.716 20.112C82.652 20.272 82.54 20.432 82.38 20.592C82.188 20.784 81.852 21.056 81.372 21.408C80.892 21.76 80.332 22.128 79.692 22.512C79.084 22.896 78.428 23.28 77.724 23.664C77.052 24.016 76.412 24.304 75.804 24.528C74.716 24.912 73.964 24.96 73.548 24.672C73.1 24.352 72.86 23.888 72.828 23.28C72.764 22.672 72.844 22 73.068 21.264C73.292 20.528 73.516 19.888 73.74 19.344C74.124 18.448 74.572 17.552 75.084 16.656C75.596 15.76 76.124 14.88 76.668 14.016C77.244 13.152 77.804 12.32 78.348 11.52C78.924 10.688 79.436 9.91997 79.884 9.21597C78.828 9.24797 77.74 9.27997 76.62 9.31197C75.532 9.31197 74.54 9.31197 73.644 9.31197ZM88.8015 20.928C88.0975 21.312 87.3775 21.68 86.6415 22.032C85.9375 22.384 85.1855 22.656 84.3855 22.848C84.1295 22.88 83.8735 22.912 83.6175 22.944C83.3615 22.944 83.1055 22.912 82.8495 22.848C82.4015 22.784 82.0815 22.576 81.8895 22.224C81.6655 21.872 81.5855 21.488 81.6495 21.072C81.6495 20.816 81.6815 20.544 81.7455 20.256C81.7775 19.968 81.8735 19.712 82.0335 19.488C82.3855 18.912 82.7055 18.272 82.9935 17.568C83.3135 16.864 83.6815 16.24 84.0975 15.696C84.2575 15.504 84.4495 15.408 84.6735 15.408C84.8975 15.376 85.0895 15.44 85.2495 15.6C85.4415 15.728 85.5535 15.936 85.5855 16.224C85.6175 16.48 85.5055 16.768 85.2495 17.088C84.9295 17.6 84.6095 18.096 84.2895 18.576C83.9695 19.056 83.6495 19.568 83.3295 20.112C83.0095 20.784 82.8655 21.28 82.8975 21.6C82.9615 21.888 83.1215 22.064 83.3775 22.128C83.6655 22.192 84.0175 22.16 84.4335 22.032C84.8495 21.904 85.2655 21.728 85.6815 21.504C86.1295 21.28 86.5455 21.056 86.9295 20.832C87.3135 20.576 87.5855 20.352 87.7455 20.16C88.0655 19.808 88.3535 19.632 88.6095 19.632C88.8655 19.6 89.0415 19.664 89.1375 19.824C89.2655 19.952 89.3135 20.144 89.2815 20.4C89.2495 20.624 89.0895 20.8 88.8015 20.928ZM87.6495 11.856C87.9055 11.856 88.0975 11.936 88.2255 12.096C88.3855 12.256 88.4335 12.448 88.3695 12.672C88.3055 12.928 88.1295 13.2 87.8415 13.488C87.5535 13.776 87.2495 14.016 86.9295 14.208C86.4815 14.464 86.1615 14.56 85.9695 14.496C85.8095 14.432 85.7935 14.096 85.9215 13.488C85.9855 13.104 86.1455 12.736 86.4015 12.384C86.6895 12.032 87.1055 11.856 87.6495 11.856ZM94.2154 19.776C94.5994 19.712 94.9674 19.664 95.3194 19.632C95.6714 19.568 96.0234 19.504 96.3754 19.44C96.6314 19.376 96.9514 19.328 97.3354 19.296C97.7194 19.264 98.0554 19.216 98.3434 19.152C98.5034 19.152 98.6154 19.152 98.6794 19.152C98.7754 19.152 98.9034 19.184 99.0634 19.248C99.1594 19.312 99.2394 19.408 99.3034 19.536C99.3994 19.632 99.4314 19.744 99.3994 19.872C99.3994 19.936 99.3354 20.016 99.2074 20.112C99.0794 20.208 98.9834 20.256 98.9194 20.256C98.5994 20.32 98.2954 20.384 98.0074 20.448C97.7514 20.48 97.4634 20.512 97.1434 20.544C96.5354 20.672 95.9274 20.784 95.3194 20.88C94.7434 20.944 94.1674 21.04 93.5914 21.168C93.2394 21.232 92.9514 21.392 92.7274 21.648C92.0554 22.288 91.4954 22.816 91.0474 23.232C90.6314 23.648 90.1194 23.952 89.5114 24.144C89.0634 24.272 88.6474 24.304 88.2634 24.24C87.8794 24.144 87.5914 23.92 87.3994 23.568C87.2074 23.216 87.1754 22.736 87.3034 22.128C87.4314 21.488 87.7834 20.704 88.3594 19.776C88.7754 19.136 89.2554 18.56 89.7994 18.048C90.3754 17.504 90.9834 16.976 91.6234 16.464C91.8794 16.272 92.1514 16.112 92.4394 15.984C92.7274 15.824 93.0634 15.728 93.4474 15.696C93.9914 15.632 94.4074 15.728 94.6954 15.984C94.9834 16.208 95.1114 16.592 95.0794 17.136C95.0794 17.392 95.0314 17.664 94.9354 17.952C94.8394 18.208 94.7594 18.48 94.6954 18.768C94.6314 18.928 94.5514 19.088 94.4554 19.248C94.3914 19.376 94.3114 19.552 94.2154 19.776ZM89.6074 20.016C89.0634 20.688 88.7914 21.264 88.7914 21.744C88.7914 22.192 88.9354 22.496 89.2234 22.656C89.5434 22.784 89.9114 22.752 90.3274 22.56C90.7754 22.336 91.1594 21.888 91.4794 21.216C90.9674 21.216 90.5514 21.136 90.2314 20.976C89.9114 20.784 89.7034 20.464 89.6074 20.016ZM93.6874 16.848C92.5674 17.2 91.7354 17.856 91.1914 18.816C91.1274 18.944 91.0954 19.072 91.0954 19.2C91.0954 19.328 91.1754 19.456 91.3354 19.584C91.5274 19.776 91.7834 19.856 92.1034 19.824C92.4554 19.792 92.6954 19.648 92.8234 19.392C93.0154 19.136 93.1754 18.848 93.3034 18.528C93.4634 18.208 93.5914 17.904 93.6874 17.616C93.7514 17.552 93.7674 17.456 93.7354 17.328C93.7034 17.2 93.6874 17.04 93.6874 16.848ZM106.984 23.04C107.816 22.72 108.776 22.288 109.864 21.744C110.952 21.168 111.912 20.656 112.744 20.208C113.256 19.984 113.656 19.888 113.944 19.92C114.264 19.92 114.456 20 114.52 20.16C114.584 20.288 114.52 20.48 114.328 20.736C114.168 20.96 113.848 21.184 113.368 21.408C112.376 21.856 111.368 22.304 110.344 22.752C109.352 23.168 108.344 23.584 107.32 24C106.616 24.288 105.96 24.32 105.352 24.096C104.776 23.808 104.552 23.264 104.68 22.464C104.744 22.144 104.84 21.872 104.968 21.648C105.096 21.392 105.192 21.12 105.256 20.832C105.384 20.48 105.496 20.16 105.592 19.872C105.72 19.584 105.768 19.36 105.736 19.2C105.736 19.008 105.624 18.896 105.4 18.864C105.208 18.832 104.856 18.896 104.344 19.056C103.8 19.344 103.256 19.648 102.712 19.968C102.2 20.256 101.688 20.56 101.176 20.88C100.696 21.232 100.216 21.584 99.7357 21.936C99.2877 22.288 98.8077 22.64 98.2957 22.992C98.2317 23.056 98.1677 23.136 98.1037 23.232C98.0077 23.296 97.8957 23.36 97.7677 23.424C97.6077 23.488 97.4477 23.552 97.2877 23.616C97.0957 23.68 96.9037 23.616 96.7117 23.424C96.5517 23.264 96.4877 23.104 96.5197 22.944C96.5197 22.752 96.5837 22.576 96.7117 22.416C96.9677 22.032 97.2237 21.648 97.4797 21.264C97.7037 20.88 97.9437 20.496 98.1997 20.112C98.5197 19.696 98.8237 19.28 99.1117 18.864C99.3997 18.448 99.6877 18.016 99.9757 17.568C100.136 17.376 100.248 17.184 100.312 16.992C100.856 16.32 101.256 16.112 101.512 16.368C101.8 16.56 101.704 17.024 101.224 17.76C101 18.112 100.792 18.464 100.6 18.816C100.408 19.136 100.184 19.456 99.9277 19.776C99.8317 19.904 99.6557 20.112 99.3997 20.4C99.1437 20.688 98.9197 20.96 98.7277 21.216C98.5357 21.44 98.4397 21.584 98.4397 21.648C98.4077 21.712 98.5837 21.568 98.9677 21.216C99.6717 20.64 100.408 20.096 101.176 19.584C101.976 19.04 102.776 18.576 103.576 18.192C103.896 18.032 104.248 17.888 104.632 17.76C105.048 17.6 105.416 17.536 105.736 17.568C106.088 17.568 106.376 17.68 106.6 17.904C106.856 18.128 107.016 18.496 107.08 19.008C107.144 19.52 107.048 20 106.792 20.448C106.536 20.864 106.296 21.312 106.072 21.792C105.848 22.4 105.784 22.832 105.88 23.088C105.976 23.312 106.344 23.296 106.984 23.04Z" fill="#C21F2D"/>
</svg>
