<svg width="122" height="31" viewBox="0 0 122 31" fill="none" xmlns="http://www.w3.org/2000/svg">
<path d="M10.32 17.52C10.64 17.68 10.92 17.72 11.16 17.64C11.4 17.52 11.64 17.4 11.88 17.28C12.72 16.8 13.54 16.34 14.34 15.9C15.14 15.42 15.96 14.96 16.8 14.52C17.12 14.32 17.46 14.16 17.82 14.04C18.22 13.88 18.6 13.76 18.96 13.68C20.2 13.4 20.92 13.88 21.12 15.12C21.28 15.84 21.3 16.6 21.18 17.4C21.1 18.32 21.24 18.9 21.6 19.14C22 19.38 22.6 19.38 23.4 19.14C23.96 19.02 24.56 18.82 25.2 18.54C25.84 18.26 26.42 18.02 26.94 17.82C27.42 17.66 27.76 17.6 27.96 17.64C28.2 17.64 28.36 17.72 28.44 17.88C28.56 18.08 28.56 18.32 28.44 18.6C28.36 18.84 28.08 19.06 27.6 19.26C26.84 19.7 26.06 20.08 25.26 20.4C24.5 20.72 23.68 20.92 22.8 21C20.68 21.24 19.58 20.28 19.5 18.12C19.5 17.88 19.5 17.66 19.5 17.46C19.54 17.26 19.56 17.04 19.56 16.8C19.56 15.96 19.52 15.36 19.44 15C19.4 14.64 18.98 14.74 18.18 15.3C17.38 15.74 16.5 16.28 15.54 16.92C14.62 17.56 13.76 18.1 12.96 18.54C12.44 18.9 11.84 19.14 11.16 19.26C9.96001 19.62 9.14001 19.16 8.70001 17.88C8.58001 17.56 8.48001 17.28 8.40001 17.04C8.36001 16.8 8.30001 16.62 8.22001 16.5C8.18001 16.38 8.08001 16.36 7.92001 16.44C7.76001 16.48 7.50001 16.62 7.14001 16.86C6.34001 17.46 5.54001 18.2 4.74001 19.08C3.94001 19.96 3.14001 20.72 2.34001 21.36C2.14001 21.52 1.96001 21.68 1.80001 21.84C1.64001 21.96 1.46001 22.08 1.26001 22.2C0.900011 22.32 0.600011 22.3 0.360011 22.14C0.120011 21.94 0.040011 21.64 0.120011 21.24C0.160011 20.96 0.300011 20.64 0.540011 20.28C0.980011 19.36 1.44001 18.46 1.92001 17.58C2.36001 16.7 2.84001 15.8 3.36001 14.88C3.40001 14.76 3.44001 14.64 3.48001 14.52C3.56001 14.36 3.64001 14.24 3.72001 14.16C3.84001 14.08 3.98001 14 4.14001 13.92C4.30001 13.84 4.44001 13.84 4.56001 13.92C4.84001 14 4.98001 14.24 4.98001 14.64C4.90001 14.84 4.82001 15.04 4.74001 15.24C4.70001 15.4 4.64001 15.58 4.56001 15.78C4.48001 15.94 4.36001 16.16 4.20001 16.44C4.08001 16.72 3.94001 17.02 3.78001 17.34C3.62001 17.62 3.48001 17.92 3.36001 18.24C3.24001 18.52 3.18001 18.74 3.18001 18.9C3.34001 18.78 3.54001 18.6 3.78001 18.36C4.02001 18.12 4.26001 17.88 4.50001 17.64C4.78001 17.36 5.04001 17.1 5.28001 16.86C5.52001 16.58 5.74001 16.38 5.94001 16.26C6.18001 16.06 6.42001 15.9 6.66001 15.78C6.90001 15.66 7.14001 15.54 7.38001 15.42C8.74001 14.86 9.66001 15.3 10.14 16.74C10.18 16.86 10.2 17 10.2 17.16C10.24 17.28 10.28 17.4 10.32 17.52ZM44.0827 18.78C43.6427 19.22 42.9627 19.68 42.0427 20.16C41.1627 20.64 40.2627 20.98 39.3427 21.18C38.4627 21.38 37.6827 21.36 37.0027 21.12C36.3227 20.88 35.9827 20.24 35.9827 19.2C35.9827 18.88 36.0027 18.56 36.0427 18.24C36.0827 17.88 36.1427 17.5 36.2227 17.1C35.1827 17.74 34.1627 18.38 33.1627 19.02C32.2027 19.62 31.2027 20.2 30.1627 20.76C29.9227 20.96 29.6427 21.08 29.3227 21.12C29.0427 21.16 28.7627 21.2 28.4827 21.24C27.6027 21.36 26.9827 21.1 26.6227 20.46C26.2627 19.82 26.3227 19.16 26.8027 18.48C27.0027 18.24 27.1827 18.02 27.3427 17.82C27.5027 17.62 27.7027 17.42 27.9427 17.22C28.9827 16.3 30.1227 15.62 31.3627 15.18C32.6027 14.74 33.9427 14.58 35.3827 14.7C35.9027 14.78 36.3227 14.62 36.6427 14.22C36.9227 13.94 37.1827 13.66 37.4227 13.38C37.7027 13.1 37.9827 12.82 38.2627 12.54C38.3427 12.42 38.4427 12.3 38.5627 12.18C38.6827 12.06 38.8027 11.98 38.9227 11.94C39.0427 11.9 39.1827 11.88 39.3427 11.88C39.5427 11.88 39.7027 11.92 39.8227 12C40.0227 12.28 40.1027 12.58 40.0627 12.9C40.0227 13.22 39.8627 13.62 39.5827 14.1C39.4627 14.34 39.2227 14.84 38.8627 15.6C38.5027 16.32 38.2227 17.04 38.0227 17.76C37.8627 18.48 37.8627 19.08 38.0227 19.56C38.1827 20 38.7227 20.08 39.6427 19.8C40.1227 19.68 40.6427 19.48 41.2027 19.2C41.7627 18.88 42.3227 18.58 42.8827 18.3C43.0427 18.22 43.2027 18.14 43.3627 18.06C43.5227 17.94 43.7027 17.9 43.9027 17.94C44.1027 18.02 44.2427 18.16 44.3227 18.36C44.4427 18.52 44.3627 18.66 44.0827 18.78ZM28.3027 19.5C29.4627 19.3 30.6827 18.86 31.9627 18.18C33.2427 17.46 34.2827 16.7 35.0827 15.9C33.8827 15.98 32.6227 16.34 31.3027 16.98C29.9827 17.62 28.9827 18.46 28.3027 19.5ZM53.723 19.92C53.243 19.88 52.863 19.76 52.583 19.56C52.303 19.36 52.063 19.1 51.863 18.78C51.703 18.46 51.563 18.12 51.443 17.76C51.363 17.4 51.283 17.04 51.203 16.68C50.963 16.12 50.623 15.84 50.183 15.84C49.743 15.84 49.283 15.98 48.803 16.26C48.363 16.5 47.943 16.82 47.543 17.22C47.143 17.62 46.823 17.92 46.583 18.12C45.183 19.28 44.103 20.58 43.343 22.02C43.223 22.34 43.043 22.6 42.803 22.8C42.523 23 42.263 23.14 42.023 23.22C41.783 23.26 41.583 23.22 41.423 23.1C41.223 22.98 41.123 22.74 41.123 22.38C41.123 22.18 41.163 22.02 41.243 21.9C41.323 21.78 41.403 21.64 41.483 21.48C42.243 20.12 42.983 18.76 43.703 17.4C44.423 16.04 45.163 14.68 45.923 13.32C46.123 12.92 46.383 12.56 46.703 12.24C46.783 12.16 46.883 12.1 47.003 12.06C47.163 12.02 47.283 12.04 47.363 12.12C47.643 12.28 47.743 12.5 47.663 12.78C47.663 13.06 47.583 13.4 47.423 13.8C47.143 14.32 46.883 14.84 46.643 15.36C46.403 15.88 46.183 16.42 45.983 16.98C46.303 16.74 46.503 16.58 46.583 16.5C46.983 16.18 47.343 15.88 47.663 15.6C48.023 15.28 48.383 15 48.743 14.76C49.223 14.36 49.763 14.12 50.363 14.04C51.563 13.76 52.343 14.2 52.703 15.36C52.783 15.68 52.843 15.98 52.883 16.26C52.923 16.54 52.983 16.82 53.063 17.1C53.143 17.54 53.283 17.84 53.483 18C53.683 18.12 54.023 18.16 54.503 18.12C54.703 18.12 54.903 18.12 55.103 18.12C55.343 18.08 55.563 18.06 55.763 18.06C56.323 18.02 56.703 18.1 56.903 18.3C57.103 18.5 57.123 18.74 56.963 19.02C56.803 19.26 56.443 19.48 55.883 19.68C55.363 19.88 54.643 19.96 53.723 19.92ZM66.6136 19.92C66.1336 19.88 65.7536 19.76 65.4736 19.56C65.1936 19.36 64.9536 19.1 64.7536 18.78C64.5936 18.46 64.4536 18.12 64.3336 17.76C64.2536 17.4 64.1736 17.04 64.0936 16.68C63.8536 16.12 63.5136 15.84 63.0736 15.84C62.6336 15.84 62.1736 15.98 61.6936 16.26C61.2536 16.5 60.8336 16.82 60.4336 17.22C60.0336 17.62 59.7136 17.92 59.4736 18.12C58.0736 19.28 56.9936 20.58 56.2336 22.02C56.1136 22.34 55.9336 22.6 55.6936 22.8C55.4136 23 55.1536 23.14 54.9136 23.22C54.6736 23.26 54.4736 23.22 54.3136 23.1C54.1136 22.98 54.0136 22.74 54.0136 22.38C54.0136 22.18 54.0536 22.02 54.1336 21.9C54.2136 21.78 54.2936 21.64 54.3736 21.48C55.1336 20.12 55.8736 18.76 56.5936 17.4C57.3136 16.04 58.0536 14.68 58.8136 13.32C59.0136 12.92 59.2736 12.56 59.5936 12.24C59.6736 12.16 59.7736 12.1 59.8936 12.06C60.0536 12.02 60.1736 12.04 60.2536 12.12C60.5336 12.28 60.6336 12.5 60.5536 12.78C60.5536 13.06 60.4736 13.4 60.3136 13.8C60.0336 14.32 59.7736 14.84 59.5336 15.36C59.2936 15.88 59.0736 16.42 58.8736 16.98C59.1936 16.74 59.3936 16.58 59.4736 16.5C59.8736 16.18 60.2336 15.88 60.5536 15.6C60.9136 15.28 61.2736 15 61.6336 14.76C62.1136 14.36 62.6536 14.12 63.2536 14.04C64.4536 13.76 65.2336 14.2 65.5936 15.36C65.6736 15.68 65.7336 15.98 65.7736 16.26C65.8136 16.54 65.8736 16.82 65.9536 17.1C66.0336 17.54 66.1736 17.84 66.3736 18C66.5736 18.12 66.9136 18.16 67.3936 18.12C67.5936 18.12 67.7936 18.12 67.9936 18.12C68.2336 18.08 68.4536 18.06 68.6536 18.06C69.2136 18.02 69.5936 18.1 69.7936 18.3C69.9936 18.5 70.0136 18.74 69.8536 19.02C69.6936 19.26 69.3336 19.48 68.7736 19.68C68.2536 19.88 67.5336 19.96 66.6136 19.92ZM77.6442 19.44C76.7642 19.92 75.8642 20.38 74.9442 20.82C74.0642 21.26 73.1242 21.6 72.1242 21.84C71.8042 21.88 71.4842 21.92 71.1642 21.96C70.8442 21.96 70.5242 21.92 70.2042 21.84C69.6442 21.76 69.2442 21.5 69.0042 21.06C68.7242 20.62 68.6242 20.14 68.7042 19.62C68.7042 19.3 68.7442 18.96 68.8242 18.6C68.8642 18.24 68.9842 17.92 69.1842 17.64C69.6242 16.92 70.0242 16.12 70.3842 15.24C70.7842 14.36 71.2442 13.58 71.7642 12.9C71.9642 12.66 72.2042 12.54 72.4842 12.54C72.7642 12.5 73.0042 12.58 73.2042 12.78C73.4442 12.94 73.5842 13.2 73.6242 13.56C73.6642 13.88 73.5242 14.24 73.2042 14.64C72.8042 15.28 72.4042 15.9 72.0042 16.5C71.6042 17.1 71.2042 17.74 70.8042 18.42C70.4042 19.26 70.2242 19.88 70.2642 20.28C70.3442 20.64 70.5442 20.86 70.8642 20.94C71.2242 21.02 71.6642 20.98 72.1842 20.82C72.7042 20.66 73.2242 20.44 73.7442 20.16C74.3042 19.88 74.8242 19.6 75.3042 19.32C75.7842 19 76.1242 18.72 76.3242 18.48C76.7242 18.04 77.0842 17.82 77.4042 17.82C77.7242 17.78 77.9442 17.86 78.0642 18.06C78.2242 18.22 78.2842 18.46 78.2442 18.78C78.2042 19.06 78.0042 19.28 77.6442 19.44ZM76.2042 8.09999C76.5242 8.09999 76.7642 8.19999 76.9242 8.39999C77.1242 8.59999 77.1842 8.83999 77.1042 9.11999C77.0242 9.43999 76.8042 9.77999 76.4442 10.14C76.0842 10.5 75.7042 10.8 75.3042 11.04C74.7442 11.36 74.3442 11.48 74.1042 11.4C73.9042 11.32 73.8842 10.9 74.0442 10.14C74.1242 9.65999 74.3242 9.19999 74.6442 8.75999C75.0042 8.31999 75.5242 8.09999 76.2042 8.09999ZM89.2716 18C89.4716 17.92 89.6516 17.86 89.8116 17.82C89.9716 17.74 90.1516 17.66 90.3516 17.58C90.8316 17.5 91.1716 17.64 91.3716 18C91.5716 18.48 91.4516 18.82 91.0116 19.02C89.5316 19.78 87.9916 20.36 86.3916 20.76C84.7916 21.16 83.1916 21.4 81.5916 21.48C81.0316 21.52 80.4316 21.52 79.7916 21.48C79.1916 21.44 78.6316 21.3 78.1116 21.06C77.6316 20.82 77.2716 20.48 77.0316 20.04C76.7916 19.56 76.7716 18.92 76.9716 18.12C77.2516 17.32 77.5116 16.76 77.7516 16.44C77.9916 16.12 78.4516 15.78 79.1316 15.42C79.8516 15.1 80.5916 14.88 81.3516 14.76C82.1516 14.6 82.9116 14.52 83.6316 14.52C84.3116 14.6 84.7116 14.94 84.8316 15.54C84.9516 16.18 84.7316 16.66 84.1716 16.98C83.7716 17.22 83.3516 17.44 82.9116 17.64C82.4716 17.8 82.0116 17.96 81.5316 18.12C81.1716 18.2 80.7916 18.26 80.3916 18.3C79.9916 18.34 79.5916 18.36 79.1916 18.36C78.5916 18.36 78.2516 18.5 78.1716 18.78C78.1316 19.02 78.2516 19.28 78.5316 19.56C78.9316 19.96 79.6316 20.18 80.6316 20.22C81.6316 20.22 82.6916 20.14 83.8116 19.98C84.9716 19.78 86.0516 19.5 87.0516 19.14C88.0916 18.78 88.8316 18.4 89.2716 18ZM83.2116 16.26C83.4916 15.9 83.4916 15.72 83.2116 15.72C82.9716 15.68 82.5916 15.74 82.0716 15.9C81.5916 16.06 81.0316 16.3 80.3916 16.62C79.7516 16.94 79.1916 17.26 78.7116 17.58C79.3116 17.66 80.0916 17.58 81.0516 17.34C82.0116 17.06 82.7316 16.7 83.2116 16.26ZM94.0636 28.56C94.4636 28.36 94.7836 28.22 95.0236 28.14C95.3036 28.06 95.5236 27.92 95.6836 27.72C96.4836 27.12 97.2836 26.5 98.0836 25.86C98.8836 25.22 99.6636 24.56 100.424 23.88C101.304 23.08 102.244 22.26 103.244 21.42C104.244 20.54 105.164 19.68 106.004 18.84C106.444 18.44 106.824 18.18 107.144 18.06C107.504 17.9 107.744 17.88 107.864 18C108.024 18.12 108.024 18.34 107.864 18.66C107.744 18.98 107.444 19.38 106.964 19.86C105.324 21.54 103.664 23.18 101.984 24.78C100.344 26.34 98.5636 27.78 96.6436 29.1C96.3636 29.3 96.0636 29.48 95.7436 29.64C95.4636 29.8 95.1636 29.92 94.8436 30C94.1636 30.24 93.5636 30.18 93.0436 29.82C92.5636 29.46 92.3836 28.92 92.5036 28.2C92.5836 27.72 92.6836 27.26 92.8036 26.82C92.9236 26.34 93.0836 25.88 93.2836 25.44C93.8436 24.24 94.4236 23.02 95.0236 21.78C95.6236 20.54 96.2236 19.32 96.8236 18.12C96.9036 17.96 96.9636 17.82 97.0036 17.7C97.0436 17.58 97.0636 17.42 97.0636 17.22C96.8636 17.38 96.6836 17.52 96.5236 17.64C96.4036 17.76 96.2636 17.88 96.1036 18C94.7836 19.08 93.4836 20.08 92.2036 21C92.0036 21.08 91.7836 21.18 91.5436 21.3C91.3036 21.38 91.0636 21.44 90.8236 21.48C90.3036 21.56 89.8836 21.46 89.5636 21.18C89.2436 20.9 89.1036 20.52 89.1436 20.04C89.1836 19.76 89.2636 19.48 89.3836 19.2C89.5036 18.92 89.6236 18.64 89.7436 18.36C90.3036 17.64 90.9436 17.04 91.6636 16.56C92.4236 16.04 93.2436 15.62 94.1236 15.3C94.7636 15.02 95.3636 14.88 95.9236 14.88C96.4036 14.8 96.8236 14.66 97.1836 14.46C97.5836 14.22 97.9436 13.94 98.2636 13.62C99.5036 12.22 100.624 10.78 101.624 9.29999C102.664 7.77999 103.704 6.23999 104.744 4.67999C104.824 4.55999 104.904 4.41999 104.984 4.25999C105.064 4.09999 105.164 3.95999 105.284 3.83999C105.884 3.07999 106.404 2.81999 106.844 3.05999C107.364 3.33999 107.364 3.95999 106.844 4.91999C106.564 5.27999 106.284 5.65999 106.004 6.05999C105.764 6.45999 105.544 6.83999 105.344 7.19999C103.544 9.95999 101.824 12.72 100.184 15.48C98.5836 18.2 97.0836 21 95.6836 23.88C95.3236 24.56 95.0036 25.26 94.7236 25.98C94.4436 26.7 94.2236 27.56 94.0636 28.56ZM91.1236 19.56C92.7236 18.92 93.8236 18.08 94.4236 17.04C93.7436 17.24 93.1036 17.56 92.5036 18C91.9036 18.4 91.4436 18.92 91.1236 19.56ZM110.276 21.18C110.356 20.98 110.436 20.68 110.516 20.28C110.956 18.68 111.536 17.16 112.256 15.72C112.976 14.24 113.696 12.76 114.416 11.28C115.216 9.63999 115.976 8.01999 116.696 6.41999C117.416 4.81999 118.176 3.19999 118.976 1.55999C119.016 1.47999 119.056 1.39999 119.096 1.31999C119.176 1.19999 119.236 1.09999 119.276 1.01999C119.596 0.339986 120.016 0.0999856 120.536 0.299985C120.976 0.499988 121.096 0.939988 120.896 1.61999C120.816 1.81999 120.736 2.01999 120.656 2.21999C120.616 2.41999 120.556 2.59999 120.476 2.75999C120.156 3.43999 119.856 4.11999 119.576 4.79999C119.296 5.47999 118.996 6.15999 118.676 6.83999C117.756 8.55999 116.876 10.28 116.036 12C115.196 13.72 114.316 15.42 113.396 17.1C112.996 17.9 112.536 18.62 112.016 19.26C111.536 19.9 111.056 20.58 110.576 21.3C110.496 21.26 110.436 21.24 110.396 21.24C110.396 21.24 110.356 21.22 110.276 21.18ZM109.496 27.84C109.416 28.12 109.316 28.4 109.196 28.68C109.076 28.96 108.936 29.2 108.776 29.4C108.336 29.76 107.896 29.8 107.456 29.52C107.136 29.08 107.116 28.62 107.396 28.14C107.596 27.82 107.896 27.52 108.296 27.24C108.496 27.04 108.736 26.98 109.016 27.06C109.136 27.18 109.296 27.44 109.496 27.84Z" fill="#C21F2D"/>
</svg>
