<svg width="124" height="36" viewBox="0 0 124 36" fill="none" xmlns="http://www.w3.org/2000/svg">
<path d="M41.136 33.2641C40.848 33.7441 40.544 34.2081 40.224 34.6561C39.904 35.0721 39.504 35.5041 39.024 35.9521C38.992 35.5681 38.992 35.2161 39.024 34.8961C39.088 34.5761 39.168 34.2401 39.264 33.8881C39.424 33.5041 39.584 33.1201 39.744 32.7361C39.936 32.3521 40.128 31.9841 40.32 31.6321C42.336 28.0481 44.096 24.9121 45.6 22.2241C47.136 19.5361 48.464 17.2001 49.584 15.2161C50.736 13.2001 51.696 11.5201 52.464 10.1761C53.264 8.83206 53.92 7.72806 54.432 6.86406C54.976 5.96806 55.392 5.28006 55.68 4.80006C56 4.28806 56.24 3.88806 56.4 3.60006C56.496 3.44006 56.576 3.29606 56.64 3.16806C56.704 3.04006 56.768 2.91206 56.832 2.78406C56.768 2.72006 56.72 2.68806 56.688 2.68806C56.304 3.00806 55.92 3.32806 55.536 3.64806C55.184 3.93606 54.832 4.25606 54.48 4.60806C53.744 5.24806 52.912 6.04806 51.984 7.00806C51.056 7.96806 50.112 8.96006 49.152 9.98406C48.192 11.0081 47.248 12.0161 46.32 13.0081C45.424 13.9681 44.624 14.7681 43.92 15.4081C42.64 16.5601 41.376 17.7281 40.128 18.9121C38.88 20.0961 37.616 21.2641 36.336 22.4161C35.088 23.6001 33.824 24.7841 32.544 25.9681C31.296 27.1201 30.016 28.2721 28.704 29.4241C28.544 29.5841 28.352 29.7281 28.128 29.8561C27.936 29.9841 27.744 30.1281 27.552 30.2881C27.328 30.4161 27.088 30.5121 26.832 30.5761C26.608 30.6401 26.368 30.5761 26.112 30.3841C25.856 30.1921 25.728 29.9841 25.728 29.7601C25.728 29.5041 25.792 29.2481 25.92 28.9921C26.176 28.1921 26.496 27.4721 26.88 26.8321C27.968 25.0081 29.04 23.2001 30.096 21.4081C31.184 19.5841 32.288 17.7601 33.408 15.9361C34.4 14.3041 35.408 12.6721 36.432 11.0401C37.488 9.40806 38.528 7.77606 39.552 6.14406C39.616 5.98406 39.696 5.84006 39.792 5.71206C39.888 5.55206 40.016 5.34406 40.176 5.08806C40.016 5.15206 39.888 5.18406 39.792 5.18406C39.728 5.18406 39.664 5.21606 39.6 5.28006C37.84 6.72006 36.032 8.08006 34.176 9.36006C32.32 10.6081 30.4 11.8241 28.416 13.0081C26.368 14.1921 24.32 15.3601 22.272 16.5121C20.256 17.6641 18.192 18.8161 16.08 19.9681C14.48 20.8641 12.864 21.7121 11.232 22.5121C9.63199 23.2801 7.96799 23.9841 6.23999 24.6241C5.50399 24.8801 4.75199 25.1201 3.98399 25.3441C3.21599 25.5681 2.46399 25.7921 1.72799 26.0161C1.56799 26.0801 1.39199 26.1281 1.19999 26.1601C1.00799 26.1921 0.799988 26.1761 0.575988 26.1121C0.511988 26.0801 0.415988 26.0321 0.287988 25.9681C0.191988 25.9041 0.0959876 25.8401 -1.24499e-05 25.7761C0.0639876 25.6481 0.127988 25.5361 0.191988 25.4401C0.255988 25.3121 0.351988 25.2321 0.479988 25.2001C0.639988 25.1361 0.799988 25.0881 0.959988 25.0561C1.11999 25.0241 1.29599 24.9921 1.48799 24.9601C3.02399 24.5121 4.51199 24.0001 5.95199 23.4241C7.39199 22.8481 8.83199 22.2081 10.272 21.5041C13.952 19.6801 17.568 17.7761 21.12 15.7921C24.672 13.7761 28.192 11.6321 31.68 9.36006C33.44 8.24006 35.136 7.05606 36.768 5.80806C38.432 4.52806 40.08 3.20006 41.712 1.82406C41.936 1.60006 42.24 1.37606 42.624 1.15206C42.752 1.05606 42.896 1.00806 43.056 1.00806C43.216 1.00806 43.36 1.08806 43.488 1.24806C43.648 1.47206 43.696 1.74406 43.632 2.06406L42.528 3.98406C40.512 7.15206 38.528 10.3041 36.576 13.4401C34.656 16.5761 32.704 19.7441 30.72 22.9441C30.208 23.7441 29.728 24.5281 29.28 25.2961C28.832 26.0641 28.384 26.8481 27.936 27.6481C27.872 27.7121 27.84 27.7921 27.84 27.8881C27.84 27.9841 27.824 28.0641 27.792 28.1281L27.936 28.3201C28.384 27.8721 28.832 27.4721 29.28 27.1201C29.76 26.7361 30.24 26.3361 30.72 25.9201C32.16 24.5441 33.6 23.1521 35.04 21.7441C36.48 20.3361 37.968 18.9601 39.504 17.6161C40.72 16.5281 42.048 15.2641 43.488 13.8241C44.96 12.3841 46.432 10.9121 47.904 9.40806C49.408 7.87206 50.88 6.40006 52.32 4.99206C53.792 3.55206 55.152 2.27206 56.4 1.15206C56.56 0.992061 56.736 0.848061 56.928 0.72006C57.152 0.59206 57.36 0.44806 57.552 0.28806C57.744 0.192061 57.952 0.128061 58.176 0.0960598C58.4 0.0320606 58.624 0.080061 58.848 0.240061C59.04 0.400061 59.136 0.608061 59.136 0.864061C59.168 1.08806 59.136 1.31206 59.04 1.53606C58.784 2.08006 58.512 2.62406 58.224 3.16806C57.936 3.71206 57.632 4.25606 57.312 4.80006C56.288 6.59206 55.216 8.41606 54.096 10.2721C52.976 12.1281 51.76 14.1761 50.448 16.4161C49.168 18.6241 47.76 21.1041 46.224 23.8561C44.688 26.5761 42.992 29.7121 41.136 33.2641ZM63.3611 18.0481C63.5211 17.9841 63.6651 17.9361 63.7931 17.9041C63.9211 17.8401 64.0651 17.7761 64.2251 17.7121C64.6091 17.6481 64.8811 17.7601 65.0411 18.0481C65.2011 18.4321 65.1051 18.7041 64.7531 18.8641C63.5691 19.4721 62.3371 19.9361 61.0571 20.2561C59.7771 20.5761 58.4971 20.7681 57.2171 20.8321C56.7691 20.8641 56.2891 20.8641 55.7771 20.8321C55.2971 20.8001 54.8491 20.6881 54.4331 20.4961C54.0491 20.3041 53.7611 20.0321 53.5691 19.6801C53.3771 19.2961 53.3611 18.7841 53.5211 18.1441C53.7451 17.5041 53.9531 17.0561 54.1451 16.8001C54.3371 16.5441 54.7051 16.2721 55.2491 15.9841C55.8251 15.7281 56.4171 15.5521 57.0251 15.4561C57.6651 15.3281 58.2731 15.2641 58.8491 15.2641C59.3931 15.3281 59.7131 15.6001 59.8091 16.0801C59.9051 16.5921 59.7291 16.9761 59.2811 17.2321C58.9611 17.4241 58.6251 17.6001 58.2731 17.7601C57.9211 17.8881 57.5531 18.0161 57.1691 18.1441C56.8811 18.2081 56.5771 18.2561 56.2571 18.2881C55.9371 18.3201 55.6171 18.3361 55.2971 18.3361C54.8171 18.3361 54.5451 18.4481 54.4811 18.6721C54.4491 18.8641 54.5451 19.0721 54.7691 19.2961C55.0891 19.6161 55.6491 19.7921 56.4491 19.8241C57.2491 19.8241 58.0971 19.7601 58.9931 19.6321C59.9211 19.4721 60.7851 19.2481 61.5851 18.9601C62.4171 18.6721 63.0091 18.3681 63.3611 18.0481ZM58.5131 16.6561C58.7371 16.3681 58.7371 16.2241 58.5131 16.2241C58.3211 16.1921 58.0171 16.2401 57.6011 16.3681C57.2171 16.4961 56.7691 16.6881 56.2571 16.9441C55.7451 17.2001 55.2971 17.4561 54.9131 17.7121C55.3931 17.7761 56.0171 17.7121 56.7851 17.5201C57.5531 17.2961 58.1291 17.0081 58.5131 16.6561ZM68.1067 17.8561C68.3947 17.5681 68.6027 17.2321 68.7307 16.8481C68.8907 16.4321 68.9387 16.0801 68.8747 15.7921C68.8107 15.4721 68.6347 15.2641 68.3467 15.1681C68.0587 15.0401 67.6427 15.1361 67.0987 15.4561C66.8427 15.6161 66.5707 15.8241 66.2827 16.0801C65.9947 16.3361 65.7547 16.6241 65.5627 16.9441C65.3707 17.2321 65.2587 17.5361 65.2267 17.8561C65.2267 18.1761 65.3707 18.4481 65.6587 18.6721C65.9787 18.9921 66.3147 19.3281 66.6667 19.6801C67.0187 20.0001 67.3707 20.3041 67.7227 20.5921C68.6507 20.1761 69.5627 19.8081 70.4587 19.4881C71.3547 19.1681 72.2667 18.7361 73.1947 18.1921C73.5787 17.9681 73.9307 17.8401 74.2507 17.8081C74.4107 17.8081 74.5707 17.8401 74.7307 17.9041C74.8907 17.9361 75.0027 18.0641 75.0667 18.2881C74.9707 18.5761 74.8107 18.7841 74.5867 18.9121C74.3627 19.0081 74.1387 19.0881 73.9147 19.1521C73.4667 19.3441 72.9387 19.5521 72.3307 19.7761C71.7227 19.9681 71.1147 20.1921 70.5067 20.4481C69.8987 20.6721 69.3387 20.9281 68.8267 21.2161C68.3147 21.5041 67.9467 21.8081 67.7227 22.1281C67.4667 22.6401 67.0347 23.1041 66.4267 23.5201C65.7547 23.9681 65.0507 24.3521 64.3147 24.6721C63.6107 24.9601 62.8427 25.1521 62.0107 25.2481C61.5947 25.2801 61.1467 25.2481 60.6667 25.1521C60.5387 25.1201 60.4427 25.0401 60.3787 24.9121C60.2827 24.7841 60.2187 24.6401 60.1867 24.4801C60.1227 24.3201 60.1547 24.2081 60.2827 24.1441C60.4107 24.0801 60.5387 24.0001 60.6667 23.9041C61.4347 23.2641 62.2667 22.7041 63.1627 22.2241C64.0267 21.7121 65.0187 21.2801 66.1387 20.9281C66.0427 20.8321 65.9307 20.7521 65.8027 20.6881C65.7067 20.5921 65.6107 20.4801 65.5147 20.3521C65.2907 20.1601 65.0667 19.9681 64.8427 19.7761C64.6507 19.5841 64.4747 19.3761 64.3147 19.1521C63.9627 18.7041 63.7867 18.2401 63.7867 17.7601C63.7867 17.2481 63.9787 16.7681 64.3627 16.3201C64.9067 15.7441 65.4987 15.2641 66.1387 14.8801C66.8107 14.4961 67.5467 14.2561 68.3467 14.1601C69.3387 14.0001 69.9787 14.2721 70.2667 14.9761C70.4587 15.3281 70.5067 15.6801 70.4107 16.0321C70.3147 16.3841 70.1387 16.7041 69.8827 16.9921C69.6267 17.3121 69.3867 17.5521 69.1627 17.7121C68.9387 17.8401 68.6507 17.9841 68.2987 18.1441C68.2667 18.0801 68.2347 18.0321 68.2027 18.0001C68.1707 17.9681 68.1387 17.9201 68.1067 17.8561ZM62.3947 23.7601C62.1707 24.1441 62.1707 24.3521 62.3947 24.3841C62.6187 24.4161 62.9547 24.3361 63.4027 24.1441C63.8187 23.9521 64.2987 23.6801 64.8427 23.3281C65.3867 22.9441 65.8827 22.5441 66.3307 22.1281C65.7227 22.1281 65.0187 22.2721 64.2187 22.5601C63.4187 22.8161 62.8107 23.2161 62.3947 23.7601ZM78.6067 17.8561C78.8947 17.5681 79.1027 17.2321 79.2307 16.8481C79.3907 16.4321 79.4387 16.0801 79.3747 15.7921C79.3107 15.4721 79.1347 15.2641 78.8467 15.1681C78.5587 15.0401 78.1427 15.1361 77.5987 15.4561C77.3427 15.6161 77.0707 15.8241 76.7827 16.0801C76.4947 16.3361 76.2547 16.6241 76.0627 16.9441C75.8707 17.2321 75.7587 17.5361 75.7267 17.8561C75.7267 18.1761 75.8707 18.4481 76.1587 18.6721C76.4787 18.9921 76.8147 19.3281 77.1667 19.6801C77.5187 20.0001 77.8707 20.3041 78.2227 20.5921C79.1507 20.1761 80.0627 19.8081 80.9587 19.4881C81.8547 19.1681 82.7667 18.7361 83.6947 18.1921C84.0787 17.9681 84.4307 17.8401 84.7507 17.8081C84.9107 17.8081 85.0707 17.8401 85.2307 17.9041C85.3907 17.9361 85.5027 18.0641 85.5667 18.2881C85.4707 18.5761 85.3107 18.7841 85.0867 18.9121C84.8627 19.0081 84.6387 19.0881 84.4147 19.1521C83.9667 19.3441 83.4387 19.5521 82.8307 19.7761C82.2227 19.9681 81.6147 20.1921 81.0067 20.4481C80.3987 20.6721 79.8387 20.9281 79.3267 21.2161C78.8147 21.5041 78.4467 21.8081 78.2227 22.1281C77.9667 22.6401 77.5347 23.1041 76.9267 23.5201C76.2547 23.9681 75.5507 24.3521 74.8147 24.6721C74.1107 24.9601 73.3427 25.1521 72.5107 25.2481C72.0947 25.2801 71.6467 25.2481 71.1667 25.1521C71.0387 25.1201 70.9427 25.0401 70.8787 24.9121C70.7827 24.7841 70.7187 24.6401 70.6867 24.4801C70.6227 24.3201 70.6547 24.2081 70.7827 24.1441C70.9107 24.0801 71.0387 24.0001 71.1667 23.9041C71.9347 23.2641 72.7667 22.7041 73.6627 22.2241C74.5267 21.7121 75.5187 21.2801 76.6387 20.9281C76.5427 20.8321 76.4307 20.7521 76.3027 20.6881C76.2067 20.5921 76.1107 20.4801 76.0147 20.3521C75.7907 20.1601 75.5667 19.9681 75.3427 19.7761C75.1507 19.5841 74.9747 19.3761 74.8147 19.1521C74.4627 18.7041 74.2867 18.2401 74.2867 17.7601C74.2867 17.2481 74.4787 16.7681 74.8627 16.3201C75.4067 15.7441 75.9987 15.2641 76.6387 14.8801C77.3107 14.4961 78.0467 14.2561 78.8467 14.1601C79.8387 14.0001 80.4787 14.2721 80.7667 14.9761C80.9587 15.3281 81.0067 15.6801 80.9107 16.0321C80.8147 16.3841 80.6387 16.7041 80.3827 16.9921C80.1267 17.3121 79.8867 17.5521 79.6627 17.7121C79.4387 17.8401 79.1507 17.9841 78.7987 18.1441C78.7667 18.0801 78.7347 18.0321 78.7027 18.0001C78.6707 17.9681 78.6387 17.9201 78.6067 17.8561ZM72.8947 23.7601C72.6707 24.1441 72.6707 24.3521 72.8947 24.3841C73.1187 24.4161 73.4547 24.3361 73.9027 24.1441C74.3187 23.9521 74.7987 23.6801 75.3427 23.3281C75.8867 22.9441 76.3827 22.5441 76.8307 22.1281C76.2227 22.1281 75.5187 22.2721 74.7187 22.5601C73.9187 22.8161 73.3107 23.2161 72.8947 23.7601ZM98.1787 18.6721C97.8267 19.0241 97.2827 19.3921 96.5467 19.7761C95.8427 20.1601 95.1227 20.4321 94.3867 20.5921C93.6827 20.7521 93.0587 20.7361 92.5147 20.5441C91.9707 20.3521 91.6987 19.8401 91.6987 19.0081C91.6987 18.7521 91.7147 18.4961 91.7467 18.2401C91.7787 17.9521 91.8267 17.6481 91.8907 17.3281C91.0587 17.8401 90.2427 18.3521 89.4427 18.8641C88.6747 19.3441 87.8747 19.8081 87.0427 20.2561C86.8507 20.4161 86.6267 20.5121 86.3707 20.5441C86.1467 20.5761 85.9227 20.6081 85.6987 20.6401C84.9947 20.7361 84.4987 20.5281 84.2107 20.0161C83.9227 19.5041 83.9707 18.9761 84.3547 18.4321C84.5147 18.2401 84.6587 18.0641 84.7867 17.9041C84.9147 17.7441 85.0747 17.5841 85.2667 17.4241C86.0987 16.6881 87.0107 16.1441 88.0027 15.7921C88.9947 15.4401 90.0667 15.3121 91.2187 15.4081C91.6347 15.4721 91.9707 15.3441 92.2267 15.0241C92.4507 14.8001 92.6587 14.5761 92.8507 14.3521C93.0747 14.1281 93.2987 13.9041 93.5227 13.6801C93.5867 13.5841 93.6667 13.4881 93.7627 13.3921C93.8587 13.2961 93.9547 13.2321 94.0507 13.2001C94.1467 13.1681 94.2587 13.1521 94.3867 13.1521C94.5467 13.1521 94.6747 13.1841 94.7707 13.2481C94.9307 13.4721 94.9947 13.7121 94.9627 13.9681C94.9307 14.2241 94.8027 14.5441 94.5787 14.9281C94.4827 15.1201 94.2907 15.5201 94.0027 16.1281C93.7147 16.7041 93.4907 17.2801 93.3307 17.8561C93.2027 18.4321 93.2027 18.9121 93.3307 19.2961C93.4587 19.6481 93.8907 19.7121 94.6267 19.4881C95.0107 19.3921 95.4267 19.2321 95.8747 19.0081C96.3227 18.7521 96.7707 18.5121 97.2187 18.2881C97.3467 18.2241 97.4747 18.1601 97.6027 18.0961C97.7307 18.0001 97.8747 17.9681 98.0347 18.0001C98.1947 18.0641 98.3067 18.1761 98.3707 18.3361C98.4667 18.4641 98.4027 18.5761 98.1787 18.6721ZM85.5547 19.2481C86.4827 19.0881 87.4587 18.7361 88.4827 18.1921C89.5067 17.6161 90.3387 17.0081 90.9787 16.3681C90.0187 16.4321 89.0107 16.7201 87.9547 17.2321C86.8987 17.7441 86.0987 18.4161 85.5547 19.2481ZM104.259 20.4961C105.251 20.1441 105.987 19.8881 106.467 19.7281C106.979 19.5681 107.427 19.4241 107.811 19.2961C108.227 19.1681 108.675 19.0241 109.155 18.8641C109.667 18.6721 110.419 18.4001 111.411 18.0481C111.731 17.9201 111.955 17.8721 112.083 17.9041C112.211 17.9361 112.355 17.9841 112.515 18.0481C112.675 18.0801 112.803 18.1601 112.899 18.2881C113.027 18.4481 113.043 18.6081 112.947 18.7681C112.883 18.9281 112.787 19.0401 112.659 19.1041C112.499 19.2001 112.323 19.2961 112.131 19.3921C111.939 19.4881 111.763 19.5521 111.603 19.5841C110.867 19.8401 110.371 20.0001 110.115 20.0641C109.859 20.0961 109.651 20.1121 109.491 20.1121C109.363 20.1121 109.171 20.1441 108.915 20.2081C108.691 20.2401 108.211 20.3841 107.475 20.6401C106.739 20.8961 105.987 21.1681 105.219 21.4561C104.483 21.7121 103.715 21.9681 102.915 22.2241C102.659 22.3521 102.403 22.5761 102.147 22.8961C101.923 23.1841 101.731 23.4721 101.571 23.7601C100.611 25.3281 99.539 26.8001 98.355 28.1761C97.171 29.5201 95.795 30.6881 94.227 31.6801C93.203 32.3201 92.179 32.8641 91.155 33.3121C90.099 33.7601 88.963 34.0321 87.747 34.1281C87.107 34.1921 86.531 34.1441 86.019 33.9841C85.411 33.8561 84.995 33.5681 84.771 33.1201C84.547 32.6721 84.595 32.1761 84.915 31.6321C85.267 30.9601 85.731 30.3521 86.307 29.8081C86.851 29.3601 87.411 28.9441 87.987 28.5601C88.531 28.1441 89.075 27.7281 89.619 27.3121C91.155 26.2881 92.755 25.4081 94.419 24.6721C96.051 23.9361 97.683 23.2161 99.315 22.5121C99.955 22.3201 100.531 22.0161 101.043 21.6001C101.587 21.1841 102.003 20.6881 102.291 20.1121C102.835 19.3121 103.171 18.5921 103.299 17.9521C103.427 17.3121 103.523 16.9921 103.587 16.9921C103.171 17.1841 102.659 17.5041 102.051 17.9521C101.443 18.4001 100.947 18.7201 100.563 18.9121C100.211 19.1041 99.875 19.2641 99.555 19.3921C99.235 19.4881 98.899 19.5841 98.547 19.6801C98.291 19.8081 98.051 19.8401 97.827 19.7761C97.603 19.6801 97.395 19.5361 97.203 19.3441C96.947 18.8961 96.979 18.4481 97.299 18.0001C97.459 17.7441 97.651 17.4881 97.875 17.2321C98.099 16.9761 98.339 16.7521 98.595 16.5601C99.171 16.0161 99.779 15.5841 100.419 15.2641C101.059 14.9441 101.747 14.6881 102.483 14.4961C102.675 14.4321 102.867 14.4001 103.059 14.4001C103.283 14.4001 103.491 14.4001 103.683 14.4001C103.843 14.3681 103.971 14.3521 104.067 14.3521C104.195 14.3521 104.339 14.3201 104.499 14.2561C104.691 14.1921 104.867 14.1601 105.027 14.1601C105.219 14.1281 105.363 14.1921 105.459 14.3521C105.747 14.6081 105.779 14.9761 105.555 15.4561C105.139 16.3841 104.723 17.3121 104.307 18.2401C103.923 19.1681 103.507 20.0481 103.059 20.8801L104.259 20.4961ZM88.659 33.0241C89.811 32.7041 90.979 32.2081 92.163 31.5361C93.315 30.8321 94.419 30.0321 95.475 29.1361C96.531 28.2401 97.491 27.2801 98.355 26.2561C99.219 25.2321 99.923 24.2081 100.467 23.1841C99.603 23.4401 98.595 23.8401 97.443 24.3841C96.291 24.8961 95.139 25.4881 93.987 26.1601C92.835 26.8321 91.747 27.5201 90.723 28.2241C89.667 28.9281 88.803 29.5681 88.131 30.1441C87.555 30.5601 87.091 30.9921 86.739 31.4401C86.355 31.8561 86.163 32.2241 86.163 32.5441C86.131 32.8641 86.307 33.0881 86.691 33.2161C87.075 33.3121 87.731 33.2481 88.659 33.0241ZM99.219 17.8561C98.995 18.2721 99.011 18.4801 99.267 18.4801C99.555 18.4481 99.939 18.3041 100.419 18.0481C100.899 17.7921 101.427 17.4561 102.003 17.0401C102.611 16.5921 103.139 16.1441 103.587 15.6961C103.267 15.6961 102.899 15.7601 102.483 15.8881C102.067 15.9841 101.651 16.1281 101.235 16.3201C100.851 16.5121 100.467 16.7521 100.083 17.0401C99.731 17.2961 99.443 17.5681 99.219 17.8561ZM121.58 18.0481C121.74 17.9841 121.884 17.9361 122.012 17.9041C122.14 17.8401 122.284 17.7761 122.444 17.7121C122.828 17.6481 123.1 17.7601 123.26 18.0481C123.42 18.4321 123.324 18.7041 122.972 18.8641C121.788 19.4721 120.556 19.9361 119.276 20.2561C117.996 20.5761 116.716 20.7681 115.436 20.8321C114.988 20.8641 114.508 20.8641 113.996 20.8321C113.516 20.8001 113.068 20.6881 112.652 20.4961C112.268 20.3041 111.98 20.0321 111.788 19.6801C111.596 19.2961 111.58 18.7841 111.74 18.1441C111.964 17.5041 112.172 17.0561 112.364 16.8001C112.556 16.5441 112.924 16.2721 113.468 15.9841C114.044 15.7281 114.636 15.5521 115.244 15.4561C115.884 15.3281 116.492 15.2641 117.068 15.2641C117.612 15.3281 117.932 15.6001 118.028 16.0801C118.124 16.5921 117.948 16.9761 117.5 17.2321C117.18 17.4241 116.844 17.6001 116.492 17.7601C116.14 17.8881 115.772 18.0161 115.388 18.1441C115.1 18.2081 114.796 18.2561 114.476 18.2881C114.156 18.3201 113.836 18.3361 113.516 18.3361C113.036 18.3361 112.764 18.4481 112.7 18.6721C112.668 18.8641 112.764 19.0721 112.988 19.2961C113.308 19.6161 113.868 19.7921 114.668 19.8241C115.468 19.8241 116.316 19.7601 117.212 19.6321C118.14 19.4721 119.004 19.2481 119.804 18.9601C120.636 18.6721 121.228 18.3681 121.58 18.0481ZM116.732 16.6561C116.956 16.3681 116.956 16.2241 116.732 16.2241C116.54 16.1921 116.236 16.2401 115.82 16.3681C115.436 16.4961 114.988 16.6881 114.476 16.9441C113.964 17.2001 113.516 17.4561 113.132 17.7121C113.612 17.7761 114.236 17.7121 115.004 17.5201C115.772 17.2961 116.348 17.0081 116.732 16.6561Z" fill="#C21F2D"/>
</svg>
