<svg width="139" height="49" viewBox="0 0 139 49" fill="none" xmlns="http://www.w3.org/2000/svg">
<path d="M17.952 9.9358C17.312 10.0318 16.816 10.1438 16.464 10.2718C15.088 10.6238 13.712 11.0238 12.336 11.4718C10.992 11.8878 9.64799 12.3838 8.30399 12.9598C7.66399 13.2478 7.03999 13.5678 6.43199 13.9198C5.82399 14.2398 5.19999 14.5758 4.55999 14.9278C4.43199 15.0238 4.28799 15.1198 4.12799 15.2158C3.96799 15.2798 3.80799 15.2478 3.64799 15.1198C3.35999 14.8958 3.45599 14.5438 3.93599 14.0638C4.41599 13.6798 4.92799 13.3278 5.47199 13.0078C6.68799 12.3358 7.91999 11.7598 9.16799 11.2798C10.448 10.7678 11.744 10.3198 13.056 9.9358C13.952 9.6478 14.848 9.3918 15.744 9.1678C16.64 8.9118 17.552 8.6558 18.48 8.3998C18.736 8.3358 18.944 8.2398 19.104 8.1118C19.296 7.9838 19.456 7.7918 19.584 7.5358C20 6.8958 20.4 6.2718 20.784 5.6638C21.168 5.0558 21.568 4.4318 21.984 3.7918C22.016 3.6638 22.048 3.5678 22.08 3.5038C22.144 3.4398 22.192 3.3758 22.224 3.3118C22.352 3.1518 22.464 3.0238 22.56 2.9278C22.688 2.7998 22.848 2.8158 23.04 2.9758C23.136 3.0398 23.2 3.1518 23.232 3.3118C23.264 3.4718 23.264 3.6158 23.232 3.7438C23.104 4.0318 22.96 4.3198 22.8 4.6078C22.672 4.8638 22.528 5.1518 22.368 5.4718C21.984 6.1438 21.552 6.9118 21.072 7.7758C21.296 7.7118 21.472 7.6798 21.6 7.6798C21.728 7.6798 21.872 7.6638 22.032 7.6318C23.632 7.3118 25.216 7.0558 26.784 6.8638C28.352 6.6398 29.952 6.5438 31.584 6.5758C32.192 6.5758 32.816 6.6238 33.456 6.7198C34.096 6.7838 34.736 6.8638 35.376 6.9598C36.048 7.0878 36.704 7.3598 37.344 7.7758C38.016 8.1598 38.48 8.6878 38.736 9.3598C39.024 9.9998 39.088 10.6878 38.928 11.4238C38.832 11.9998 38.64 12.5438 38.352 13.0558C38.096 13.5358 37.792 13.9998 37.44 14.4478C36.768 15.2478 36.048 15.9678 35.28 16.6078C34.512 17.2478 33.712 17.8398 32.88 18.3838C30.96 19.7278 28.944 20.8638 26.832 21.7918C24.752 22.6878 22.608 23.4718 20.4 24.1438C19.184 24.4958 17.968 24.8158 16.752 25.1038C15.536 25.3918 14.304 25.6158 13.056 25.7758C12.576 25.8398 12.112 25.8718 11.664 25.8718C11.216 25.8718 10.736 25.9038 10.224 25.9678C10.288 26.1278 10.336 26.2558 10.368 26.3518C10.4 26.4478 10.432 26.5598 10.464 26.6878C11.008 27.8398 11.648 28.9278 12.384 29.9518C13.12 30.9758 13.904 31.9678 14.736 32.9278C17.04 35.6478 19.552 38.0318 22.272 40.0798C25.024 42.1278 28.048 43.8558 31.344 45.2638C32.624 45.8398 33.92 46.2718 35.232 46.5598C36.576 46.8798 37.936 47.1198 39.312 47.2798C40.048 47.3758 40.768 47.4238 41.472 47.4238C42.208 47.4558 42.928 47.5038 43.632 47.5678C43.888 47.5678 44.08 47.5998 44.208 47.6638C43.824 47.8878 43.408 48.0318 42.96 48.0958C42.512 48.1918 42.08 48.2718 41.664 48.3358C40 48.6238 38.368 48.6398 36.768 48.3838C35.2 48.1598 33.648 47.7438 32.112 47.1358C27.088 45.2798 22.592 42.5758 18.624 39.0238C17.184 37.7438 15.824 36.4158 14.544 35.0398C13.264 33.6318 12.096 32.1278 11.04 30.5278C10.688 29.9518 10.352 29.3598 10.032 28.7518C9.71199 28.1438 9.37599 27.5518 9.02399 26.9758C8.95999 26.8478 8.89599 26.7198 8.83199 26.5918C8.79999 26.4638 8.75199 26.3358 8.68799 26.2078C7.31199 28.0318 5.95199 29.8078 4.60799 31.5358C3.26399 33.2638 1.72799 34.8638 -9.78261e-06 36.3358C1.05599 34.3518 2.23999 32.4798 3.55199 30.7198C4.86399 28.9598 6.15999 27.1678 7.43999 25.3438C7.31199 25.2158 7.19999 25.1198 7.10399 25.0558C7.00799 24.9918 6.91199 24.9118 6.81599 24.8158C6.71999 24.6878 6.60799 24.5758 6.47999 24.4798C6.35199 24.3838 6.25599 24.2558 6.19199 24.0958C6.03199 23.8398 5.98399 23.5998 6.04799 23.3758C6.11199 23.1518 6.22399 22.9758 6.38399 22.8478C6.70399 22.6558 7.07199 22.7678 7.48799 23.1838C7.67999 23.4398 7.85599 23.6478 8.01599 23.8078C8.14399 23.5838 8.27199 23.3918 8.39999 23.2318C8.52799 23.0398 8.71999 22.9758 8.97599 23.0398C9.07199 23.0398 9.15199 22.9918 9.21599 22.8958C9.27999 22.7678 9.32799 22.6718 9.35999 22.6078C10.736 20.5918 12.112 18.5918 13.488 16.6078C14.864 14.6238 16.24 12.6078 17.616 10.5598C17.68 10.4958 17.728 10.4158 17.76 10.3198C17.792 10.2238 17.856 10.0958 17.952 9.9358ZM10.08 24.3838C10.72 24.4798 11.312 24.5118 11.856 24.4798C12.432 24.4158 13.008 24.3358 13.584 24.2398C15.568 23.9198 17.488 23.4878 19.344 22.9438C21.232 22.3678 23.104 21.7118 24.96 20.9758C26.784 20.2398 28.512 19.3918 30.144 18.4318C31.776 17.4398 33.328 16.2878 34.8 14.9758C35.344 14.5278 35.824 14.0478 36.24 13.5358C36.688 13.0238 37.056 12.4158 37.344 11.7118C37.6 11.0078 37.616 10.3998 37.392 9.8878C37.168 9.3438 36.72 8.9438 36.048 8.6878C35.12 8.3998 34.208 8.2078 33.312 8.1118C31.2 7.9518 29.136 7.9998 27.12 8.2558C25.104 8.4798 23.072 8.7838 21.024 9.1678C20.416 9.2638 19.92 9.5678 19.536 10.0798C18 12.3838 16.48 14.6718 14.976 16.9438C13.472 19.1838 11.952 21.4398 10.416 23.7118L10.08 24.3838ZM49.3627 24.8638C48.8187 24.7998 48.2907 24.7678 47.7787 24.7678C47.2667 24.7358 46.7387 24.6878 46.1947 24.6238C45.5547 24.5598 44.8827 24.5118 44.1787 24.4798C43.5067 24.4478 42.8347 24.4638 42.1627 24.5278C41.2347 24.6238 40.3707 24.9438 39.5707 25.4878C38.6107 26.1278 38.3227 26.9918 38.7067 28.0798C38.8347 28.4958 39.0107 28.8638 39.2347 29.1838C39.4907 29.5038 39.7787 29.8398 40.0987 30.1918C40.9307 31.0558 41.8427 31.8078 42.8347 32.4478C43.8587 33.0878 44.9307 33.6638 46.0507 34.1758C49.0587 35.4878 52.1627 36.0478 55.3627 35.8558C56.0027 35.8238 56.6107 35.7438 57.1867 35.6158C57.7947 35.4878 58.4027 35.2958 59.0107 35.0398C59.1067 35.0398 59.1707 35.0238 59.2027 34.9918C60.4187 34.4158 61.1707 33.7278 61.4587 32.9278C61.7787 32.1278 61.8587 31.1998 61.6987 30.1438C61.5067 28.8958 61.0747 27.7118 60.4027 26.5918C59.8907 25.7598 59.3787 24.9438 58.8667 24.1438C58.3547 23.3438 57.8427 22.5278 57.3307 21.6958C56.7227 20.7678 56.1467 19.8238 55.6027 18.8638C55.0587 17.8718 54.6587 16.8158 54.4027 15.6958C53.9227 13.6478 54.4027 11.8878 55.8427 10.4158C56.2907 9.9678 56.7707 9.5678 57.2827 9.2158C57.7947 8.8638 58.3227 8.5598 58.8667 8.3038C60.3707 7.6318 61.8907 7.1198 63.4267 6.7678C64.9627 6.4158 66.5627 6.2878 68.2267 6.3838C68.5147 6.3838 68.8187 6.3998 69.1387 6.4318C69.4587 6.4638 69.7627 6.5438 70.0507 6.6718C71.5547 7.1518 72.3547 8.1758 72.4507 9.7438C72.5467 10.9278 72.2747 12.0318 71.6347 13.0558C71.3787 13.4718 71.0907 13.9038 70.7707 14.3518C70.4507 14.7678 70.1147 15.1518 69.7627 15.5038C69.1227 16.2078 68.4507 16.8958 67.7467 17.5678C67.0427 18.2398 66.3387 18.8958 65.6347 19.5358C65.4427 19.7278 65.2347 19.9038 65.0107 20.0638C64.8187 20.2238 64.5627 20.3038 64.2427 20.3038C64.1787 20.1438 64.1787 20.0158 64.2427 19.9198C64.3387 19.8238 64.4187 19.7438 64.4827 19.6798C65.1547 19.0078 65.8267 18.3358 66.4987 17.6638C67.1707 16.9918 67.8267 16.3038 68.4667 15.5998C68.9147 15.0878 69.3147 14.5758 69.6667 14.0638C70.0187 13.5198 70.3707 12.9758 70.7227 12.4318C71.2027 11.6638 71.3947 10.8318 71.2987 9.9358C71.2667 9.3598 71.1067 8.8798 70.8187 8.4958C70.5307 8.0798 70.0827 7.8238 69.4747 7.7278C68.7387 7.5358 68.0187 7.4398 67.3147 7.4398C64.1147 7.5358 61.1707 8.3358 58.4827 9.8398C57.9707 10.1278 57.4747 10.4798 56.9947 10.8958C55.5867 12.1118 55.1067 13.6318 55.5547 15.4558C55.7147 16.1278 55.9227 16.7678 56.1787 17.3758C56.4347 17.9518 56.7387 18.5278 57.0907 19.1038C57.6027 19.9358 58.1147 20.7518 58.6267 21.5518C59.1387 22.3518 59.6667 23.1678 60.2107 23.9998C60.7227 24.7678 61.1867 25.5678 61.6027 26.3998C62.0187 27.2318 62.3547 28.0958 62.6107 28.9918C62.7387 29.3438 62.8187 29.6638 62.8507 29.9518C62.9147 30.2398 62.9627 30.5438 62.9947 30.8638C63.0907 32.0158 62.8987 33.0078 62.4187 33.8398C61.9387 34.6718 61.2027 35.3598 60.2107 35.9038C59.4107 36.3518 58.5787 36.6558 57.7147 36.8158C56.8507 36.9758 55.9707 37.0718 55.0747 37.1038C49.9867 37.2958 45.3627 35.8718 41.2027 32.8318C40.6267 32.3838 40.0827 31.9198 39.5707 31.4398C39.0587 30.9598 38.5947 30.3998 38.1787 29.7598C37.3467 28.5438 37.1067 27.3918 37.4587 26.3038C37.7787 25.2158 38.6267 24.3998 40.0027 23.8558C40.8027 23.5038 41.6187 23.3118 42.4507 23.2798C43.3147 23.2158 44.1627 23.2158 44.9947 23.2798C46.4027 23.3758 47.7307 23.7598 48.9787 24.4318C49.0747 24.4958 49.1547 24.5438 49.2187 24.5758C49.2827 24.6078 49.3467 24.6558 49.4107 24.7198V24.7678C49.4107 24.7998 49.3947 24.8318 49.3627 24.8638ZM84.5895 9.1678C84.2375 9.7758 83.8855 10.3678 83.5335 10.9438C83.2135 11.5198 82.8775 12.1278 82.5255 12.7678C81.6295 14.3038 80.7975 15.8558 80.0295 17.4238C79.2615 18.9918 78.5255 20.5758 77.8215 22.1758C76.9895 23.9998 76.2055 25.7758 75.4695 27.5038C74.7335 29.2318 74.0455 31.0078 73.4055 32.8318C73.2135 33.3758 73.0375 33.9038 72.8775 34.4158C72.7495 34.9278 72.6215 35.4238 72.4935 35.9038C72.4615 35.9678 72.4295 36.0318 72.3975 36.0958C72.3975 36.1598 72.3975 36.2558 72.3975 36.3838C72.5575 36.1918 72.7015 36.0318 72.8295 35.9038C72.9575 35.7758 73.0535 35.6318 73.1175 35.4718C75.8055 31.5998 78.7175 27.9198 81.8535 24.4318C84.9895 20.9438 88.3015 17.5678 91.7895 14.3038C95.2135 11.0078 98.9735 8.1118 103.069 5.6158C103.805 5.1678 104.525 4.7518 105.229 4.3678C105.965 3.9838 106.701 3.6638 107.437 3.4078C107.821 3.2798 108.237 3.2158 108.685 3.2158C109.133 3.1838 109.469 3.2158 109.693 3.3118C109.917 3.4078 109.965 3.5518 109.837 3.7438C109.709 3.9038 109.277 4.1118 108.541 4.3678C107.261 4.7518 106.029 5.2798 104.845 5.9518C103.661 6.6238 102.509 7.3438 101.389 8.1118C98.4455 10.0638 95.7095 12.2078 93.1815 14.5438C90.6535 16.8478 88.1895 19.2798 85.7895 21.8398C84.2855 23.5358 82.7815 25.2318 81.2775 26.9278C79.7735 28.5918 78.3495 30.3198 77.0055 32.1118C76.2695 33.1358 75.5495 34.1438 74.8455 35.1358C74.1415 36.1278 73.4535 37.1358 72.7815 38.1598C72.6215 38.3198 72.4775 38.4798 72.3495 38.6398C72.2535 38.7678 72.1415 38.9118 72.0135 39.0718C71.7255 39.3278 71.4535 39.4238 71.1975 39.3598C70.9095 39.2638 70.7655 39.0398 70.7655 38.6878C70.7335 38.4318 70.7335 38.1598 70.7655 37.8718C70.7975 37.5838 70.8455 37.2958 70.9095 37.0078C71.1335 35.9518 71.4215 34.9118 71.7735 33.8878C72.1255 32.8638 72.4935 31.8398 72.8775 30.8158C73.9335 28.1918 75.0215 25.5998 76.1415 23.0398C77.2935 20.4798 78.5095 17.9358 79.7895 15.4078C80.4295 14.2238 81.0855 13.0558 81.7575 11.9038C82.4295 10.7198 83.1815 9.5678 84.0135 8.4478C84.3335 8.0958 84.5575 7.8878 84.6855 7.8238C84.8455 7.7598 84.9415 7.7918 84.9735 7.9198C85.0055 8.0478 84.9735 8.2398 84.8775 8.4958C84.8135 8.7198 84.7175 8.9438 84.5895 9.1678ZM121.015 8.2558C121.623 8.1918 122.183 8.1438 122.695 8.1118C123.207 8.0798 123.735 8.0638 124.279 8.0638C125.815 7.9678 127.335 7.9358 128.839 7.9678C130.343 7.9998 131.863 8.1918 133.399 8.5438C134.167 8.7358 134.951 9.0078 135.751 9.3598C136.775 9.8398 137.479 10.4958 137.863 11.3278C138.247 12.1598 138.263 13.0558 137.911 14.0158C137.751 14.5598 137.511 15.0558 137.191 15.5038C136.871 15.9198 136.535 16.3198 136.183 16.7038C135.415 17.4718 134.583 18.1758 133.687 18.8158C132.823 19.4238 131.927 19.9998 130.999 20.5438C126.519 23.2318 121.575 25.0558 116.167 26.0158C115.015 26.2398 113.847 26.4318 112.663 26.5918C111.511 26.7198 110.295 26.7198 109.015 26.5918C108.599 26.5598 108.279 26.7198 108.055 27.0718C107.383 27.9358 106.711 28.7998 106.039 29.6638C105.367 30.4958 104.695 31.3438 104.023 32.2078C103.095 33.4558 102.103 34.6078 101.047 35.6638C99.9907 36.7198 98.8547 37.7278 97.6387 38.6878C97.4787 38.8478 97.3027 38.9918 97.1107 39.1198C96.9507 39.2478 96.7267 39.3758 96.4387 39.5038C96.5027 39.4078 96.5507 39.3278 96.5827 39.2638C96.6467 39.1678 96.7107 39.0718 96.7747 38.9758C97.8947 37.5358 98.9987 36.1118 100.087 34.7038C101.207 33.2958 102.311 31.8718 103.399 30.4318C103.975 29.7278 104.535 29.0238 105.079 28.3198C105.623 27.5838 106.215 26.8158 106.855 26.0158C106.599 25.9838 106.423 25.9038 106.327 25.7758C105.783 25.3598 105.479 24.9118 105.415 24.4318C105.383 23.9518 105.591 23.4878 106.039 23.0398C106.487 22.6878 106.951 22.3838 107.431 22.1278C107.943 21.8718 108.503 21.7118 109.111 21.6478C110.039 21.5198 110.711 21.0718 111.127 20.3038C112.247 18.6718 113.367 17.0398 114.487 15.4078C115.639 13.7758 116.775 12.1278 117.895 10.4638C117.927 10.3998 117.975 10.3198 118.039 10.2238C118.103 10.1278 118.167 9.9838 118.231 9.7918C117.783 9.8878 117.367 9.9518 116.983 9.9838C116.599 10.0158 116.247 10.0638 115.927 10.1278C112.887 10.5758 109.895 11.1038 106.951 11.7118C104.039 12.3198 101.095 12.9758 98.1187 13.6798C97.9587 13.7438 97.7827 13.7758 97.5907 13.7758C97.3987 13.7758 97.2227 13.7758 97.0627 13.7758C96.9027 13.5198 96.8547 13.3438 96.9187 13.2478C97.0147 13.1518 97.1427 13.0558 97.3027 12.9598C97.5907 12.8638 97.8627 12.7678 98.1187 12.6718C98.4067 12.5438 98.7267 12.4478 99.0787 12.3838C100.999 11.9358 102.903 11.5038 104.791 11.0878C106.711 10.6398 108.647 10.2238 110.599 9.8398C111.943 9.5838 113.287 9.3598 114.631 9.1678C115.975 8.9438 117.319 8.7198 118.663 8.4958C118.919 8.4638 119.095 8.3838 119.191 8.2558C119.287 8.1278 119.383 7.9838 119.479 7.8238C120.119 6.7998 120.743 5.7758 121.351 4.7518C121.959 3.7278 122.567 2.7198 123.175 1.7278C123.335 1.5358 123.463 1.3438 123.559 1.1518C123.687 0.927798 123.815 0.703798 123.943 0.479799C124.039 0.415798 124.119 0.351798 124.183 0.287799C124.247 0.191798 124.343 0.127798 124.471 0.0957985C124.663 0.0317993 124.823 0.0477991 124.951 0.143798C125.143 0.271798 125.207 0.431799 125.143 0.6238C125.143 0.7838 125.111 0.927799 125.047 1.0558C124.983 1.1838 124.919 1.2958 124.855 1.3918C124.279 2.4798 123.671 3.5518 123.031 4.6078C122.423 5.6638 121.799 6.7358 121.159 7.8238C121.159 7.8878 121.111 8.0318 121.015 8.2558ZM109.591 25.1038C110.231 25.1678 110.807 25.1998 111.319 25.1998C111.831 25.1678 112.359 25.1198 112.903 25.0558C114.791 24.7998 116.647 24.4478 118.471 23.9998C120.295 23.5518 122.071 22.9918 123.799 22.3198C125.623 21.5838 127.351 20.7838 128.983 19.9198C130.647 19.0238 132.247 17.9838 133.783 16.7998C134.327 16.3838 134.823 15.9358 135.271 15.4558C135.719 14.9758 136.087 14.4158 136.375 13.7758C137.143 12.1438 136.551 10.9758 134.599 10.2718C134.535 10.2398 134.455 10.2238 134.359 10.2238C134.295 10.1918 134.231 10.1598 134.167 10.1278C132.343 9.5838 130.583 9.3118 128.887 9.3118C127.671 9.3118 126.439 9.3438 125.191 9.4078C123.943 9.4398 122.679 9.4558 121.399 9.4558C120.567 9.4558 119.943 9.8398 119.527 10.6078C118.311 12.6238 117.063 14.6078 115.783 16.5598C114.503 18.4798 113.143 20.3998 111.703 22.3198C111.351 22.7358 110.999 23.1838 110.647 23.6638C110.295 24.1118 109.943 24.5918 109.591 25.1038ZM108.727 23.2318C108.375 23.3918 108.039 23.5678 107.719 23.7598C107.431 23.9198 107.191 24.1758 106.999 24.5278C107.127 24.5918 107.239 24.6558 107.335 24.7198C107.431 24.7838 107.559 24.8638 107.719 24.9598C107.879 24.6718 108.055 24.3998 108.247 24.1438C108.471 23.8878 108.679 23.6318 108.871 23.3758L108.727 23.2318Z" fill="#C21F2D"/>
</svg>
