<svg width="15" height="15" viewBox="0 0 15 15" fill="none" xmlns="http://www.w3.org/2000/svg">
<circle cx="7.5" cy="7.5" r="7.5" fill="#AC5344"/>
<path d="M12 5.41912C12 5.25735 11.9412 5.18382 11.7721 5.19118C11.6324 5.19853 11.4926 5.19118 11.3382 5.19118C11.3382 5.05882 11.3382 4.96324 11.3382 4.86029C11.3382 4.41176 11.3382 3.96324 11.3382 3.52206C11.3382 3.22059 11.1618 3.03676 10.8603 3.00735C10.7868 3.00735 10.7206 3.00735 10.6471 3.00735C8.58823 3 6.52941 3.00735 4.47059 3C3.91912 3 3.61765 3.04412 3.65441 3.80882C3.67647 4.25735 3.65441 4.71324 3.65441 5.19118C3.48529 5.19118 3.34559 5.19118 3.20588 5.19118C3.05882 5.18382 3 5.25735 3 5.40441C3 5.71324 3 6.02941 3 6.33824C3 6.47794 3.06618 6.55147 3.20588 6.54412C3.34559 6.54412 3.48529 6.54412 3.66176 6.54412C3.66176 6.86029 3.66176 7.14706 3.66176 7.42647C3.66176 8.49265 3.66176 9.55147 3.66176 10.6176C3.66176 10.9632 3.83088 11.1397 4.17647 11.1544C4.20588 11.1544 4.24265 11.1618 4.26471 11.1691C4.27206 11.1912 4.27941 11.1985 4.27941 11.2059C4.27941 11.3382 4.27941 11.4779 4.27941 11.6103C4.28676 11.8676 4.39706 11.9853 4.65441 11.9926C4.92647 11.9926 5.19118 11.9926 5.46324 11.9926C5.73529 11.9926 5.86029 11.8603 5.86029 11.5809C5.86029 11.4412 5.86029 11.3015 5.86029 11.1691H9.10294C9.10294 11.3309 9.10294 11.4853 9.10294 11.6324C9.11029 11.8456 9.23529 11.9779 9.44853 11.9926C9.74265 12 10.0441 12 10.3456 11.9926C10.5735 11.9853 10.6838 11.8603 10.6912 11.6176C10.6912 11.4706 10.6912 11.3235 10.6912 11.1765C11.2353 11.0956 11.3235 11 11.3235 10.4559C11.3235 9.24265 11.3235 8.02941 11.3235 6.81618V6.54412C11.4853 6.54412 11.6324 6.54412 11.7721 6.54412C11.9265 6.54412 11.9926 6.47794 11.9853 6.32353C11.9853 6.02206 11.9853 5.71324 11.9853 5.41176L12 5.41912ZM3.63971 6.25735H3.29412V5.46324H3.63971V6.25735ZM3.92647 3.52941C3.92647 3.31618 4.06618 3.28676 4.24265 3.28676C5.50735 3.28676 6.76471 3.28676 8.02941 3.28676C8.93382 3.28676 9.84559 3.28676 10.75 3.28676C11.0074 3.28676 11.0662 3.34559 11.0662 3.59559C11.0662 4.01471 11.0662 4.42647 11.0662 4.86029C8.67647 4.01471 6.30882 3.94118 3.91912 4.86029C3.91912 4.39706 3.91912 3.96324 3.91912 3.52206L3.92647 3.52941ZM5.58088 11.7206C5.27206 11.7206 4.97794 11.7206 4.68382 11.7206C4.63971 11.7206 4.57353 11.6397 4.57353 11.5956C4.55882 11.4632 4.57353 11.3309 4.57353 11.1765H5.58824V11.7279L5.58088 11.7206ZM10.4191 11.7059H9.41912V11.1765H10.4191V11.7059ZM11.0735 9.13235C11.0735 9.13235 11.0662 9.18382 11.0588 9.23529C10.8088 9.23529 10.5662 9.23529 10.3162 9.23529C9.91912 9.23529 9.66912 9.47794 9.66912 9.83824C9.66912 10.1838 9.93382 10.4265 10.3088 10.4338C10.5588 10.4338 10.8015 10.4338 11.0441 10.4338C11.1103 10.8162 11.0441 10.8897 10.6691 10.8897C8.55147 10.8897 6.44118 10.8897 4.32353 10.8897C3.97059 10.8897 3.90441 10.8309 3.93382 10.4338C4.19118 10.4338 4.44853 10.4338 4.70588 10.4338C5.06618 10.4265 5.32353 10.1765 5.32353 9.83824C5.32353 9.50735 5.09559 9.25735 4.76471 9.23529C4.625 9.22794 4.47794 9.23529 4.33824 9.23529C4.20588 9.23529 4.07353 9.23529 3.92647 9.23529V8.79412H11.0588C11.0588 8.91912 11.0588 9.02206 11.0588 9.13235H11.0735ZM11.0662 9.50735V10.1397C10.7647 10.1397 10.4632 10.1618 10.1618 10.1324C10.0074 10.1176 9.92647 9.97059 9.94118 9.81618C9.95588 9.63235 10.0662 9.51471 10.2574 9.50735C10.5147 9.5 10.7794 9.50735 11.0662 9.50735ZM3.94118 10.1471V9.50735C4.22794 9.50735 4.5 9.49265 4.77206 9.50735C4.94853 9.51471 5.05882 9.63971 5.06618 9.81618C5.06618 9.98529 4.97794 10.125 4.79412 10.1397C4.51471 10.1544 4.23529 10.1397 3.94118 10.1397V10.1471ZM11.0735 8.24265C11.0735 8.31618 11.0735 8.39706 11.0735 8.48529H3.92647C3.92647 8.26471 3.92647 8.05882 3.92647 7.85294C3.92647 7.00735 3.92647 6.16176 3.92647 5.32353C3.92647 5.21324 3.95588 5.16176 4.05882 5.11765C5.38971 4.58088 6.77206 4.39706 8.19853 4.50735C9.11029 4.58088 9.98529 4.77206 10.8456 5.08088C11.0221 5.13971 11.0735 5.22794 11.0735 5.41176C11.0588 6.35294 11.0735 7.30147 11.0735 8.24265ZM11.7059 6.25735H11.3676V5.47059H11.7059V6.25735Z" fill="white"/>
<path d="M8.69117 9.33841C8.30146 9.33841 7.91176 9.33841 7.52205 9.33841C7.11764 9.33841 6.71323 9.33841 6.31617 9.33841C6.24264 9.33841 6.16911 9.42664 6.09558 9.47076C6.16911 9.51488 6.24264 9.60311 6.31617 9.60311C7.11029 9.61047 7.89705 9.61047 8.69117 9.60311C8.7647 9.60311 8.89705 9.52958 8.9044 9.47811C8.92646 9.33106 8.79411 9.33105 8.68382 9.33105L8.69117 9.33841Z" fill="white"/>
<path d="M8.61764 10.0587C7.88235 10.0587 7.14705 10.0587 6.40441 10.0587C6.29411 10.0587 6.10294 9.9852 6.10294 10.1837C6.10294 10.4043 6.30147 10.3161 6.41911 10.3161C6.77941 10.3308 7.1397 10.3161 7.49999 10.3161C7.87499 10.3161 8.24999 10.3161 8.62499 10.3161C8.73529 10.3161 8.90441 10.3749 8.91176 10.1911C8.91176 9.98519 8.72794 10.0587 8.61764 10.0587Z" fill="white"/>
</svg>
