<svg width="60" height="11" viewBox="0 0 60 11" fill="none" xmlns="http://www.w3.org/2000/svg">
<path d="M7.202 2.32697C7.202 2.43964 7.15 2.49597 7.046 2.49597C6.942 2.49597 6.86833 2.38331 6.825 2.15797C6.80767 2.00197 6.79033 1.84597 6.773 1.68997C6.71233 1.37797 6.61267 1.11364 6.474 0.896973C6.292 0.610973 5.993 0.428973 5.577 0.350973C5.30833 0.298973 5.09167 0.277307 4.927 0.285973C4.51967 0.303306 4.27267 0.316307 4.186 0.324974V8.16397C4.186 8.47597 4.26833 8.67097 4.433 8.74897C4.51967 8.79231 4.76233 8.81831 5.161 8.82697C5.265 8.83564 5.317 8.87464 5.317 8.94397C5.317 9.02197 5.24767 9.06097 5.109 9.06097C5.03967 9.06097 4.979 9.05664 4.927 9.04797C4.407 9.03064 4.03867 9.02197 3.822 9.02197C3.536 9.02197 3.26733 9.02631 3.016 9.03497C2.76467 9.04364 2.444 9.04797 2.054 9.04797C1.85467 9.04797 1.755 9.01331 1.755 8.94397C1.755 8.86597 1.94133 8.82264 2.314 8.81397C2.58267 8.81397 2.756 8.75764 2.834 8.64497C2.87733 8.57564 2.899 8.39797 2.899 8.11197V0.324974C2.041 0.33364 1.508 0.376973 1.3 0.454973C0.754 0.654307 0.433333 1.18731 0.338 2.05397C0.312 2.31397 0.251333 2.44397 0.156 2.44397C0.0519998 2.44397 -1.82539e-07 2.35297 -1.82539e-07 2.17097C-1.82539e-07 2.07564 0.00433315 1.98031 0.0129998 1.88497L0.0389998 1.58597C0.0649998 1.18731 0.104 0.662973 0.156 0.012973H0.741L3.393 0.0519732C3.705 0.0606398 4.19033 0.0563065 4.849 0.0389734L7.007 -2.68817e-05C7.02433 0.485306 7.08067 1.20464 7.176 2.15797C7.176 2.18397 7.18033 2.21864 7.189 2.26197C7.19767 2.29664 7.202 2.31831 7.202 2.32697ZM13.4802 8.98297C13.4802 9.03497 13.3935 9.06097 13.2202 9.06097H13.1292L12.3232 9.03497H11.9592C11.8119 9.03497 11.6082 9.03931 11.3482 9.04797L10.9582 9.06097L10.7242 9.07397H10.6592C10.5032 9.07397 10.4252 9.03931 10.4252 8.96997C10.4252 8.90064 10.5812 8.86164 10.8932 8.85297C11.2659 8.84431 11.4522 8.80097 11.4522 8.72297C11.4522 8.70564 11.4262 8.62331 11.3742 8.47597C11.3569 8.40664 11.2572 8.11631 11.0752 7.60497L10.9192 7.16297H9.06019C8.70485 8.05564 8.52719 8.57131 8.52719 8.70997C8.52719 8.78797 8.57919 8.83131 8.68319 8.83997L8.85219 8.85297H9.04719L9.16419 8.86597C9.26819 8.86597 9.32019 8.89631 9.32019 8.95697C9.32019 9.02631 9.22919 9.06097 9.04719 9.06097C9.02119 9.06097 8.86519 9.05664 8.57919 9.04797C8.30185 9.03064 8.05485 9.02197 7.83819 9.02197H7.72119L7.60419 9.03497L7.46119 9.04797H7.43519C7.29652 9.04797 7.22719 9.02197 7.22719 8.96997C7.22719 8.90931 7.28352 8.87464 7.39619 8.86597C7.55219 8.85731 7.65619 8.84864 7.70819 8.83997C7.85552 8.81397 7.95085 8.77497 7.99419 8.72297C8.04619 8.69697 8.25852 8.20297 8.63119 7.24097C8.77852 6.85097 8.92152 6.48697 9.06019 6.14897C9.11219 6.02764 9.14685 5.93664 9.16419 5.87597C9.18152 5.81531 9.21619 5.72431 9.26819 5.60297C9.41552 5.24764 9.62352 4.71031 9.89219 3.99097L10.0872 3.44497L10.1782 3.21097C10.2302 3.08097 10.2822 3.01597 10.3342 3.01597C10.3602 3.01597 10.4165 3.13731 10.5032 3.37997C10.7632 4.01264 11.4349 5.68531 12.5182 8.39797C12.6222 8.66664 12.7219 8.80964 12.8172 8.82697C12.8432 8.83564 12.9819 8.84864 13.2332 8.86597C13.3979 8.87464 13.4802 8.91364 13.4802 8.98297ZM10.8412 6.92897L9.99619 4.70597C9.78819 5.22597 9.50219 5.96697 9.13819 6.92897H10.8412ZM18.3224 7.64397C18.3224 7.65264 18.318 7.70897 18.3094 7.81297C18.3007 7.90831 18.2964 7.99497 18.2964 8.07297L18.2834 8.81397C18.2834 8.90064 18.2877 8.99597 18.2964 9.09997L16.1384 9.06097L13.6684 9.07397C13.4864 9.07397 13.3954 9.04364 13.3954 8.98297C13.3954 8.91364 13.4474 8.87897 13.5514 8.87897C13.8287 8.87897 13.989 8.86164 14.0324 8.82697C14.0844 8.78364 14.1104 8.64064 14.1104 8.39797V3.92597C14.1104 3.57064 14.08 3.38431 14.0194 3.36697C13.9587 3.34097 13.807 3.32797 13.5644 3.32797C13.4604 3.32797 13.4084 3.29764 13.4084 3.23697C13.4084 3.16764 13.4647 3.13297 13.5774 3.13297H13.8894C13.976 3.13297 14.0627 3.13297 14.1494 3.13297C14.2447 3.14164 14.2924 3.14597 14.2924 3.14597H14.6174C14.6607 3.14597 14.8774 3.14164 15.2674 3.13297C15.666 3.13297 16.1427 3.13297 16.6974 3.13297H17.4644C17.6897 3.13297 17.876 3.12431 18.0234 3.10697V3.19797L18.0364 3.39297C18.0537 3.52297 18.0884 3.91297 18.1404 4.56297C18.149 4.60631 18.1534 4.65831 18.1534 4.71897C18.1534 4.83164 18.123 4.88797 18.0624 4.88797C17.9844 4.88797 17.928 4.80131 17.8934 4.62797C17.772 3.96931 17.5424 3.58364 17.2044 3.47097C17.0137 3.41031 16.563 3.37997 15.8524 3.37997H15.1894V5.81097H15.5014C16.056 5.81097 16.3984 5.76764 16.5284 5.68097C16.6584 5.58564 16.745 5.33431 16.7884 4.92697C16.8144 4.68431 16.8664 4.56297 16.9444 4.56297C17.031 4.56297 17.0744 4.64964 17.0744 4.82297C17.0744 4.92697 17.0657 5.08731 17.0484 5.30397C17.0397 5.52064 17.0354 5.68531 17.0354 5.79797C17.0354 6.36131 17.0484 6.74697 17.0744 6.95497C17.083 7.02431 17.0874 7.08064 17.0874 7.12397C17.0874 7.26264 17.044 7.33197 16.9574 7.33197C16.8794 7.33197 16.8274 7.22364 16.8014 7.00697C16.7494 6.53897 16.6627 6.26164 16.5414 6.17497C16.42 6.07964 16.0777 6.03197 15.5144 6.03197H15.1894V8.83997C16.4634 8.83131 17.213 8.79664 17.4384 8.73597C17.785 8.64064 17.9887 8.22464 18.0494 7.48797C18.058 7.35797 18.1057 7.29297 18.1924 7.29297C18.279 7.29297 18.3224 7.40997 18.3224 7.64397ZM25.0823 8.93097C25.0823 8.98297 25.0649 9.01331 25.0303 9.02197C25.0043 9.03064 24.9046 9.03497 24.7313 9.03497H24.4713L22.5603 9.04797C22.4043 9.04797 22.3263 9.02197 22.3263 8.96997C22.3263 8.90931 22.4693 8.86597 22.7553 8.83997C22.9286 8.82264 23.0153 8.78797 23.0153 8.73597C23.0153 8.70131 22.9156 8.57564 22.7163 8.35897C22.5343 8.16831 21.8366 7.40997 20.6233 6.08397V8.42397C20.6233 8.63197 20.6493 8.75331 20.7013 8.78797C20.7533 8.82264 20.9223 8.84431 21.2083 8.85297C21.3036 8.85297 21.3513 8.88764 21.3513 8.95697C21.3513 9.01764 21.2863 9.04797 21.1563 9.04797H21.0653C20.9786 9.03064 20.5626 9.02197 19.8173 9.02197C19.4879 9.02197 19.2453 9.03064 19.0893 9.04797H18.9983C18.8769 9.04797 18.8163 9.01331 18.8163 8.94397C18.8163 8.86597 18.9419 8.83131 19.1933 8.83997C19.3666 8.83997 19.4663 8.81397 19.4923 8.76197C19.5183 8.70997 19.5313 8.52364 19.5313 8.20297V3.84797C19.5313 3.60531 19.5269 3.47097 19.5183 3.44497C19.4923 3.37564 19.3709 3.34097 19.1543 3.34097C18.9376 3.34097 18.8293 3.30197 18.8293 3.22397C18.8293 3.16331 18.8899 3.13297 19.0113 3.13297C19.0286 3.13297 19.0719 3.13297 19.1413 3.13297C19.2193 3.14164 19.2843 3.14597 19.3363 3.14597L20.1813 3.15897C20.2246 3.15897 20.4066 3.15464 20.7273 3.14597L21.1693 3.13297C21.2906 3.13297 21.3513 3.16764 21.3513 3.23697C21.3513 3.29764 21.2083 3.33231 20.9223 3.34097C20.7836 3.34964 20.6969 3.36697 20.6623 3.39297C20.6363 3.41031 20.6233 3.47964 20.6233 3.60097V5.74597C22.2439 4.24664 23.0543 3.46664 23.0543 3.40597C23.0543 3.36264 22.8766 3.34097 22.5213 3.34097C22.4173 3.34097 22.3653 3.30631 22.3653 3.23697C22.3653 3.18497 22.3956 3.15464 22.4563 3.14597C22.5169 3.13731 22.7336 3.13297 23.1063 3.13297C23.7736 3.13297 24.1636 3.13731 24.2763 3.14597C24.3889 3.15464 24.4453 3.18931 24.4453 3.24997C24.4453 3.33664 24.3673 3.37564 24.2113 3.36697L23.8473 3.35397C23.7259 3.34531 23.5786 3.42331 23.4053 3.58797C23.2926 3.68331 23.1193 3.83931 22.8853 4.05597C22.5386 4.38531 22.0099 4.87497 21.2993 5.52497C21.4119 5.64631 21.8236 6.06664 22.5343 6.78597L24.0683 8.33297C24.3109 8.57564 24.4713 8.72297 24.5493 8.77497C24.6273 8.81831 24.7529 8.83997 24.9263 8.83997C25.0303 8.83997 25.0823 8.87031 25.0823 8.93097ZM33.9077 5.51197C33.9077 5.56397 33.7387 5.59864 33.4007 5.61597C33.184 5.62464 33.0627 5.65931 33.0367 5.71997C33.0367 5.72864 33.0193 5.79797 32.9847 5.92797L32.8937 6.30497C32.7637 6.84231 32.5253 7.34497 32.1787 7.81297C32.2307 7.89964 32.313 8.02964 32.4257 8.20297C32.5903 8.49764 32.7333 8.67964 32.8547 8.74897C32.976 8.80964 33.236 8.84431 33.6347 8.85297C33.7907 8.85297 33.8687 8.89197 33.8687 8.96997C33.8687 9.02197 33.821 9.04797 33.7257 9.04797C33.6477 9.04797 33.4873 9.04364 33.2447 9.03497C33.0107 9.02631 32.7897 9.02197 32.5817 9.02197C32.287 9.02197 32.0443 9.03064 31.8537 9.04797C31.8103 8.98731 31.702 8.80531 31.5287 8.50197C31.0433 8.93531 30.402 9.15197 29.6047 9.15197C28.9807 9.15197 28.4693 9.00031 28.0707 8.69697C27.6807 8.39364 27.4857 7.99931 27.4857 7.51397C27.4857 6.73397 28.0273 6.10131 29.1107 5.61597C28.842 5.34731 28.686 5.19564 28.6427 5.16097C28.4087 4.92697 28.2917 4.67131 28.2917 4.39397C28.2917 3.99531 28.439 3.67031 28.7337 3.41897C29.037 3.15897 29.427 3.02897 29.9037 3.02897C30.3543 3.02897 30.7183 3.13731 30.9957 3.35397C31.2817 3.56197 31.4247 3.83064 31.4247 4.15997C31.4247 4.71464 30.9957 5.14364 30.1377 5.44697L30.5667 5.91497C30.922 6.29631 31.3857 6.83364 31.9577 7.52697C32.3563 6.90297 32.5557 6.32664 32.5557 5.79797C32.5557 5.65931 32.4993 5.58997 32.3867 5.58997H32.3217C32.261 5.59864 32.1787 5.60297 32.0747 5.60297C31.7887 5.60297 31.6457 5.56831 31.6457 5.49897C31.6457 5.45564 31.7063 5.42964 31.8277 5.42097C31.949 5.41231 32.3693 5.40797 33.0887 5.40797H33.6997C33.8383 5.40797 33.9077 5.44264 33.9077 5.51197ZM30.5797 4.25097C30.5797 3.94764 30.5103 3.70064 30.3717 3.50997C30.233 3.31064 30.0553 3.21097 29.8387 3.21097C29.6133 3.21097 29.427 3.28464 29.2797 3.43197C29.1323 3.57064 29.0587 3.75264 29.0587 3.97797C29.0587 4.38531 29.3707 4.82731 29.9947 5.30397C30.3847 5.12197 30.5797 4.77097 30.5797 4.25097ZM31.3727 8.25497C30.974 7.62231 30.272 6.79897 29.2667 5.78497C28.7727 6.13164 28.5257 6.59097 28.5257 7.16297C28.5257 7.63964 28.6643 8.03831 28.9417 8.35897C29.219 8.67097 29.57 8.82697 29.9947 8.82697C30.5147 8.82697 30.974 8.63631 31.3727 8.25497ZM40.4353 0.142973C40.4353 0.212306 40.3443 0.246973 40.1623 0.246973C39.8329 0.246973 39.6293 0.259973 39.5513 0.285973C39.4733 0.303306 39.4256 0.337973 39.4083 0.389974C39.3996 0.441973 39.3953 0.610973 39.3953 0.896973V5.06997C39.3953 5.06997 39.3996 5.47297 39.4083 6.27897C39.4169 6.87697 39.4169 7.36664 39.4083 7.74797C39.3909 8.28531 39.3519 8.68831 39.2913 8.95697C39.1873 9.40764 38.9316 9.79331 38.5243 10.114C38.1169 10.4433 37.6836 10.608 37.2243 10.608C36.8863 10.608 36.6133 10.517 36.4053 10.335C36.1973 10.1616 36.0933 9.93197 36.0933 9.64597C36.0933 9.15197 36.3359 8.90497 36.8213 8.90497C37.0206 8.90497 37.1853 8.96564 37.3153 9.08697C37.4539 9.20831 37.5233 9.36431 37.5233 9.55497C37.5233 9.71964 37.4669 9.86697 37.3543 9.99697C37.2763 10.0923 37.2373 10.166 37.2373 10.218C37.2373 10.296 37.3023 10.335 37.4323 10.335C37.7096 10.335 37.9046 10.166 38.0173 9.82797C38.0779 9.64597 38.1083 9.11297 38.1083 8.22897V0.805974C38.1083 0.52864 38.0259 0.355307 37.8613 0.285973C37.7833 0.259973 37.5753 0.246973 37.2373 0.246973C37.0813 0.246973 36.9816 0.238306 36.9383 0.220973C36.9036 0.20364 36.8863 0.17764 36.8863 0.142973C36.8863 0.0563062 36.9556 0.012973 37.0943 0.012973C37.1203 0.012973 37.2373 0.0173065 37.4453 0.0259736C37.7139 0.0346401 37.9349 0.0389734 38.1083 0.0389734L40.0193 0.012973C40.2966 0.012973 40.4353 0.0563062 40.4353 0.142973ZM46.7549 3.23697C46.7549 3.29764 46.6856 3.32797 46.5469 3.32797H46.4819C46.3952 3.31931 46.3086 3.31497 46.2219 3.31497C46.0832 3.31497 46.0139 3.40164 46.0139 3.57497V5.97997C46.0139 6.82064 45.9966 7.36231 45.9619 7.60497C45.9272 7.84764 45.8362 8.09031 45.6889 8.33297C45.3509 8.87897 44.7529 9.15197 43.8949 9.15197C43.1842 9.15197 42.6166 8.98731 42.1919 8.65797C41.8019 8.35464 41.6069 7.76964 41.6069 6.90297V4.15997C41.6069 3.69197 41.5896 3.43631 41.5549 3.39297C41.5289 3.34964 41.4032 3.32797 41.1779 3.32797C40.9959 3.32797 40.9049 3.29331 40.9049 3.22397C40.9049 3.16331 40.9656 3.13297 41.0869 3.13297H41.2689C41.3296 3.13297 41.4032 3.13297 41.4899 3.13297C41.5766 3.14164 41.6416 3.14597 41.6849 3.14597H42.7769C42.8376 3.14597 42.9112 3.14164 42.9979 3.13297C43.0759 3.13297 43.1236 3.13297 43.1409 3.13297C43.2969 3.13297 43.3749 3.16764 43.3749 3.23697C43.3749 3.32364 43.2146 3.36264 42.8939 3.35397C42.7986 3.35397 42.7422 3.37131 42.7249 3.40597C42.7076 3.43197 42.6989 3.52731 42.6989 3.69197V6.81197C42.6989 7.66131 42.8072 8.21164 43.0239 8.46297C43.2666 8.74897 43.6262 8.89197 44.1029 8.89197C44.7702 8.89197 45.2252 8.61464 45.4679 8.05997C45.5892 7.78264 45.6499 7.33631 45.6499 6.72097C45.6499 6.72964 45.6499 6.68197 45.6499 6.57797C45.6412 6.48264 45.6369 6.38297 45.6369 6.27897V3.57497C45.6369 3.46231 45.6152 3.39297 45.5719 3.36697C45.5286 3.34097 45.4072 3.32797 45.2079 3.32797C45.0172 3.32797 44.9219 3.28897 44.9219 3.21097C44.9219 3.15031 44.9739 3.11997 45.0779 3.11997C45.1212 3.11997 45.1646 3.12431 45.2079 3.13297L45.8059 3.14597C45.8146 3.14597 45.8622 3.14597 45.9489 3.14597C46.0442 3.13731 46.1829 3.13297 46.3649 3.13297H46.5469C46.6856 3.13297 46.7549 3.16764 46.7549 3.23697ZM52.8967 3.23697C52.8967 3.30631 52.8014 3.34097 52.6107 3.34097C52.5847 3.34097 52.524 3.33664 52.4287 3.32797H52.2857C52.2077 3.32797 52.16 3.34531 52.1427 3.37997C52.134 3.41464 52.1297 3.53164 52.1297 3.73097V8.50197C52.1297 8.81397 52.1254 8.99597 52.1167 9.04797C52.108 9.09997 52.069 9.12597 51.9997 9.12597C51.9044 9.12597 51.5967 8.76631 51.0767 8.04697C51.016 7.95164 50.9207 7.82164 50.7907 7.65697C50.7734 7.63097 50.7257 7.56597 50.6477 7.46197C50.2144 6.88997 49.43 5.81531 48.2947 4.23797V8.33297C48.2947 8.65364 48.338 8.82264 48.4247 8.83997C48.52 8.85731 48.689 8.86597 48.9317 8.86597H48.9837C49.0877 8.86597 49.1397 8.89631 49.1397 8.95697C49.1397 9.02631 49.0444 9.06097 48.8537 9.06097C48.819 9.06097 48.676 9.05231 48.4247 9.03497C48.2947 9.02631 48.1777 9.02197 48.0737 9.02197C47.987 9.02197 47.9004 9.02631 47.8137 9.03497C47.649 9.05231 47.4714 9.06097 47.2807 9.06097C47.142 9.06097 47.0727 9.02631 47.0727 8.95697C47.0727 8.89631 47.155 8.86597 47.3197 8.86597H47.4367L47.6057 8.85297C47.8137 8.83564 47.922 8.79664 47.9307 8.73597C47.9394 8.70131 47.9437 8.57564 47.9437 8.35897V4.78397C47.9437 4.13397 47.9047 3.74397 47.8267 3.61397C47.7227 3.44064 47.519 3.35397 47.2157 3.35397C46.999 3.35397 46.8907 3.31497 46.8907 3.23697C46.8907 3.17631 46.947 3.14597 47.0597 3.14597H47.1117L47.8267 3.15897C47.8614 3.15897 47.9177 3.15897 47.9957 3.15897C48.0824 3.15031 48.1604 3.14597 48.2297 3.14597H48.7107L51.7787 7.35797V3.74397C51.7787 3.52731 51.77 3.40164 51.7527 3.36697C51.7354 3.33231 51.666 3.31497 51.5447 3.31497C51.432 3.31497 51.341 3.31931 51.2717 3.32797H51.1937C51.029 3.32797 50.9467 3.29331 50.9467 3.22397C50.9467 3.18064 50.9857 3.15464 51.0637 3.14597C51.1504 3.13731 51.445 3.13297 51.9477 3.13297C52.4244 3.13297 52.7017 3.13731 52.7797 3.14597C52.8577 3.15464 52.8967 3.18497 52.8967 3.23697ZM59.3396 7.25397C59.3396 7.29731 59.2616 7.32331 59.1056 7.33197L58.6896 7.34497C58.6463 7.35364 58.6116 7.39264 58.5856 7.46197C58.5683 7.53131 58.5596 7.68731 58.5596 7.92997V8.44997C57.9876 8.91797 57.329 9.15197 56.5836 9.15197C55.6303 9.15197 54.872 8.88331 54.3086 8.34597C53.7453 7.79997 53.4636 7.07631 53.4636 6.17497C53.4636 5.23897 53.7366 4.48497 54.2826 3.91297C54.8373 3.33231 55.5653 3.04197 56.4666 3.04197C56.9346 3.04197 57.4373 3.18931 57.9746 3.48397C58.018 3.50997 58.057 3.52297 58.0916 3.52297C58.161 3.52297 58.2086 3.46664 58.2346 3.35397C58.2866 3.19797 58.3473 3.11997 58.4166 3.11997C58.486 3.11997 58.5206 3.15464 58.5206 3.22397C58.5206 3.20664 58.512 3.28031 58.4946 3.44497C58.4686 3.69631 58.4556 4.19464 58.4556 4.93997C58.4556 5.13931 58.4036 5.23897 58.2996 5.23897C58.2216 5.23897 58.1826 5.18697 58.1826 5.08297C58.1653 4.51964 58.005 4.07331 57.7016 3.74397C57.407 3.40597 57.0213 3.23697 56.5446 3.23697C55.964 3.23697 55.509 3.49697 55.1796 4.01697C54.8503 4.53697 54.6856 5.24764 54.6856 6.14897C54.6856 7.01564 54.8503 7.70031 55.1796 8.20297C55.5176 8.70564 55.9726 8.95697 56.5446 8.95697C57.0646 8.95697 57.3853 8.79231 57.5066 8.46297C57.55 8.35031 57.5716 8.16831 57.5716 7.91697C57.5716 7.60497 57.55 7.43164 57.5066 7.39697C57.472 7.35364 57.3116 7.33197 57.0256 7.33197H56.9346C56.8913 7.34064 56.8523 7.34497 56.8176 7.34497C56.7483 7.34497 56.7136 7.31464 56.7136 7.25397C56.7136 7.17597 56.8176 7.13697 57.0256 7.13697H57.3636C57.4416 7.13697 57.537 7.13697 57.6496 7.13697C57.771 7.14564 57.836 7.14997 57.8446 7.14997C58.4513 7.14997 58.798 7.14564 58.8846 7.13697H59.1186C59.266 7.13697 59.3396 7.17597 59.3396 7.25397Z" fill="#6A6A6A"/>
</svg>
