<svg width="174" height="76" viewBox="0 0 174 76" fill="none" xmlns="http://www.w3.org/2000/svg">
<path d="M123.117 74.1769C122.834 74.1769 122.594 74.1243 122.396 74.0192C122.198 73.914 122.099 73.7169 122.099 73.4278C122.099 73.0598 122.198 72.6392 122.396 72.1661C122.594 71.693 122.82 71.233 123.074 70.7861C123.329 70.313 123.555 69.9319 123.753 69.6427C122.763 70.6153 121.731 71.5353 120.657 72.4027C120.12 72.8232 119.527 73.2175 118.876 73.5855C118.226 73.9535 117.534 74.1374 116.799 74.1374C116.516 74.1374 116.318 74.0586 116.205 73.9009C116.092 73.7169 116.035 73.5066 116.035 73.27C116.035 73.1386 116.05 73.0466 116.078 72.9941C116.219 71.969 116.573 70.9044 117.138 69.8005C117.703 68.6965 118.396 67.6582 119.216 66.6857C120.035 65.7132 120.869 64.9246 121.717 64.3201C122.368 63.8732 122.989 63.5972 123.583 63.4921C124.177 63.3607 124.827 63.295 125.534 63.295H126.933C127.385 62.5853 127.852 61.7967 128.332 60.9293C128.841 60.0357 129.336 59.1551 129.816 58.2877C130.325 57.4203 130.791 56.6581 131.215 56.0009C132.374 54.161 133.646 52.6891 135.032 51.5851C136.445 50.4811 138.014 49.9291 139.738 49.9291C140.106 49.9291 140.445 50.0343 140.756 50.2446C141.067 50.4286 141.208 50.7177 141.18 51.112L141.095 52.5313C141.095 52.5576 141.067 52.5971 141.01 52.6496C140.954 52.6759 140.911 52.689 140.883 52.689C140.855 52.689 140.812 52.6628 140.756 52.6102C140.671 52.1371 140.417 51.7822 139.993 51.5457C139.569 51.2828 139.046 51.1514 138.424 51.1514C138.226 51.1514 138 51.1645 137.745 51.1908C137.519 51.2171 137.293 51.2697 137.067 51.3485C136.275 51.6114 135.526 52.1502 134.82 52.965C134.113 53.7536 133.35 54.805 132.53 56.1192C132.247 56.6186 131.88 57.2758 131.427 58.0906C130.975 58.8791 130.495 59.7334 129.986 60.6533C129.505 61.5733 129.039 62.467 128.586 63.3344C128.162 64.2018 127.795 64.9378 127.484 65.5423C127.343 65.8577 127.102 66.344 126.763 67.0011C126.424 67.632 126.057 68.3285 125.661 69.0908C125.293 69.8267 124.968 70.5101 124.686 71.141C124.431 71.7718 124.304 72.2187 124.304 72.4815C124.304 72.8495 124.473 73.0335 124.813 73.0335C125.152 73.0335 125.604 72.8495 126.17 72.4815C126.735 72.0872 127.314 71.6141 127.908 71.0621C128.53 70.4839 129.081 69.9319 129.562 69.4062C130.071 68.8805 130.424 68.4862 130.622 68.2234C130.707 68.3022 130.749 68.3942 130.749 68.4994C130.749 68.6834 130.664 68.8673 130.495 69.0513C130.353 69.2353 130.226 69.393 130.113 69.5245C129.604 70.1553 128.968 70.8387 128.205 71.5747C127.47 72.2844 126.664 72.9021 125.788 73.4278C124.912 73.9272 124.021 74.1769 123.117 74.1769ZM118.537 72.7969C118.876 72.7969 119.343 72.5735 119.936 72.1267C120.558 71.6535 121.223 71.0753 121.929 70.3919C122.636 69.6822 123.3 68.9462 123.922 68.1839C124.544 67.3954 125.053 66.6857 125.449 66.0549C125.873 65.3978 126.085 64.8983 126.085 64.5566C126.085 64.2675 125.986 64.0704 125.788 63.9652C125.618 63.8601 125.392 63.8075 125.11 63.8075C124.657 63.8075 124.163 63.9652 123.625 64.2806C123.117 64.5698 122.707 64.8589 122.396 65.148C122.057 65.4372 121.647 65.8972 121.166 66.528C120.714 67.1325 120.262 67.8028 119.809 68.5388C119.357 69.2748 118.975 69.9844 118.664 70.6679C118.353 71.3513 118.198 71.9032 118.198 72.3238C118.198 72.6392 118.311 72.7969 118.537 72.7969Z" stroke="#2D8DF4" stroke-width="2" stroke-linejoin="round"/>
<path d="M109.208 74.374C108.049 74.374 107.243 74.1637 106.791 73.7432C106.339 73.3226 106.112 72.8101 106.112 72.2055C106.112 71.4433 106.324 70.6284 106.748 69.761C107.201 68.8936 107.625 68.1577 108.02 67.5531C108.473 66.9223 109.081 66.2652 109.844 65.5818C110.607 64.8984 111.441 64.3201 112.346 63.847C113.25 63.3738 114.126 63.1373 114.974 63.1373C115.709 63.1373 116.218 63.3081 116.501 63.6498C116.784 63.9652 116.925 64.3464 116.925 64.7932C116.925 65.608 116.656 66.2783 116.119 66.804C115.61 67.3297 114.974 67.7634 114.211 68.1051C113.448 68.4205 112.713 68.6834 112.006 68.8936C111.582 68.9988 111.088 69.1039 110.522 69.2091C109.957 69.3142 109.42 69.3668 108.911 69.3668C108.713 69.8399 108.558 70.2999 108.445 70.7467C108.331 71.1936 108.275 71.601 108.275 71.969C108.275 72.4158 108.388 72.7838 108.614 73.0729C108.869 73.3621 109.278 73.5066 109.844 73.5066C110.07 73.5066 110.338 73.4803 110.649 73.4278C110.96 73.3752 111.3 73.2963 111.667 73.1912C112.515 72.9284 113.349 72.5078 114.169 71.9295C114.989 71.3513 115.738 70.7336 116.416 70.0765C117.123 69.393 117.66 68.8279 118.027 68.3811C118.112 68.4599 118.155 68.5519 118.155 68.6571C118.155 68.7885 118.056 68.9988 117.858 69.2879C117.292 70.0239 116.557 70.7861 115.653 71.5747C114.748 72.3632 113.745 73.0335 112.642 73.5855C111.54 74.1112 110.395 74.374 109.208 74.374ZM109.25 68.5782C109.618 68.6045 110.028 68.6045 110.48 68.5782C110.96 68.5257 111.427 68.4337 111.879 68.3022C113.038 67.9868 113.872 67.4874 114.381 66.804C114.918 66.0943 115.186 65.4635 115.186 64.9115C115.186 64.5961 115.116 64.3332 114.974 64.123C114.833 63.9127 114.607 63.8075 114.296 63.8075C113.476 63.8075 112.741 64.0967 112.091 64.6749C111.441 65.2269 110.876 65.8709 110.395 66.6069C109.914 67.3428 109.533 68 109.25 68.5782Z" stroke="#2D8DF4" stroke-width="2" stroke-linejoin="round"/>
<path d="M107.453 58.9974C107.057 58.9974 106.775 58.8791 106.605 58.6426C106.492 58.5111 106.435 58.3403 106.435 58.13C106.435 57.7095 106.647 57.3677 107.071 57.1049C107.382 56.9472 107.665 56.8683 107.919 56.8683C108.343 56.8683 108.64 56.9866 108.81 57.2232C108.923 57.3546 108.98 57.5255 108.98 57.7357C108.98 58.1563 108.753 58.498 108.301 58.7608C108.047 58.9185 107.764 58.9974 107.453 58.9974ZM100.075 74.1769C99.7924 74.1769 99.5521 74.1243 99.3542 74.0192C99.1846 73.914 99.0998 73.7169 99.0998 73.4278C99.0998 73.0598 99.1988 72.6261 99.3966 72.1267C99.6228 71.6272 99.863 71.1278 100.117 70.6284C100.4 70.129 100.612 69.7216 100.753 69.4062C100.951 69.0382 101.192 68.5651 101.474 67.9868C101.785 67.3823 102.068 66.8171 102.322 66.2914C102.605 65.7395 102.803 65.3583 102.916 65.148C102.52 65.5423 102.04 66.0417 101.474 66.6463C100.937 67.2245 100.428 67.7897 99.9479 68.3416C99.4673 68.8936 99.0998 69.3273 98.8454 69.6427C98.7606 69.7479 98.6899 69.8005 98.6334 69.8005C98.5769 69.8005 98.5486 69.7347 98.5486 69.6033C98.5486 69.393 98.6193 69.1959 98.7606 69.0119C99.2977 68.3811 99.8913 67.6714 100.541 66.8828C101.22 66.0943 101.828 65.3715 102.365 64.7143C102.902 64.0309 103.241 63.5841 103.382 63.3738C103.693 63.3212 104.146 63.2424 104.739 63.1373C105.361 63.0321 105.785 62.8876 106.011 62.7036C106.096 62.6247 106.181 62.5853 106.266 62.5853C106.322 62.5853 106.351 62.6378 106.351 62.743C106.379 62.8218 106.351 62.9138 106.266 63.019C106.096 63.203 105.799 63.6498 105.375 64.3595C104.951 65.0692 104.499 65.8577 104.018 66.7251C103.566 67.5662 103.142 68.3285 102.746 69.0119C102.351 69.7216 102.011 70.405 101.729 71.0621C101.446 71.7192 101.305 72.1924 101.305 72.4815C101.305 72.8495 101.503 73.0335 101.898 73.0335C102.266 73.0335 102.732 72.8232 103.298 72.4026C103.891 71.9821 104.485 71.4827 105.079 70.9044C105.672 70.2999 106.195 69.7479 106.647 69.2485C106.789 69.0908 106.958 68.9068 107.156 68.6965C107.382 68.4599 107.524 68.3154 107.58 68.2628C107.637 68.3154 107.665 68.4074 107.665 68.5388C107.637 68.7228 107.566 68.9068 107.453 69.0908C107.34 69.2485 107.227 69.393 107.114 69.5245C106.52 70.2079 105.87 70.9176 105.163 71.6535C104.457 72.3632 103.679 72.9678 102.831 73.4672C101.983 73.9403 101.064 74.1769 100.075 74.1769Z" stroke="#2D8DF4" stroke-width="2" stroke-linejoin="round"/>
<path d="M87.3349 74.6106C87.2218 74.6106 87.2218 74.5054 87.3349 74.2952C87.4762 74.0586 87.6034 73.7957 87.7165 73.5066C87.8578 73.2175 87.9992 72.9021 88.1405 72.5604C88.4232 71.9295 88.7342 71.2198 89.0734 70.4313C89.4126 69.6427 89.7377 68.8805 90.0486 68.1445C90.3596 67.3823 90.6281 66.7383 90.8542 66.2126C91.1087 65.6606 91.2783 65.3057 91.3631 65.148C90.9673 65.5423 90.4868 66.0417 89.9214 66.6463C89.3843 67.2245 88.8755 67.7897 88.3949 68.3416C87.9144 68.8936 87.5469 69.3273 87.2925 69.6427C87.2077 69.7479 87.137 69.8005 87.0805 69.8005C87.0239 69.8005 86.9957 69.7347 86.9957 69.6033C86.9957 69.393 87.0663 69.1959 87.2077 69.0119C87.7448 68.3811 88.3384 67.6714 88.9886 66.8828C89.667 66.0943 90.2748 65.3715 90.8119 64.7143C91.3489 64.0309 91.6882 63.5841 91.8295 63.3738C92.1405 63.3212 92.5927 63.2424 93.1864 63.1373C93.8083 63.0321 94.2323 62.8876 94.4584 62.7036C94.5432 62.6247 94.628 62.5853 94.7128 62.5853C94.7694 62.5853 94.7977 62.6378 94.7977 62.743C94.8259 62.8218 94.7976 62.9138 94.7128 63.019C94.5432 63.1767 94.2888 63.5184 93.9496 64.0441C93.6387 64.5698 93.2853 65.1743 92.8896 65.8577C92.4938 66.5411 92.1122 67.1983 91.7447 67.8291C92.0274 67.4348 92.3949 66.9748 92.8472 66.4491C93.3277 65.8972 93.8507 65.3715 94.416 64.8721C94.9814 64.3464 95.5468 63.9127 96.1121 63.571C96.7058 63.2293 97.257 63.0584 97.7658 63.0584C98.1333 63.0584 98.4442 63.1373 98.6986 63.295C98.9531 63.4264 99.1509 63.6761 99.2923 64.0441C99.3771 64.2281 99.4195 64.4384 99.4195 64.6749C99.4195 65.1218 99.2923 65.5555 99.0379 65.976C98.8117 66.3703 98.6421 66.6726 98.529 66.8828C98.5008 66.9617 98.4018 67.0405 98.2322 67.1194C98.0626 67.172 97.9919 67.1457 98.0202 67.0405C98.0485 66.9091 98.0626 66.7777 98.0626 66.6463C98.0909 66.5149 98.105 66.3703 98.105 66.2126C98.105 65.7657 98.0061 65.3583 97.8082 64.9903C97.6386 64.6223 97.3135 64.4384 96.8329 64.4384C96.3807 64.4384 95.8294 64.7012 95.1793 65.2269C94.5291 65.7526 93.8789 66.3571 93.2288 67.0405C92.409 67.9342 91.7588 68.7885 91.2783 69.6033C90.7977 70.3919 90.402 71.1673 90.091 71.9295C89.9214 72.3501 89.7518 72.7706 89.5822 73.1912C89.4126 73.5855 89.2854 73.9009 89.2006 74.1374C88.8331 74.1637 88.4656 74.2426 88.0981 74.374C87.7306 74.5317 87.4762 74.6106 87.3349 74.6106Z" stroke="#2D8DF4" stroke-width="2" stroke-linejoin="round"/>
<path d="M75.782 74.6106C75.6689 74.6106 75.6689 74.5054 75.782 74.2952C75.9233 74.0586 76.0505 73.7957 76.1636 73.5066C76.3049 73.2175 76.4463 72.9021 76.5876 72.5604C76.8703 71.9295 77.1812 71.2198 77.5204 70.4313C77.8597 69.6427 78.1847 68.8805 78.4957 68.1445C78.8066 67.3823 79.0752 66.7383 79.3013 66.2126C79.5557 65.6606 79.7254 65.3057 79.8102 65.148C79.4144 65.5423 78.9339 66.0417 78.3685 66.6463C77.8314 67.2245 77.3226 67.7897 76.842 68.3416C76.3615 68.8936 75.994 69.3273 75.7396 69.6427C75.6548 69.7479 75.5841 69.8005 75.5275 69.8005C75.471 69.8005 75.4427 69.7347 75.4427 69.6033C75.4427 69.393 75.5134 69.1959 75.6548 69.0119C76.1919 68.3811 76.7855 67.6714 77.4356 66.8828C78.1141 66.0943 78.7218 65.3715 79.2589 64.7143C79.796 64.0309 80.1352 63.5841 80.2766 63.3738C80.5875 63.3212 81.0398 63.2424 81.6334 63.1373C82.2553 63.0321 82.6794 62.8876 82.9055 62.7036C82.9903 62.6247 83.0751 62.5853 83.1599 62.5853C83.2165 62.5853 83.2447 62.6378 83.2447 62.743C83.273 62.8218 83.2447 62.9138 83.1599 63.019C82.9903 63.1767 82.7359 63.5184 82.3967 64.0441C82.0857 64.5698 81.7324 65.1743 81.3366 65.8577C80.9409 66.5411 80.5593 67.1983 80.1918 67.8291C80.4745 67.4348 80.8419 66.9748 81.2942 66.4491C81.7748 65.8972 82.2978 65.3715 82.8631 64.8721C83.4285 64.3464 83.9938 63.9127 84.5592 63.571C85.1528 63.2293 85.7041 63.0584 86.2129 63.0584C86.5804 63.0584 86.8913 63.1373 87.1457 63.295C87.4001 63.4264 87.598 63.6761 87.7394 64.0441C87.8242 64.2281 87.8666 64.4384 87.8666 64.6749C87.8666 65.1218 87.7394 65.5555 87.4849 65.976C87.2588 66.3703 87.0892 66.6726 86.9761 66.8828C86.9478 66.9617 86.8489 67.0405 86.6793 67.1194C86.5097 67.172 86.439 67.1457 86.4673 67.0405C86.4956 66.9091 86.5097 66.7777 86.5097 66.6463C86.538 66.5149 86.5521 66.3703 86.5521 66.2126C86.5521 65.7657 86.4532 65.3583 86.2553 64.9903C86.0857 64.6223 85.7606 64.4384 85.28 64.4384C84.8277 64.4384 84.2765 64.7012 83.6264 65.2269C82.9762 65.7526 82.326 66.3571 81.6759 67.0405C80.8561 67.9342 80.2059 68.7885 79.7254 69.6033C79.2448 70.3919 78.849 71.1673 78.5381 71.9295C78.3685 72.3501 78.1989 72.7706 78.0293 73.1912C77.8597 73.5855 77.7325 73.9009 77.6477 74.1374C77.2802 74.1637 76.9127 74.2426 76.5452 74.374C76.1777 74.5317 75.9233 74.6106 75.782 74.6106Z" stroke="#2D8DF4" stroke-width="2" stroke-linejoin="round"/>
<path d="M68.8303 74.1769C68.5476 74.1769 68.3074 74.1243 68.1095 74.0192C67.9116 73.914 67.8127 73.7169 67.8127 73.4278C67.8127 73.0598 67.9116 72.6392 68.1095 72.1661C68.3074 71.693 68.5335 71.233 68.7879 70.7861C69.0423 70.313 69.2685 69.9319 69.4664 69.6428C68.477 70.6153 67.4452 71.5353 66.371 72.4027C65.8339 72.8232 65.2403 73.2175 64.5901 73.5855C63.9399 73.9535 63.2474 74.1375 62.5124 74.1375C62.2297 74.1375 62.0319 74.0586 61.9188 73.9009C61.8057 73.7169 61.7492 73.5066 61.7492 73.2701C61.7492 73.1386 61.7633 73.0466 61.7916 72.9941C61.9329 71.969 62.2863 70.9044 62.8516 69.8005C63.417 68.6965 64.1096 67.6583 64.9293 66.6857C65.7491 65.7132 66.583 64.9246 67.4311 64.3201C68.3922 63.6367 69.4522 63.295 70.6112 63.295H75.4875C75.6288 63.295 75.6995 63.3475 75.6995 63.4527C75.6995 63.663 75.5723 63.7681 75.3178 63.7681C75.0352 63.7681 74.7525 63.9389 74.4698 64.2807C74.1871 64.5961 73.9751 64.8589 73.8338 65.0692C73.6359 65.3583 73.325 65.8446 72.9009 66.528C72.4769 67.2114 72.0388 67.9605 71.5865 68.7754C71.1624 69.5639 70.795 70.2999 70.484 70.9833C70.1731 71.6667 70.0176 72.1661 70.0176 72.4815C70.0176 72.8495 70.2155 73.0335 70.6112 73.0335C71.0352 73.0335 71.5158 72.8495 72.0529 72.4815C72.59 72.1135 73.1271 71.6667 73.6642 71.141C74.2295 70.589 74.7384 70.0502 75.1906 69.5245C75.6712 68.9725 76.0528 68.5388 76.3355 68.2234C76.5051 68.3811 76.491 68.6045 76.2931 68.8936C76.1235 69.1565 75.968 69.3668 75.8267 69.5245C75.2613 70.2079 74.6111 70.9176 73.8762 71.6535C73.1412 72.3632 72.3356 72.9678 71.4593 73.4672C70.6112 73.9403 69.7349 74.1769 68.8303 74.1769ZM64.2509 72.7969C64.5901 72.7969 65.0565 72.5735 65.6502 72.1267C66.2721 71.6535 66.9364 71.0753 67.6431 70.3919C68.3498 69.6822 69.0141 68.9462 69.636 68.1839C70.2579 67.3954 70.7667 66.6857 71.1624 66.0549C71.5865 65.3978 71.7985 64.8983 71.7985 64.5566C71.7985 64.2675 71.6995 64.0704 71.5017 63.9652C71.332 63.8601 71.1059 63.8075 70.8232 63.8075C70.3709 63.8075 69.8763 63.9652 69.3392 64.2807C68.8303 64.5698 68.4204 64.8589 68.1095 65.148C67.7703 65.4372 67.3604 65.8972 66.8798 66.528C66.4275 67.1326 65.9753 67.8028 65.523 68.5388C65.0707 69.2748 64.6891 69.9845 64.3781 70.6679C64.0672 71.3513 63.9117 71.9032 63.9117 72.3238C63.9117 72.6392 64.0248 72.7969 64.2509 72.7969Z" stroke="#2D8DF4" stroke-width="2" stroke-linejoin="round"/>
<path d="M43.4007 74.65C43.2876 74.65 43.2876 74.5317 43.4007 74.2952C43.542 74.0586 43.6692 73.7957 43.7823 73.5066C43.9236 73.2175 44.065 72.9021 44.2063 72.5604C44.489 71.9295 44.7999 71.2198 45.1392 70.4313C45.4784 69.6427 45.8034 68.8805 46.1144 68.1445C46.4253 67.3823 46.6939 66.7383 46.92 66.2126C47.1745 65.6606 47.3441 65.3058 47.4289 65.148C47.0331 65.5423 46.5526 66.0417 45.9872 66.6463C45.4501 67.2245 44.9413 67.7897 44.4607 68.3416C43.9802 68.8936 43.6127 69.3273 43.3583 69.6427C43.2735 69.7479 43.2028 69.8005 43.1463 69.8005C43.0897 69.8005 43.0614 69.7347 43.0614 69.6033C43.0614 69.393 43.1321 69.1959 43.2735 69.0119C43.8106 68.3811 44.4042 67.6714 45.0543 66.8828C45.7328 66.0943 46.3405 65.3715 46.8776 64.7143C47.4147 64.0309 47.754 63.5841 47.8953 63.3738C48.2062 63.3212 48.6585 63.2424 49.2522 63.1373C49.8741 63.0321 50.2981 62.8876 50.5242 62.7036C50.609 62.6247 50.6938 62.5853 50.7786 62.5853C50.8352 62.5853 50.8634 62.6378 50.8634 62.743C50.8917 62.8218 50.8634 62.9138 50.7786 63.019C50.609 63.203 50.3122 63.6367 49.8882 64.3201C49.4924 64.9772 49.0543 65.7132 48.5737 66.528C48.1214 67.3428 47.6974 68.0788 47.3017 68.7359C47.7539 68.2365 48.1921 67.7634 48.6161 67.3165C49.0684 66.8697 49.3794 66.5543 49.549 66.3703C49.8882 66.0549 50.3546 65.6606 50.9482 65.1875C51.5419 64.7143 52.1638 64.2806 52.8139 63.8864C53.4641 63.4921 54.0295 63.2687 54.51 63.2161C54.6231 63.1898 54.722 63.1767 54.8068 63.1767C54.8916 63.1767 54.9764 63.1767 55.0612 63.1767C55.5983 63.1767 55.8669 63.3607 55.8669 63.7287C55.8669 63.8864 55.8245 64.0704 55.7397 64.2806C55.6549 64.4909 55.5418 64.7012 55.4005 64.9115C55.2308 65.2269 54.9482 65.7263 54.5524 66.4097C54.1567 67.0668 53.8033 67.6714 53.4924 68.2234L55.4853 66.3703C55.8245 66.0549 56.2909 65.6606 56.8845 65.1875C57.4782 64.7143 58.1001 64.2806 58.7502 63.8864C59.4004 63.4921 59.9658 63.2687 60.4463 63.2161C60.5594 63.1898 60.6583 63.1767 60.7431 63.1767C60.8562 63.1767 60.941 63.1767 60.9975 63.1767C61.6194 63.1767 61.9304 63.387 61.9304 63.8075C61.9304 64.1229 61.7466 64.5435 61.3792 65.0692C61.1813 65.3583 60.8703 65.8446 60.4463 66.528C60.0223 67.2114 59.5841 67.9605 59.1319 68.7753C58.7078 69.5639 58.3403 70.2999 58.0294 70.9833C57.7184 71.6667 57.563 72.1661 57.563 72.4815C57.563 72.8495 57.7608 73.0335 58.1566 73.0335C58.5241 73.0335 58.9905 72.8363 59.5559 72.4421C60.1495 72.0215 60.7431 71.5221 61.3368 70.9438C61.9587 70.3656 62.4958 69.8136 62.948 69.2879C63.1459 69.0776 63.3297 68.8673 63.4993 68.6571C63.6971 68.4205 63.8102 68.2891 63.8385 68.2628C63.895 68.3154 63.9233 68.4074 63.9233 68.5388C63.9233 68.7228 63.8526 68.9068 63.7113 69.0908C63.5982 69.2485 63.4851 69.393 63.3721 69.5245C62.835 70.1816 62.2131 70.865 61.5064 71.5747C60.8279 72.2844 60.0788 72.8889 59.2591 73.3883C58.4393 73.8615 57.563 74.1374 56.6301 74.2163C56.3474 74.2426 56.0648 74.19 55.7821 74.0586C55.4994 73.9272 55.3581 73.7169 55.3581 73.4278C55.3581 73.0598 55.457 72.6261 55.6549 72.1267C55.881 71.6272 56.1213 71.1278 56.3757 70.6284C56.6584 70.129 56.8704 69.7216 57.0117 69.4062C57.5206 68.4862 57.987 67.6188 58.411 66.804C58.835 65.9892 59.1318 65.4109 59.3015 65.0692C59.3863 64.9115 59.4287 64.7801 59.4287 64.6749C59.4287 64.4909 59.2732 64.4778 58.9622 64.6355C58.6513 64.7932 58.2697 65.0298 57.8174 65.3452C57.3934 65.6606 56.9976 65.976 56.6301 66.2914C56.2626 66.5806 56.0224 66.7777 55.9093 66.8828C55.4287 67.3297 54.8492 67.9342 54.1708 68.6965C53.5206 69.4587 52.9129 70.2604 52.3475 71.1016C51.7822 71.9164 51.3864 72.6786 51.1602 73.3883C50.8776 73.6249 50.609 73.7432 50.3546 73.7432C50.1567 73.7432 49.9871 73.6775 49.8458 73.546C49.7327 73.4146 49.6762 73.2569 49.6762 73.0729C49.6762 72.5472 49.8458 71.9295 50.185 71.2198C50.5525 70.4839 50.8493 69.8793 51.0755 69.4062C51.5843 68.4862 52.0507 67.6188 52.4747 66.804C52.8987 65.9892 53.1956 65.4109 53.3652 65.0692C53.45 64.9115 53.4924 64.7801 53.4924 64.6749C53.4924 64.4909 53.3369 64.4778 53.026 64.6355C52.715 64.7932 52.3334 65.0298 51.8811 65.3452C51.4571 65.6606 51.0613 65.976 50.6938 66.2914C50.3263 66.5806 50.0861 66.7777 49.973 66.8828C49.2946 67.54 48.6585 68.2102 48.0649 68.8936C47.4995 69.577 47.019 70.313 46.6232 71.1016C46.3971 71.5747 46.1568 72.1004 45.9024 72.6786C45.648 73.2569 45.436 73.7432 45.2664 74.1374C44.8989 74.1637 44.5314 74.2557 44.1639 74.4134C43.7964 74.5711 43.542 74.65 43.4007 74.65Z" stroke="#2D8DF4" stroke-width="2" stroke-linejoin="round"/>
<path d="M152.286 38.1799C151.212 38.1799 150.18 37.9433 149.191 37.4702C148.173 37.0233 147.424 36.3268 146.944 35.3805C146.746 35.0388 146.619 34.6708 146.562 34.2766C146.505 33.9086 146.477 33.5406 146.477 33.1726V32.7783C146.477 32.568 146.505 32.3709 146.562 32.1869C146.619 32.0029 146.774 31.9109 147.028 31.9109C147.085 31.9109 147.113 31.9372 147.113 31.9898C147.113 32.1475 147.099 32.3052 147.071 32.4629C147.043 32.6206 147.028 32.7915 147.028 32.9755C147.028 34.1846 147.452 35.1045 148.301 35.7354C149.12 36.3662 150.152 36.6816 151.396 36.6816C151.905 36.6816 152.428 36.629 152.965 36.5239C153.502 36.4188 153.997 36.2742 154.449 36.0902C156.258 35.3805 157.827 34.3554 159.155 33.0149C160.512 31.6744 161.685 30.163 162.675 28.4808C163.692 26.7985 164.583 25.0769 165.346 23.3158C166.138 21.5284 166.873 19.8462 167.551 18.2691C166.957 19.1628 166.307 19.9645 165.601 20.6742C164.894 21.3576 164.102 22.041 163.226 22.7244C162.689 23.1449 162.095 23.5392 161.445 23.9072C160.823 24.2752 160.145 24.4592 159.41 24.4592C159.127 24.4592 158.929 24.3803 158.816 24.2226C158.703 24.0386 158.647 23.8284 158.647 23.5918V23.3158C158.788 22.2907 159.141 21.2262 159.707 20.1222C160.3 19.0182 161.007 17.98 161.827 17.0074C162.647 16.0349 163.48 15.2464 164.329 14.6418C165.29 13.9584 166.35 13.6167 167.509 13.6167H172.385C172.526 13.6167 172.597 13.6693 172.597 13.7744C172.597 13.9847 172.47 14.0898 172.215 14.0898C171.904 14.0898 171.608 14.2081 171.325 14.4447C171.042 14.6812 170.83 14.9047 170.689 15.1149C170.406 15.5355 170.039 16.1795 169.586 17.0469C169.134 17.9143 168.639 18.9131 168.102 20.0433C167.565 21.1473 167.028 22.2775 166.491 23.4341C165.954 24.5643 165.459 25.6289 165.007 26.6277C164.328 28.1259 163.551 29.5847 162.675 31.0041C161.827 32.4498 160.809 33.7377 159.622 34.868C158.463 36.0245 157.078 36.9313 155.466 37.5884C154.505 37.9827 153.445 38.1799 152.286 38.1799ZM161.148 23.1187C161.488 23.1187 161.954 22.8952 162.548 22.4484C163.141 21.9753 163.791 21.397 164.498 20.7136C165.205 20.0039 165.869 19.2679 166.491 18.5057C167.113 17.7171 167.622 17.0074 168.017 16.3766C168.441 15.7195 168.654 15.2201 168.654 14.8784C168.654 14.5892 168.555 14.3921 168.357 14.287C168.187 14.1818 167.961 14.1293 167.678 14.1293C167.226 14.1293 166.745 14.287 166.237 14.6024C165.728 14.8915 165.318 15.1807 165.007 15.4698C164.668 15.7589 164.258 16.2189 163.777 16.8497C163.325 17.4543 162.859 18.1245 162.378 18.8605C161.926 19.5965 161.544 20.3062 161.233 20.9896C160.922 21.673 160.767 22.225 160.767 22.6455C160.767 22.961 160.894 23.1187 161.148 23.1187Z" stroke="#2D8DF4" stroke-width="2" stroke-linejoin="round"/>
<path d="M146.135 24.9717C146.022 24.9717 146.022 24.8535 146.135 24.6169C146.276 24.3803 146.403 24.1175 146.516 23.8284C146.658 23.5392 146.799 23.2238 146.94 22.8821C147.223 22.2513 147.534 21.5416 147.873 20.753C148.212 19.9645 148.537 19.2022 148.848 18.4663C149.159 17.704 149.428 17.06 149.654 16.5343C149.908 15.9823 150.078 15.6275 150.163 15.4698C149.767 15.8641 149.287 16.3635 148.721 16.968C148.184 17.5463 147.675 18.1114 147.195 18.6634C146.714 19.2154 146.347 19.6491 146.092 19.9645C146.007 20.0696 145.937 20.1222 145.88 20.1222C145.824 20.1222 145.795 20.0565 145.795 19.9251C145.795 19.7148 145.866 19.5176 146.007 19.3337C146.545 18.7028 147.138 17.9931 147.788 17.2046C148.467 16.416 149.075 15.6932 149.612 15.0361C150.149 14.3527 150.488 13.9058 150.629 13.6956C150.94 13.643 151.393 13.5641 151.986 13.459C152.608 13.3539 153.032 13.2093 153.258 13.0253C153.343 12.9464 153.428 12.907 153.513 12.907C153.569 12.907 153.597 12.9596 153.597 13.0647C153.626 13.1436 153.597 13.2356 153.513 13.3407C153.343 13.5247 153.046 13.9584 152.622 14.6418C152.226 15.2989 151.788 16.0349 151.308 16.8497C150.855 17.6646 150.431 18.4005 150.036 19.0577C150.375 18.6371 150.742 18.2297 151.138 17.8354C151.534 17.4411 151.916 17.06 152.283 16.692C152.622 16.3766 153.089 15.9823 153.682 15.5092C154.276 15.0361 154.898 14.6024 155.548 14.2081C156.198 13.8138 156.763 13.5904 157.244 13.5379C157.357 13.5116 157.456 13.4984 157.541 13.4984C157.654 13.4984 157.739 13.4984 157.795 13.4984C158.417 13.4984 158.728 13.7087 158.728 14.1293C158.728 14.4447 158.544 14.8652 158.177 15.3909C157.979 15.6801 157.668 16.1663 157.244 16.8497C156.848 17.5069 156.438 18.2297 156.014 19.0182C155.619 19.7805 155.265 20.5033 154.954 21.1867C154.672 21.8439 154.53 22.3301 154.53 22.6455C154.53 23.0135 154.728 23.1975 155.124 23.1975C155.604 23.1975 156.127 22.9741 156.693 22.5273C157.286 22.0804 157.922 21.5153 158.601 20.8319C159.279 20.1222 159.958 19.3731 160.636 18.5845C160.693 18.6371 160.721 18.7291 160.721 18.8605C160.721 19.0445 160.65 19.2285 160.509 19.4125C160.396 19.5702 160.283 19.7148 160.17 19.8462C159.887 20.1879 159.505 20.6216 159.025 21.1473C158.573 21.6467 158.106 22.1461 157.626 22.6455C157.145 23.1187 156.707 23.4998 156.311 23.7889C156.029 23.9729 155.661 24.1701 155.209 24.3803C154.756 24.5906 154.304 24.6958 153.852 24.6958C153.343 24.6958 152.99 24.5775 152.792 24.3409C152.594 24.0781 152.495 23.7626 152.495 23.3947C152.495 22.9741 152.58 22.5273 152.749 22.0541C152.919 21.581 153.103 21.1342 153.301 20.7136C153.527 20.2668 153.696 19.9382 153.809 19.7279C154.318 18.808 154.785 17.9406 155.209 17.1257C155.633 16.3109 155.93 15.7326 156.099 15.3909C156.184 15.2332 156.226 15.1018 156.226 14.9967C156.226 14.8127 156.071 14.7995 155.76 14.9572C155.449 15.1149 155.067 15.3515 154.615 15.6669C154.191 15.9823 153.795 16.2978 153.428 16.6132C153.06 16.9023 152.82 17.0994 152.707 17.2046C151.661 18.2297 150.742 19.3731 149.951 20.6348C149.188 21.8701 148.537 23.1449 148 24.4592C147.633 24.4855 147.265 24.5775 146.898 24.7352C146.53 24.8929 146.276 24.9717 146.135 24.9717Z" stroke="#2D8DF4" stroke-width="2" stroke-linejoin="round"/>
<path d="M146.542 9.31915C146.147 9.31915 145.864 9.20087 145.694 8.9643C145.581 8.83288 145.525 8.66203 145.525 8.45175C145.525 8.03119 145.737 7.68949 146.161 7.42664C146.472 7.26893 146.754 7.19008 147.009 7.19008C147.433 7.19008 147.73 7.30836 147.899 7.54492C148.012 7.67635 148.069 7.8472 148.069 8.05748C148.069 8.47803 147.843 8.81974 147.391 9.08258C147.136 9.24029 146.853 9.31915 146.542 9.31915ZM139.165 24.4986C138.882 24.4986 138.642 24.446 138.444 24.3409C138.274 24.2358 138.189 24.0386 138.189 23.7495C138.189 23.3815 138.288 22.9478 138.486 22.4484C138.712 21.949 138.953 21.4496 139.207 20.9502C139.49 20.4508 139.702 20.0433 139.843 19.7279C140.041 19.3599 140.281 18.8868 140.564 18.3085C140.875 17.704 141.157 17.1389 141.412 16.6132C141.695 16.0612 141.892 15.6801 142.005 15.4698C141.61 15.8641 141.129 16.3635 140.564 16.968C140.027 17.5463 139.518 18.1114 139.037 18.6634C138.557 19.2154 138.189 19.6491 137.935 19.9645C137.85 20.0696 137.779 20.1222 137.723 20.1222C137.666 20.1222 137.638 20.0565 137.638 19.9251C137.638 19.7148 137.709 19.5176 137.85 19.3337C138.387 18.7028 138.981 17.9931 139.631 17.2046C140.309 16.416 140.917 15.6932 141.454 15.0361C141.991 14.3527 142.331 13.9058 142.472 13.6956C142.783 13.643 143.235 13.5641 143.829 13.459C144.451 13.3539 144.875 13.2093 145.101 13.0253C145.186 12.9464 145.27 12.907 145.355 12.907C145.412 12.907 145.44 12.9596 145.44 13.0647C145.468 13.1436 145.44 13.2356 145.355 13.3407C145.186 13.5247 144.889 13.9716 144.465 14.6812C144.041 15.3909 143.588 16.1795 143.108 17.0469C142.656 17.888 142.232 18.6503 141.836 19.3337C141.44 20.0433 141.101 20.7267 140.818 21.3839C140.536 22.041 140.394 22.5141 140.394 22.8032C140.394 23.1712 140.592 23.3552 140.988 23.3552C141.355 23.3552 141.822 23.145 142.387 22.7244C142.981 22.3038 143.574 21.8044 144.168 21.2262C144.762 20.6216 145.285 20.0696 145.737 19.5702C145.878 19.4125 146.048 19.2285 146.246 19.0182C146.472 18.7817 146.613 18.6371 146.67 18.5845C146.726 18.6371 146.755 18.7291 146.755 18.8605C146.726 19.0445 146.656 19.2285 146.542 19.4125C146.429 19.5702 146.316 19.7148 146.203 19.8462C145.61 20.5296 144.959 21.2393 144.253 21.9753C143.546 22.685 142.769 23.2895 141.921 23.7889C141.073 24.2621 140.154 24.4986 139.165 24.4986Z" stroke="#2D8DF4" stroke-width="2" stroke-linejoin="round"/>
<path d="M131.013 24.4986C130.73 24.4986 130.49 24.446 130.292 24.3409C130.094 24.2358 129.995 24.0386 129.995 23.7495C129.995 23.3815 130.094 22.9478 130.292 22.4484C130.518 21.949 130.759 21.4496 131.013 20.9502C131.267 20.4508 131.479 20.0433 131.649 19.7279C131.79 19.4914 131.974 19.1234 132.2 18.624C132.455 18.0983 132.709 17.5594 132.964 17.0074C133.246 16.4292 133.472 15.9429 133.642 15.5486C133.84 15.1544 133.939 14.9572 133.939 14.9572C133.684 15.2201 133.345 15.5881 132.921 16.0612C132.525 16.5343 132.087 17.0337 131.607 17.5594C131.154 18.0588 130.73 18.532 130.335 18.9788C129.967 19.4256 129.699 19.7542 129.529 19.9645C129.444 20.0696 129.373 20.1222 129.317 20.1222C129.26 20.1222 129.232 20.0565 129.232 19.9251C129.232 19.7148 129.303 19.5176 129.444 19.3337C129.783 18.9394 130.193 18.4663 130.674 17.9143C131.154 17.336 131.635 16.7577 132.116 16.1795C132.624 15.6012 133.062 15.0887 133.43 14.6418C133.204 14.6418 132.907 14.655 132.54 14.6812C132.2 14.7075 131.889 14.747 131.607 14.7995C131.324 14.8258 131.169 14.8389 131.14 14.8389C130.999 14.8389 131.013 14.7338 131.183 14.5235C131.352 14.3133 131.578 14.103 131.861 13.8927C132.144 13.6824 132.356 13.5773 132.497 13.5773C132.525 13.5773 132.752 13.5904 133.176 13.6167C133.6 13.6167 133.911 13.6167 134.108 13.6167C134.674 12.907 135.225 12.0922 135.762 11.1722C136.327 10.2523 136.879 9.24029 137.416 8.13633C137.642 8.11004 138.024 7.96547 138.561 7.70263C139.126 7.41349 139.564 7.12436 139.875 6.83523C140.016 6.7038 140.13 6.63809 140.214 6.63809C140.384 6.63809 140.384 6.74323 140.214 6.95351C140.016 7.16379 139.677 7.61063 139.197 8.29403C138.716 8.95115 138.179 9.75284 137.585 10.6991C136.992 11.6191 136.426 12.5916 135.889 13.6167H139.324C139.635 13.6167 139.79 13.6561 139.79 13.735C139.79 13.8401 139.578 13.9453 139.154 14.0504C138.674 14.1818 138.165 14.2607 137.628 14.287C137.119 14.3133 136.638 14.3658 136.186 14.4447C135.762 14.5235 135.451 14.6944 135.253 14.9572C135.084 15.1412 134.843 15.5355 134.532 16.14C134.221 16.7446 133.882 17.4411 133.515 18.2297C133.176 18.9919 132.879 19.7673 132.624 20.5559C132.37 21.3182 132.214 21.9621 132.158 22.4878V22.6455C132.158 22.8558 132.229 23.0267 132.37 23.1581C132.511 23.2895 132.653 23.3552 132.794 23.3552C133.161 23.3552 133.628 23.1449 134.193 22.7244C134.787 22.3038 135.395 21.8044 136.017 21.2262C136.638 20.6216 137.175 20.0696 137.628 19.5702C137.826 19.3599 137.995 19.1628 138.137 18.9788C138.306 18.7948 138.405 18.6765 138.433 18.624C138.49 18.7291 138.518 18.808 138.518 18.8605C138.518 19.0182 138.462 19.1891 138.349 19.3731C138.264 19.5571 138.165 19.7148 138.052 19.8462C137.515 20.5033 136.865 21.1999 136.101 21.9358C135.338 22.6455 134.518 23.2501 133.642 23.7495C132.794 24.2489 131.918 24.4986 131.013 24.4986Z" stroke="#2D8DF4" stroke-width="2" stroke-linejoin="round"/>
<path d="M122.607 24.4986C122.324 24.4986 122.084 24.446 121.886 24.3409C121.688 24.2358 121.59 24.0386 121.59 23.7495C121.59 23.3815 121.688 22.9478 121.886 22.4484C122.112 21.949 122.353 21.4496 122.607 20.9502C122.862 20.4508 123.074 20.0433 123.243 19.7279C123.385 19.4914 123.568 19.1234 123.794 18.624C124.049 18.0983 124.303 17.5594 124.558 17.0074C124.84 16.4292 125.066 15.9429 125.236 15.5486C125.434 15.1544 125.533 14.9572 125.533 14.9572C125.278 15.2201 124.939 15.5881 124.515 16.0612C124.119 16.5343 123.681 17.0337 123.201 17.5594C122.748 18.0588 122.324 18.532 121.929 18.9788C121.561 19.4256 121.293 19.7542 121.123 19.9645C121.038 20.0696 120.968 20.1222 120.911 20.1222C120.855 20.1222 120.826 20.0565 120.826 19.9251C120.826 19.7148 120.897 19.5176 121.038 19.3337C121.377 18.9394 121.787 18.4663 122.268 17.9143C122.748 17.336 123.229 16.7577 123.71 16.1795C124.218 15.6012 124.657 15.0887 125.024 14.6418C124.798 14.6418 124.501 14.655 124.134 14.6812C123.794 14.7075 123.483 14.747 123.201 14.7995C122.918 14.8258 122.763 14.8389 122.734 14.8389C122.593 14.8389 122.607 14.7338 122.777 14.5235C122.946 14.3133 123.173 14.103 123.455 13.8927C123.738 13.6824 123.95 13.5773 124.091 13.5773C124.119 13.5773 124.346 13.5904 124.77 13.6167C125.194 13.6167 125.505 13.6167 125.703 13.6167C126.268 12.907 126.819 12.0922 127.356 11.1722C127.922 10.2523 128.473 9.24029 129.01 8.13633C129.236 8.11004 129.618 7.96547 130.155 7.70263C130.72 7.41349 131.158 7.12436 131.469 6.83523C131.611 6.7038 131.724 6.63809 131.808 6.63809C131.978 6.63809 131.978 6.74323 131.808 6.95351C131.611 7.16379 131.271 7.61063 130.791 8.29403C130.31 8.95115 129.773 9.75284 129.179 10.6991C128.586 11.6191 128.02 12.5916 127.483 13.6167H130.918C131.229 13.6167 131.384 13.6561 131.384 13.735C131.384 13.8401 131.172 13.9453 130.748 14.0504C130.268 14.1818 129.759 14.2607 129.222 14.287C128.713 14.3133 128.233 14.3658 127.78 14.4447C127.356 14.5235 127.045 14.6944 126.847 14.9572C126.678 15.1412 126.437 15.5355 126.127 16.14C125.816 16.7446 125.476 17.4411 125.109 18.2297C124.77 18.9919 124.473 19.7673 124.218 20.5559C123.964 21.3182 123.809 21.9621 123.752 22.4878V22.6455C123.752 22.8558 123.823 23.0267 123.964 23.1581C124.105 23.2895 124.247 23.3552 124.388 23.3552C124.756 23.3552 125.222 23.1449 125.787 22.7244C126.381 22.3038 126.989 21.8044 127.611 21.2262C128.233 20.6216 128.77 20.0696 129.222 19.5702C129.42 19.3599 129.589 19.1628 129.731 18.9788C129.9 18.7948 129.999 18.6765 130.028 18.624C130.084 18.7291 130.112 18.808 130.112 18.8605C130.112 19.0182 130.056 19.1891 129.943 19.3731C129.858 19.5571 129.759 19.7148 129.646 19.8462C129.109 20.5033 128.459 21.1999 127.695 21.9358C126.932 22.6455 126.112 23.2501 125.236 23.7495C124.388 24.2489 123.512 24.4986 122.607 24.4986Z" stroke="#2D8DF4" stroke-width="2" stroke-linejoin="round"/>
<path d="M112.769 24.6957C111.61 24.6957 110.804 24.4855 110.352 24.0649C109.9 23.6443 109.674 23.1318 109.674 22.5272C109.674 21.765 109.886 20.9502 110.31 20.0828C110.762 19.2154 111.186 18.4794 111.582 17.8748C112.034 17.244 112.642 16.5869 113.405 15.9035C114.168 15.2201 115.002 14.6418 115.907 14.1687C116.811 13.6956 117.688 13.459 118.536 13.459C119.271 13.459 119.779 13.6298 120.062 13.9715C120.345 14.287 120.486 14.6681 120.486 15.1149C120.486 15.9298 120.217 16.6 119.68 17.1257C119.172 17.6514 118.536 18.0851 117.772 18.4268C117.009 18.7422 116.274 19.0051 115.567 19.2154C115.143 19.3205 114.649 19.4256 114.083 19.5308C113.518 19.6359 112.981 19.6885 112.472 19.6885C112.274 20.1616 112.119 20.6216 112.006 21.0684C111.893 21.5153 111.836 21.9227 111.836 22.2907C111.836 22.7375 111.949 23.1055 112.175 23.3946C112.43 23.6838 112.84 23.8283 113.405 23.8283C113.631 23.8283 113.9 23.8021 114.211 23.7495C114.521 23.6969 114.861 23.6181 115.228 23.5129C116.076 23.2501 116.91 22.8295 117.73 22.2513C118.55 21.673 119.299 21.0553 119.977 20.3982C120.684 19.7148 121.221 19.1497 121.588 18.7028C121.673 18.7817 121.716 18.8737 121.716 18.9788C121.716 19.1102 121.617 19.3205 121.419 19.6096C120.854 20.3456 120.119 21.1079 119.214 21.8964C118.309 22.685 117.306 23.3552 116.203 23.9072C115.101 24.4329 113.956 24.6957 112.769 24.6957ZM112.811 18.8999C113.179 18.9262 113.589 18.9262 114.041 18.8999C114.521 18.8474 114.988 18.7554 115.44 18.624C116.599 18.3085 117.433 17.8091 117.942 17.1257C118.479 16.416 118.748 15.7852 118.748 15.2332C118.748 14.9178 118.677 14.6549 118.536 14.4447C118.394 14.2344 118.168 14.1293 117.857 14.1293C117.037 14.1293 116.302 14.4184 115.652 14.9967C115.002 15.5486 114.437 16.1926 113.956 16.9286C113.476 17.6646 113.094 18.3217 112.811 18.8999Z" stroke="#2D8DF4" stroke-width="2" stroke-linejoin="round"/>
<path d="M91.5403 38.1799C90.4661 38.1799 89.4344 37.9433 88.445 37.4702C87.4273 37.0233 86.6782 36.3268 86.1976 35.3805C85.9998 35.0388 85.8726 34.6708 85.816 34.2766C85.7595 33.9086 85.7312 33.5406 85.7312 33.1726V32.7783C85.7312 32.568 85.7595 32.3709 85.816 32.1869C85.8726 32.0029 86.028 31.9109 86.2825 31.9109C86.339 31.9109 86.3673 31.9372 86.3673 31.9898C86.3673 32.1475 86.3531 32.3052 86.3249 32.4629C86.2966 32.6206 86.2825 32.7915 86.2825 32.9755C86.2825 34.1846 86.7065 35.1045 87.5545 35.7354C88.3743 36.3662 89.4061 36.6816 90.6499 36.6816C91.1587 36.6816 91.6817 36.629 92.2188 36.5239C92.7558 36.4188 93.2505 36.2742 93.7028 36.0902C95.512 35.3805 97.0809 34.3554 98.4095 33.0149C99.7663 31.6744 100.939 30.163 101.929 28.4808C102.946 26.7985 103.837 25.0769 104.6 23.3158C105.392 21.5284 106.127 19.8462 106.805 18.2691C106.211 19.1628 105.561 19.9645 104.855 20.6742C104.148 21.3576 103.356 22.041 102.48 22.7244C101.943 23.1449 101.349 23.5392 100.699 23.9072C100.077 24.2752 99.3988 24.4592 98.6639 24.4592C98.3812 24.4592 98.1833 24.3803 98.0702 24.2226C97.9572 24.0386 97.9006 23.8284 97.9006 23.5918V23.3158C98.042 22.2907 98.3953 21.2262 98.9607 20.1222C99.5543 19.0182 100.261 17.98 101.081 17.0074C101.901 16.0349 102.734 15.2464 103.583 14.6418C104.544 13.9584 105.604 13.6167 106.763 13.6167H111.639C111.78 13.6167 111.851 13.6693 111.851 13.7744C111.851 13.9847 111.724 14.0898 111.469 14.0898C111.158 14.0898 110.862 14.2081 110.579 14.4447C110.296 14.6812 110.084 14.9047 109.943 15.1149C109.66 15.5355 109.293 16.1795 108.84 17.0469C108.388 17.9143 107.893 18.9131 107.356 20.0433C106.819 21.1473 106.282 22.2775 105.745 23.4341C105.208 24.5643 104.713 25.6289 104.261 26.6277C103.583 28.1259 102.805 29.5847 101.929 31.0041C101.081 32.4498 100.063 33.7377 98.8759 34.868C97.7169 36.0245 96.3318 36.9313 94.7205 37.5884C93.7594 37.9827 92.6993 38.1799 91.5403 38.1799ZM100.402 23.1187C100.742 23.1187 101.208 22.8952 101.802 22.4484C102.395 21.9753 103.045 21.397 103.752 20.7136C104.459 20.0039 105.123 19.2679 105.745 18.5057C106.367 17.7171 106.876 17.0074 107.272 16.3766C107.696 15.7195 107.908 15.2201 107.908 14.8784C107.908 14.5892 107.809 14.3921 107.611 14.287C107.441 14.1818 107.215 14.1293 106.932 14.1293C106.48 14.1293 105.999 14.287 105.491 14.6024C104.982 14.8915 104.572 15.1807 104.261 15.4698C103.922 15.7589 103.512 16.2189 103.031 16.8497C102.579 17.4543 102.113 18.1245 101.632 18.8605C101.18 19.5965 100.798 20.3062 100.487 20.9896C100.176 21.673 100.021 22.225 100.021 22.6455C100.021 22.961 100.148 23.1187 100.402 23.1187Z" stroke="#2D8DF4" stroke-width="2" stroke-linejoin="round"/>
<path d="M83.8245 24.6957C82.6655 24.6957 81.8598 24.4855 81.4075 24.0649C80.9552 23.6443 80.7291 23.1318 80.7291 22.5272C80.7291 21.765 80.9411 20.9502 81.3651 20.0828C81.8174 19.2154 82.2414 18.4794 82.6372 17.8748C83.0895 17.244 83.6973 16.5869 84.4605 15.9035C85.2237 15.2201 86.0576 14.6418 86.9622 14.1687C87.8668 13.6956 88.7431 13.459 89.5911 13.459C90.3261 13.459 90.8349 13.6298 91.1176 13.9715C91.4003 14.287 91.5416 14.6681 91.5416 15.1149C91.5416 15.9298 91.2731 16.6 90.736 17.1257C90.2272 17.6514 89.5911 18.0851 88.8279 18.4268C88.0647 18.7422 87.3297 19.0051 86.623 19.2154C86.199 19.3205 85.7043 19.4256 85.1389 19.5308C84.5736 19.6359 84.0365 19.6885 83.5276 19.6885C83.3298 20.1616 83.1743 20.6216 83.0612 21.0684C82.9481 21.5153 82.8916 21.9227 82.8916 22.2907C82.8916 22.7375 83.0047 23.1055 83.2308 23.3946C83.4852 23.6838 83.8951 23.8283 84.4605 23.8283C84.6866 23.8283 84.9552 23.8021 85.2661 23.7495C85.5771 23.6969 85.9163 23.6181 86.2838 23.5129C87.1318 23.2501 87.9657 22.8295 88.7855 22.2513C89.6053 21.673 90.3544 21.0553 91.0328 20.3982C91.7395 19.7148 92.2766 19.1497 92.6441 18.7028C92.7289 18.7817 92.7713 18.8737 92.7713 18.9788C92.7713 19.1102 92.6724 19.3205 92.4745 19.6096C91.9091 20.3456 91.1741 21.1079 90.2696 21.8964C89.365 22.685 88.3615 23.3552 87.259 23.9072C86.1566 24.4329 85.0117 24.6957 83.8245 24.6957ZM83.8669 18.8999C84.2343 18.9262 84.6442 18.9262 85.0965 18.8999C85.5771 18.8474 86.0435 18.7554 86.4958 18.624C87.6548 18.3085 88.4887 17.8091 88.9975 17.1257C89.5346 16.416 89.8032 15.7852 89.8032 15.2332C89.8032 14.9178 89.7325 14.6549 89.5911 14.4447C89.4498 14.2344 89.2237 14.1293 88.9127 14.1293C88.0929 14.1293 87.358 14.4184 86.7078 14.9967C86.0576 15.5486 85.4923 16.1926 85.0117 16.9286C84.5312 17.6646 84.1495 18.3217 83.8669 18.8999Z" stroke="#2D8DF4" stroke-width="2" stroke-linejoin="round"/>
<path d="M70.109 24.9323C69.996 24.9323 69.996 24.8272 70.109 24.6169C70.2504 24.3803 70.3776 24.1175 70.4906 23.8284C70.632 23.5392 70.7733 23.2238 70.9147 22.8821C71.1973 22.2513 71.5083 21.5416 71.8475 20.753C72.1867 19.9645 72.5118 19.2022 72.8228 18.4663C73.1337 17.704 73.4023 17.06 73.6284 16.5343C73.8828 15.9823 74.0524 15.6275 74.1372 15.4698C73.7415 15.8641 73.2609 16.3635 72.6956 16.968C72.1585 17.5463 71.6496 18.1114 71.1691 18.6634C70.6885 19.2154 70.321 19.6491 70.0666 19.9645C69.9818 20.0696 69.9111 20.1222 69.8546 20.1222C69.7981 20.1222 69.7698 20.0565 69.7698 19.9251C69.7698 19.7148 69.8405 19.5176 69.9818 19.3337C70.5189 18.7028 71.1125 17.9931 71.7627 17.2046C72.4411 16.416 73.0489 15.6932 73.586 15.0361C74.1231 14.3527 74.4623 13.9058 74.6037 13.6956C74.9146 13.643 75.3669 13.5641 75.9605 13.459C76.5824 13.3539 77.0064 13.2093 77.2326 13.0253C77.3174 12.9464 77.4022 12.907 77.487 12.907C77.5435 12.907 77.5718 12.9596 77.5718 13.0647C77.6001 13.1436 77.5718 13.2356 77.487 13.3407C77.3174 13.4984 77.063 13.8401 76.7238 14.3658C76.4128 14.8915 76.0595 15.4961 75.6637 16.1795C75.268 16.8629 74.8863 17.52 74.5188 18.1508C74.8015 17.7566 75.169 17.2966 75.6213 16.7709C76.1019 16.2189 76.6248 15.6932 77.1902 15.1938C77.7555 14.6681 78.3209 14.2344 78.8863 13.8927C79.4799 13.551 80.0311 13.3801 80.5399 13.3801C80.9074 13.3801 81.2184 13.459 81.4728 13.6167C81.7272 13.7481 81.9251 13.9978 82.0664 14.3658C82.1512 14.5498 82.1936 14.7601 82.1936 14.9967C82.1936 15.4435 82.0664 15.8772 81.812 16.2978C81.5859 16.692 81.4163 16.9943 81.3032 17.2046C81.2749 17.2834 81.176 17.3623 81.0064 17.4411C80.8368 17.4937 80.7661 17.4674 80.7944 17.3623C80.8226 17.2309 80.8368 17.0994 80.8368 16.968C80.865 16.8366 80.8792 16.692 80.8792 16.5343C80.8792 16.0875 80.7802 15.6801 80.5824 15.3121C80.4127 14.9441 80.0877 14.7601 79.6071 14.7601C79.1548 14.7601 78.6036 15.0229 77.9534 15.5486C77.3033 16.0743 76.6531 16.6789 76.0029 17.3623C75.1831 18.256 74.533 19.1102 74.0524 19.9251C73.5719 20.7136 73.1761 21.489 72.8652 22.2513C72.6956 22.6718 72.5259 23.0924 72.3563 23.5129C72.1867 23.9072 72.0595 24.2226 71.9747 24.4592C71.6072 24.4855 71.2397 24.5643 70.8723 24.6958C70.5048 24.8535 70.2504 24.9323 70.109 24.9323Z" stroke="#2D8DF4" stroke-width="2" stroke-linejoin="round"/>
<path d="M63.1574 24.4986C62.8747 24.4986 62.6344 24.446 62.4366 24.3409C62.2387 24.2358 62.1398 24.0386 62.1398 23.7495C62.1398 23.3815 62.2387 22.961 62.4366 22.4878C62.6344 22.0147 62.8606 21.5547 63.115 21.1079C63.3694 20.6347 63.5956 20.2536 63.7934 19.9645C62.8041 20.937 61.7723 21.857 60.6981 22.7244C60.161 23.1449 59.5674 23.5392 58.9172 23.9072C58.267 24.2752 57.5745 24.4592 56.8395 24.4592C56.5568 24.4592 56.3589 24.3803 56.2459 24.2226C56.1328 24.0386 56.0762 23.8283 56.0762 23.5918C56.0762 23.4604 56.0904 23.3684 56.1187 23.3158C56.26 22.2907 56.6133 21.2262 57.1787 20.1222C57.7441 19.0182 58.4366 17.98 59.2564 17.0074C60.0762 16.0349 60.9101 15.2464 61.7581 14.6418C62.7193 13.9584 63.7793 13.6167 64.9383 13.6167H69.8145C69.9559 13.6167 70.0266 13.6693 70.0266 13.7744C70.0266 13.9847 69.8993 14.0898 69.6449 14.0898C69.3622 14.0898 69.0796 14.2607 68.7969 14.6024C68.5142 14.9178 68.3022 15.1807 68.1609 15.3909C67.963 15.6801 67.652 16.1663 67.228 16.8497C66.804 17.5331 66.3658 18.2823 65.9135 19.0971C65.4895 19.8856 65.122 20.6216 64.8111 21.305C64.5001 21.9884 64.3447 22.4878 64.3447 22.8032C64.3447 23.1712 64.5425 23.3552 64.9383 23.3552C65.3623 23.3552 65.8429 23.1712 66.38 22.8032C66.9171 22.4353 67.4542 21.9884 67.9912 21.4627C68.5566 20.9107 69.0654 20.3719 69.5177 19.8462C69.9983 19.2942 70.3799 18.8605 70.6626 18.5451C70.8322 18.7028 70.8181 18.9262 70.6202 19.2154C70.4506 19.4782 70.2951 19.6885 70.1538 19.8462C69.5884 20.5296 68.9382 21.2393 68.2033 21.9753C67.4683 22.685 66.6627 23.2895 65.7863 23.7889C64.9383 24.262 64.062 24.4986 63.1574 24.4986ZM58.578 23.1187C58.9172 23.1187 59.3836 22.8952 59.9772 22.4484C60.5991 21.9753 61.2635 21.397 61.9702 20.7136C62.6769 20.0039 63.3411 19.2679 63.963 18.5057C64.5849 17.7171 65.0938 17.0074 65.4895 16.3766C65.9135 15.7195 66.1256 15.2201 66.1256 14.8784C66.1256 14.5892 66.0266 14.3921 65.8287 14.287C65.6591 14.1818 65.433 14.1293 65.1503 14.1293C64.698 14.1293 64.2033 14.287 63.6662 14.6024C63.1574 14.8915 62.7475 15.1807 62.4366 15.4698C62.0973 15.7589 61.6875 16.2189 61.2069 16.8497C60.7546 17.4543 60.3023 18.1245 59.85 18.8605C59.3978 19.5965 59.0161 20.3062 58.7052 20.9896C58.3942 21.673 58.2388 22.225 58.2388 22.6455C58.2388 22.961 58.3518 23.1187 58.578 23.1187Z" stroke="#2D8DF4" stroke-width="2" stroke-linejoin="round"/>
<path d="M42.0849 24.6957C40.9259 24.6957 40.1202 24.4855 39.6679 24.0649C39.2157 23.6443 38.9895 23.1318 38.9895 22.5272C38.9895 21.765 39.2015 20.9502 39.6255 20.0828C40.0778 19.2154 40.5019 18.4794 40.8976 17.8748C41.3499 17.244 41.9577 16.5869 42.7209 15.9035C43.4841 15.2201 44.318 14.6418 45.2226 14.1687C46.1272 13.6956 47.0035 13.459 47.8516 13.459C48.5865 13.459 49.0954 13.6298 49.378 13.9715C49.6607 14.287 49.8021 14.6681 49.8021 15.1149C49.8021 15.9298 49.5335 16.6 48.9964 17.1257C48.4876 17.6514 47.8516 18.0851 47.0883 18.4268C46.3251 18.7422 45.5901 19.0051 44.8834 19.2154C44.4594 19.3205 43.9647 19.4256 43.3993 19.5308C42.834 19.6359 42.2969 19.6885 41.7881 19.6885C41.5902 20.1616 41.4347 20.6216 41.3216 21.0684C41.2086 21.5153 41.152 21.9227 41.152 22.2907C41.152 22.7375 41.2651 23.1055 41.4912 23.3946C41.7457 23.6838 42.1555 23.8283 42.7209 23.8283C42.947 23.8283 43.2156 23.8021 43.5265 23.7495C43.8375 23.6969 44.1767 23.6181 44.5442 23.5129C45.3922 23.2501 46.2261 22.8295 47.0459 22.2513C47.8657 21.673 48.6148 21.0553 49.2932 20.3982C49.9999 19.7148 50.537 19.1497 50.9045 18.7028C50.9893 18.7817 51.0317 18.8737 51.0317 18.9788C51.0317 19.1102 50.9328 19.3205 50.7349 19.6096C50.1695 20.3456 49.4346 21.1079 48.53 21.8964C47.6254 22.685 46.6219 23.3552 45.5194 23.9072C44.417 24.4329 43.2721 24.6957 42.0849 24.6957ZM42.1273 18.8999C42.4948 18.9262 42.9046 18.9262 43.3569 18.8999C43.8375 18.8474 44.3039 18.7554 44.7562 18.624C45.9152 18.3085 46.7491 17.8091 47.2579 17.1257C47.795 16.416 48.0636 15.7852 48.0636 15.2332C48.0636 14.9178 47.9929 14.6549 47.8516 14.4447C47.7102 14.2344 47.4841 14.1293 47.1731 14.1293C46.3534 14.1293 45.6184 14.4184 44.9682 14.9967C44.318 15.5486 43.7527 16.1926 43.2721 16.9286C42.7916 17.6646 42.41 18.3217 42.1273 18.8999Z" stroke="#2D8DF4" stroke-width="2" stroke-linejoin="round"/>
<path d="M12.1659 26.3123C11.9397 26.3123 11.756 26.2728 11.6146 26.194C11.4733 26.1414 11.4168 26.01 11.445 25.7997C11.445 25.7209 11.4874 25.6026 11.5722 25.4449C11.6571 25.2872 11.7136 25.1689 11.7419 25.09C11.8832 24.722 12.0104 24.354 12.1235 23.9861C12.2365 23.5918 12.3496 23.2238 12.4627 22.8821C12.8584 21.4364 13.2259 20.0039 13.5651 18.5845C13.9044 17.1389 14.1729 15.6932 14.3708 14.2475C14.4273 13.8796 14.4697 13.459 14.498 12.9859C14.5263 12.4865 14.5404 11.9608 14.5404 11.4088C14.5404 10.1471 14.3991 8.80659 14.1164 7.38721C13.8337 5.96783 13.2825 4.8113 12.4627 3.91761H9.24013C8.81611 3.91761 8.22248 3.9439 7.45924 3.99647C6.72427 4.04904 5.96103 4.16732 5.16953 4.35131C4.40629 4.53531 3.77026 4.83758 3.26143 5.25814C2.75261 5.67869 2.52647 6.24382 2.583 6.95351C2.61127 7.16379 2.69607 7.45292 2.83741 7.82091C2.97875 8.16261 3.07769 8.37289 3.13422 8.45174L2.6678 8.76716C2.4982 8.47803 2.28619 8.14947 2.03177 7.78148C1.77736 7.38721 1.55121 7.00608 1.35334 6.63809C1.15546 6.2701 1.04239 5.99411 1.01412 5.81012C0.98585 5.54727 0.999987 5.20557 1.05652 4.78501C1.11306 4.36446 1.33921 3.99647 1.73496 3.68105C2.15898 3.33935 2.73847 3.11593 3.47344 3.01079C4.23668 2.90565 5.01405 2.85308 5.80556 2.85308C6.5688 2.85308 7.30377 2.87936 8.01047 2.93193C8.71717 2.9845 9.29667 3.01079 9.74896 3.01079C9.74896 3.01079 10.074 3.01079 10.7242 3.01079C11.3744 3.01079 12.1941 3.01079 13.1835 3.01079C14.2012 2.9845 15.2754 2.97136 16.4061 2.97136C17.5368 2.97136 18.5686 2.97136 19.5014 2.97136L18.611 3.99647C17.763 3.99647 16.9149 3.99647 16.0669 3.99647C15.2471 3.97018 14.4132 3.95704 13.5651 3.95704C14.4697 4.50902 15.134 5.23185 15.558 6.12554C16.0103 7.01922 16.3072 7.95233 16.4485 8.92487C16.5898 9.8974 16.6605 10.8042 16.6605 11.6453C16.6605 11.987 16.6464 12.3156 16.6181 12.631C16.6181 12.9464 16.6181 13.2224 16.6181 13.459C16.5616 14.6944 16.3778 16.1795 16.0669 17.9143C15.7559 19.6491 15.3602 21.2919 14.8796 22.8427C15.8125 21.6336 16.8584 20.201 18.0174 18.5451C19.2046 16.8629 20.5332 15.1018 22.0032 13.2619C23.5014 11.3956 25.1268 9.59513 26.8794 7.86033C27.5861 7.17693 28.3352 6.48038 29.1267 5.77069C29.9182 5.061 30.7663 4.46959 31.6709 3.99647C32.5754 3.52334 33.5507 3.28678 34.5966 3.28678C35.5012 3.28678 36.1937 3.4182 36.6743 3.68105L36.4199 4.11475C36.3068 4.08846 36.1937 4.07532 36.0807 4.07532C35.9959 4.04904 35.8828 4.03589 35.7415 4.03589C34.9499 4.03589 34.1019 4.25932 33.1973 4.70616C32.321 5.153 31.6426 5.59984 31.162 6.04668C30.2857 6.86151 29.6073 7.83405 29.1267 8.96429C28.6462 10.0683 28.2928 11.2511 28.0667 12.5127C27.8688 13.7481 27.7133 15.0098 27.6003 16.2978C27.4872 17.5594 27.3741 18.7554 27.261 19.8856C27.1762 21.0159 27.0066 22.0016 26.7522 22.8427C27.9112 21.3181 29.3387 19.5045 31.0348 17.4017C32.7592 15.2989 34.7238 13.1173 36.9287 10.8568C39.1336 8.57002 41.5505 6.40153 44.1795 4.35131C44.7166 3.93076 45.4091 3.45763 46.2572 2.93193C47.1335 2.40624 48.0522 1.9594 49.0133 1.59141C50.0027 1.19714 50.9356 1 51.8119 1C52.6316 1 53.197 1.13142 53.5079 1.39427C53.8472 1.65712 54.0168 1.99882 54.0168 2.41938C54.0168 2.91879 53.8472 3.47077 53.5079 4.07532C53.197 4.67987 52.9567 5.17928 52.7871 5.57356C52.7588 5.65241 52.6316 5.70498 52.4055 5.73126C52.1793 5.75755 52.0804 5.71812 52.1087 5.61298C52.1652 5.4027 52.2218 5.153 52.2783 4.86387C52.3631 4.54845 52.4055 4.23303 52.4055 3.91761C52.4055 3.49706 52.3207 3.11593 52.1511 2.77422C51.9815 2.43252 51.6564 2.23539 51.1758 2.18282C51.091 2.15653 51.0062 2.14339 50.9214 2.14339C50.8366 2.14339 50.7518 2.14339 50.667 2.14339C49.8755 2.14339 49.0133 2.40624 48.0805 2.93193C47.1476 3.43134 46.0734 4.14103 44.8579 5.061C42.4834 6.82208 40.2078 8.76716 38.0312 10.8962C35.8545 12.999 33.791 15.2069 31.8405 17.52C30.8228 18.7028 29.8334 19.8988 28.8723 21.1079C27.9112 22.317 27.0208 23.5786 26.201 24.8929C26.1444 24.998 26.0879 25.1163 26.0314 25.2477C26.0031 25.4054 25.9607 25.5237 25.9042 25.6026C25.8476 25.6551 25.678 25.734 25.3953 25.8391C25.1127 25.9706 24.83 26.0757 24.5473 26.1546C24.2929 26.2597 24.1233 26.3123 24.0385 26.3123C23.8123 26.3123 23.6286 26.2728 23.4872 26.194C23.3459 26.1414 23.2894 26.01 23.3176 25.7997C23.3176 25.7209 23.36 25.6026 23.4448 25.4449C23.5296 25.2872 23.5862 25.1689 23.6145 25.09C23.7558 24.722 23.883 24.354 23.9961 23.9861C24.1091 23.5918 24.2222 23.2238 24.3353 22.8821C24.6745 21.7256 24.9148 20.5033 25.0561 19.2154C25.2257 17.9274 25.3812 16.6395 25.5225 15.3515C25.6922 14.0373 25.9466 12.7756 26.2858 11.5665C26.625 10.3574 27.148 9.26657 27.8547 8.29403C27.2893 8.60945 26.4837 9.38485 25.4377 10.6202C24.3918 11.8293 23.1198 13.3013 21.6215 15.0361C21.1127 15.6143 20.5474 16.3372 19.9255 17.2046C19.3036 18.0457 18.6675 18.9394 18.0174 19.8856C17.3955 20.8056 16.7877 21.7124 16.1941 22.6061C15.6287 23.4735 15.1482 24.2358 14.7524 24.8929C14.6959 24.998 14.6393 25.1163 14.5828 25.2477C14.5545 25.4054 14.5121 25.5237 14.4556 25.6026C14.3991 25.6551 14.187 25.734 13.8196 25.8391C13.4803 25.9706 13.1411 26.0757 12.8019 26.1546C12.4627 26.2597 12.2507 26.3123 12.1659 26.3123Z" stroke="#2D8DF4" stroke-width="2" stroke-linejoin="round"/>
</svg>
