<svg width="121" height="41" viewBox="0 0 121 41" fill="none" xmlns="http://www.w3.org/2000/svg">
<path d="M39.65 7.25C38.7833 7.61667 37.9167 8 37.05 8.4C36.1833 8.76667 35.3 9.1 34.4 9.4C32.5 10.1 30.5667 10.7833 28.6 11.45C26.6667 12.0833 24.7333 12.7 22.8 13.3C21.0333 13.8667 19.2833 14.4167 17.55 14.95C15.8167 15.4833 14.05 16 12.25 16.5C10.75 16.8333 9.26668 17.1667 7.80001 17.5C6.33335 17.8333 4.85001 18.1667 3.35001 18.5C3.01668 18.6 2.68335 18.6667 2.35001 18.7C2.05001 18.7 1.71668 18.7 1.35001 18.7C1.08335 18.7667 0.833346 18.7333 0.600012 18.6C0.366679 18.4667 0.166679 18.1833 1.21966e-05 17.75C0.166679 17.6833 0.316679 17.6 0.450012 17.5C0.550012 17.3667 0.683346 17.3 0.850012 17.3C4.25001 16.8333 7.58335 16.1333 10.85 15.2C14.1167 14.2333 17.3833 13.2167 20.65 12.15C22.95 11.4833 25.2333 10.7667 27.5 10C29.8 9.23334 32.1 8.45 34.4 7.65001C35.2667 7.31667 36.15 6.95001 37.05 6.55C37.95 6.15 38.8333 5.75 39.7 5.35001C39.8667 5.25 40.05 5.18334 40.25 5.15C40.45 5.08334 40.65 5.03334 40.85 5C41.3167 4.93334 41.6333 5.06667 41.8 5.4C42 5.7 42 6.1 41.8 6.6C41.7333 6.96667 41.6333 7.30001 41.5 7.60001C41.3667 7.86667 41.2333 8.16667 41.1 8.5C40.2333 10.1 39.3667 11.7167 38.5 13.35C37.6333 14.95 36.7667 16.5667 35.9 18.2C34.8667 20.3 33.8333 22.4167 32.8 24.55C31.7667 26.65 30.75 28.75 29.75 30.85C29.3167 31.75 28.9167 32.6667 28.55 33.6C28.1833 34.5333 27.7833 35.45 27.35 36.35C27.2833 36.5833 27.2333 36.8 27.2 37C27.1667 37.1667 27.1167 37.3333 27.05 37.5C27.0833 37.5667 27.1167 37.6 27.15 37.6C27.2167 37.6 27.25 37.6333 27.25 37.7C27.4167 37.5667 27.6 37.4333 27.8 37.3C28 37.1333 28.1833 36.9667 28.35 36.8C29.3167 35.7333 30.2667 34.6833 31.2 33.65C32.1667 32.5833 33.0833 31.5167 33.95 30.45C35.9167 27.9833 37.85 25.5167 39.75 23.05C41.65 20.5833 43.5667 18.1 45.5 15.6C46.4667 14.4 47.4333 13.2167 48.4 12.05C49.4 10.85 50.3833 9.65 51.35 8.45C51.75 8.01667 52.1 7.68334 52.4 7.45C52.9333 7.01667 53.3667 6.91667 53.7 7.15001C54.0667 7.38334 54.2834 7.88334 54.35 8.65C54.35 8.98334 54.3167 9.31667 54.25 9.65C54.2167 9.98334 54.1667 10.3167 54.1 10.65C53.8333 12.4833 53.55 14.2833 53.25 16.05C52.95 17.8167 52.6333 19.6 52.3 21.4C51.8333 24.2667 51.4333 27.1167 51.1 29.95C50.9667 30.2833 50.9833 30.6167 51.15 30.95C51.25 30.75 51.3667 30.5333 51.5 30.3C51.6333 30.0667 51.7667 29.8333 51.9 29.6C53 27.6 54.0833 25.6167 55.15 23.65C56.25 21.6833 57.3667 19.7167 58.5 17.75C59.9 15.35 61.3334 13.05 62.8 10.85C64.3 8.61667 65.9167 6.46667 67.65 4.40001C68.1833 3.76667 68.7167 3.15001 69.25 2.55001C69.7833 1.91667 70.3333 1.31667 70.9 0.750005C71.2 0.350004 71.6 0.100004 72.1 5.36442e-06C72.2 5.36442e-06 72.3167 0.0166718 72.45 0.0500047C72.5833 0.0833376 72.6833 0.150004 72.75 0.250005C72.8167 0.583338 72.8167 0.883338 72.75 1.15001C72.6167 1.31667 72.4833 1.5 72.35 1.7C72.25 1.86667 72.1167 2.05 71.95 2.25C71.3167 2.91667 70.6667 3.6 70 4.3C69.3667 4.96667 68.75 5.68334 68.15 6.45001C66.55 8.38334 65.0333 10.4333 63.6 12.6C62.2 14.7667 60.85 17 59.55 19.3C58.3167 21.4 57.1 23.55 55.9 25.75C54.7 27.9167 53.4833 30.1 52.25 32.3C52.05 32.6667 51.8333 33.05 51.6 33.45C51.3667 33.8167 51.1167 34.1833 50.85 34.55C50.4833 35.15 50.05 35.35 49.55 35.15C49.2833 34.9833 49.1167 34.75 49.05 34.45C48.9833 34.15 48.9667 33.85 49 33.55C49.1 32.75 49.2 31.9667 49.3 31.2C49.4 30.4333 49.5167 29.6333 49.65 28.8C50.15 25.7667 50.6333 22.7667 51.1 19.8C51.6 16.8 52.0833 13.8 52.55 10.8C52.5833 10.6333 52.6 10.4667 52.6 10.3C52.6 10.1333 52.6167 9.9 52.65 9.6C52.4167 9.80001 52.2167 9.98334 52.05 10.15C51.8833 10.3167 51.7333 10.4833 51.6 10.65C50.6667 11.8167 49.7167 13 48.75 14.2C47.8167 15.4 46.8667 16.6 45.9 17.8C43.6 20.8 41.3 23.7833 39 26.75C36.7333 29.7167 34.3833 32.5833 31.95 35.35C30.8167 36.6833 29.65 37.9 28.45 39C28.2167 39.2333 27.9667 39.4167 27.7 39.55C27.4333 39.6833 27.15 39.8333 26.85 40C26.3833 40.1333 25.9833 40.0333 25.65 39.7C25.35 39.4 25.2333 38.95 25.3 38.35C25.3333 38.0167 25.3833 37.6833 25.45 37.35C25.55 37.0167 25.65 36.6833 25.75 36.35C26.2833 35.15 26.8 33.9333 27.3 32.7C27.8 31.4333 28.3333 30.1833 28.9 28.95C30.5 25.5167 32.15 22.15 33.85 18.85C35.55 15.5167 37.2833 12.1833 39.05 8.85C39.2167 8.65001 39.35 8.43334 39.45 8.2C39.55 7.96667 39.6667 7.71667 39.8 7.45C39.7333 7.38334 39.6833 7.31667 39.65 7.25ZM73.65 20.25C73.8167 20.1833 73.9667 20.1333 74.1 20.1C74.2333 20.0333 74.3833 19.9667 74.55 19.9C74.95 19.8333 75.2333 19.95 75.4 20.25C75.5667 20.65 75.4667 20.9333 75.1 21.1C73.8667 21.7333 72.5833 22.2167 71.25 22.55C69.9167 22.8833 68.5833 23.0833 67.25 23.15C66.7833 23.1833 66.2833 23.1833 65.75 23.15C65.25 23.1167 64.7833 23 64.35 22.8C63.95 22.6 63.65 22.3167 63.45 21.95C63.25 21.55 63.2333 21.0167 63.4 20.35C63.6333 19.6833 63.85 19.2167 64.05 18.95C64.25 18.6833 64.6333 18.4 65.2 18.1C65.8 17.8333 66.4167 17.65 67.05 17.55C67.7167 17.4167 68.35 17.35 68.95 17.35C69.5167 17.4167 69.85 17.7 69.95 18.2C70.05 18.7333 69.8667 19.1333 69.4 19.4C69.0667 19.6 68.7167 19.7833 68.35 19.95C67.9833 20.0833 67.6 20.2167 67.2 20.35C66.9 20.4167 66.5833 20.4667 66.25 20.5C65.9167 20.5333 65.5833 20.55 65.25 20.55C64.75 20.55 64.4667 20.6667 64.4 20.9C64.3667 21.1 64.4667 21.3167 64.7 21.55C65.0333 21.8833 65.6167 22.0667 66.45 22.1C67.2833 22.1 68.1667 22.0333 69.1 21.9C70.0667 21.7333 70.9667 21.5 71.8 21.2C72.6667 20.9 73.2833 20.5833 73.65 20.25ZM68.6 18.8C68.8333 18.5 68.8333 18.35 68.6 18.35C68.4 18.3167 68.0833 18.3667 67.65 18.5C67.25 18.6333 66.7833 18.8333 66.25 19.1C65.7167 19.3667 65.25 19.6333 64.85 19.9C65.35 19.9667 66 19.9 66.8 19.7C67.6 19.4667 68.2 19.1667 68.6 18.8ZM82.8434 3.6L82.9934 3.45001C83.0934 3.28334 83.21 3.18334 83.3434 3.15C83.4767 3.11667 83.5934 3.13334 83.6934 3.20001C83.8267 3.23334 83.9267 3.31667 83.9934 3.45001C84.06 3.58334 84.06 3.71667 83.9934 3.85C83.76 4.41667 83.51 4.96667 83.2434 5.5C82.9767 6 82.71 6.51667 82.4434 7.05C82.11 7.51667 81.8267 7.6 81.5934 7.3C81.36 7 81.3267 6.63334 81.4934 6.20001L82.8434 3.6ZM97.8578 20.9C97.4912 21.2667 96.9245 21.65 96.1578 22.05C95.4245 22.45 94.6745 22.7333 93.9078 22.9C93.1745 23.0667 92.5245 23.05 91.9578 22.85C91.3912 22.65 91.1078 22.1167 91.1078 21.25C91.1078 20.9833 91.1245 20.7167 91.1578 20.45C91.1912 20.15 91.2412 19.8333 91.3078 19.5C90.4412 20.0333 89.5912 20.5667 88.7578 21.1C87.9578 21.6 87.1245 22.0833 86.2578 22.55C86.0578 22.7167 85.8245 22.8167 85.5578 22.85C85.3245 22.8833 85.0912 22.9167 84.8578 22.95C84.1245 23.05 83.6078 22.8333 83.3078 22.3C83.0078 21.7667 83.0578 21.2167 83.4578 20.65C83.6245 20.45 83.7745 20.2667 83.9078 20.1C84.0412 19.9333 84.2078 19.7667 84.4078 19.6C85.2745 18.8333 86.2245 18.2667 87.2578 17.9C88.2912 17.5333 89.4078 17.4 90.6078 17.5C91.0412 17.5667 91.3912 17.4333 91.6578 17.1C91.8912 16.8667 92.1078 16.6333 92.3078 16.4C92.5412 16.1667 92.7745 15.9333 93.0078 15.7C93.0745 15.6 93.1578 15.5 93.2578 15.4C93.3578 15.3 93.4578 15.2333 93.5578 15.2C93.6578 15.1667 93.7745 15.15 93.9078 15.15C94.0745 15.15 94.2078 15.1833 94.3078 15.25C94.4745 15.4833 94.5412 15.7333 94.5078 16C94.4745 16.2667 94.3412 16.6 94.1078 17C94.0078 17.2 93.8078 17.6167 93.5078 18.25C93.2078 18.85 92.9745 19.45 92.8078 20.05C92.6745 20.65 92.6745 21.15 92.8078 21.55C92.9412 21.9167 93.3912 21.9833 94.1578 21.75C94.5578 21.65 94.9912 21.4833 95.4578 21.25C95.9245 20.9833 96.3912 20.7333 96.8578 20.5C96.9912 20.4333 97.1245 20.3667 97.2578 20.3C97.3912 20.2 97.5412 20.1667 97.7078 20.2C97.8745 20.2667 97.9912 20.3833 98.0578 20.55C98.1578 20.6833 98.0912 20.8 97.8578 20.9ZM84.7078 21.5C85.6745 21.3333 86.6912 20.9667 87.7578 20.4C88.8245 19.8 89.6912 19.1667 90.3578 18.5C89.3578 18.5667 88.3078 18.8667 87.2078 19.4C86.1078 19.9333 85.2745 20.6333 84.7078 21.5ZM105.891 21.85C105.491 21.8167 105.175 21.7167 104.941 21.55C104.708 21.3833 104.508 21.1667 104.341 20.9C104.208 20.6333 104.091 20.35 103.991 20.05C103.925 19.75 103.858 19.45 103.791 19.15C103.591 18.6833 103.308 18.45 102.941 18.45C102.575 18.45 102.191 18.5667 101.791 18.8C101.425 19 101.075 19.2667 100.741 19.6C100.408 19.9333 100.141 20.1833 99.9414 20.35C98.7748 21.3167 97.8748 22.4 97.2414 23.6C97.1414 23.8667 96.9914 24.0833 96.7914 24.25C96.5581 24.4167 96.3414 24.5333 96.1414 24.6C95.9414 24.6333 95.7748 24.6 95.6414 24.5C95.4748 24.4 95.3914 24.2 95.3914 23.9C95.3914 23.7333 95.4248 23.6 95.4914 23.5C95.5581 23.4 95.6248 23.2833 95.6914 23.15C96.3248 22.0167 96.9414 20.8833 97.5414 19.75C98.1414 18.6167 98.7581 17.4833 99.3914 16.35C99.5581 16.0167 99.7748 15.7167 100.041 15.45C100.108 15.3833 100.191 15.3333 100.291 15.3C100.425 15.2667 100.525 15.2833 100.591 15.35C100.825 15.4833 100.908 15.6667 100.841 15.9C100.841 16.1333 100.775 16.4167 100.641 16.75C100.408 17.1833 100.191 17.6167 99.9914 18.05C99.7914 18.4833 99.6081 18.9333 99.4414 19.4C99.7081 19.2 99.8748 19.0667 99.9414 19C100.275 18.7333 100.575 18.4833 100.841 18.25C101.141 17.9833 101.441 17.75 101.741 17.55C102.141 17.2167 102.591 17.0167 103.091 16.95C104.091 16.7167 104.741 17.0833 105.041 18.05C105.108 18.3167 105.158 18.5667 105.191 18.8C105.225 19.0333 105.275 19.2667 105.341 19.5C105.408 19.8667 105.525 20.1167 105.691 20.25C105.858 20.35 106.141 20.3833 106.541 20.35C106.708 20.35 106.875 20.35 107.041 20.35C107.241 20.3167 107.425 20.3 107.591 20.3C108.058 20.2667 108.375 20.3333 108.541 20.5C108.708 20.6667 108.725 20.8667 108.591 21.1C108.458 21.3 108.158 21.4833 107.691 21.65C107.258 21.8167 106.658 21.8833 105.891 21.85ZM118.084 20.25C118.25 20.1833 118.4 20.1333 118.534 20.1C118.667 20.0333 118.817 19.9667 118.984 19.9C119.384 19.8333 119.667 19.95 119.834 20.25C120 20.65 119.9 20.9333 119.534 21.1C118.3 21.7333 117.017 22.2167 115.684 22.55C114.35 22.8833 113.017 23.0833 111.684 23.15C111.217 23.1833 110.717 23.1833 110.184 23.15C109.684 23.1167 109.217 23 108.784 22.8C108.384 22.6 108.084 22.3167 107.884 21.95C107.684 21.55 107.667 21.0167 107.834 20.35C108.067 19.6833 108.284 19.2167 108.484 18.95C108.684 18.6833 109.067 18.4 109.634 18.1C110.234 17.8333 110.85 17.65 111.484 17.55C112.15 17.4167 112.784 17.35 113.384 17.35C113.95 17.4167 114.284 17.7 114.384 18.2C114.484 18.7333 114.3 19.1333 113.834 19.4C113.5 19.6 113.15 19.7833 112.784 19.95C112.417 20.0833 112.034 20.2167 111.634 20.35C111.334 20.4167 111.017 20.4667 110.684 20.5C110.35 20.5333 110.017 20.55 109.684 20.55C109.184 20.55 108.9 20.6667 108.834 20.9C108.8 21.1 108.9 21.3167 109.134 21.55C109.467 21.8833 110.05 22.0667 110.884 22.1C111.717 22.1 112.6 22.0333 113.534 21.9C114.5 21.7333 115.4 21.5 116.234 21.2C117.1 20.9 117.717 20.5833 118.084 20.25ZM113.034 18.8C113.267 18.5 113.267 18.35 113.034 18.35C112.834 18.3167 112.517 18.3667 112.084 18.5C111.684 18.6333 111.217 18.8333 110.684 19.1C110.15 19.3667 109.684 19.6333 109.284 19.9C109.784 19.9667 110.434 19.9 111.234 19.7C112.034 19.4667 112.634 19.1667 113.034 18.8Z" fill="#C21F2D"/>
</svg>
