<svg width="185" height="39" viewBox="0 0 185 39" fill="none" xmlns="http://www.w3.org/2000/svg">
<path d="M38.064 6.96003C37.232 7.31203 36.4 7.68003 35.568 8.06403C34.736 8.41603 33.888 8.73603 33.024 9.02403C31.2 9.69603 29.344 10.352 27.456 10.992C25.6 11.6 23.744 12.192 21.888 12.768C20.192 13.312 18.512 13.84 16.848 14.352C15.184 14.864 13.488 15.36 11.76 15.84C10.32 16.16 8.89601 16.48 7.48801 16.8C6.08001 17.12 4.65601 17.44 3.21601 17.76C2.89601 17.856 2.57601 17.92 2.25601 17.952C1.96801 17.952 1.64801 17.952 1.29601 17.952C1.04001 18.016 0.800008 17.984 0.576008 17.856C0.352008 17.728 0.160008 17.456 8.04663e-06 17.04C0.160008 16.976 0.304008 16.896 0.432008 16.8C0.528008 16.672 0.656008 16.608 0.816008 16.608C4.08001 16.16 7.28001 15.488 10.416 14.592C13.552 13.664 16.688 12.688 19.824 11.664C22.032 11.024 24.224 10.336 26.4 9.60003C28.608 8.86403 30.816 8.11203 33.024 7.34403C33.856 7.02403 34.704 6.67203 35.568 6.28803C36.432 5.90403 37.28 5.52003 38.112 5.13603C38.272 5.04003 38.448 4.97603 38.64 4.94403C38.832 4.88003 39.024 4.83203 39.216 4.80003C39.664 4.73603 39.968 4.86403 40.128 5.18403C40.32 5.47203 40.32 5.85603 40.128 6.33603C40.064 6.68803 39.968 7.00803 39.84 7.29603C39.712 7.55203 39.584 7.84003 39.456 8.16003C38.624 9.69603 37.792 11.248 36.96 12.816C36.128 14.352 35.296 15.904 34.464 17.472C33.472 19.488 32.48 21.52 31.488 23.568C30.496 25.584 29.52 27.6 28.56 29.616C28.144 30.48 27.76 31.36 27.408 32.256C27.056 33.152 26.672 34.032 26.256 34.896C26.192 35.12 26.144 35.328 26.112 35.52C26.08 35.68 26.032 35.84 25.968 36C26 36.064 26.032 36.096 26.064 36.096C26.128 36.096 26.16 36.128 26.16 36.192C26.32 36.064 26.496 35.936 26.688 35.808C26.88 35.648 27.056 35.488 27.216 35.328C28.144 34.304 29.056 33.296 29.952 32.304C30.88 31.28 31.76 30.256 32.592 29.232C34.48 26.864 36.336 24.496 38.16 22.128C39.984 19.76 41.824 17.376 43.68 14.976C44.608 13.824 45.536 12.688 46.464 11.568C47.424 10.416 48.368 9.26403 49.296 8.11203C49.68 7.69603 50.016 7.37603 50.304 7.15203C50.816 6.73603 51.232 6.64003 51.552 6.86403C51.904 7.08803 52.112 7.56803 52.176 8.30403C52.176 8.62403 52.144 8.94403 52.08 9.26403C52.048 9.58403 52 9.90403 51.936 10.224C51.68 11.984 51.408 13.712 51.12 15.408C50.832 17.104 50.528 18.816 50.208 20.544C49.76 23.296 49.376 26.032 49.056 28.752C48.928 29.072 48.944 29.392 49.104 29.712C49.2 29.52 49.312 29.312 49.44 29.088C49.568 28.864 49.696 28.64 49.824 28.416C50.88 26.496 51.92 24.592 52.944 22.704C54 20.816 55.072 18.928 56.16 17.04C57.504 14.736 58.88 12.528 60.288 10.416C61.728 8.27203 63.28 6.20803 64.944 4.22403C65.456 3.61603 65.968 3.02403 66.48 2.44803C66.992 1.84003 67.52 1.26403 68.064 0.720029C68.352 0.336028 68.736 0.0960283 69.216 2.95639e-05C69.312 2.95639e-05 69.424 0.0160294 69.552 0.0480289C69.68 0.0800285 69.776 0.144029 69.84 0.240029C69.904 0.560029 69.904 0.848029 69.84 1.10403C69.712 1.26403 69.584 1.44003 69.456 1.63203C69.36 1.79203 69.232 1.96803 69.072 2.16003C68.464 2.80003 67.84 3.45603 67.2 4.12803C66.592 4.76803 66 5.45603 65.424 6.19203C63.888 8.04803 62.432 10.016 61.056 12.096C59.712 14.176 58.416 16.32 57.168 18.528C55.984 20.544 54.816 22.608 53.664 24.72C52.512 26.8 51.344 28.896 50.16 31.008C49.968 31.36 49.76 31.728 49.536 32.112C49.312 32.464 49.072 32.816 48.816 33.168C48.464 33.744 48.048 33.936 47.568 33.744C47.312 33.584 47.152 33.36 47.088 33.072C47.024 32.784 47.008 32.496 47.04 32.208C47.136 31.44 47.232 30.688 47.328 29.952C47.424 29.216 47.536 28.448 47.664 27.648C48.144 24.736 48.608 21.856 49.056 19.008C49.536 16.128 50 13.248 50.448 10.368C50.48 10.208 50.496 10.048 50.496 9.88803C50.496 9.72803 50.512 9.50403 50.544 9.21603C50.32 9.40803 50.128 9.58403 49.968 9.74403C49.808 9.90403 49.664 10.064 49.536 10.224C48.64 11.344 47.728 12.48 46.8 13.632C45.904 14.784 44.992 15.936 44.064 17.088C41.856 19.968 39.648 22.832 37.44 25.68C35.264 28.528 33.008 31.28 30.672 33.936C29.584 35.216 28.464 36.384 27.312 37.44C27.088 37.664 26.848 37.84 26.592 37.968C26.336 38.096 26.064 38.24 25.776 38.4C25.328 38.528 24.944 38.432 24.624 38.112C24.336 37.824 24.224 37.392 24.288 36.816C24.32 36.496 24.368 36.176 24.432 35.856C24.528 35.536 24.624 35.216 24.72 34.896C25.232 33.744 25.728 32.576 26.208 31.392C26.688 30.176 27.2 28.976 27.744 27.792C29.28 24.496 30.864 21.264 32.496 18.096C34.128 14.896 35.792 11.696 37.488 8.49603C37.648 8.30403 37.776 8.09603 37.872 7.87203C37.968 7.64803 38.08 7.40803 38.208 7.15203C38.144 7.08803 38.096 7.02403 38.064 6.96003ZM70.704 19.44C70.864 19.376 71.008 19.328 71.136 19.296C71.264 19.232 71.408 19.168 71.568 19.104C71.952 19.04 72.224 19.152 72.384 19.44C72.544 19.824 72.448 20.096 72.096 20.256C70.912 20.864 69.68 21.328 68.4 21.648C67.12 21.968 65.84 22.16 64.56 22.224C64.112 22.256 63.632 22.256 63.12 22.224C62.64 22.192 62.192 22.08 61.776 21.888C61.392 21.696 61.104 21.424 60.912 21.072C60.72 20.688 60.704 20.176 60.864 19.536C61.088 18.896 61.296 18.448 61.488 18.192C61.68 17.936 62.048 17.664 62.592 17.376C63.168 17.12 63.76 16.944 64.368 16.848C65.008 16.72 65.616 16.656 66.192 16.656C66.736 16.72 67.056 16.992 67.152 17.472C67.248 17.984 67.072 18.368 66.624 18.624C66.304 18.816 65.968 18.992 65.616 19.152C65.264 19.28 64.896 19.408 64.512 19.536C64.224 19.6 63.92 19.648 63.6 19.68C63.28 19.712 62.96 19.728 62.64 19.728C62.16 19.728 61.888 19.84 61.824 20.064C61.792 20.256 61.888 20.464 62.112 20.688C62.432 21.008 62.992 21.184 63.792 21.216C64.592 21.216 65.44 21.152 66.336 21.024C67.264 20.864 68.128 20.64 68.928 20.352C69.76 20.064 70.352 19.76 70.704 19.44ZM65.856 18.048C66.08 17.76 66.08 17.616 65.856 17.616C65.664 17.584 65.36 17.632 64.944 17.76C64.56 17.888 64.112 18.08 63.6 18.336C63.088 18.592 62.64 18.848 62.256 19.104C62.736 19.168 63.36 19.104 64.128 18.912C64.896 18.688 65.472 18.4 65.856 18.048ZM74.5376 27.888C74.8576 27.728 75.1136 27.616 75.3056 27.552C75.5296 27.488 75.7056 27.376 75.8336 27.216C76.4736 26.736 77.1136 26.24 77.7536 25.728C78.3936 25.216 79.0176 24.688 79.6256 24.144C80.3296 23.504 81.0816 22.848 81.8816 22.176C82.6816 21.472 83.4176 20.784 84.0896 20.112C84.4416 19.792 84.7456 19.584 85.0016 19.488C85.2896 19.36 85.4816 19.344 85.5776 19.44C85.7056 19.536 85.7056 19.712 85.5776 19.968C85.4816 20.224 85.2416 20.544 84.8576 20.928C83.5456 22.272 82.2176 23.584 80.8736 24.864C79.5616 26.112 78.1376 27.264 76.6016 28.32C76.3776 28.48 76.1376 28.624 75.8816 28.752C75.6576 28.88 75.4176 28.976 75.1616 29.04C74.6176 29.232 74.1376 29.184 73.7216 28.896C73.3376 28.608 73.1936 28.176 73.2896 27.6C73.3536 27.216 73.4336 26.848 73.5296 26.496C73.6256 26.112 73.7536 25.744 73.9136 25.392C74.3616 24.432 74.8256 23.456 75.3056 22.464C75.7856 21.472 76.2656 20.496 76.7456 19.536C76.8096 19.408 76.8576 19.296 76.8896 19.2C76.9216 19.104 76.9376 18.976 76.9376 18.816C76.7776 18.944 76.6336 19.056 76.5056 19.152C76.4096 19.248 76.2976 19.344 76.1696 19.44C75.1136 20.304 74.0736 21.104 73.0496 21.84C72.8896 21.904 72.7136 21.984 72.5216 22.08C72.3296 22.144 72.1376 22.192 71.9456 22.224C71.5296 22.288 71.1936 22.208 70.9376 21.984C70.6816 21.76 70.5696 21.456 70.6016 21.072C70.6336 20.848 70.6976 20.624 70.7936 20.4C70.8896 20.176 70.9856 19.952 71.0816 19.728C71.5296 19.152 72.0416 18.672 72.6176 18.288C73.2256 17.872 73.8816 17.536 74.5856 17.28C75.0976 17.056 75.5776 16.944 76.0256 16.944C76.4096 16.88 76.7456 16.768 77.0336 16.608C77.3536 16.416 77.6416 16.192 77.8976 15.936C78.8896 14.816 79.7856 13.664 80.5856 12.48C81.4176 11.264 82.2496 10.032 83.0816 8.78403C83.1456 8.68803 83.2096 8.57603 83.2736 8.44803C83.3376 8.32003 83.4176 8.20803 83.5136 8.11203C83.9936 7.50403 84.4096 7.29603 84.7616 7.48803C85.1776 7.71203 85.1776 8.20803 84.7616 8.97603C84.5376 9.26403 84.3136 9.56803 84.0896 9.88803C83.8976 10.208 83.7216 10.512 83.5616 10.8C82.1216 13.008 80.7456 15.216 79.4336 17.424C78.1536 19.6 76.9536 21.84 75.8336 24.144C75.5456 24.688 75.2896 25.248 75.0656 25.824C74.8416 26.4 74.6656 27.088 74.5376 27.888ZM72.1856 20.688C73.4656 20.176 74.3456 19.504 74.8256 18.672C74.2816 18.832 73.7696 19.088 73.2896 19.44C72.8096 19.76 72.4416 20.176 72.1856 20.688ZM88.1314 27.888C88.4514 27.728 88.7074 27.616 88.8994 27.552C89.1234 27.488 89.2994 27.376 89.4274 27.216C90.0674 26.736 90.7074 26.24 91.3474 25.728C91.9874 25.216 92.6114 24.688 93.2194 24.144C93.9234 23.504 94.6754 22.848 95.4754 22.176C96.2754 21.472 97.0114 20.784 97.6834 20.112C98.0354 19.792 98.3394 19.584 98.5954 19.488C98.8834 19.36 99.0754 19.344 99.1714 19.44C99.2994 19.536 99.2994 19.712 99.1714 19.968C99.0754 20.224 98.8354 20.544 98.4514 20.928C97.1394 22.272 95.8114 23.584 94.4674 24.864C93.1554 26.112 91.7314 27.264 90.1954 28.32C89.9714 28.48 89.7314 28.624 89.4754 28.752C89.2514 28.88 89.0114 28.976 88.7554 29.04C88.2114 29.232 87.7314 29.184 87.3154 28.896C86.9314 28.608 86.7874 28.176 86.8834 27.6C86.9474 27.216 87.0274 26.848 87.1234 26.496C87.2194 26.112 87.3474 25.744 87.5074 25.392C87.9554 24.432 88.4194 23.456 88.8994 22.464C89.3794 21.472 89.8594 20.496 90.3394 19.536C90.4034 19.408 90.4514 19.296 90.4834 19.2C90.5154 19.104 90.5314 18.976 90.5314 18.816C90.3714 18.944 90.2274 19.056 90.0994 19.152C90.0034 19.248 89.8914 19.344 89.7634 19.44C88.7074 20.304 87.6674 21.104 86.6434 21.84C86.4834 21.904 86.3074 21.984 86.1154 22.08C85.9234 22.144 85.7314 22.192 85.5394 22.224C85.1234 22.288 84.7874 22.208 84.5314 21.984C84.2754 21.76 84.1634 21.456 84.1954 21.072C84.2274 20.848 84.2914 20.624 84.3874 20.4C84.4834 20.176 84.5794 19.952 84.6754 19.728C85.1234 19.152 85.6354 18.672 86.2114 18.288C86.8194 17.872 87.4754 17.536 88.1794 17.28C88.6914 17.056 89.1714 16.944 89.6194 16.944C90.0034 16.88 90.3394 16.768 90.6274 16.608C90.9474 16.416 91.2354 16.192 91.4914 15.936C92.4834 14.816 93.3794 13.664 94.1794 12.48C95.0114 11.264 95.8434 10.032 96.6754 8.78403C96.7394 8.68803 96.8034 8.57603 96.8674 8.44803C96.9314 8.32003 97.0114 8.20803 97.1074 8.11203C97.5874 7.50403 98.0034 7.29603 98.3554 7.48803C98.7714 7.71203 98.7714 8.20803 98.3554 8.97603C98.1314 9.26403 97.9074 9.56803 97.6834 9.88803C97.4914 10.208 97.3154 10.512 97.1554 10.8C95.7154 13.008 94.3394 15.216 93.0274 17.424C91.7474 19.6 90.5474 21.84 89.4274 24.144C89.1394 24.688 88.8834 25.248 88.6594 25.824C88.4354 26.4 88.2594 27.088 88.1314 27.888ZM85.7794 20.688C87.0594 20.176 87.9394 19.504 88.4194 18.672C87.8754 18.832 87.3634 19.088 86.8834 19.44C86.4034 19.76 86.0354 20.176 85.7794 20.688ZM105.277 20.592C104.573 20.976 103.853 21.344 103.117 21.696C102.413 22.048 101.661 22.32 100.861 22.512C100.605 22.544 100.349 22.576 100.093 22.608C99.8371 22.608 99.5811 22.576 99.3251 22.512C98.8771 22.448 98.5571 22.24 98.3651 21.888C98.1411 21.536 98.0611 21.152 98.1251 20.736C98.1251 20.48 98.1571 20.208 98.2211 19.92C98.2531 19.632 98.3491 19.376 98.5091 19.152C98.8611 18.576 99.1811 17.936 99.4691 17.232C99.7891 16.528 100.157 15.904 100.573 15.36C100.733 15.168 100.925 15.072 101.149 15.072C101.373 15.04 101.565 15.104 101.725 15.264C101.917 15.392 102.029 15.6 102.061 15.888C102.093 16.144 101.981 16.432 101.725 16.752C101.405 17.264 101.085 17.76 100.765 18.24C100.445 18.72 100.125 19.232 99.8051 19.776C99.4851 20.448 99.3411 20.944 99.3731 21.264C99.4371 21.552 99.5971 21.728 99.8531 21.792C100.141 21.856 100.493 21.824 100.909 21.696C101.325 21.568 101.741 21.392 102.157 21.168C102.605 20.944 103.021 20.72 103.405 20.496C103.789 20.24 104.061 20.016 104.221 19.824C104.541 19.472 104.829 19.296 105.085 19.296C105.341 19.264 105.517 19.328 105.613 19.488C105.741 19.616 105.789 19.808 105.757 20.064C105.725 20.288 105.565 20.464 105.277 20.592ZM104.125 11.52C104.381 11.52 104.573 11.6 104.701 11.76C104.861 11.92 104.909 12.112 104.845 12.336C104.781 12.592 104.605 12.864 104.317 13.152C104.029 13.44 103.725 13.68 103.405 13.872C102.957 14.128 102.637 14.224 102.445 14.16C102.285 14.096 102.269 13.76 102.397 13.152C102.461 12.768 102.621 12.4 102.877 12.048C103.165 11.696 103.581 11.52 104.125 11.52ZM113.475 22.704C114.307 22.384 115.267 21.952 116.355 21.408C117.443 20.832 118.403 20.32 119.235 19.872C119.747 19.648 120.147 19.552 120.435 19.584C120.755 19.584 120.947 19.664 121.011 19.824C121.075 19.952 121.011 20.144 120.819 20.4C120.659 20.624 120.339 20.848 119.859 21.072C118.867 21.52 117.859 21.968 116.835 22.416C115.843 22.832 114.835 23.248 113.811 23.664C113.107 23.952 112.451 23.984 111.843 23.76C111.267 23.472 111.043 22.928 111.171 22.128C111.235 21.808 111.331 21.536 111.459 21.312C111.587 21.056 111.683 20.784 111.747 20.496C111.875 20.144 111.987 19.824 112.083 19.536C112.211 19.248 112.259 19.024 112.227 18.864C112.227 18.672 112.115 18.56 111.891 18.528C111.699 18.496 111.347 18.56 110.835 18.72C110.291 19.008 109.747 19.312 109.203 19.632C108.691 19.92 108.179 20.224 107.667 20.544C107.187 20.896 106.707 21.248 106.227 21.6C105.779 21.952 105.299 22.304 104.787 22.656C104.723 22.72 104.659 22.8 104.595 22.896C104.499 22.96 104.387 23.024 104.259 23.088C104.099 23.152 103.939 23.216 103.779 23.28C103.587 23.344 103.395 23.28 103.203 23.088C103.043 22.928 102.979 22.768 103.011 22.608C103.011 22.416 103.075 22.24 103.203 22.08C103.459 21.696 103.715 21.312 103.971 20.928C104.195 20.544 104.435 20.16 104.691 19.776C105.011 19.36 105.315 18.944 105.603 18.528C105.891 18.112 106.179 17.68 106.467 17.232C106.627 17.04 106.739 16.848 106.803 16.656C107.347 15.984 107.747 15.776 108.003 16.032C108.291 16.224 108.195 16.688 107.715 17.424C107.491 17.776 107.283 18.128 107.091 18.48C106.899 18.8 106.675 19.12 106.419 19.44C106.323 19.568 106.147 19.776 105.891 20.064C105.635 20.352 105.411 20.624 105.219 20.88C105.027 21.104 104.931 21.248 104.931 21.312C104.899 21.376 105.075 21.232 105.459 20.88C106.163 20.304 106.899 19.76 107.667 19.248C108.467 18.704 109.267 18.24 110.067 17.856C110.387 17.696 110.739 17.552 111.123 17.424C111.539 17.264 111.907 17.2 112.227 17.232C112.579 17.232 112.867 17.344 113.091 17.568C113.347 17.792 113.507 18.16 113.571 18.672C113.635 19.184 113.539 19.664 113.283 20.112C113.027 20.528 112.787 20.976 112.563 21.456C112.339 22.064 112.275 22.496 112.371 22.752C112.467 22.976 112.835 22.96 113.475 22.704ZM126.696 21.888C127.688 21.536 128.424 21.28 128.904 21.12C129.416 20.96 129.864 20.816 130.248 20.688C130.664 20.56 131.112 20.416 131.592 20.256C132.104 20.064 132.856 19.792 133.848 19.44C134.168 19.312 134.392 19.264 134.52 19.296C134.648 19.328 134.792 19.376 134.952 19.44C135.112 19.472 135.24 19.552 135.336 19.68C135.464 19.84 135.48 20 135.384 20.16C135.32 20.32 135.224 20.432 135.096 20.496C134.936 20.592 134.76 20.688 134.568 20.784C134.376 20.88 134.2 20.944 134.04 20.976C133.304 21.232 132.808 21.392 132.552 21.456C132.296 21.488 132.088 21.504 131.928 21.504C131.8 21.504 131.608 21.536 131.352 21.6C131.128 21.632 130.648 21.776 129.912 22.032C129.176 22.288 128.424 22.56 127.656 22.848C126.92 23.104 126.152 23.36 125.352 23.616C125.096 23.744 124.84 23.968 124.584 24.288C124.36 24.576 124.168 24.864 124.008 25.152C123.048 26.72 121.976 28.192 120.792 29.568C119.608 30.912 118.232 32.08 116.664 33.072C115.64 33.712 114.616 34.256 113.592 34.704C112.536 35.152 111.4 35.424 110.184 35.52C109.544 35.584 108.968 35.536 108.456 35.376C107.848 35.248 107.432 34.96 107.208 34.512C106.984 34.064 107.032 33.568 107.352 33.024C107.704 32.352 108.168 31.744 108.744 31.2C109.288 30.752 109.848 30.336 110.424 29.952C110.968 29.536 111.512 29.12 112.056 28.704C113.592 27.68 115.192 26.8 116.856 26.064C118.488 25.328 120.12 24.608 121.752 23.904C122.392 23.712 122.968 23.408 123.48 22.992C124.024 22.576 124.44 22.08 124.728 21.504C125.272 20.704 125.608 19.984 125.736 19.344C125.864 18.704 125.96 18.384 126.024 18.384C125.608 18.576 125.096 18.896 124.488 19.344C123.88 19.792 123.384 20.112 123 20.304C122.648 20.496 122.312 20.656 121.992 20.784C121.672 20.88 121.336 20.976 120.984 21.072C120.728 21.2 120.488 21.232 120.264 21.168C120.04 21.072 119.832 20.928 119.64 20.736C119.384 20.288 119.416 19.84 119.736 19.392C119.896 19.136 120.088 18.88 120.312 18.624C120.536 18.368 120.776 18.144 121.032 17.952C121.608 17.408 122.216 16.976 122.856 16.656C123.496 16.336 124.184 16.08 124.92 15.888C125.112 15.824 125.304 15.792 125.496 15.792C125.72 15.792 125.928 15.792 126.12 15.792C126.28 15.76 126.408 15.744 126.504 15.744C126.632 15.744 126.776 15.712 126.936 15.648C127.128 15.584 127.304 15.552 127.464 15.552C127.656 15.52 127.8 15.584 127.896 15.744C128.184 16 128.216 16.368 127.992 16.848C127.576 17.776 127.16 18.704 126.744 19.632C126.36 20.56 125.944 21.44 125.496 22.272L126.696 21.888ZM111.096 34.416C112.248 34.096 113.416 33.6 114.6 32.928C115.752 32.224 116.856 31.424 117.912 30.528C118.968 29.632 119.928 28.672 120.792 27.648C121.656 26.624 122.36 25.6 122.904 24.576C122.04 24.832 121.032 25.232 119.88 25.776C118.728 26.288 117.576 26.88 116.424 27.552C115.272 28.224 114.184 28.912 113.16 29.616C112.104 30.32 111.24 30.96 110.568 31.536C109.992 31.952 109.528 32.384 109.176 32.832C108.792 33.248 108.6 33.616 108.6 33.936C108.568 34.256 108.744 34.48 109.128 34.608C109.512 34.704 110.168 34.64 111.096 34.416ZM121.656 19.248C121.432 19.664 121.448 19.872 121.704 19.872C121.992 19.84 122.376 19.696 122.856 19.44C123.336 19.184 123.864 18.848 124.44 18.432C125.048 17.984 125.576 17.536 126.024 17.088C125.704 17.088 125.336 17.152 124.92 17.28C124.504 17.376 124.088 17.52 123.672 17.712C123.288 17.904 122.904 18.144 122.52 18.432C122.168 18.688 121.88 18.96 121.656 19.248ZM149.116 27.888C149.436 27.728 149.692 27.616 149.884 27.552C150.108 27.488 150.284 27.376 150.412 27.216C151.052 26.736 151.692 26.24 152.332 25.728C152.972 25.216 153.596 24.688 154.204 24.144C154.908 23.504 155.66 22.848 156.46 22.176C157.26 21.472 157.996 20.784 158.668 20.112C159.02 19.792 159.324 19.584 159.58 19.488C159.868 19.36 160.06 19.344 160.156 19.44C160.284 19.536 160.284 19.712 160.156 19.968C160.06 20.224 159.82 20.544 159.436 20.928C158.124 22.272 156.796 23.584 155.452 24.864C154.14 26.112 152.716 27.264 151.18 28.32C150.956 28.48 150.716 28.624 150.46 28.752C150.236 28.88 149.996 28.976 149.74 29.04C149.196 29.232 148.716 29.184 148.3 28.896C147.916 28.608 147.772 28.176 147.868 27.6C147.932 27.216 148.012 26.848 148.108 26.496C148.204 26.112 148.332 25.744 148.492 25.392C148.94 24.432 149.404 23.456 149.884 22.464C150.364 21.472 150.844 20.496 151.324 19.536C151.388 19.408 151.436 19.296 151.468 19.2C151.5 19.104 151.516 18.976 151.516 18.816C151.356 18.944 151.212 19.056 151.084 19.152C150.988 19.248 150.876 19.344 150.748 19.44C149.692 20.304 148.652 21.104 147.628 21.84C147.468 21.904 147.292 21.984 147.1 22.08C146.908 22.144 146.716 22.192 146.524 22.224C146.108 22.288 145.772 22.208 145.516 21.984C145.26 21.76 145.148 21.456 145.18 21.072C145.212 20.848 145.276 20.624 145.372 20.4C145.468 20.176 145.564 19.952 145.66 19.728C146.108 19.152 146.62 18.672 147.196 18.288C147.804 17.872 148.46 17.536 149.164 17.28C149.676 17.056 150.156 16.944 150.604 16.944C150.988 16.88 151.324 16.768 151.612 16.608C151.932 16.416 152.22 16.192 152.476 15.936C153.468 14.816 154.364 13.664 155.164 12.48C155.996 11.264 156.828 10.032 157.66 8.78403C157.724 8.68803 157.788 8.57603 157.852 8.44803C157.916 8.32003 157.996 8.20803 158.092 8.11203C158.572 7.50403 158.988 7.29603 159.34 7.48803C159.756 7.71203 159.756 8.20803 159.34 8.97603C159.116 9.26403 158.892 9.56803 158.668 9.88803C158.476 10.208 158.3 10.512 158.14 10.8C156.7 13.008 155.324 15.216 154.012 17.424C152.732 19.6 151.532 21.84 150.412 24.144C150.124 24.688 149.868 25.248 149.644 25.824C149.42 26.4 149.244 27.088 149.116 27.888ZM146.764 20.688C148.044 20.176 148.924 19.504 149.404 18.672C148.86 18.832 148.348 19.088 147.868 19.44C147.388 19.76 147.02 20.176 146.764 20.688ZM172.694 20.064C172.342 20.416 171.798 20.784 171.062 21.168C170.358 21.552 169.638 21.824 168.902 21.984C168.198 22.144 167.574 22.128 167.03 21.936C166.486 21.744 166.214 21.232 166.214 20.4C166.214 20.144 166.23 19.888 166.262 19.632C166.294 19.344 166.342 19.04 166.406 18.72C165.574 19.232 164.758 19.744 163.958 20.256C163.19 20.736 162.39 21.2 161.558 21.648C161.366 21.808 161.142 21.904 160.886 21.936C160.662 21.968 160.438 22 160.214 22.032C159.51 22.128 159.014 21.92 158.726 21.408C158.438 20.896 158.486 20.368 158.87 19.824C159.03 19.632 159.174 19.456 159.302 19.296C159.43 19.136 159.59 18.976 159.782 18.816C160.614 18.08 161.526 17.536 162.518 17.184C163.51 16.832 164.582 16.704 165.734 16.8C166.15 16.864 166.486 16.736 166.742 16.416C166.966 16.192 167.174 15.968 167.366 15.744C167.59 15.52 167.814 15.296 168.038 15.072C168.102 14.976 168.182 14.88 168.278 14.784C168.374 14.688 168.47 14.624 168.566 14.592C168.662 14.56 168.774 14.544 168.902 14.544C169.062 14.544 169.19 14.576 169.286 14.64C169.446 14.864 169.51 15.104 169.478 15.36C169.446 15.616 169.318 15.936 169.094 16.32C168.998 16.512 168.806 16.912 168.518 17.52C168.23 18.096 168.006 18.672 167.846 19.248C167.718 19.824 167.718 20.304 167.846 20.688C167.974 21.04 168.406 21.104 169.142 20.88C169.526 20.784 169.942 20.624 170.39 20.4C170.838 20.144 171.286 19.904 171.734 19.68C171.862 19.616 171.99 19.552 172.118 19.488C172.246 19.392 172.39 19.36 172.55 19.392C172.71 19.456 172.822 19.568 172.886 19.728C172.982 19.856 172.918 19.968 172.694 20.064ZM160.07 20.64C160.998 20.48 161.974 20.128 162.998 19.584C164.022 19.008 164.854 18.4 165.494 17.76C164.534 17.824 163.526 18.112 162.47 18.624C161.414 19.136 160.614 19.808 160.07 20.64ZM178.582 21.984C178.806 21.888 178.982 21.808 179.11 21.744C179.238 21.68 179.366 21.6 179.494 21.504C180.102 21.184 180.694 20.864 181.27 20.544C181.846 20.224 182.438 19.904 183.046 19.584C183.366 19.392 183.702 19.296 184.054 19.296C184.182 19.296 184.31 19.344 184.438 19.44C184.566 19.536 184.662 19.616 184.726 19.68C184.886 19.968 184.758 20.24 184.342 20.496C184.022 20.688 183.686 20.864 183.334 21.024C182.982 21.184 182.63 21.376 182.278 21.6C181.446 22.144 180.614 22.688 179.782 23.232C178.95 23.744 178.118 24.272 177.286 24.816C176.774 25.168 176.358 25.584 176.038 26.064C175.718 26.544 175.382 27.024 175.03 27.504C174.038 29.04 173.014 30.512 171.958 31.92C170.87 33.328 169.686 34.688 168.406 36C167.862 36.512 167.302 36.96 166.726 37.344C166.534 37.504 166.342 37.632 166.15 37.728C165.926 37.856 165.686 37.952 165.43 38.016C165.078 38.08 164.774 38.016 164.518 37.824C164.262 37.632 164.166 37.328 164.23 36.912C164.23 36.528 164.342 36.144 164.566 35.76C165.014 34.832 165.558 33.984 166.198 33.216C166.806 32.448 167.478 31.712 168.214 31.008C169.302 29.984 170.39 28.976 171.478 27.984C172.566 26.96 173.67 25.936 174.79 24.912C174.95 24.72 175.11 24.528 175.27 24.336C175.462 24.112 175.638 23.888 175.798 23.664C176.342 22.832 176.87 21.984 177.382 21.12C177.894 20.224 178.422 19.328 178.966 18.432C178.71 18.432 178.502 18.496 178.342 18.624C178.214 18.72 178.086 18.816 177.958 18.912C177.382 19.328 176.79 19.744 176.182 20.16C175.606 20.544 174.966 20.864 174.262 21.12C174.038 21.28 173.83 21.36 173.638 21.36C172.998 21.456 172.502 21.344 172.15 21.024C171.798 20.672 171.702 20.176 171.862 19.536C171.958 19.216 172.07 18.912 172.198 18.624C172.326 18.336 172.47 18.048 172.63 17.76C172.886 17.312 173.142 16.88 173.398 16.464C173.686 16.048 173.974 15.632 174.262 15.216C174.422 15.024 174.598 14.896 174.79 14.832C174.982 14.736 175.206 14.816 175.462 15.072C175.398 15.2 175.334 15.344 175.27 15.504C175.238 15.632 175.158 15.76 175.03 15.888C174.774 16.432 174.502 16.944 174.214 17.424C173.926 17.904 173.638 18.4 173.35 18.912C173.286 19.072 173.222 19.248 173.158 19.44C173.126 19.632 173.046 19.856 172.918 20.112C173.174 20.048 173.382 20.016 173.542 20.016C173.734 20.016 173.91 19.984 174.07 19.92C174.518 19.664 174.95 19.408 175.366 19.152C175.782 18.896 176.198 18.624 176.614 18.336C177.158 17.92 177.67 17.504 178.15 17.088C178.63 16.672 179.142 16.24 179.686 15.792C179.878 15.6 180.086 15.456 180.31 15.36C180.534 15.232 180.806 15.248 181.126 15.408C181.574 15.664 181.59 16.192 181.174 16.992C180.822 17.696 180.454 18.4 180.07 19.104C179.686 19.808 179.318 20.528 178.966 21.264C178.902 21.328 178.838 21.408 178.774 21.504C178.742 21.6 178.678 21.76 178.582 21.984ZM171.718 29.664C171.174 30.112 170.614 30.624 170.038 31.2C169.43 31.776 168.87 32.352 168.358 32.928C167.846 33.504 167.398 34.048 167.014 34.56C166.63 35.072 166.374 35.488 166.246 35.808C166.566 35.616 166.998 35.28 167.542 34.8C168.054 34.32 168.582 33.776 169.126 33.168C169.638 32.56 170.134 31.952 170.614 31.344C171.094 30.704 171.462 30.144 171.718 29.664Z" fill="#C21F2D"/>
</svg>
