<svg width="142" height="40" viewBox="0 0 142 40" fill="none" xmlns="http://www.w3.org/2000/svg">
<path d="M38.064 7.63203C37.232 7.98403 36.4 8.35203 35.568 8.73603C34.736 9.08803 33.888 9.40802 33.024 9.69602C31.2 10.368 29.344 11.024 27.456 11.664C25.6 12.272 23.744 12.864 21.888 13.44C20.192 13.984 18.512 14.512 16.848 15.024C15.184 15.536 13.488 16.032 11.76 16.512C10.32 16.832 8.89601 17.152 7.48801 17.472C6.08001 17.792 4.65601 18.112 3.21601 18.432C2.89601 18.528 2.57601 18.592 2.25601 18.624C1.96801 18.624 1.64801 18.624 1.29601 18.624C1.04001 18.688 0.800008 18.656 0.576008 18.528C0.352008 18.4 0.160008 18.128 8.04663e-06 17.712C0.160008 17.648 0.304008 17.568 0.432008 17.472C0.528008 17.344 0.656008 17.28 0.816008 17.28C4.08001 16.832 7.28001 16.16 10.416 15.264C13.552 14.336 16.688 13.36 19.824 12.336C22.032 11.696 24.224 11.008 26.4 10.272C28.608 9.53603 30.816 8.78403 33.024 8.01603C33.856 7.69603 34.704 7.34403 35.568 6.96003C36.432 6.57603 37.28 6.19203 38.112 5.80803C38.272 5.71203 38.448 5.64803 38.64 5.61603C38.832 5.55203 39.024 5.50403 39.216 5.47202C39.664 5.40803 39.968 5.53603 40.128 5.85603C40.32 6.14403 40.32 6.52803 40.128 7.00803C40.064 7.36003 39.968 7.68003 39.84 7.96803C39.712 8.22403 39.584 8.51202 39.456 8.83202C38.624 10.368 37.792 11.92 36.96 13.488C36.128 15.024 35.296 16.576 34.464 18.144C33.472 20.16 32.48 22.192 31.488 24.24C30.496 26.256 29.52 28.272 28.56 30.288C28.144 31.152 27.76 32.032 27.408 32.928C27.056 33.824 26.672 34.704 26.256 35.568C26.192 35.792 26.144 36 26.112 36.192C26.08 36.352 26.032 36.512 25.968 36.672C26 36.736 26.032 36.768 26.064 36.768C26.128 36.768 26.16 36.8 26.16 36.864C26.32 36.736 26.496 36.608 26.688 36.48C26.88 36.32 27.056 36.16 27.216 36C28.144 34.976 29.056 33.968 29.952 32.976C30.88 31.952 31.76 30.928 32.592 29.904C34.48 27.536 36.336 25.168 38.16 22.8C39.984 20.432 41.824 18.048 43.68 15.648C44.608 14.496 45.536 13.36 46.464 12.24C47.424 11.088 48.368 9.93603 49.296 8.78403C49.68 8.36802 50.016 8.04803 50.304 7.82403C50.816 7.40803 51.232 7.31203 51.552 7.53603C51.904 7.76003 52.112 8.24003 52.176 8.97603C52.176 9.29603 52.144 9.61602 52.08 9.93602C52.048 10.256 52 10.576 51.936 10.896C51.68 12.656 51.408 14.384 51.12 16.08C50.832 17.776 50.528 19.488 50.208 21.216C49.76 23.968 49.376 26.704 49.056 29.424C48.928 29.744 48.944 30.064 49.104 30.384C49.2 30.192 49.312 29.984 49.44 29.76C49.568 29.536 49.696 29.312 49.824 29.088C50.88 27.168 51.92 25.264 52.944 23.376C54 21.488 55.072 19.6 56.16 17.712C57.504 15.408 58.88 13.2 60.288 11.088C61.728 8.94403 63.28 6.88003 64.944 4.89603C65.456 4.28803 65.968 3.69603 66.48 3.12003C66.992 2.51203 67.52 1.93603 68.064 1.39203C68.352 1.00803 68.736 0.768025 69.216 0.672027C69.312 0.672027 69.424 0.688026 69.552 0.720026C69.68 0.752026 69.776 0.816026 69.84 0.912026C69.904 1.23203 69.904 1.52003 69.84 1.77603C69.712 1.93603 69.584 2.11203 69.456 2.30403C69.36 2.46403 69.232 2.64003 69.072 2.83202C68.464 3.47203 67.84 4.12803 67.2 4.80002C66.592 5.44003 66 6.12803 65.424 6.86403C63.888 8.72003 62.432 10.688 61.056 12.768C59.712 14.848 58.416 16.992 57.168 19.2C55.984 21.216 54.816 23.28 53.664 25.392C52.512 27.472 51.344 29.568 50.16 31.68C49.968 32.032 49.76 32.4 49.536 32.784C49.312 33.136 49.072 33.488 48.816 33.84C48.464 34.416 48.048 34.608 47.568 34.416C47.312 34.256 47.152 34.032 47.088 33.744C47.024 33.456 47.008 33.168 47.04 32.88C47.136 32.112 47.232 31.36 47.328 30.624C47.424 29.888 47.536 29.12 47.664 28.32C48.144 25.408 48.608 22.528 49.056 19.68C49.536 16.8 50 13.92 50.448 11.04C50.48 10.88 50.496 10.72 50.496 10.56C50.496 10.4 50.512 10.176 50.544 9.88803C50.32 10.08 50.128 10.256 49.968 10.416C49.808 10.576 49.664 10.736 49.536 10.896C48.64 12.016 47.728 13.152 46.8 14.304C45.904 15.456 44.992 16.608 44.064 17.76C41.856 20.64 39.648 23.504 37.44 26.352C35.264 29.2 33.008 31.952 30.672 34.608C29.584 35.888 28.464 37.056 27.312 38.112C27.088 38.336 26.848 38.512 26.592 38.64C26.336 38.768 26.064 38.912 25.776 39.072C25.328 39.2 24.944 39.104 24.624 38.784C24.336 38.496 24.224 38.064 24.288 37.488C24.32 37.168 24.368 36.848 24.432 36.528C24.528 36.208 24.624 35.888 24.72 35.568C25.232 34.416 25.728 33.248 26.208 32.064C26.688 30.848 27.2 29.648 27.744 28.464C29.28 25.168 30.864 21.936 32.496 18.768C34.128 15.568 35.792 12.368 37.488 9.16803C37.648 8.97603 37.776 8.76803 37.872 8.54403C37.968 8.32003 38.08 8.08003 38.208 7.82403C38.144 7.76003 38.096 7.69603 38.064 7.63203ZM67.824 21.264C67.12 21.648 66.4 22.016 65.664 22.368C64.96 22.72 64.208 22.992 63.408 23.184C63.152 23.216 62.896 23.248 62.64 23.28C62.384 23.28 62.128 23.248 61.872 23.184C61.424 23.12 61.104 22.912 60.912 22.56C60.688 22.208 60.608 21.824 60.672 21.408C60.672 21.152 60.704 20.88 60.768 20.592C60.8 20.304 60.896 20.048 61.056 19.824C61.408 19.248 61.728 18.608 62.016 17.904C62.336 17.2 62.704 16.576 63.12 16.032C63.28 15.84 63.472 15.744 63.696 15.744C63.92 15.712 64.112 15.776 64.272 15.936C64.464 16.064 64.576 16.272 64.608 16.56C64.64 16.816 64.528 17.104 64.272 17.424C63.952 17.936 63.632 18.432 63.312 18.912C62.992 19.392 62.672 19.904 62.352 20.448C62.032 21.12 61.888 21.616 61.92 21.936C61.984 22.224 62.144 22.4 62.4 22.464C62.688 22.528 63.04 22.496 63.456 22.368C63.872 22.24 64.288 22.064 64.704 21.84C65.152 21.616 65.568 21.392 65.952 21.168C66.336 20.912 66.608 20.688 66.768 20.496C67.088 20.144 67.376 19.968 67.632 19.968C67.888 19.936 68.064 20 68.16 20.16C68.288 20.288 68.336 20.48 68.304 20.736C68.272 20.96 68.112 21.136 67.824 21.264ZM66.672 12.192C66.928 12.192 67.12 12.272 67.248 12.432C67.408 12.592 67.456 12.784 67.392 13.008C67.328 13.264 67.152 13.536 66.864 13.824C66.576 14.112 66.272 14.352 65.952 14.544C65.504 14.8 65.184 14.896 64.992 14.832C64.832 14.768 64.816 14.432 64.944 13.824C65.008 13.44 65.168 13.072 65.424 12.72C65.712 12.368 66.128 12.192 66.672 12.192ZM67.5259 9.64803C66.7899 9.74403 66.3419 9.68003 66.1819 9.45603C65.9899 9.23203 65.9259 9.07203 65.9899 8.97603C66.0859 8.81603 66.2619 8.67203 66.5179 8.54403C66.7419 8.38403 67.1899 8.33603 67.8619 8.40003C68.9179 8.49603 70.0059 8.54403 71.1259 8.54403C72.2779 8.54403 73.4139 8.46403 74.5339 8.30403C74.6299 8.24003 74.7099 8.16003 74.7739 8.06403C75.2219 7.45603 75.5579 6.97603 75.7819 6.62403C76.0059 6.27203 76.2139 5.95203 76.4059 5.66403C76.5979 5.37603 76.8059 5.07203 77.0299 4.75203C77.2859 4.40003 77.6379 3.92003 78.0859 3.31203C78.1819 3.12003 78.3259 2.96002 78.5179 2.83202C78.7419 2.67202 78.9499 2.67202 79.1419 2.83202C79.2059 2.89603 79.2539 3.00803 79.2859 3.16803C79.3179 3.32803 79.3339 3.47203 79.3339 3.60003C79.3019 3.72803 79.2379 3.85603 79.1419 3.98403C79.0459 4.11203 78.9659 4.22402 78.9019 4.32003C78.5499 4.80002 78.2939 5.15203 78.1339 5.37603C78.0059 5.60003 77.8779 5.82403 77.7499 6.04803C77.6219 6.27203 77.4619 6.54403 77.2699 6.86403C77.0779 7.18403 76.7419 7.68003 76.2619 8.35203C76.9339 8.48003 77.7979 8.57603 78.8539 8.64003C79.9419 8.67203 81.1099 8.68803 82.3579 8.68803C83.6059 8.65603 84.8859 8.60803 86.1979 8.54403C87.5419 8.44803 88.8219 8.33603 90.0379 8.20803C90.8059 8.14403 91.5259 8.08003 92.1979 8.01603C92.8699 7.95203 93.4299 7.93603 93.8779 7.96803C94.6779 8.03203 95.0459 8.19203 94.9819 8.44803C94.9179 8.70403 94.5499 8.91203 93.8779 9.07203C93.3019 9.16803 92.5019 9.24803 91.4779 9.31203C90.4859 9.37603 89.3979 9.44003 88.2139 9.50403C87.0299 9.53603 85.7819 9.56803 84.4699 9.60003C83.1899 9.60003 81.9579 9.60003 80.7739 9.60003C79.6219 9.56803 78.5659 9.55203 77.6059 9.55203C76.6779 9.55203 75.9579 9.53603 75.4459 9.50403C74.9019 10.208 74.3259 10.976 73.7179 11.808C73.1419 12.64 72.5659 13.488 71.9899 14.352C71.4459 15.216 70.9339 16.064 70.4539 16.896C69.9739 17.696 69.5579 18.432 69.2059 19.104C68.9179 19.68 68.6299 20.32 68.3419 21.024C68.0539 21.696 67.8619 22.304 67.7659 22.848C67.7019 23.36 67.7979 23.744 68.0539 24C68.3099 24.224 68.8219 24.176 69.5899 23.856C69.9419 23.728 70.3419 23.536 70.7899 23.28C71.2379 23.024 71.7019 22.752 72.1819 22.464C72.6619 22.144 73.1259 21.824 73.5739 21.504C74.0219 21.152 74.4379 20.816 74.8219 20.496C74.9819 20.4 75.1099 20.304 75.2059 20.208C75.3019 20.08 75.4299 19.984 75.5899 19.92C75.7819 19.792 75.9419 19.712 76.0699 19.68C76.2299 19.616 76.3899 19.68 76.5499 19.872C76.6779 20.064 76.6939 20.256 76.5979 20.448C76.5339 20.608 76.4219 20.768 76.2619 20.928C76.0699 21.12 75.7339 21.392 75.2539 21.744C74.7739 22.096 74.2139 22.464 73.5739 22.848C72.9659 23.232 72.3099 23.616 71.6059 24C70.9339 24.352 70.2939 24.64 69.6859 24.864C68.5979 25.248 67.8459 25.296 67.4299 25.008C66.9819 24.688 66.7419 24.224 66.7099 23.616C66.6459 23.008 66.7259 22.336 66.9499 21.6C67.1739 20.864 67.3979 20.224 67.6219 19.68C68.0059 18.784 68.4539 17.888 68.9659 16.992C69.4779 16.096 70.0059 15.216 70.5499 14.352C71.1259 13.488 71.6859 12.656 72.2299 11.856C72.8059 11.024 73.3179 10.256 73.7659 9.55203C72.7099 9.58403 71.6219 9.61603 70.5019 9.64803C69.4139 9.64803 68.4219 9.64803 67.5259 9.64803ZM83.4514 18.192C83.1954 18.32 82.9874 18.416 82.8274 18.48C82.6994 18.544 82.5554 18.624 82.3954 18.72C81.6914 19.136 81.0354 19.632 80.4274 20.208C79.8194 20.784 79.2114 21.36 78.6034 21.936C77.9634 22.544 77.3394 23.136 76.7314 23.712C76.1234 24.288 75.5154 24.88 74.9074 25.488C74.7794 25.584 74.6674 25.696 74.5714 25.824C74.4434 25.92 74.2994 25.984 74.1394 26.016C73.9794 26.08 73.8194 26.112 73.6594 26.112C73.4674 26.08 73.3394 26.016 73.2754 25.92C73.1794 25.856 73.1154 25.744 73.0834 25.584C73.0194 25.392 73.0194 25.232 73.0834 25.104C73.1154 24.848 73.1794 24.624 73.2754 24.432C73.3394 24.24 73.4354 24.032 73.5634 23.808C74.7474 21.6 75.9634 19.424 77.2114 17.28C78.4914 15.136 79.8514 13.024 81.2914 10.944C81.7714 10.24 82.3314 9.40803 82.9714 8.44803C83.6114 7.45603 84.2674 6.46403 84.9394 5.47202C85.6434 4.48003 86.3314 3.53603 87.0034 2.64003C87.6754 1.71203 88.2994 0.944025 88.8754 0.336025C89.0674 0.112026 89.2594 0.0160265 89.4514 0.0480261C89.6754 0.0480261 89.8514 0.112026 89.9794 0.240026C90.1074 0.368027 90.1874 0.544026 90.2194 0.768025C90.2514 0.960025 90.1714 1.12002 89.9794 1.24802C89.0194 2.43202 88.0114 3.76003 86.9554 5.23203C85.8994 6.67203 84.8434 8.16003 83.7874 9.69602C82.7634 11.2 81.7714 12.704 80.8114 14.208C79.8514 15.712 78.9714 17.104 78.1714 18.384C77.7554 19.056 77.3394 19.728 76.9234 20.4C76.5394 21.072 76.1554 21.776 75.7714 22.512C75.9954 22.512 76.1554 22.464 76.2514 22.368C76.3474 22.272 76.4434 22.16 76.5394 22.032C77.0194 21.584 77.4834 21.152 77.9314 20.736C78.4114 20.288 78.8754 19.856 79.3234 19.44C80.1234 18.736 80.9874 18.064 81.9154 17.424C82.0114 17.328 82.1394 17.264 82.2994 17.232C82.4594 17.168 82.6194 17.104 82.7794 17.04C83.5154 16.784 84.0594 16.816 84.4114 17.136C84.7634 17.424 84.9074 17.968 84.8434 18.768C84.8114 19.024 84.7634 19.28 84.6994 19.536C84.6674 19.76 84.6194 20 84.5554 20.256C84.4914 20.512 84.4434 20.768 84.4114 21.024C84.3794 21.28 84.3314 21.584 84.2674 21.936C84.5234 21.808 84.7634 21.712 84.9874 21.648C85.2114 21.584 85.4194 21.52 85.6114 21.456C86.0594 21.2 86.5074 20.944 86.9554 20.688C87.4354 20.432 87.8994 20.192 88.3474 19.968C88.8274 19.776 89.1954 19.696 89.4514 19.728C89.7074 19.76 89.8514 19.856 89.8834 20.016C89.9474 20.176 89.8994 20.368 89.7394 20.592C89.5794 20.816 89.3394 21.008 89.0194 21.168C88.3794 21.52 87.7394 21.856 87.0994 22.176C86.4594 22.464 85.8194 22.784 85.1794 23.136C84.9874 23.232 84.7154 23.28 84.3634 23.28C83.4354 23.344 82.9714 22.912 82.9714 21.984C82.9714 21.632 83.0034 21.28 83.0674 20.928C83.1314 20.544 83.1954 20.16 83.2594 19.776C83.2914 19.552 83.3074 19.328 83.3074 19.104C83.3394 18.848 83.3874 18.544 83.4514 18.192ZM101.483 27.216C102.507 26.16 103.531 25.04 104.555 23.856C105.611 22.672 106.555 21.664 107.387 20.832C108.219 19.968 108.763 19.632 109.019 19.824C109.275 20.016 108.987 20.656 108.155 21.744C107.355 22.8 106.475 23.776 105.515 24.672C104.587 25.536 103.659 26.416 102.731 27.312C102.475 27.568 102.203 27.792 101.915 27.984C101.627 28.176 101.355 28.368 101.099 28.56C100.971 28.624 100.827 28.704 100.667 28.8C100.507 28.864 100.347 28.928 100.187 28.992C99.5785 29.152 99.0985 29.088 98.7465 28.8C98.3945 28.512 98.1865 28.064 98.1225 27.456C98.0585 26.944 98.1065 26.448 98.2665 25.968C98.5225 24.72 98.9065 23.536 99.4185 22.416C99.8985 21.296 100.427 20.176 101.003 19.056C101.195 18.608 101.419 18.208 101.675 17.856C101.835 17.568 101.963 17.296 102.059 17.04C102.155 16.752 102.075 16.48 101.819 16.224C101.915 16.032 101.995 15.904 102.059 15.84C102.667 15.584 103.131 15.2 103.451 14.688C103.803 14.176 104.155 13.68 104.507 13.2C105.435 11.888 106.363 10.592 107.291 9.31203C108.219 8.00003 109.243 6.78403 110.363 5.66403C110.747 5.28003 111.163 4.91203 111.611 4.56003C111.771 4.33603 112.059 4.14403 112.475 3.98403C112.699 3.88803 112.923 3.82403 113.147 3.79203C113.371 3.76003 113.595 3.82403 113.819 3.98403C114.043 4.17603 114.155 4.40003 114.155 4.65603C114.187 4.88003 114.139 5.10403 114.011 5.32803C113.851 5.68003 113.675 6.03203 113.483 6.38402C113.323 6.70403 113.131 7.02403 112.907 7.34403C111.883 8.68803 110.779 9.95203 109.595 11.136C108.411 12.288 107.179 13.424 105.899 14.544C105.515 14.896 105.147 15.264 104.795 15.648C104.443 16.032 104.107 16.448 103.787 16.896C103.147 18.048 102.523 19.2 101.915 20.352C101.307 21.472 100.763 22.64 100.283 23.856C100.155 24.272 100.043 24.688 99.9465 25.104C99.8185 25.52 99.7065 25.936 99.6105 26.352C99.4505 26.896 99.4345 27.28 99.5625 27.504C99.6585 27.728 99.8185 27.84 100.043 27.84C100.267 27.84 100.507 27.776 100.763 27.648C101.051 27.52 101.291 27.376 101.483 27.216ZM111.659 6.43203C111.371 6.72003 110.907 7.20003 110.267 7.87203C109.659 8.51202 109.035 9.21603 108.395 9.98403C107.755 10.752 107.179 11.488 106.667 12.192C106.155 12.896 105.867 13.424 105.803 13.776C106.059 13.52 106.459 13.104 107.003 12.528C107.579 11.952 108.171 11.328 108.779 10.656C109.419 9.98403 110.027 9.31203 110.603 8.64003C111.211 7.96803 111.691 7.40803 112.043 6.96003C112.395 6.48003 112.555 6.17603 112.523 6.04803C112.523 5.88803 112.235 6.01603 111.659 6.43203ZM114.113 20.112C114.497 20.048 114.865 20 115.217 19.968C115.569 19.904 115.921 19.84 116.273 19.776C116.529 19.712 116.849 19.664 117.233 19.632C117.617 19.6 117.953 19.552 118.241 19.488C118.401 19.488 118.513 19.488 118.577 19.488C118.673 19.488 118.801 19.52 118.961 19.584C119.057 19.648 119.137 19.744 119.201 19.872C119.297 19.968 119.329 20.08 119.297 20.208C119.297 20.272 119.233 20.352 119.105 20.448C118.977 20.544 118.881 20.592 118.817 20.592C118.497 20.656 118.193 20.72 117.905 20.784C117.649 20.816 117.361 20.848 117.041 20.88C116.433 21.008 115.825 21.12 115.217 21.216C114.641 21.28 114.065 21.376 113.489 21.504C113.137 21.568 112.849 21.728 112.625 21.984C111.953 22.624 111.393 23.152 110.945 23.568C110.529 23.984 110.017 24.288 109.409 24.48C108.961 24.608 108.545 24.64 108.161 24.576C107.777 24.48 107.489 24.256 107.297 23.904C107.105 23.552 107.073 23.072 107.201 22.464C107.329 21.824 107.681 21.04 108.257 20.112C108.673 19.472 109.153 18.896 109.697 18.384C110.273 17.84 110.881 17.312 111.521 16.8C111.777 16.608 112.049 16.448 112.337 16.32C112.625 16.16 112.961 16.064 113.345 16.032C113.889 15.968 114.305 16.064 114.593 16.32C114.881 16.544 115.009 16.928 114.977 17.472C114.977 17.728 114.929 18 114.833 18.288C114.737 18.544 114.657 18.816 114.593 19.104C114.529 19.264 114.449 19.424 114.353 19.584C114.289 19.712 114.209 19.888 114.113 20.112ZM109.505 20.352C108.961 21.024 108.689 21.6 108.689 22.08C108.689 22.528 108.833 22.832 109.121 22.992C109.441 23.12 109.809 23.088 110.225 22.896C110.673 22.672 111.057 22.224 111.377 21.552C110.865 21.552 110.449 21.472 110.129 21.312C109.809 21.12 109.601 20.8 109.505 20.352ZM113.585 17.184C112.465 17.536 111.633 18.192 111.089 19.152C111.025 19.28 110.993 19.408 110.993 19.536C110.993 19.664 111.073 19.792 111.233 19.92C111.425 20.112 111.681 20.192 112.001 20.16C112.353 20.128 112.593 19.984 112.721 19.728C112.913 19.472 113.073 19.184 113.201 18.864C113.361 18.544 113.489 18.24 113.585 17.952C113.649 17.888 113.665 17.792 113.633 17.664C113.601 17.536 113.585 17.376 113.585 17.184ZM129.041 16.512C128.817 16.704 128.593 16.976 128.369 17.328C128.177 17.68 128.049 18.032 127.985 18.384C127.953 18.704 128.017 18.992 128.177 19.248C128.337 19.504 128.657 19.632 129.137 19.632H129.857C130.465 19.632 130.817 19.808 130.913 20.16C131.041 20.48 130.833 20.688 130.289 20.784C129.809 20.912 129.265 20.976 128.657 20.976C128.209 20.976 127.857 20.896 127.601 20.736C127.345 20.544 127.153 20.32 127.025 20.064C126.897 19.776 126.817 19.472 126.785 19.152C126.785 18.8 126.801 18.448 126.833 18.096C126.001 18.928 125.105 19.744 124.145 20.544C123.217 21.312 122.321 22.064 121.457 22.8C121.169 23.056 120.865 23.296 120.545 23.52C120.225 23.712 119.889 23.888 119.537 24.048C118.929 24.304 118.433 24.288 118.049 24C117.665 23.712 117.537 23.248 117.665 22.608C117.729 22.16 117.825 21.728 117.953 21.312C118.049 20.864 118.177 20.416 118.337 19.968C118.561 19.328 118.801 18.704 119.057 18.096C119.313 17.488 119.585 16.864 119.873 16.224C119.937 16.096 119.985 15.968 120.017 15.84C120.081 15.712 120.177 15.616 120.305 15.552C120.465 15.392 120.609 15.328 120.737 15.36C120.865 15.392 120.945 15.52 120.977 15.744C121.009 15.904 121.009 16.08 120.977 16.272C120.945 16.432 120.913 16.592 120.881 16.752L119.345 20.88C119.249 21.168 119.153 21.472 119.057 21.792C118.993 22.08 118.929 22.384 118.865 22.704C118.897 22.736 118.929 22.768 118.961 22.8C118.993 22.832 119.041 22.88 119.105 22.944C119.297 22.816 119.489 22.704 119.681 22.608C119.873 22.512 120.049 22.384 120.209 22.224C120.849 21.68 121.473 21.136 122.081 20.592C122.689 20.048 123.313 19.504 123.953 18.96C124.177 18.768 124.497 18.464 124.913 18.048C125.329 17.632 125.761 17.184 126.209 16.704C126.689 16.224 127.153 15.76 127.601 15.312C128.081 14.832 128.497 14.432 128.849 14.112C129.073 13.888 129.313 13.808 129.569 13.872C129.825 13.904 130.017 14.032 130.145 14.256C130.305 14.448 130.385 14.688 130.385 14.976C130.385 15.264 130.241 15.52 129.953 15.744L129.041 16.512ZM140.032 20.112C140.192 20.048 140.336 20 140.464 19.968C140.592 19.904 140.736 19.84 140.896 19.776C141.28 19.712 141.552 19.824 141.712 20.112C141.872 20.496 141.776 20.768 141.424 20.928C140.24 21.536 139.008 22 137.728 22.32C136.448 22.64 135.168 22.832 133.888 22.896C133.44 22.928 132.96 22.928 132.448 22.896C131.968 22.864 131.52 22.752 131.104 22.56C130.72 22.368 130.432 22.096 130.24 21.744C130.048 21.36 130.032 20.848 130.192 20.208C130.416 19.568 130.624 19.12 130.816 18.864C131.008 18.608 131.376 18.336 131.92 18.048C132.496 17.792 133.088 17.616 133.696 17.52C134.336 17.392 134.944 17.328 135.52 17.328C136.064 17.392 136.384 17.664 136.48 18.144C136.576 18.656 136.4 19.04 135.952 19.296C135.632 19.488 135.296 19.664 134.944 19.824C134.592 19.952 134.224 20.08 133.84 20.208C133.552 20.272 133.248 20.32 132.928 20.352C132.608 20.384 132.288 20.4 131.968 20.4C131.488 20.4 131.216 20.512 131.152 20.736C131.12 20.928 131.216 21.136 131.44 21.36C131.76 21.68 132.32 21.856 133.12 21.888C133.92 21.888 134.768 21.824 135.664 21.696C136.592 21.536 137.456 21.312 138.256 21.024C139.088 20.736 139.68 20.432 140.032 20.112ZM135.184 18.72C135.408 18.432 135.408 18.288 135.184 18.288C134.992 18.256 134.688 18.304 134.272 18.432C133.888 18.56 133.44 18.752 132.928 19.008C132.416 19.264 131.968 19.52 131.584 19.776C132.064 19.84 132.688 19.776 133.456 19.584C134.224 19.36 134.8 19.072 135.184 18.72Z" fill="#C21F2D"/>
</svg>
